G04 #@! TF.GenerationSoftware,KiCad,Pcbnew,8.0.0*
G04 #@! TF.CreationDate,2024-07-21T16:15:31-03:00*
G04 #@! TF.ProjectId,STM32XP,53544d33-3258-4502-9e6b-696361645f70,00*
G04 #@! TF.SameCoordinates,Original*
G04 #@! TF.FileFunction,Soldermask,Top*
G04 #@! TF.FilePolarity,Negative*
%FSLAX46Y46*%
G04 Gerber Fmt 4.6, Leading zero omitted, Abs format (unit mm)*
G04 Created by KiCad (PCBNEW 8.0.0) date 2024-07-21 16:15:31*
%MOMM*%
%LPD*%
G01*
G04 APERTURE LIST*
G04 Aperture macros list*
%AMRoundRect*
0 Rectangle with rounded corners*
0 $1 Rounding radius*
0 $2 $3 $4 $5 $6 $7 $8 $9 X,Y pos of 4 corners*
0 Add a 4 corners polygon primitive as box body*
4,1,4,$2,$3,$4,$5,$6,$7,$8,$9,$2,$3,0*
0 Add four circle primitives for the rounded corners*
1,1,$1+$1,$2,$3*
1,1,$1+$1,$4,$5*
1,1,$1+$1,$6,$7*
1,1,$1+$1,$8,$9*
0 Add four rect primitives between the rounded corners*
20,1,$1+$1,$2,$3,$4,$5,0*
20,1,$1+$1,$4,$5,$6,$7,0*
20,1,$1+$1,$6,$7,$8,$9,0*
20,1,$1+$1,$8,$9,$2,$3,0*%
%AMFreePoly0*
4,1,19,0.500000,-0.750000,0.000000,-0.750000,0.000000,-0.744911,-0.071157,-0.744911,-0.207708,-0.704816,-0.327430,-0.627875,-0.420627,-0.520320,-0.479746,-0.390866,-0.500000,-0.250000,-0.500000,0.250000,-0.479746,0.390866,-0.420627,0.520320,-0.327430,0.627875,-0.207708,0.704816,-0.071157,0.744911,0.000000,0.744911,0.000000,0.750000,0.500000,0.750000,0.500000,-0.750000,0.500000,-0.750000,
$1*%
%AMFreePoly1*
4,1,19,0.000000,0.744911,0.071157,0.744911,0.207708,0.704816,0.327430,0.627875,0.420627,0.520320,0.479746,0.390866,0.500000,0.250000,0.500000,-0.250000,0.479746,-0.390866,0.420627,-0.520320,0.327430,-0.627875,0.207708,-0.704816,0.071157,-0.744911,0.000000,-0.744911,0.000000,-0.750000,-0.500000,-0.750000,-0.500000,0.750000,0.000000,0.750000,0.000000,0.744911,0.000000,0.744911,
$1*%
G04 Aperture macros list end*
%ADD10RoundRect,0.237500X0.237500X-0.250000X0.237500X0.250000X-0.237500X0.250000X-0.237500X-0.250000X0*%
%ADD11RoundRect,0.237500X-0.250000X-0.237500X0.250000X-0.237500X0.250000X0.237500X-0.250000X0.237500X0*%
%ADD12C,1.000000*%
%ADD13C,2.000000*%
%ADD14R,1.500000X0.900000*%
%ADD15RoundRect,0.237500X0.250000X0.237500X-0.250000X0.237500X-0.250000X-0.237500X0.250000X-0.237500X0*%
%ADD16RoundRect,0.250000X0.475000X-0.337500X0.475000X0.337500X-0.475000X0.337500X-0.475000X-0.337500X0*%
%ADD17RoundRect,0.237500X-0.237500X0.300000X-0.237500X-0.300000X0.237500X-0.300000X0.237500X0.300000X0*%
%ADD18R,2.000000X1.100000*%
%ADD19RoundRect,0.200000X1.200000X0.300000X-1.200000X0.300000X-1.200000X-0.300000X1.200000X-0.300000X0*%
%ADD20R,1.000000X2.800000*%
%ADD21RoundRect,0.150000X-0.512500X-0.150000X0.512500X-0.150000X0.512500X0.150000X-0.512500X0.150000X0*%
%ADD22RoundRect,0.150000X0.587500X0.150000X-0.587500X0.150000X-0.587500X-0.150000X0.587500X-0.150000X0*%
%ADD23RoundRect,0.237500X0.237500X-0.287500X0.237500X0.287500X-0.237500X0.287500X-0.237500X-0.287500X0*%
%ADD24RoundRect,0.250000X-0.337500X-0.475000X0.337500X-0.475000X0.337500X0.475000X-0.337500X0.475000X0*%
%ADD25RoundRect,0.237500X-0.300000X-0.237500X0.300000X-0.237500X0.300000X0.237500X-0.300000X0.237500X0*%
%ADD26C,0.650000*%
%ADD27R,1.240000X0.600000*%
%ADD28R,1.240000X0.300000*%
%ADD29O,2.100000X1.000000*%
%ADD30O,1.800000X1.000000*%
%ADD31R,0.250000X1.100000*%
%ADD32C,1.500000*%
%ADD33R,2.000000X4.600000*%
%ADD34O,2.000000X4.200000*%
%ADD35O,4.200000X2.000000*%
%ADD36RoundRect,0.250000X-0.475000X0.337500X-0.475000X-0.337500X0.475000X-0.337500X0.475000X0.337500X0*%
%ADD37RoundRect,0.375000X0.375000X-0.625000X0.375000X0.625000X-0.375000X0.625000X-0.375000X-0.625000X0*%
%ADD38RoundRect,0.500000X1.400000X-0.500000X1.400000X0.500000X-1.400000X0.500000X-1.400000X-0.500000X0*%
%ADD39RoundRect,0.250000X0.337500X0.475000X-0.337500X0.475000X-0.337500X-0.475000X0.337500X-0.475000X0*%
%ADD40RoundRect,0.075000X-0.700000X-0.075000X0.700000X-0.075000X0.700000X0.075000X-0.700000X0.075000X0*%
%ADD41RoundRect,0.075000X-0.075000X-0.700000X0.075000X-0.700000X0.075000X0.700000X-0.075000X0.700000X0*%
%ADD42R,1.500000X1.950000*%
%ADD43C,3.200000*%
%ADD44R,1.700000X1.700000*%
%ADD45O,1.700000X1.700000*%
%ADD46RoundRect,0.237500X0.237500X-0.300000X0.237500X0.300000X-0.237500X0.300000X-0.237500X-0.300000X0*%
%ADD47RoundRect,0.237500X0.300000X0.237500X-0.300000X0.237500X-0.300000X-0.237500X0.300000X-0.237500X0*%
%ADD48RoundRect,0.237500X-0.237500X0.250000X-0.237500X-0.250000X0.237500X-0.250000X0.237500X0.250000X0*%
%ADD49RoundRect,0.237500X-0.237500X0.287500X-0.237500X-0.287500X0.237500X-0.287500X0.237500X0.287500X0*%
%ADD50FreePoly0,0.000000*%
%ADD51FreePoly1,0.000000*%
%ADD52RoundRect,0.225000X-0.375000X0.225000X-0.375000X-0.225000X0.375000X-0.225000X0.375000X0.225000X0*%
%ADD53R,2.800000X1.000000*%
%ADD54RoundRect,0.237500X-0.287500X-0.237500X0.287500X-0.237500X0.287500X0.237500X-0.287500X0.237500X0*%
%ADD55RoundRect,0.237500X0.287500X0.237500X-0.287500X0.237500X-0.287500X-0.237500X0.287500X-0.237500X0*%
%ADD56RoundRect,0.150000X-0.150000X0.512500X-0.150000X-0.512500X0.150000X-0.512500X0.150000X0.512500X0*%
%ADD57R,1.900000X0.700000*%
%ADD58R,1.800000X1.700000*%
%ADD59R,2.600000X1.400000*%
%ADD60RoundRect,0.150000X0.150000X-0.587500X0.150000X0.587500X-0.150000X0.587500X-0.150000X-0.587500X0*%
%ADD61C,1.700000*%
%ADD62FreePoly0,180.000000*%
%ADD63FreePoly1,180.000000*%
%ADD64R,1.200000X0.600000*%
%ADD65RoundRect,0.100000X-0.100000X0.637500X-0.100000X-0.637500X0.100000X-0.637500X0.100000X0.637500X0*%
%ADD66R,1.750000X1.800000*%
G04 APERTURE END LIST*
D10*
G04 #@! TO.C,R37*
X177662500Y-107770500D03*
X177662500Y-105945500D03*
G04 #@! TD*
D11*
G04 #@! TO.C,R23*
X189473500Y-91110000D03*
X191298500Y-91110000D03*
G04 #@! TD*
D10*
G04 #@! TO.C,R28*
X190640000Y-99642500D03*
X190640000Y-97817500D03*
G04 #@! TD*
D12*
G04 #@! TO.C,TP16*
X162700000Y-92888000D03*
G04 #@! TD*
G04 #@! TO.C,TP21*
X152540000Y-115240000D03*
G04 #@! TD*
G04 #@! TO.C,TP18*
X148984000Y-98349000D03*
G04 #@! TD*
G04 #@! TO.C,TP19*
X151016000Y-100508000D03*
G04 #@! TD*
G04 #@! TO.C,TP20*
X148984000Y-100508000D03*
G04 #@! TD*
G04 #@! TO.C,TP17*
X151016000Y-98349000D03*
G04 #@! TD*
G04 #@! TO.C,TP15*
X162700000Y-90602000D03*
G04 #@! TD*
D13*
G04 #@! TO.C,TP10*
X137300000Y-109048750D03*
G04 #@! TD*
D11*
G04 #@! TO.C,R1*
X180583500Y-69901000D03*
X182408500Y-69901000D03*
G04 #@! TD*
D14*
G04 #@! TO.C,D5*
X132310000Y-75490000D03*
X132310000Y-78790000D03*
X137210000Y-78790000D03*
X137210000Y-75490000D03*
G04 #@! TD*
D15*
G04 #@! TO.C,R34*
X161707500Y-105397500D03*
X159882500Y-105397500D03*
G04 #@! TD*
D16*
G04 #@! TO.C,C37*
X139332000Y-106879500D03*
X139332000Y-104804500D03*
G04 #@! TD*
D17*
G04 #@! TO.C,C17*
X143523000Y-92152500D03*
X143523000Y-93877500D03*
G04 #@! TD*
D10*
G04 #@! TO.C,R10*
X169685000Y-80592500D03*
X169685000Y-78767500D03*
G04 #@! TD*
D18*
G04 #@! TO.C,L1*
X184036000Y-80630000D03*
X184036000Y-78730000D03*
G04 #@! TD*
D10*
G04 #@! TO.C,R15*
X142697500Y-87069500D03*
X142697500Y-85244500D03*
G04 #@! TD*
D15*
G04 #@! TO.C,R31*
X161707500Y-102222500D03*
X159882500Y-102222500D03*
G04 #@! TD*
D19*
G04 #@! TO.C,D10*
X176330000Y-101500000D03*
X171930000Y-101500000D03*
X176330000Y-100000000D03*
X171930000Y-100000000D03*
X176330000Y-98500000D03*
X171930000Y-98500000D03*
G04 #@! TD*
D20*
G04 #@! TO.C,SW7*
X183750000Y-118690000D03*
X183750000Y-124490000D03*
X179750000Y-118690000D03*
X179750000Y-124490000D03*
G04 #@! TD*
D21*
G04 #@! TO.C,U5*
X185692500Y-95240000D03*
X185692500Y-96190000D03*
X185692500Y-97140000D03*
X187967500Y-97140000D03*
X187967500Y-96190000D03*
X187967500Y-95240000D03*
G04 #@! TD*
D22*
G04 #@! TO.C,Q1*
X116520500Y-78090000D03*
X116520500Y-76190000D03*
X114645500Y-77140000D03*
G04 #@! TD*
D23*
G04 #@! TO.C,D4*
X169685000Y-77062500D03*
X169685000Y-75312500D03*
G04 #@! TD*
D24*
G04 #@! TO.C,C13*
X122800500Y-89497500D03*
X124875500Y-89497500D03*
G04 #@! TD*
D17*
G04 #@! TO.C,C15*
X140475000Y-89930000D03*
X140475000Y-91655000D03*
G04 #@! TD*
D15*
G04 #@! TO.C,R45*
X184186500Y-115748000D03*
X182361500Y-115748000D03*
G04 #@! TD*
D25*
G04 #@! TO.C,C22*
X111545500Y-95174000D03*
X113270500Y-95174000D03*
G04 #@! TD*
D22*
G04 #@! TO.C,Q2*
X140777500Y-82662000D03*
X140777500Y-80762000D03*
X138902500Y-81712000D03*
G04 #@! TD*
D25*
G04 #@! TO.C,C11*
X138977500Y-84252000D03*
X140702500Y-84252000D03*
G04 #@! TD*
D13*
G04 #@! TO.C,TP8*
X183020000Y-100000000D03*
G04 #@! TD*
D15*
G04 #@! TO.C,R30*
X161707500Y-100635000D03*
X159882500Y-100635000D03*
G04 #@! TD*
D26*
G04 #@! TO.C,J4*
X194385000Y-99080000D03*
X194385000Y-93300000D03*
D27*
X193265000Y-99390000D03*
X193265000Y-98590000D03*
D28*
X193265000Y-97440000D03*
X193265000Y-96440000D03*
X193265000Y-95940000D03*
X193265000Y-94940000D03*
D27*
X193265000Y-93790000D03*
X193265000Y-92990000D03*
X193265000Y-92990000D03*
X193265000Y-93790000D03*
D28*
X193265000Y-94440000D03*
X193265000Y-95440000D03*
X193265000Y-96940000D03*
X193265000Y-97940000D03*
D27*
X193265000Y-98590000D03*
X193265000Y-99390000D03*
D29*
X193865000Y-100510000D03*
D30*
X198065000Y-100510000D03*
D29*
X193865000Y-91870000D03*
D30*
X198065000Y-91870000D03*
G04 #@! TD*
D13*
G04 #@! TO.C,TP2*
X122060000Y-68250000D03*
G04 #@! TD*
D31*
G04 #@! TO.C,U7*
X125282500Y-97850000D03*
X124782500Y-97850000D03*
X124282500Y-97850000D03*
X123782500Y-97850000D03*
X123282500Y-97850000D03*
X123282500Y-102150000D03*
X123782500Y-102150000D03*
X124282500Y-102150000D03*
X124782500Y-102150000D03*
X125282500Y-102150000D03*
G04 #@! TD*
D11*
G04 #@! TO.C,R29*
X138927500Y-99047500D03*
X140752500Y-99047500D03*
G04 #@! TD*
D32*
G04 #@! TO.C,FID1*
X104280000Y-74600000D03*
G04 #@! TD*
D10*
G04 #@! TO.C,R9*
X121425000Y-80592500D03*
X121425000Y-78767500D03*
G04 #@! TD*
D32*
G04 #@! TO.C,FID3*
X109360000Y-130480000D03*
G04 #@! TD*
D33*
G04 #@! TO.C,J2*
X187740000Y-81600000D03*
D34*
X194040000Y-81600000D03*
D35*
X190640000Y-76800000D03*
G04 #@! TD*
D36*
G04 #@! TO.C,C29*
X121425000Y-98962500D03*
X121425000Y-101037500D03*
G04 #@! TD*
D15*
G04 #@! TO.C,R32*
X137450500Y-102794000D03*
X135625500Y-102794000D03*
G04 #@! TD*
D25*
G04 #@! TO.C,C41*
X145073500Y-107620000D03*
X146798500Y-107620000D03*
G04 #@! TD*
D37*
G04 #@! TO.C,U1*
X123570000Y-81535000D03*
X125870000Y-81535000D03*
D38*
X125870000Y-75235000D03*
D37*
X128170000Y-81535000D03*
G04 #@! TD*
D10*
G04 #@! TO.C,R49*
X122695000Y-122502500D03*
X122695000Y-120677500D03*
G04 #@! TD*
D39*
G04 #@! TO.C,C1*
X116493500Y-74346000D03*
X114418500Y-74346000D03*
G04 #@! TD*
D40*
G04 #@! TO.C,U8*
X144325000Y-96250000D03*
X144325000Y-96750000D03*
X144325000Y-97250000D03*
X144325000Y-97750000D03*
X144325000Y-98250000D03*
X144325000Y-98750000D03*
X144325000Y-99250000D03*
X144325000Y-99750000D03*
X144325000Y-100250000D03*
X144325000Y-100750000D03*
X144325000Y-101250000D03*
X144325000Y-101750000D03*
X144325000Y-102250000D03*
X144325000Y-102750000D03*
X144325000Y-103250000D03*
X144325000Y-103750000D03*
D41*
X146250000Y-105675000D03*
X146750000Y-105675000D03*
X147250000Y-105675000D03*
X147750000Y-105675000D03*
X148250000Y-105675000D03*
X148750000Y-105675000D03*
X149250000Y-105675000D03*
X149750000Y-105675000D03*
X150250000Y-105675000D03*
X150750000Y-105675000D03*
X151250000Y-105675000D03*
X151750000Y-105675000D03*
X152250000Y-105675000D03*
X152750000Y-105675000D03*
X153250000Y-105675000D03*
X153750000Y-105675000D03*
D40*
X155675000Y-103750000D03*
X155675000Y-103250000D03*
X155675000Y-102750000D03*
X155675000Y-102250000D03*
X155675000Y-101750000D03*
X155675000Y-101250000D03*
X155675000Y-100750000D03*
X155675000Y-100250000D03*
X155675000Y-99750000D03*
X155675000Y-99250000D03*
X155675000Y-98750000D03*
X155675000Y-98250000D03*
X155675000Y-97750000D03*
X155675000Y-97250000D03*
X155675000Y-96750000D03*
X155675000Y-96250000D03*
D41*
X153750000Y-94325000D03*
X153250000Y-94325000D03*
X152750000Y-94325000D03*
X152250000Y-94325000D03*
X151750000Y-94325000D03*
X151250000Y-94325000D03*
X150750000Y-94325000D03*
X150250000Y-94325000D03*
X149750000Y-94325000D03*
X149250000Y-94325000D03*
X148750000Y-94325000D03*
X148250000Y-94325000D03*
X147750000Y-94325000D03*
X147250000Y-94325000D03*
X146750000Y-94325000D03*
X146250000Y-94325000D03*
G04 #@! TD*
D42*
G04 #@! TO.C,Y2*
X135275000Y-99202500D03*
X135275000Y-96352500D03*
X132975000Y-96352500D03*
X132975000Y-99202500D03*
G04 #@! TD*
D23*
G04 #@! TO.C,D3*
X121425000Y-77062500D03*
X121425000Y-75312500D03*
G04 #@! TD*
D43*
G04 #@! TO.C,H4*
X195720000Y-130480000D03*
G04 #@! TD*
D15*
G04 #@! TO.C,R41*
X184186500Y-107874000D03*
X182361500Y-107874000D03*
G04 #@! TD*
D43*
G04 #@! TO.C,H1*
X104280000Y-69520000D03*
G04 #@! TD*
D10*
G04 #@! TO.C,R51*
X177305000Y-122502500D03*
X177305000Y-120677500D03*
G04 #@! TD*
D44*
G04 #@! TO.C,J1*
X174130000Y-68250000D03*
D45*
X171590000Y-68250000D03*
X169050000Y-68250000D03*
X166510000Y-68250000D03*
X163970000Y-68250000D03*
X161430000Y-68250000D03*
X158890000Y-68250000D03*
X156350000Y-68250000D03*
X153810000Y-68250000D03*
X151270000Y-68250000D03*
X148730000Y-68250000D03*
X146190000Y-68250000D03*
X143650000Y-68250000D03*
X141110000Y-68250000D03*
X138570000Y-68250000D03*
X136030000Y-68250000D03*
X133490000Y-68250000D03*
X130950000Y-68250000D03*
X128410000Y-68250000D03*
X125870000Y-68250000D03*
G04 #@! TD*
D20*
G04 #@! TO.C,SW3*
X107360000Y-124490000D03*
X107360000Y-118690000D03*
X111360000Y-124490000D03*
X111360000Y-118690000D03*
G04 #@! TD*
D15*
G04 #@! TO.C,R39*
X113320500Y-107874000D03*
X111495500Y-107874000D03*
G04 #@! TD*
D13*
G04 #@! TO.C,TP3*
X177940000Y-68250000D03*
G04 #@! TD*
D17*
G04 #@! TO.C,C14*
X137300000Y-89930000D03*
X137300000Y-91655000D03*
G04 #@! TD*
D22*
G04 #@! TO.C,Q3*
X140777500Y-87742000D03*
X140777500Y-85842000D03*
X138902500Y-86792000D03*
G04 #@! TD*
D46*
G04 #@! TO.C,C24*
X157620000Y-96735000D03*
X157620000Y-95010000D03*
G04 #@! TD*
D47*
G04 #@! TO.C,C43*
X155307500Y-109144000D03*
X153582500Y-109144000D03*
G04 #@! TD*
D17*
G04 #@! TO.C,C25*
X137300000Y-95835500D03*
X137300000Y-97560500D03*
G04 #@! TD*
D48*
G04 #@! TO.C,R48*
X177305000Y-116867500D03*
X177305000Y-118692500D03*
G04 #@! TD*
D10*
G04 #@! TO.C,R6*
X166510000Y-77100000D03*
X166510000Y-75275000D03*
G04 #@! TD*
D11*
G04 #@! TO.C,R38*
X159882500Y-106985000D03*
X161707500Y-106985000D03*
G04 #@! TD*
D10*
G04 #@! TO.C,R2*
X180480000Y-73480500D03*
X180480000Y-71655500D03*
G04 #@! TD*
D11*
G04 #@! TO.C,R13*
X179821500Y-83236000D03*
X181646500Y-83236000D03*
G04 #@! TD*
D10*
G04 #@! TO.C,R53*
X122695000Y-126312500D03*
X122695000Y-124487500D03*
G04 #@! TD*
G04 #@! TO.C,R19*
X154572000Y-91260500D03*
X154572000Y-89435500D03*
G04 #@! TD*
D20*
G04 #@! TO.C,SW1*
X156890000Y-80040000D03*
X156890000Y-74240000D03*
X160890000Y-80040000D03*
X160890000Y-74240000D03*
G04 #@! TD*
D17*
G04 #@! TO.C,C21*
X116472000Y-93041500D03*
X116472000Y-94766500D03*
G04 #@! TD*
D15*
G04 #@! TO.C,R8*
X112812500Y-77140000D03*
X110987500Y-77140000D03*
G04 #@! TD*
D25*
G04 #@! TO.C,C16*
X185967500Y-92062500D03*
X187692500Y-92062500D03*
G04 #@! TD*
D13*
G04 #@! TO.C,TP14*
X196990000Y-125400000D03*
G04 #@! TD*
G04 #@! TO.C,TP9*
X130950000Y-102540000D03*
G04 #@! TD*
D48*
G04 #@! TO.C,R50*
X168415000Y-120677500D03*
X168415000Y-122502500D03*
G04 #@! TD*
D49*
G04 #@! TO.C,FB1*
X124917500Y-85891600D03*
X124917500Y-87641600D03*
G04 #@! TD*
D47*
G04 #@! TO.C,C5*
X136892500Y-83172500D03*
X135167500Y-83172500D03*
G04 #@! TD*
D39*
G04 #@! TO.C,C6*
X148497500Y-83490000D03*
X146422500Y-83490000D03*
G04 #@! TD*
D17*
G04 #@! TO.C,C30*
X126886000Y-99137500D03*
X126886000Y-100862500D03*
G04 #@! TD*
D15*
G04 #@! TO.C,R33*
X161707500Y-103810000D03*
X159882500Y-103810000D03*
G04 #@! TD*
D25*
G04 #@! TO.C,C32*
X138977500Y-100762000D03*
X140702500Y-100762000D03*
G04 #@! TD*
D17*
G04 #@! TO.C,C20*
X114948000Y-93041500D03*
X114948000Y-94766500D03*
G04 #@! TD*
D32*
G04 #@! TO.C,FID2*
X195720000Y-74600000D03*
G04 #@! TD*
D48*
G04 #@! TO.C,R3*
X182004000Y-71655500D03*
X182004000Y-73480500D03*
G04 #@! TD*
D11*
G04 #@! TO.C,R22*
X184012500Y-90602000D03*
X185837500Y-90602000D03*
G04 #@! TD*
D13*
G04 #@! TO.C,TP5*
X190640000Y-73330000D03*
G04 #@! TD*
D11*
G04 #@! TO.C,R42*
X159882500Y-108572500D03*
X161707500Y-108572500D03*
G04 #@! TD*
D24*
G04 #@! TO.C,C2*
X179696500Y-75362000D03*
X181771500Y-75362000D03*
G04 #@! TD*
D50*
G04 #@! TO.C,JP1*
X183894000Y-71933000D03*
D51*
X185194000Y-71933000D03*
G04 #@! TD*
D13*
G04 #@! TO.C,TP4*
X190640000Y-68250000D03*
G04 #@! TD*
D11*
G04 #@! TO.C,R26*
X111495500Y-93650000D03*
X113320500Y-93650000D03*
G04 #@! TD*
D52*
G04 #@! TO.C,D2*
X184036000Y-73966000D03*
X184036000Y-77266000D03*
G04 #@! TD*
D15*
G04 #@! TO.C,R24*
X113320500Y-92126000D03*
X111495500Y-92126000D03*
G04 #@! TD*
D47*
G04 #@! TO.C,C34*
X119874500Y-104826000D03*
X118149500Y-104826000D03*
G04 #@! TD*
D20*
G04 #@! TO.C,SW6*
X174860000Y-118690000D03*
X174860000Y-124490000D03*
X170860000Y-118690000D03*
X170860000Y-124490000D03*
G04 #@! TD*
D25*
G04 #@! TO.C,C45*
X182411500Y-111176000D03*
X184136500Y-111176000D03*
G04 #@! TD*
D53*
G04 #@! TO.C,SW8*
X121150000Y-132480000D03*
X115350000Y-132480000D03*
X121150000Y-128480000D03*
X115350000Y-128480000D03*
G04 #@! TD*
D37*
G04 #@! TO.C,U2*
X171830000Y-81535000D03*
X174130000Y-81535000D03*
D38*
X174130000Y-75235000D03*
D37*
X176430000Y-81535000D03*
G04 #@! TD*
D11*
G04 #@! TO.C,R44*
X182361500Y-114224000D03*
X184186500Y-114224000D03*
G04 #@! TD*
D25*
G04 #@! TO.C,C42*
X153709500Y-107620000D03*
X155434500Y-107620000D03*
G04 #@! TD*
D48*
G04 #@! TO.C,R46*
X113805000Y-116867500D03*
X113805000Y-118692500D03*
G04 #@! TD*
D17*
G04 #@! TO.C,C18*
X145047000Y-92152500D03*
X145047000Y-93877500D03*
G04 #@! TD*
D10*
G04 #@! TO.C,R16*
X146698000Y-91260500D03*
X146698000Y-89435500D03*
G04 #@! TD*
D54*
G04 #@! TO.C,L3*
X135663000Y-104826000D03*
X137413000Y-104826000D03*
G04 #@! TD*
D16*
G04 #@! TO.C,C27*
X111900000Y-101037500D03*
X111900000Y-98962500D03*
G04 #@! TD*
D10*
G04 #@! TO.C,R17*
X148222000Y-91260500D03*
X148222000Y-89435500D03*
G04 #@! TD*
D55*
G04 #@! TO.C,D8*
X185800000Y-88951000D03*
X184050000Y-88951000D03*
G04 #@! TD*
D46*
G04 #@! TO.C,C3*
X130315000Y-78002500D03*
X130315000Y-76277500D03*
G04 #@! TD*
D25*
G04 #@! TO.C,C26*
X186856500Y-98730000D03*
X188581500Y-98730000D03*
G04 #@! TD*
D11*
G04 #@! TO.C,R25*
X118099500Y-92126000D03*
X119924500Y-92126000D03*
G04 #@! TD*
D10*
G04 #@! TO.C,R7*
X168034000Y-77100000D03*
X168034000Y-75275000D03*
G04 #@! TD*
D46*
G04 #@! TO.C,C38*
X114948000Y-106958500D03*
X114948000Y-105233500D03*
G04 #@! TD*
D15*
G04 #@! TO.C,R36*
X119924500Y-106350000D03*
X118099500Y-106350000D03*
G04 #@! TD*
D43*
G04 #@! TO.C,H2*
X195720000Y-69520000D03*
G04 #@! TD*
D13*
G04 #@! TO.C,TP6*
X180480000Y-86030000D03*
G04 #@! TD*
D56*
G04 #@! TO.C,U3*
X181684000Y-77272500D03*
X180734000Y-77272500D03*
X179784000Y-77272500D03*
X179784000Y-79547500D03*
X181684000Y-79547500D03*
G04 #@! TD*
D24*
G04 #@! TO.C,C40*
X182236500Y-106096000D03*
X184311500Y-106096000D03*
G04 #@! TD*
G04 #@! TO.C,C8*
X126864500Y-83973000D03*
X128939500Y-83973000D03*
G04 #@! TD*
D11*
G04 #@! TO.C,R40*
X118099500Y-107874000D03*
X119924500Y-107874000D03*
G04 #@! TD*
D44*
G04 #@! TO.C,J6*
X125870000Y-131750000D03*
D45*
X128410000Y-131750000D03*
X130950000Y-131750000D03*
X133490000Y-131750000D03*
X136030000Y-131750000D03*
X138570000Y-131750000D03*
X141110000Y-131750000D03*
X143650000Y-131750000D03*
X146190000Y-131750000D03*
X148730000Y-131750000D03*
X151270000Y-131750000D03*
X153810000Y-131750000D03*
X156350000Y-131750000D03*
X158890000Y-131750000D03*
X161430000Y-131750000D03*
X163970000Y-131750000D03*
X166510000Y-131750000D03*
X169050000Y-131750000D03*
X171590000Y-131750000D03*
X174130000Y-131750000D03*
G04 #@! TD*
D10*
G04 #@! TO.C,R20*
X156096000Y-91260500D03*
X156096000Y-89435500D03*
G04 #@! TD*
D56*
G04 #@! TO.C,D9*
X110056000Y-98862500D03*
X109106000Y-98862500D03*
X108156000Y-98862500D03*
X108156000Y-101137500D03*
X109106000Y-101137500D03*
X110056000Y-101137500D03*
G04 #@! TD*
D57*
G04 #@! TO.C,J5*
X186738000Y-107910000D03*
X186738000Y-109010000D03*
X186738000Y-110110000D03*
X186738000Y-111210000D03*
X186738000Y-112310000D03*
X186738000Y-113410000D03*
X186738000Y-114510000D03*
X186738000Y-115610000D03*
X186738000Y-116710000D03*
D58*
X187588000Y-118260000D03*
X187588000Y-102760000D03*
D59*
X197188000Y-118010000D03*
X197188000Y-102310000D03*
G04 #@! TD*
D25*
G04 #@! TO.C,C33*
X111545500Y-104826000D03*
X113270500Y-104826000D03*
G04 #@! TD*
D10*
G04 #@! TO.C,R5*
X164986000Y-77100000D03*
X164986000Y-75275000D03*
G04 #@! TD*
D46*
G04 #@! TO.C,C31*
X137300000Y-101116500D03*
X137300000Y-99391500D03*
G04 #@! TD*
D10*
G04 #@! TO.C,R4*
X163462000Y-77100000D03*
X163462000Y-75275000D03*
G04 #@! TD*
D24*
G04 #@! TO.C,C4*
X179696500Y-81458000D03*
X181771500Y-81458000D03*
G04 #@! TD*
D15*
G04 #@! TO.C,R21*
X182027500Y-90602000D03*
X180202500Y-90602000D03*
G04 #@! TD*
D10*
G04 #@! TO.C,R47*
X122695000Y-118692500D03*
X122695000Y-116867500D03*
G04 #@! TD*
D13*
G04 #@! TO.C,TP12*
X155715000Y-113970000D03*
G04 #@! TD*
D54*
G04 #@! TO.C,FB2*
X180240000Y-93650000D03*
X181990000Y-93650000D03*
G04 #@! TD*
D60*
G04 #@! TO.C,D6*
X183340000Y-86967500D03*
X185240000Y-86967500D03*
X184290000Y-85092500D03*
G04 #@! TD*
D24*
G04 #@! TO.C,C9*
X171060500Y-83973000D03*
X173135500Y-83973000D03*
G04 #@! TD*
D20*
G04 #@! TO.C,SW4*
X116250000Y-124490000D03*
X116250000Y-118690000D03*
X120250000Y-124490000D03*
X120250000Y-118690000D03*
G04 #@! TD*
D46*
G04 #@! TO.C,C35*
X141110000Y-106450500D03*
X141110000Y-104725500D03*
G04 #@! TD*
D13*
G04 #@! TO.C,TP1*
X109360000Y-68250000D03*
G04 #@! TD*
G04 #@! TO.C,TP7*
X190640000Y-88697000D03*
G04 #@! TD*
D47*
G04 #@! TO.C,C23*
X119874500Y-95174000D03*
X118149500Y-95174000D03*
G04 #@! TD*
D48*
G04 #@! TO.C,R52*
X113805000Y-124487500D03*
X113805000Y-126312500D03*
G04 #@! TD*
D24*
G04 #@! TO.C,C7*
X122800500Y-83973000D03*
X124875500Y-83973000D03*
G04 #@! TD*
D61*
G04 #@! TO.C,U4*
X153810000Y-87300000D03*
X151270000Y-87300000D03*
X148730000Y-87300000D03*
X146190000Y-87300000D03*
G04 #@! TD*
D54*
G04 #@! TO.C,D1*
X184095000Y-69901000D03*
X185845000Y-69901000D03*
G04 #@! TD*
D46*
G04 #@! TO.C,C28*
X119266000Y-100862500D03*
X119266000Y-99137500D03*
G04 #@! TD*
D54*
G04 #@! TO.C,FB3*
X185955000Y-93650000D03*
X187705000Y-93650000D03*
G04 #@! TD*
D15*
G04 #@! TO.C,R11*
X136982500Y-81585000D03*
X135157500Y-81585000D03*
G04 #@! TD*
D62*
G04 #@! TO.C,JP2*
X185194000Y-82728000D03*
D63*
X183894000Y-82728000D03*
G04 #@! TD*
D64*
G04 #@! TO.C,L2*
X179615000Y-96690000D03*
X182615000Y-96690000D03*
X182615000Y-95690000D03*
X179615000Y-95690000D03*
G04 #@! TD*
D47*
G04 #@! TO.C,C12*
X148322500Y-85268000D03*
X146597500Y-85268000D03*
G04 #@! TD*
D48*
G04 #@! TO.C,R12*
X142697500Y-81434500D03*
X142697500Y-83259500D03*
G04 #@! TD*
D15*
G04 #@! TO.C,R14*
X136942500Y-84760000D03*
X135117500Y-84760000D03*
G04 #@! TD*
G04 #@! TO.C,R27*
X119924500Y-93650000D03*
X118099500Y-93650000D03*
G04 #@! TD*
D24*
G04 #@! TO.C,C10*
X175124500Y-83973000D03*
X177199500Y-83973000D03*
G04 #@! TD*
D53*
G04 #@! TO.C,SW2*
X115350000Y-110700000D03*
X121150000Y-110700000D03*
X115350000Y-114700000D03*
X121150000Y-114700000D03*
G04 #@! TD*
D54*
G04 #@! TO.C,D7*
X180285000Y-88951000D03*
X182035000Y-88951000D03*
G04 #@! TD*
D65*
G04 #@! TO.C,U6*
X117660000Y-97137500D03*
X117010000Y-97137500D03*
X116360000Y-97137500D03*
X115710000Y-97137500D03*
X115060000Y-97137500D03*
X114410000Y-97137500D03*
X113760000Y-97137500D03*
X113760000Y-102862500D03*
X114410000Y-102862500D03*
X115060000Y-102862500D03*
X115710000Y-102862500D03*
X116360000Y-102862500D03*
X117010000Y-102862500D03*
X117660000Y-102862500D03*
G04 #@! TD*
D20*
G04 #@! TO.C,SW5*
X129140000Y-118690000D03*
X129140000Y-124490000D03*
X125140000Y-118690000D03*
X125140000Y-124490000D03*
G04 #@! TD*
D43*
G04 #@! TO.C,H3*
X104280000Y-130480000D03*
G04 #@! TD*
D11*
G04 #@! TO.C,R35*
X111495500Y-106350000D03*
X113320500Y-106350000D03*
G04 #@! TD*
D46*
G04 #@! TO.C,C39*
X116472000Y-106958500D03*
X116472000Y-105233500D03*
G04 #@! TD*
D13*
G04 #@! TO.C,TP13*
X103010000Y-125400000D03*
G04 #@! TD*
D66*
G04 #@! TO.C,Y1*
X137262500Y-93650000D03*
X140512500Y-93650000D03*
G04 #@! TD*
D39*
G04 #@! TO.C,C44*
X155641250Y-110922000D03*
X153566250Y-110922000D03*
G04 #@! TD*
D44*
G04 #@! TO.C,J3*
X105550000Y-94920000D03*
D45*
X103010000Y-94920000D03*
X105550000Y-97460000D03*
X103010000Y-97460000D03*
X105550000Y-100000000D03*
X103010000Y-100000000D03*
X105550000Y-102540000D03*
X103010000Y-102540000D03*
X105550000Y-105080000D03*
X103010000Y-105080000D03*
G04 #@! TD*
D16*
G04 #@! TO.C,C36*
X133744000Y-106879500D03*
X133744000Y-104804500D03*
G04 #@! TD*
D11*
G04 #@! TO.C,R43*
X159882500Y-110160000D03*
X161707500Y-110160000D03*
G04 #@! TD*
D48*
G04 #@! TO.C,R18*
X153048000Y-89435500D03*
X153048000Y-91260500D03*
G04 #@! TD*
D16*
G04 #@! TO.C,C19*
X190640000Y-94814500D03*
X190640000Y-92739500D03*
G04 #@! TD*
D13*
G04 #@! TO.C,TP11*
X103010000Y-110160000D03*
G04 #@! TD*
D44*
G04 #@! TO.C,LS1*
X111900000Y-74640000D03*
D61*
X111900000Y-79640000D03*
G04 #@! TD*
M02*
