%TF.GenerationSoftware,KiCad,Pcbnew,8.0.0*%
%TF.CreationDate,2024-07-21T16:15:32-03:00*%
%TF.ProjectId,STM32XP,53544d33-3258-4502-9e6b-696361645f70,00*%
%TF.SameCoordinates,Original*%
%TF.FileFunction,Drillmap*%
%TF.FilePolarity,Positive*%
%FSLAX45Y45*%
G04 Gerber Fmt 4.5, Leading zero omitted, Abs format (unit mm)*
G04 Created by KiCad (PCBNEW 8.0.0) date 2024-07-21 16:15:32*
%MOMM*%
%LPD*%
G01*
G04 APERTURE LIST*
%ADD10C,0.050000*%
%ADD11C,0.200000*%
%ADD12C,0.100000*%
%ADD13C,0.320000*%
G04 APERTURE END LIST*
D10*
X10428000Y-13429000D02*
X19572000Y-13429000D01*
X10047000Y-6952000D02*
G75*
G02*
X10428000Y-6571000I381000J0D01*
G01*
X10047000Y-6952000D02*
X10047000Y-13048000D01*
X10428000Y-13429000D02*
G75*
G02*
X10047000Y-13048000I0J381000D01*
G01*
X10428000Y-6571000D02*
X19572000Y-6571000D01*
X19953000Y-13048000D02*
G75*
G02*
X19572000Y-13429000I-381000J0D01*
G01*
X19572000Y-6571000D02*
G75*
G02*
X19953000Y-6952000I0J-381000D01*
G01*
X19953000Y-13048000D02*
X19953000Y-6952000D01*
X19718800Y-10751000D02*
X19718800Y-10671000D01*
X19808800Y-10671000D02*
X19808800Y-10751000D01*
X19718800Y-10671000D02*
G75*
G02*
X19808800Y-10671000I45000J0D01*
G01*
X19808800Y-10751000D02*
G75*
G02*
X19718800Y-10751000I-45000J0D01*
G01*
X19808800Y-11511000D02*
G75*
G02*
X19718800Y-11511000I-45000J0D01*
G01*
X19718800Y-11511000D02*
G75*
G02*
X19808800Y-11511000I45000J0D01*
G01*
X16670000Y-11630000D02*
G75*
G02*
X16370000Y-11630000I-150000J0D01*
G01*
X16370000Y-11630000D02*
G75*
G02*
X16670000Y-11630000I150000J0D01*
G01*
X16670000Y-8780000D02*
G75*
G02*
X16370000Y-8780000I-150000J0D01*
G01*
X16370000Y-8780000D02*
G75*
G02*
X16670000Y-8780000I150000J0D01*
G01*
X13630000Y-11630000D02*
G75*
G02*
X13330000Y-11630000I-150000J0D01*
G01*
X13330000Y-11630000D02*
G75*
G02*
X13630000Y-11630000I150000J0D01*
G01*
X13630000Y-8780000D02*
G75*
G02*
X13330000Y-8780000I-150000J0D01*
G01*
X13330000Y-8780000D02*
G75*
G02*
X13630000Y-8780000I150000J0D01*
G01*
D11*
D12*
X19406000Y-9297500D02*
X19471000Y-9362500D01*
X19471000Y-9297500D02*
X19406000Y-9362500D01*
X19406000Y-9875500D02*
X19471000Y-9940500D01*
X19471000Y-9875500D02*
X19406000Y-9940500D01*
D13*
X10588000Y-6952000D02*
G75*
G02*
X10268000Y-6952000I-160000J0D01*
G01*
X10268000Y-6952000D02*
G75*
G02*
X10588000Y-6952000I160000J0D01*
G01*
X10588000Y-13048000D02*
G75*
G02*
X10268000Y-13048000I-160000J0D01*
G01*
X10268000Y-13048000D02*
G75*
G02*
X10588000Y-13048000I160000J0D01*
G01*
X19732000Y-6952000D02*
G75*
G02*
X19412000Y-6952000I-160000J0D01*
G01*
X19412000Y-6952000D02*
G75*
G02*
X19732000Y-6952000I160000J0D01*
G01*
X19732000Y-13048000D02*
G75*
G02*
X19412000Y-13048000I-160000J0D01*
G01*
X19412000Y-13048000D02*
G75*
G02*
X19732000Y-13048000I160000J0D01*
G01*
D11*
X10305277Y-13742984D02*
X10305277Y-13542984D01*
X10305277Y-13542984D02*
X10352896Y-13542984D01*
X10352896Y-13542984D02*
X10381467Y-13552508D01*
X10381467Y-13552508D02*
X10400515Y-13571555D01*
X10400515Y-13571555D02*
X10410039Y-13590603D01*
X10410039Y-13590603D02*
X10419563Y-13628698D01*
X10419563Y-13628698D02*
X10419563Y-13657269D01*
X10419563Y-13657269D02*
X10410039Y-13695365D01*
X10410039Y-13695365D02*
X10400515Y-13714412D01*
X10400515Y-13714412D02*
X10381467Y-13733460D01*
X10381467Y-13733460D02*
X10352896Y-13742984D01*
X10352896Y-13742984D02*
X10305277Y-13742984D01*
X10505277Y-13742984D02*
X10505277Y-13609650D01*
X10505277Y-13647746D02*
X10514801Y-13628698D01*
X10514801Y-13628698D02*
X10524324Y-13619174D01*
X10524324Y-13619174D02*
X10543372Y-13609650D01*
X10543372Y-13609650D02*
X10562420Y-13609650D01*
X10629086Y-13742984D02*
X10629086Y-13609650D01*
X10629086Y-13542984D02*
X10619563Y-13552508D01*
X10619563Y-13552508D02*
X10629086Y-13562031D01*
X10629086Y-13562031D02*
X10638610Y-13552508D01*
X10638610Y-13552508D02*
X10629086Y-13542984D01*
X10629086Y-13542984D02*
X10629086Y-13562031D01*
X10752896Y-13742984D02*
X10733848Y-13733460D01*
X10733848Y-13733460D02*
X10724324Y-13714412D01*
X10724324Y-13714412D02*
X10724324Y-13542984D01*
X10857658Y-13742984D02*
X10838610Y-13733460D01*
X10838610Y-13733460D02*
X10829086Y-13714412D01*
X10829086Y-13714412D02*
X10829086Y-13542984D01*
X11086229Y-13742984D02*
X11086229Y-13542984D01*
X11086229Y-13542984D02*
X11152896Y-13685841D01*
X11152896Y-13685841D02*
X11219562Y-13542984D01*
X11219562Y-13542984D02*
X11219562Y-13742984D01*
X11400515Y-13742984D02*
X11400515Y-13638222D01*
X11400515Y-13638222D02*
X11390991Y-13619174D01*
X11390991Y-13619174D02*
X11371943Y-13609650D01*
X11371943Y-13609650D02*
X11333848Y-13609650D01*
X11333848Y-13609650D02*
X11314801Y-13619174D01*
X11400515Y-13733460D02*
X11381467Y-13742984D01*
X11381467Y-13742984D02*
X11333848Y-13742984D01*
X11333848Y-13742984D02*
X11314801Y-13733460D01*
X11314801Y-13733460D02*
X11305277Y-13714412D01*
X11305277Y-13714412D02*
X11305277Y-13695365D01*
X11305277Y-13695365D02*
X11314801Y-13676317D01*
X11314801Y-13676317D02*
X11333848Y-13666793D01*
X11333848Y-13666793D02*
X11381467Y-13666793D01*
X11381467Y-13666793D02*
X11400515Y-13657269D01*
X11495753Y-13609650D02*
X11495753Y-13809650D01*
X11495753Y-13619174D02*
X11514801Y-13609650D01*
X11514801Y-13609650D02*
X11552896Y-13609650D01*
X11552896Y-13609650D02*
X11571943Y-13619174D01*
X11571943Y-13619174D02*
X11581467Y-13628698D01*
X11581467Y-13628698D02*
X11590991Y-13647746D01*
X11590991Y-13647746D02*
X11590991Y-13704888D01*
X11590991Y-13704888D02*
X11581467Y-13723936D01*
X11581467Y-13723936D02*
X11571943Y-13733460D01*
X11571943Y-13733460D02*
X11552896Y-13742984D01*
X11552896Y-13742984D02*
X11514801Y-13742984D01*
X11514801Y-13742984D02*
X11495753Y-13733460D01*
X11676705Y-13723936D02*
X11686229Y-13733460D01*
X11686229Y-13733460D02*
X11676705Y-13742984D01*
X11676705Y-13742984D02*
X11667182Y-13733460D01*
X11667182Y-13733460D02*
X11676705Y-13723936D01*
X11676705Y-13723936D02*
X11676705Y-13742984D01*
X11676705Y-13619174D02*
X11686229Y-13628698D01*
X11686229Y-13628698D02*
X11676705Y-13638222D01*
X11676705Y-13638222D02*
X11667182Y-13628698D01*
X11667182Y-13628698D02*
X11676705Y-13619174D01*
X11676705Y-13619174D02*
X11676705Y-13638222D01*
D12*
X9979500Y-14039000D02*
X10044500Y-14104000D01*
X10044500Y-14039000D02*
X9979500Y-14104000D01*
D11*
X10343372Y-13962984D02*
X10362420Y-13962984D01*
X10362420Y-13962984D02*
X10381467Y-13972508D01*
X10381467Y-13972508D02*
X10390991Y-13982031D01*
X10390991Y-13982031D02*
X10400515Y-14001079D01*
X10400515Y-14001079D02*
X10410039Y-14039174D01*
X10410039Y-14039174D02*
X10410039Y-14086793D01*
X10410039Y-14086793D02*
X10400515Y-14124888D01*
X10400515Y-14124888D02*
X10390991Y-14143936D01*
X10390991Y-14143936D02*
X10381467Y-14153460D01*
X10381467Y-14153460D02*
X10362420Y-14162984D01*
X10362420Y-14162984D02*
X10343372Y-14162984D01*
X10343372Y-14162984D02*
X10324324Y-14153460D01*
X10324324Y-14153460D02*
X10314801Y-14143936D01*
X10314801Y-14143936D02*
X10305277Y-14124888D01*
X10305277Y-14124888D02*
X10295753Y-14086793D01*
X10295753Y-14086793D02*
X10295753Y-14039174D01*
X10295753Y-14039174D02*
X10305277Y-14001079D01*
X10305277Y-14001079D02*
X10314801Y-13982031D01*
X10314801Y-13982031D02*
X10324324Y-13972508D01*
X10324324Y-13972508D02*
X10343372Y-13962984D01*
X10495753Y-14143936D02*
X10505277Y-14153460D01*
X10505277Y-14153460D02*
X10495753Y-14162984D01*
X10495753Y-14162984D02*
X10486229Y-14153460D01*
X10486229Y-14153460D02*
X10495753Y-14143936D01*
X10495753Y-14143936D02*
X10495753Y-14162984D01*
X10676705Y-13962984D02*
X10638610Y-13962984D01*
X10638610Y-13962984D02*
X10619563Y-13972508D01*
X10619563Y-13972508D02*
X10610039Y-13982031D01*
X10610039Y-13982031D02*
X10590991Y-14010603D01*
X10590991Y-14010603D02*
X10581467Y-14048698D01*
X10581467Y-14048698D02*
X10581467Y-14124888D01*
X10581467Y-14124888D02*
X10590991Y-14143936D01*
X10590991Y-14143936D02*
X10600515Y-14153460D01*
X10600515Y-14153460D02*
X10619563Y-14162984D01*
X10619563Y-14162984D02*
X10657658Y-14162984D01*
X10657658Y-14162984D02*
X10676705Y-14153460D01*
X10676705Y-14153460D02*
X10686229Y-14143936D01*
X10686229Y-14143936D02*
X10695753Y-14124888D01*
X10695753Y-14124888D02*
X10695753Y-14077269D01*
X10695753Y-14077269D02*
X10686229Y-14058222D01*
X10686229Y-14058222D02*
X10676705Y-14048698D01*
X10676705Y-14048698D02*
X10657658Y-14039174D01*
X10657658Y-14039174D02*
X10619563Y-14039174D01*
X10619563Y-14039174D02*
X10600515Y-14048698D01*
X10600515Y-14048698D02*
X10590991Y-14058222D01*
X10590991Y-14058222D02*
X10581467Y-14077269D01*
X10876705Y-13962984D02*
X10781467Y-13962984D01*
X10781467Y-13962984D02*
X10771944Y-14058222D01*
X10771944Y-14058222D02*
X10781467Y-14048698D01*
X10781467Y-14048698D02*
X10800515Y-14039174D01*
X10800515Y-14039174D02*
X10848134Y-14039174D01*
X10848134Y-14039174D02*
X10867182Y-14048698D01*
X10867182Y-14048698D02*
X10876705Y-14058222D01*
X10876705Y-14058222D02*
X10886229Y-14077269D01*
X10886229Y-14077269D02*
X10886229Y-14124888D01*
X10886229Y-14124888D02*
X10876705Y-14143936D01*
X10876705Y-14143936D02*
X10867182Y-14153460D01*
X10867182Y-14153460D02*
X10848134Y-14162984D01*
X10848134Y-14162984D02*
X10800515Y-14162984D01*
X10800515Y-14162984D02*
X10781467Y-14153460D01*
X10781467Y-14153460D02*
X10771944Y-14143936D01*
X11010039Y-13962984D02*
X11029086Y-13962984D01*
X11029086Y-13962984D02*
X11048134Y-13972508D01*
X11048134Y-13972508D02*
X11057658Y-13982031D01*
X11057658Y-13982031D02*
X11067182Y-14001079D01*
X11067182Y-14001079D02*
X11076705Y-14039174D01*
X11076705Y-14039174D02*
X11076705Y-14086793D01*
X11076705Y-14086793D02*
X11067182Y-14124888D01*
X11067182Y-14124888D02*
X11057658Y-14143936D01*
X11057658Y-14143936D02*
X11048134Y-14153460D01*
X11048134Y-14153460D02*
X11029086Y-14162984D01*
X11029086Y-14162984D02*
X11010039Y-14162984D01*
X11010039Y-14162984D02*
X10990991Y-14153460D01*
X10990991Y-14153460D02*
X10981467Y-14143936D01*
X10981467Y-14143936D02*
X10971944Y-14124888D01*
X10971944Y-14124888D02*
X10962420Y-14086793D01*
X10962420Y-14086793D02*
X10962420Y-14039174D01*
X10962420Y-14039174D02*
X10971944Y-14001079D01*
X10971944Y-14001079D02*
X10981467Y-13982031D01*
X10981467Y-13982031D02*
X10990991Y-13972508D01*
X10990991Y-13972508D02*
X11010039Y-13962984D01*
X11162420Y-14162984D02*
X11162420Y-14029650D01*
X11162420Y-14048698D02*
X11171944Y-14039174D01*
X11171944Y-14039174D02*
X11190991Y-14029650D01*
X11190991Y-14029650D02*
X11219563Y-14029650D01*
X11219563Y-14029650D02*
X11238610Y-14039174D01*
X11238610Y-14039174D02*
X11248134Y-14058222D01*
X11248134Y-14058222D02*
X11248134Y-14162984D01*
X11248134Y-14058222D02*
X11257658Y-14039174D01*
X11257658Y-14039174D02*
X11276705Y-14029650D01*
X11276705Y-14029650D02*
X11305277Y-14029650D01*
X11305277Y-14029650D02*
X11324324Y-14039174D01*
X11324324Y-14039174D02*
X11333848Y-14058222D01*
X11333848Y-14058222D02*
X11333848Y-14162984D01*
X11429086Y-14162984D02*
X11429086Y-14029650D01*
X11429086Y-14048698D02*
X11438610Y-14039174D01*
X11438610Y-14039174D02*
X11457658Y-14029650D01*
X11457658Y-14029650D02*
X11486229Y-14029650D01*
X11486229Y-14029650D02*
X11505277Y-14039174D01*
X11505277Y-14039174D02*
X11514801Y-14058222D01*
X11514801Y-14058222D02*
X11514801Y-14162984D01*
X11514801Y-14058222D02*
X11524324Y-14039174D01*
X11524324Y-14039174D02*
X11543372Y-14029650D01*
X11543372Y-14029650D02*
X11571943Y-14029650D01*
X11571943Y-14029650D02*
X11590991Y-14039174D01*
X11590991Y-14039174D02*
X11600515Y-14058222D01*
X11600515Y-14058222D02*
X11600515Y-14162984D01*
X11990991Y-13953460D02*
X11819563Y-14210603D01*
X12248134Y-13962984D02*
X12267182Y-13962984D01*
X12267182Y-13962984D02*
X12286229Y-13972508D01*
X12286229Y-13972508D02*
X12295753Y-13982031D01*
X12295753Y-13982031D02*
X12305277Y-14001079D01*
X12305277Y-14001079D02*
X12314801Y-14039174D01*
X12314801Y-14039174D02*
X12314801Y-14086793D01*
X12314801Y-14086793D02*
X12305277Y-14124888D01*
X12305277Y-14124888D02*
X12295753Y-14143936D01*
X12295753Y-14143936D02*
X12286229Y-14153460D01*
X12286229Y-14153460D02*
X12267182Y-14162984D01*
X12267182Y-14162984D02*
X12248134Y-14162984D01*
X12248134Y-14162984D02*
X12229086Y-14153460D01*
X12229086Y-14153460D02*
X12219563Y-14143936D01*
X12219563Y-14143936D02*
X12210039Y-14124888D01*
X12210039Y-14124888D02*
X12200515Y-14086793D01*
X12200515Y-14086793D02*
X12200515Y-14039174D01*
X12200515Y-14039174D02*
X12210039Y-14001079D01*
X12210039Y-14001079D02*
X12219563Y-13982031D01*
X12219563Y-13982031D02*
X12229086Y-13972508D01*
X12229086Y-13972508D02*
X12248134Y-13962984D01*
X12400515Y-14143936D02*
X12410039Y-14153460D01*
X12410039Y-14153460D02*
X12400515Y-14162984D01*
X12400515Y-14162984D02*
X12390991Y-14153460D01*
X12390991Y-14153460D02*
X12400515Y-14143936D01*
X12400515Y-14143936D02*
X12400515Y-14162984D01*
X12533848Y-13962984D02*
X12552896Y-13962984D01*
X12552896Y-13962984D02*
X12571944Y-13972508D01*
X12571944Y-13972508D02*
X12581467Y-13982031D01*
X12581467Y-13982031D02*
X12590991Y-14001079D01*
X12590991Y-14001079D02*
X12600515Y-14039174D01*
X12600515Y-14039174D02*
X12600515Y-14086793D01*
X12600515Y-14086793D02*
X12590991Y-14124888D01*
X12590991Y-14124888D02*
X12581467Y-14143936D01*
X12581467Y-14143936D02*
X12571944Y-14153460D01*
X12571944Y-14153460D02*
X12552896Y-14162984D01*
X12552896Y-14162984D02*
X12533848Y-14162984D01*
X12533848Y-14162984D02*
X12514801Y-14153460D01*
X12514801Y-14153460D02*
X12505277Y-14143936D01*
X12505277Y-14143936D02*
X12495753Y-14124888D01*
X12495753Y-14124888D02*
X12486229Y-14086793D01*
X12486229Y-14086793D02*
X12486229Y-14039174D01*
X12486229Y-14039174D02*
X12495753Y-14001079D01*
X12495753Y-14001079D02*
X12505277Y-13982031D01*
X12505277Y-13982031D02*
X12514801Y-13972508D01*
X12514801Y-13972508D02*
X12533848Y-13962984D01*
X12676706Y-13982031D02*
X12686229Y-13972508D01*
X12686229Y-13972508D02*
X12705277Y-13962984D01*
X12705277Y-13962984D02*
X12752896Y-13962984D01*
X12752896Y-13962984D02*
X12771944Y-13972508D01*
X12771944Y-13972508D02*
X12781467Y-13982031D01*
X12781467Y-13982031D02*
X12790991Y-14001079D01*
X12790991Y-14001079D02*
X12790991Y-14020127D01*
X12790991Y-14020127D02*
X12781467Y-14048698D01*
X12781467Y-14048698D02*
X12667182Y-14162984D01*
X12667182Y-14162984D02*
X12790991Y-14162984D01*
X12971944Y-13962984D02*
X12876706Y-13962984D01*
X12876706Y-13962984D02*
X12867182Y-14058222D01*
X12867182Y-14058222D02*
X12876706Y-14048698D01*
X12876706Y-14048698D02*
X12895753Y-14039174D01*
X12895753Y-14039174D02*
X12943372Y-14039174D01*
X12943372Y-14039174D02*
X12962420Y-14048698D01*
X12962420Y-14048698D02*
X12971944Y-14058222D01*
X12971944Y-14058222D02*
X12981467Y-14077269D01*
X12981467Y-14077269D02*
X12981467Y-14124888D01*
X12981467Y-14124888D02*
X12971944Y-14143936D01*
X12971944Y-14143936D02*
X12962420Y-14153460D01*
X12962420Y-14153460D02*
X12943372Y-14162984D01*
X12943372Y-14162984D02*
X12895753Y-14162984D01*
X12895753Y-14162984D02*
X12876706Y-14153460D01*
X12876706Y-14153460D02*
X12867182Y-14143936D01*
X13152896Y-13962984D02*
X13114801Y-13962984D01*
X13114801Y-13962984D02*
X13095753Y-13972508D01*
X13095753Y-13972508D02*
X13086229Y-13982031D01*
X13086229Y-13982031D02*
X13067182Y-14010603D01*
X13067182Y-14010603D02*
X13057658Y-14048698D01*
X13057658Y-14048698D02*
X13057658Y-14124888D01*
X13057658Y-14124888D02*
X13067182Y-14143936D01*
X13067182Y-14143936D02*
X13076706Y-14153460D01*
X13076706Y-14153460D02*
X13095753Y-14162984D01*
X13095753Y-14162984D02*
X13133848Y-14162984D01*
X13133848Y-14162984D02*
X13152896Y-14153460D01*
X13152896Y-14153460D02*
X13162420Y-14143936D01*
X13162420Y-14143936D02*
X13171944Y-14124888D01*
X13171944Y-14124888D02*
X13171944Y-14077269D01*
X13171944Y-14077269D02*
X13162420Y-14058222D01*
X13162420Y-14058222D02*
X13152896Y-14048698D01*
X13152896Y-14048698D02*
X13133848Y-14039174D01*
X13133848Y-14039174D02*
X13095753Y-14039174D01*
X13095753Y-14039174D02*
X13076706Y-14048698D01*
X13076706Y-14048698D02*
X13067182Y-14058222D01*
X13067182Y-14058222D02*
X13057658Y-14077269D01*
X13248134Y-13962984D02*
X13248134Y-14001079D01*
X13324325Y-13962984D02*
X13324325Y-14001079D01*
X13619563Y-14239174D02*
X13610039Y-14229650D01*
X13610039Y-14229650D02*
X13590991Y-14201079D01*
X13590991Y-14201079D02*
X13581468Y-14182031D01*
X13581468Y-14182031D02*
X13571944Y-14153460D01*
X13571944Y-14153460D02*
X13562420Y-14105841D01*
X13562420Y-14105841D02*
X13562420Y-14067746D01*
X13562420Y-14067746D02*
X13571944Y-14020127D01*
X13571944Y-14020127D02*
X13581468Y-13991555D01*
X13581468Y-13991555D02*
X13590991Y-13972508D01*
X13590991Y-13972508D02*
X13610039Y-13943936D01*
X13610039Y-13943936D02*
X13619563Y-13934412D01*
X13686229Y-13982031D02*
X13695753Y-13972508D01*
X13695753Y-13972508D02*
X13714801Y-13962984D01*
X13714801Y-13962984D02*
X13762420Y-13962984D01*
X13762420Y-13962984D02*
X13781468Y-13972508D01*
X13781468Y-13972508D02*
X13790991Y-13982031D01*
X13790991Y-13982031D02*
X13800515Y-14001079D01*
X13800515Y-14001079D02*
X13800515Y-14020127D01*
X13800515Y-14020127D02*
X13790991Y-14048698D01*
X13790991Y-14048698D02*
X13676706Y-14162984D01*
X13676706Y-14162984D02*
X13800515Y-14162984D01*
X14038610Y-14162984D02*
X14038610Y-13962984D01*
X14124325Y-14162984D02*
X14124325Y-14058222D01*
X14124325Y-14058222D02*
X14114801Y-14039174D01*
X14114801Y-14039174D02*
X14095753Y-14029650D01*
X14095753Y-14029650D02*
X14067182Y-14029650D01*
X14067182Y-14029650D02*
X14048134Y-14039174D01*
X14048134Y-14039174D02*
X14038610Y-14048698D01*
X14248134Y-14162984D02*
X14229087Y-14153460D01*
X14229087Y-14153460D02*
X14219563Y-14143936D01*
X14219563Y-14143936D02*
X14210039Y-14124888D01*
X14210039Y-14124888D02*
X14210039Y-14067746D01*
X14210039Y-14067746D02*
X14219563Y-14048698D01*
X14219563Y-14048698D02*
X14229087Y-14039174D01*
X14229087Y-14039174D02*
X14248134Y-14029650D01*
X14248134Y-14029650D02*
X14276706Y-14029650D01*
X14276706Y-14029650D02*
X14295753Y-14039174D01*
X14295753Y-14039174D02*
X14305277Y-14048698D01*
X14305277Y-14048698D02*
X14314801Y-14067746D01*
X14314801Y-14067746D02*
X14314801Y-14124888D01*
X14314801Y-14124888D02*
X14305277Y-14143936D01*
X14305277Y-14143936D02*
X14295753Y-14153460D01*
X14295753Y-14153460D02*
X14276706Y-14162984D01*
X14276706Y-14162984D02*
X14248134Y-14162984D01*
X14429087Y-14162984D02*
X14410039Y-14153460D01*
X14410039Y-14153460D02*
X14400515Y-14134412D01*
X14400515Y-14134412D02*
X14400515Y-13962984D01*
X14581468Y-14153460D02*
X14562420Y-14162984D01*
X14562420Y-14162984D02*
X14524325Y-14162984D01*
X14524325Y-14162984D02*
X14505277Y-14153460D01*
X14505277Y-14153460D02*
X14495753Y-14134412D01*
X14495753Y-14134412D02*
X14495753Y-14058222D01*
X14495753Y-14058222D02*
X14505277Y-14039174D01*
X14505277Y-14039174D02*
X14524325Y-14029650D01*
X14524325Y-14029650D02*
X14562420Y-14029650D01*
X14562420Y-14029650D02*
X14581468Y-14039174D01*
X14581468Y-14039174D02*
X14590991Y-14058222D01*
X14590991Y-14058222D02*
X14590991Y-14077269D01*
X14590991Y-14077269D02*
X14495753Y-14096317D01*
X14667182Y-14153460D02*
X14686230Y-14162984D01*
X14686230Y-14162984D02*
X14724325Y-14162984D01*
X14724325Y-14162984D02*
X14743372Y-14153460D01*
X14743372Y-14153460D02*
X14752896Y-14134412D01*
X14752896Y-14134412D02*
X14752896Y-14124888D01*
X14752896Y-14124888D02*
X14743372Y-14105841D01*
X14743372Y-14105841D02*
X14724325Y-14096317D01*
X14724325Y-14096317D02*
X14695753Y-14096317D01*
X14695753Y-14096317D02*
X14676706Y-14086793D01*
X14676706Y-14086793D02*
X14667182Y-14067746D01*
X14667182Y-14067746D02*
X14667182Y-14058222D01*
X14667182Y-14058222D02*
X14676706Y-14039174D01*
X14676706Y-14039174D02*
X14695753Y-14029650D01*
X14695753Y-14029650D02*
X14724325Y-14029650D01*
X14724325Y-14029650D02*
X14743372Y-14039174D01*
X14819563Y-14239174D02*
X14829087Y-14229650D01*
X14829087Y-14229650D02*
X14848134Y-14201079D01*
X14848134Y-14201079D02*
X14857658Y-14182031D01*
X14857658Y-14182031D02*
X14867182Y-14153460D01*
X14867182Y-14153460D02*
X14876706Y-14105841D01*
X14876706Y-14105841D02*
X14876706Y-14067746D01*
X14876706Y-14067746D02*
X14867182Y-14020127D01*
X14867182Y-14020127D02*
X14857658Y-13991555D01*
X14857658Y-13991555D02*
X14848134Y-13972508D01*
X14848134Y-13972508D02*
X14829087Y-13943936D01*
X14829087Y-13943936D02*
X14819563Y-13934412D01*
X15181468Y-14239174D02*
X15171944Y-14229650D01*
X15171944Y-14229650D02*
X15152896Y-14201079D01*
X15152896Y-14201079D02*
X15143372Y-14182031D01*
X15143372Y-14182031D02*
X15133849Y-14153460D01*
X15133849Y-14153460D02*
X15124325Y-14105841D01*
X15124325Y-14105841D02*
X15124325Y-14067746D01*
X15124325Y-14067746D02*
X15133849Y-14020127D01*
X15133849Y-14020127D02*
X15143372Y-13991555D01*
X15143372Y-13991555D02*
X15152896Y-13972508D01*
X15152896Y-13972508D02*
X15171944Y-13943936D01*
X15171944Y-13943936D02*
X15181468Y-13934412D01*
X15257658Y-14029650D02*
X15257658Y-14162984D01*
X15257658Y-14048698D02*
X15267182Y-14039174D01*
X15267182Y-14039174D02*
X15286230Y-14029650D01*
X15286230Y-14029650D02*
X15314801Y-14029650D01*
X15314801Y-14029650D02*
X15333849Y-14039174D01*
X15333849Y-14039174D02*
X15343372Y-14058222D01*
X15343372Y-14058222D02*
X15343372Y-14162984D01*
X15467182Y-14162984D02*
X15448134Y-14153460D01*
X15448134Y-14153460D02*
X15438611Y-14143936D01*
X15438611Y-14143936D02*
X15429087Y-14124888D01*
X15429087Y-14124888D02*
X15429087Y-14067746D01*
X15429087Y-14067746D02*
X15438611Y-14048698D01*
X15438611Y-14048698D02*
X15448134Y-14039174D01*
X15448134Y-14039174D02*
X15467182Y-14029650D01*
X15467182Y-14029650D02*
X15495753Y-14029650D01*
X15495753Y-14029650D02*
X15514801Y-14039174D01*
X15514801Y-14039174D02*
X15524325Y-14048698D01*
X15524325Y-14048698D02*
X15533849Y-14067746D01*
X15533849Y-14067746D02*
X15533849Y-14124888D01*
X15533849Y-14124888D02*
X15524325Y-14143936D01*
X15524325Y-14143936D02*
X15514801Y-14153460D01*
X15514801Y-14153460D02*
X15495753Y-14162984D01*
X15495753Y-14162984D02*
X15467182Y-14162984D01*
X15590992Y-14029650D02*
X15667182Y-14029650D01*
X15619563Y-13962984D02*
X15619563Y-14134412D01*
X15619563Y-14134412D02*
X15629087Y-14153460D01*
X15629087Y-14153460D02*
X15648134Y-14162984D01*
X15648134Y-14162984D02*
X15667182Y-14162984D01*
X15886230Y-14029650D02*
X15886230Y-14229650D01*
X15886230Y-14039174D02*
X15905277Y-14029650D01*
X15905277Y-14029650D02*
X15943373Y-14029650D01*
X15943373Y-14029650D02*
X15962420Y-14039174D01*
X15962420Y-14039174D02*
X15971944Y-14048698D01*
X15971944Y-14048698D02*
X15981468Y-14067746D01*
X15981468Y-14067746D02*
X15981468Y-14124888D01*
X15981468Y-14124888D02*
X15971944Y-14143936D01*
X15971944Y-14143936D02*
X15962420Y-14153460D01*
X15962420Y-14153460D02*
X15943373Y-14162984D01*
X15943373Y-14162984D02*
X15905277Y-14162984D01*
X15905277Y-14162984D02*
X15886230Y-14153460D01*
X16095753Y-14162984D02*
X16076706Y-14153460D01*
X16076706Y-14153460D02*
X16067182Y-14134412D01*
X16067182Y-14134412D02*
X16067182Y-13962984D01*
X16257658Y-14162984D02*
X16257658Y-14058222D01*
X16257658Y-14058222D02*
X16248134Y-14039174D01*
X16248134Y-14039174D02*
X16229087Y-14029650D01*
X16229087Y-14029650D02*
X16190992Y-14029650D01*
X16190992Y-14029650D02*
X16171944Y-14039174D01*
X16257658Y-14153460D02*
X16238611Y-14162984D01*
X16238611Y-14162984D02*
X16190992Y-14162984D01*
X16190992Y-14162984D02*
X16171944Y-14153460D01*
X16171944Y-14153460D02*
X16162420Y-14134412D01*
X16162420Y-14134412D02*
X16162420Y-14115365D01*
X16162420Y-14115365D02*
X16171944Y-14096317D01*
X16171944Y-14096317D02*
X16190992Y-14086793D01*
X16190992Y-14086793D02*
X16238611Y-14086793D01*
X16238611Y-14086793D02*
X16257658Y-14077269D01*
X16324325Y-14029650D02*
X16400515Y-14029650D01*
X16352896Y-13962984D02*
X16352896Y-14134412D01*
X16352896Y-14134412D02*
X16362420Y-14153460D01*
X16362420Y-14153460D02*
X16381468Y-14162984D01*
X16381468Y-14162984D02*
X16400515Y-14162984D01*
X16543373Y-14153460D02*
X16524325Y-14162984D01*
X16524325Y-14162984D02*
X16486230Y-14162984D01*
X16486230Y-14162984D02*
X16467182Y-14153460D01*
X16467182Y-14153460D02*
X16457658Y-14134412D01*
X16457658Y-14134412D02*
X16457658Y-14058222D01*
X16457658Y-14058222D02*
X16467182Y-14039174D01*
X16467182Y-14039174D02*
X16486230Y-14029650D01*
X16486230Y-14029650D02*
X16524325Y-14029650D01*
X16524325Y-14029650D02*
X16543373Y-14039174D01*
X16543373Y-14039174D02*
X16552896Y-14058222D01*
X16552896Y-14058222D02*
X16552896Y-14077269D01*
X16552896Y-14077269D02*
X16457658Y-14096317D01*
X16724325Y-14162984D02*
X16724325Y-13962984D01*
X16724325Y-14153460D02*
X16705277Y-14162984D01*
X16705277Y-14162984D02*
X16667182Y-14162984D01*
X16667182Y-14162984D02*
X16648134Y-14153460D01*
X16648134Y-14153460D02*
X16638611Y-14143936D01*
X16638611Y-14143936D02*
X16629087Y-14124888D01*
X16629087Y-14124888D02*
X16629087Y-14067746D01*
X16629087Y-14067746D02*
X16638611Y-14048698D01*
X16638611Y-14048698D02*
X16648134Y-14039174D01*
X16648134Y-14039174D02*
X16667182Y-14029650D01*
X16667182Y-14029650D02*
X16705277Y-14029650D01*
X16705277Y-14029650D02*
X16724325Y-14039174D01*
X16800516Y-14239174D02*
X16810039Y-14229650D01*
X16810039Y-14229650D02*
X16829087Y-14201079D01*
X16829087Y-14201079D02*
X16838611Y-14182031D01*
X16838611Y-14182031D02*
X16848135Y-14153460D01*
X16848135Y-14153460D02*
X16857658Y-14105841D01*
X16857658Y-14105841D02*
X16857658Y-14067746D01*
X16857658Y-14067746D02*
X16848135Y-14020127D01*
X16848135Y-14020127D02*
X16838611Y-13991555D01*
X16838611Y-13991555D02*
X16829087Y-13972508D01*
X16829087Y-13972508D02*
X16810039Y-13943936D01*
X16810039Y-13943936D02*
X16800516Y-13934412D01*
X10044500Y-14335500D02*
G75*
G02*
X9844500Y-14335500I-100000J0D01*
G01*
X9844500Y-14335500D02*
G75*
G02*
X10044500Y-14335500I100000J0D01*
G01*
X10286229Y-14226984D02*
X10410039Y-14226984D01*
X10410039Y-14226984D02*
X10343372Y-14303174D01*
X10343372Y-14303174D02*
X10371944Y-14303174D01*
X10371944Y-14303174D02*
X10390991Y-14312698D01*
X10390991Y-14312698D02*
X10400515Y-14322222D01*
X10400515Y-14322222D02*
X10410039Y-14341269D01*
X10410039Y-14341269D02*
X10410039Y-14388888D01*
X10410039Y-14388888D02*
X10400515Y-14407936D01*
X10400515Y-14407936D02*
X10390991Y-14417460D01*
X10390991Y-14417460D02*
X10371944Y-14426984D01*
X10371944Y-14426984D02*
X10314801Y-14426984D01*
X10314801Y-14426984D02*
X10295753Y-14417460D01*
X10295753Y-14417460D02*
X10286229Y-14407936D01*
X10495753Y-14407936D02*
X10505277Y-14417460D01*
X10505277Y-14417460D02*
X10495753Y-14426984D01*
X10495753Y-14426984D02*
X10486229Y-14417460D01*
X10486229Y-14417460D02*
X10495753Y-14407936D01*
X10495753Y-14407936D02*
X10495753Y-14426984D01*
X10581467Y-14246031D02*
X10590991Y-14236508D01*
X10590991Y-14236508D02*
X10610039Y-14226984D01*
X10610039Y-14226984D02*
X10657658Y-14226984D01*
X10657658Y-14226984D02*
X10676705Y-14236508D01*
X10676705Y-14236508D02*
X10686229Y-14246031D01*
X10686229Y-14246031D02*
X10695753Y-14265079D01*
X10695753Y-14265079D02*
X10695753Y-14284127D01*
X10695753Y-14284127D02*
X10686229Y-14312698D01*
X10686229Y-14312698D02*
X10571944Y-14426984D01*
X10571944Y-14426984D02*
X10695753Y-14426984D01*
X10819563Y-14226984D02*
X10838610Y-14226984D01*
X10838610Y-14226984D02*
X10857658Y-14236508D01*
X10857658Y-14236508D02*
X10867182Y-14246031D01*
X10867182Y-14246031D02*
X10876705Y-14265079D01*
X10876705Y-14265079D02*
X10886229Y-14303174D01*
X10886229Y-14303174D02*
X10886229Y-14350793D01*
X10886229Y-14350793D02*
X10876705Y-14388888D01*
X10876705Y-14388888D02*
X10867182Y-14407936D01*
X10867182Y-14407936D02*
X10857658Y-14417460D01*
X10857658Y-14417460D02*
X10838610Y-14426984D01*
X10838610Y-14426984D02*
X10819563Y-14426984D01*
X10819563Y-14426984D02*
X10800515Y-14417460D01*
X10800515Y-14417460D02*
X10790991Y-14407936D01*
X10790991Y-14407936D02*
X10781467Y-14388888D01*
X10781467Y-14388888D02*
X10771944Y-14350793D01*
X10771944Y-14350793D02*
X10771944Y-14303174D01*
X10771944Y-14303174D02*
X10781467Y-14265079D01*
X10781467Y-14265079D02*
X10790991Y-14246031D01*
X10790991Y-14246031D02*
X10800515Y-14236508D01*
X10800515Y-14236508D02*
X10819563Y-14226984D01*
X11010039Y-14226984D02*
X11029086Y-14226984D01*
X11029086Y-14226984D02*
X11048134Y-14236508D01*
X11048134Y-14236508D02*
X11057658Y-14246031D01*
X11057658Y-14246031D02*
X11067182Y-14265079D01*
X11067182Y-14265079D02*
X11076705Y-14303174D01*
X11076705Y-14303174D02*
X11076705Y-14350793D01*
X11076705Y-14350793D02*
X11067182Y-14388888D01*
X11067182Y-14388888D02*
X11057658Y-14407936D01*
X11057658Y-14407936D02*
X11048134Y-14417460D01*
X11048134Y-14417460D02*
X11029086Y-14426984D01*
X11029086Y-14426984D02*
X11010039Y-14426984D01*
X11010039Y-14426984D02*
X10990991Y-14417460D01*
X10990991Y-14417460D02*
X10981467Y-14407936D01*
X10981467Y-14407936D02*
X10971944Y-14388888D01*
X10971944Y-14388888D02*
X10962420Y-14350793D01*
X10962420Y-14350793D02*
X10962420Y-14303174D01*
X10962420Y-14303174D02*
X10971944Y-14265079D01*
X10971944Y-14265079D02*
X10981467Y-14246031D01*
X10981467Y-14246031D02*
X10990991Y-14236508D01*
X10990991Y-14236508D02*
X11010039Y-14226984D01*
X11162420Y-14426984D02*
X11162420Y-14293650D01*
X11162420Y-14312698D02*
X11171944Y-14303174D01*
X11171944Y-14303174D02*
X11190991Y-14293650D01*
X11190991Y-14293650D02*
X11219563Y-14293650D01*
X11219563Y-14293650D02*
X11238610Y-14303174D01*
X11238610Y-14303174D02*
X11248134Y-14322222D01*
X11248134Y-14322222D02*
X11248134Y-14426984D01*
X11248134Y-14322222D02*
X11257658Y-14303174D01*
X11257658Y-14303174D02*
X11276705Y-14293650D01*
X11276705Y-14293650D02*
X11305277Y-14293650D01*
X11305277Y-14293650D02*
X11324324Y-14303174D01*
X11324324Y-14303174D02*
X11333848Y-14322222D01*
X11333848Y-14322222D02*
X11333848Y-14426984D01*
X11429086Y-14426984D02*
X11429086Y-14293650D01*
X11429086Y-14312698D02*
X11438610Y-14303174D01*
X11438610Y-14303174D02*
X11457658Y-14293650D01*
X11457658Y-14293650D02*
X11486229Y-14293650D01*
X11486229Y-14293650D02*
X11505277Y-14303174D01*
X11505277Y-14303174D02*
X11514801Y-14322222D01*
X11514801Y-14322222D02*
X11514801Y-14426984D01*
X11514801Y-14322222D02*
X11524324Y-14303174D01*
X11524324Y-14303174D02*
X11543372Y-14293650D01*
X11543372Y-14293650D02*
X11571943Y-14293650D01*
X11571943Y-14293650D02*
X11590991Y-14303174D01*
X11590991Y-14303174D02*
X11600515Y-14322222D01*
X11600515Y-14322222D02*
X11600515Y-14426984D01*
X11990991Y-14217460D02*
X11819563Y-14474603D01*
X12248134Y-14226984D02*
X12267182Y-14226984D01*
X12267182Y-14226984D02*
X12286229Y-14236508D01*
X12286229Y-14236508D02*
X12295753Y-14246031D01*
X12295753Y-14246031D02*
X12305277Y-14265079D01*
X12305277Y-14265079D02*
X12314801Y-14303174D01*
X12314801Y-14303174D02*
X12314801Y-14350793D01*
X12314801Y-14350793D02*
X12305277Y-14388888D01*
X12305277Y-14388888D02*
X12295753Y-14407936D01*
X12295753Y-14407936D02*
X12286229Y-14417460D01*
X12286229Y-14417460D02*
X12267182Y-14426984D01*
X12267182Y-14426984D02*
X12248134Y-14426984D01*
X12248134Y-14426984D02*
X12229086Y-14417460D01*
X12229086Y-14417460D02*
X12219563Y-14407936D01*
X12219563Y-14407936D02*
X12210039Y-14388888D01*
X12210039Y-14388888D02*
X12200515Y-14350793D01*
X12200515Y-14350793D02*
X12200515Y-14303174D01*
X12200515Y-14303174D02*
X12210039Y-14265079D01*
X12210039Y-14265079D02*
X12219563Y-14246031D01*
X12219563Y-14246031D02*
X12229086Y-14236508D01*
X12229086Y-14236508D02*
X12248134Y-14226984D01*
X12400515Y-14407936D02*
X12410039Y-14417460D01*
X12410039Y-14417460D02*
X12400515Y-14426984D01*
X12400515Y-14426984D02*
X12390991Y-14417460D01*
X12390991Y-14417460D02*
X12400515Y-14407936D01*
X12400515Y-14407936D02*
X12400515Y-14426984D01*
X12600515Y-14426984D02*
X12486229Y-14426984D01*
X12543372Y-14426984D02*
X12543372Y-14226984D01*
X12543372Y-14226984D02*
X12524325Y-14255555D01*
X12524325Y-14255555D02*
X12505277Y-14274603D01*
X12505277Y-14274603D02*
X12486229Y-14284127D01*
X12676706Y-14246031D02*
X12686229Y-14236508D01*
X12686229Y-14236508D02*
X12705277Y-14226984D01*
X12705277Y-14226984D02*
X12752896Y-14226984D01*
X12752896Y-14226984D02*
X12771944Y-14236508D01*
X12771944Y-14236508D02*
X12781467Y-14246031D01*
X12781467Y-14246031D02*
X12790991Y-14265079D01*
X12790991Y-14265079D02*
X12790991Y-14284127D01*
X12790991Y-14284127D02*
X12781467Y-14312698D01*
X12781467Y-14312698D02*
X12667182Y-14426984D01*
X12667182Y-14426984D02*
X12790991Y-14426984D01*
X12962420Y-14226984D02*
X12924325Y-14226984D01*
X12924325Y-14226984D02*
X12905277Y-14236508D01*
X12905277Y-14236508D02*
X12895753Y-14246031D01*
X12895753Y-14246031D02*
X12876706Y-14274603D01*
X12876706Y-14274603D02*
X12867182Y-14312698D01*
X12867182Y-14312698D02*
X12867182Y-14388888D01*
X12867182Y-14388888D02*
X12876706Y-14407936D01*
X12876706Y-14407936D02*
X12886229Y-14417460D01*
X12886229Y-14417460D02*
X12905277Y-14426984D01*
X12905277Y-14426984D02*
X12943372Y-14426984D01*
X12943372Y-14426984D02*
X12962420Y-14417460D01*
X12962420Y-14417460D02*
X12971944Y-14407936D01*
X12971944Y-14407936D02*
X12981467Y-14388888D01*
X12981467Y-14388888D02*
X12981467Y-14341269D01*
X12981467Y-14341269D02*
X12971944Y-14322222D01*
X12971944Y-14322222D02*
X12962420Y-14312698D01*
X12962420Y-14312698D02*
X12943372Y-14303174D01*
X12943372Y-14303174D02*
X12905277Y-14303174D01*
X12905277Y-14303174D02*
X12886229Y-14312698D01*
X12886229Y-14312698D02*
X12876706Y-14322222D01*
X12876706Y-14322222D02*
X12867182Y-14341269D01*
X13105277Y-14226984D02*
X13124325Y-14226984D01*
X13124325Y-14226984D02*
X13143372Y-14236508D01*
X13143372Y-14236508D02*
X13152896Y-14246031D01*
X13152896Y-14246031D02*
X13162420Y-14265079D01*
X13162420Y-14265079D02*
X13171944Y-14303174D01*
X13171944Y-14303174D02*
X13171944Y-14350793D01*
X13171944Y-14350793D02*
X13162420Y-14388888D01*
X13162420Y-14388888D02*
X13152896Y-14407936D01*
X13152896Y-14407936D02*
X13143372Y-14417460D01*
X13143372Y-14417460D02*
X13124325Y-14426984D01*
X13124325Y-14426984D02*
X13105277Y-14426984D01*
X13105277Y-14426984D02*
X13086229Y-14417460D01*
X13086229Y-14417460D02*
X13076706Y-14407936D01*
X13076706Y-14407936D02*
X13067182Y-14388888D01*
X13067182Y-14388888D02*
X13057658Y-14350793D01*
X13057658Y-14350793D02*
X13057658Y-14303174D01*
X13057658Y-14303174D02*
X13067182Y-14265079D01*
X13067182Y-14265079D02*
X13076706Y-14246031D01*
X13076706Y-14246031D02*
X13086229Y-14236508D01*
X13086229Y-14236508D02*
X13105277Y-14226984D01*
X13248134Y-14226984D02*
X13248134Y-14265079D01*
X13324325Y-14226984D02*
X13324325Y-14265079D01*
X13619563Y-14503174D02*
X13610039Y-14493650D01*
X13610039Y-14493650D02*
X13590991Y-14465079D01*
X13590991Y-14465079D02*
X13581468Y-14446031D01*
X13581468Y-14446031D02*
X13571944Y-14417460D01*
X13571944Y-14417460D02*
X13562420Y-14369841D01*
X13562420Y-14369841D02*
X13562420Y-14331746D01*
X13562420Y-14331746D02*
X13571944Y-14284127D01*
X13571944Y-14284127D02*
X13581468Y-14255555D01*
X13581468Y-14255555D02*
X13590991Y-14236508D01*
X13590991Y-14236508D02*
X13610039Y-14207936D01*
X13610039Y-14207936D02*
X13619563Y-14198412D01*
X13781468Y-14293650D02*
X13781468Y-14426984D01*
X13733848Y-14217460D02*
X13686229Y-14360317D01*
X13686229Y-14360317D02*
X13810039Y-14360317D01*
X14038610Y-14426984D02*
X14038610Y-14226984D01*
X14124325Y-14426984D02*
X14124325Y-14322222D01*
X14124325Y-14322222D02*
X14114801Y-14303174D01*
X14114801Y-14303174D02*
X14095753Y-14293650D01*
X14095753Y-14293650D02*
X14067182Y-14293650D01*
X14067182Y-14293650D02*
X14048134Y-14303174D01*
X14048134Y-14303174D02*
X14038610Y-14312698D01*
X14248134Y-14426984D02*
X14229087Y-14417460D01*
X14229087Y-14417460D02*
X14219563Y-14407936D01*
X14219563Y-14407936D02*
X14210039Y-14388888D01*
X14210039Y-14388888D02*
X14210039Y-14331746D01*
X14210039Y-14331746D02*
X14219563Y-14312698D01*
X14219563Y-14312698D02*
X14229087Y-14303174D01*
X14229087Y-14303174D02*
X14248134Y-14293650D01*
X14248134Y-14293650D02*
X14276706Y-14293650D01*
X14276706Y-14293650D02*
X14295753Y-14303174D01*
X14295753Y-14303174D02*
X14305277Y-14312698D01*
X14305277Y-14312698D02*
X14314801Y-14331746D01*
X14314801Y-14331746D02*
X14314801Y-14388888D01*
X14314801Y-14388888D02*
X14305277Y-14407936D01*
X14305277Y-14407936D02*
X14295753Y-14417460D01*
X14295753Y-14417460D02*
X14276706Y-14426984D01*
X14276706Y-14426984D02*
X14248134Y-14426984D01*
X14429087Y-14426984D02*
X14410039Y-14417460D01*
X14410039Y-14417460D02*
X14400515Y-14398412D01*
X14400515Y-14398412D02*
X14400515Y-14226984D01*
X14581468Y-14417460D02*
X14562420Y-14426984D01*
X14562420Y-14426984D02*
X14524325Y-14426984D01*
X14524325Y-14426984D02*
X14505277Y-14417460D01*
X14505277Y-14417460D02*
X14495753Y-14398412D01*
X14495753Y-14398412D02*
X14495753Y-14322222D01*
X14495753Y-14322222D02*
X14505277Y-14303174D01*
X14505277Y-14303174D02*
X14524325Y-14293650D01*
X14524325Y-14293650D02*
X14562420Y-14293650D01*
X14562420Y-14293650D02*
X14581468Y-14303174D01*
X14581468Y-14303174D02*
X14590991Y-14322222D01*
X14590991Y-14322222D02*
X14590991Y-14341269D01*
X14590991Y-14341269D02*
X14495753Y-14360317D01*
X14667182Y-14417460D02*
X14686230Y-14426984D01*
X14686230Y-14426984D02*
X14724325Y-14426984D01*
X14724325Y-14426984D02*
X14743372Y-14417460D01*
X14743372Y-14417460D02*
X14752896Y-14398412D01*
X14752896Y-14398412D02*
X14752896Y-14388888D01*
X14752896Y-14388888D02*
X14743372Y-14369841D01*
X14743372Y-14369841D02*
X14724325Y-14360317D01*
X14724325Y-14360317D02*
X14695753Y-14360317D01*
X14695753Y-14360317D02*
X14676706Y-14350793D01*
X14676706Y-14350793D02*
X14667182Y-14331746D01*
X14667182Y-14331746D02*
X14667182Y-14322222D01*
X14667182Y-14322222D02*
X14676706Y-14303174D01*
X14676706Y-14303174D02*
X14695753Y-14293650D01*
X14695753Y-14293650D02*
X14724325Y-14293650D01*
X14724325Y-14293650D02*
X14743372Y-14303174D01*
X14819563Y-14503174D02*
X14829087Y-14493650D01*
X14829087Y-14493650D02*
X14848134Y-14465079D01*
X14848134Y-14465079D02*
X14857658Y-14446031D01*
X14857658Y-14446031D02*
X14867182Y-14417460D01*
X14867182Y-14417460D02*
X14876706Y-14369841D01*
X14876706Y-14369841D02*
X14876706Y-14331746D01*
X14876706Y-14331746D02*
X14867182Y-14284127D01*
X14867182Y-14284127D02*
X14857658Y-14255555D01*
X14857658Y-14255555D02*
X14848134Y-14236508D01*
X14848134Y-14236508D02*
X14829087Y-14207936D01*
X14829087Y-14207936D02*
X14819563Y-14198412D01*
X15181468Y-14503174D02*
X15171944Y-14493650D01*
X15171944Y-14493650D02*
X15152896Y-14465079D01*
X15152896Y-14465079D02*
X15143372Y-14446031D01*
X15143372Y-14446031D02*
X15133849Y-14417460D01*
X15133849Y-14417460D02*
X15124325Y-14369841D01*
X15124325Y-14369841D02*
X15124325Y-14331746D01*
X15124325Y-14331746D02*
X15133849Y-14284127D01*
X15133849Y-14284127D02*
X15143372Y-14255555D01*
X15143372Y-14255555D02*
X15152896Y-14236508D01*
X15152896Y-14236508D02*
X15171944Y-14207936D01*
X15171944Y-14207936D02*
X15181468Y-14198412D01*
X15257658Y-14293650D02*
X15257658Y-14426984D01*
X15257658Y-14312698D02*
X15267182Y-14303174D01*
X15267182Y-14303174D02*
X15286230Y-14293650D01*
X15286230Y-14293650D02*
X15314801Y-14293650D01*
X15314801Y-14293650D02*
X15333849Y-14303174D01*
X15333849Y-14303174D02*
X15343372Y-14322222D01*
X15343372Y-14322222D02*
X15343372Y-14426984D01*
X15467182Y-14426984D02*
X15448134Y-14417460D01*
X15448134Y-14417460D02*
X15438611Y-14407936D01*
X15438611Y-14407936D02*
X15429087Y-14388888D01*
X15429087Y-14388888D02*
X15429087Y-14331746D01*
X15429087Y-14331746D02*
X15438611Y-14312698D01*
X15438611Y-14312698D02*
X15448134Y-14303174D01*
X15448134Y-14303174D02*
X15467182Y-14293650D01*
X15467182Y-14293650D02*
X15495753Y-14293650D01*
X15495753Y-14293650D02*
X15514801Y-14303174D01*
X15514801Y-14303174D02*
X15524325Y-14312698D01*
X15524325Y-14312698D02*
X15533849Y-14331746D01*
X15533849Y-14331746D02*
X15533849Y-14388888D01*
X15533849Y-14388888D02*
X15524325Y-14407936D01*
X15524325Y-14407936D02*
X15514801Y-14417460D01*
X15514801Y-14417460D02*
X15495753Y-14426984D01*
X15495753Y-14426984D02*
X15467182Y-14426984D01*
X15590992Y-14293650D02*
X15667182Y-14293650D01*
X15619563Y-14226984D02*
X15619563Y-14398412D01*
X15619563Y-14398412D02*
X15629087Y-14417460D01*
X15629087Y-14417460D02*
X15648134Y-14426984D01*
X15648134Y-14426984D02*
X15667182Y-14426984D01*
X15886230Y-14293650D02*
X15886230Y-14493650D01*
X15886230Y-14303174D02*
X15905277Y-14293650D01*
X15905277Y-14293650D02*
X15943373Y-14293650D01*
X15943373Y-14293650D02*
X15962420Y-14303174D01*
X15962420Y-14303174D02*
X15971944Y-14312698D01*
X15971944Y-14312698D02*
X15981468Y-14331746D01*
X15981468Y-14331746D02*
X15981468Y-14388888D01*
X15981468Y-14388888D02*
X15971944Y-14407936D01*
X15971944Y-14407936D02*
X15962420Y-14417460D01*
X15962420Y-14417460D02*
X15943373Y-14426984D01*
X15943373Y-14426984D02*
X15905277Y-14426984D01*
X15905277Y-14426984D02*
X15886230Y-14417460D01*
X16095753Y-14426984D02*
X16076706Y-14417460D01*
X16076706Y-14417460D02*
X16067182Y-14398412D01*
X16067182Y-14398412D02*
X16067182Y-14226984D01*
X16257658Y-14426984D02*
X16257658Y-14322222D01*
X16257658Y-14322222D02*
X16248134Y-14303174D01*
X16248134Y-14303174D02*
X16229087Y-14293650D01*
X16229087Y-14293650D02*
X16190992Y-14293650D01*
X16190992Y-14293650D02*
X16171944Y-14303174D01*
X16257658Y-14417460D02*
X16238611Y-14426984D01*
X16238611Y-14426984D02*
X16190992Y-14426984D01*
X16190992Y-14426984D02*
X16171944Y-14417460D01*
X16171944Y-14417460D02*
X16162420Y-14398412D01*
X16162420Y-14398412D02*
X16162420Y-14379365D01*
X16162420Y-14379365D02*
X16171944Y-14360317D01*
X16171944Y-14360317D02*
X16190992Y-14350793D01*
X16190992Y-14350793D02*
X16238611Y-14350793D01*
X16238611Y-14350793D02*
X16257658Y-14341269D01*
X16324325Y-14293650D02*
X16400515Y-14293650D01*
X16352896Y-14226984D02*
X16352896Y-14398412D01*
X16352896Y-14398412D02*
X16362420Y-14417460D01*
X16362420Y-14417460D02*
X16381468Y-14426984D01*
X16381468Y-14426984D02*
X16400515Y-14426984D01*
X16543373Y-14417460D02*
X16524325Y-14426984D01*
X16524325Y-14426984D02*
X16486230Y-14426984D01*
X16486230Y-14426984D02*
X16467182Y-14417460D01*
X16467182Y-14417460D02*
X16457658Y-14398412D01*
X16457658Y-14398412D02*
X16457658Y-14322222D01*
X16457658Y-14322222D02*
X16467182Y-14303174D01*
X16467182Y-14303174D02*
X16486230Y-14293650D01*
X16486230Y-14293650D02*
X16524325Y-14293650D01*
X16524325Y-14293650D02*
X16543373Y-14303174D01*
X16543373Y-14303174D02*
X16552896Y-14322222D01*
X16552896Y-14322222D02*
X16552896Y-14341269D01*
X16552896Y-14341269D02*
X16457658Y-14360317D01*
X16724325Y-14426984D02*
X16724325Y-14226984D01*
X16724325Y-14417460D02*
X16705277Y-14426984D01*
X16705277Y-14426984D02*
X16667182Y-14426984D01*
X16667182Y-14426984D02*
X16648134Y-14417460D01*
X16648134Y-14417460D02*
X16638611Y-14407936D01*
X16638611Y-14407936D02*
X16629087Y-14388888D01*
X16629087Y-14388888D02*
X16629087Y-14331746D01*
X16629087Y-14331746D02*
X16638611Y-14312698D01*
X16638611Y-14312698D02*
X16648134Y-14303174D01*
X16648134Y-14303174D02*
X16667182Y-14293650D01*
X16667182Y-14293650D02*
X16705277Y-14293650D01*
X16705277Y-14293650D02*
X16724325Y-14303174D01*
X16800516Y-14503174D02*
X16810039Y-14493650D01*
X16810039Y-14493650D02*
X16829087Y-14465079D01*
X16829087Y-14465079D02*
X16838611Y-14446031D01*
X16838611Y-14446031D02*
X16848135Y-14417460D01*
X16848135Y-14417460D02*
X16857658Y-14369841D01*
X16857658Y-14369841D02*
X16857658Y-14331746D01*
X16857658Y-14331746D02*
X16848135Y-14284127D01*
X16848135Y-14284127D02*
X16838611Y-14255555D01*
X16838611Y-14255555D02*
X16829087Y-14236508D01*
X16829087Y-14236508D02*
X16810039Y-14207936D01*
X16810039Y-14207936D02*
X16800516Y-14198412D01*
M02*
