%TF.GenerationSoftware,KiCad,Pcbnew,8.0.0*%
%TF.CreationDate,2024-07-21T16:15:32-03:00*%
%TF.ProjectId,STM32XP,53544d33-3258-4502-9e6b-696361645f70,00*%
%TF.SameCoordinates,Original*%
%TF.FileFunction,Drillmap*%
%TF.FilePolarity,Positive*%
%FSLAX45Y45*%
G04 Gerber Fmt 4.5, Leading zero omitted, Abs format (unit mm)*
G04 Created by KiCad (PCBNEW 8.0.0) date 2024-07-21 16:15:32*
%MOMM*%
%LPD*%
G01*
G04 APERTURE LIST*
%ADD10C,0.050000*%
%ADD11C,0.200000*%
%ADD12C,0.100000*%
G04 APERTURE END LIST*
D10*
X10428000Y-13429000D02*
X19572000Y-13429000D01*
X10047000Y-6952000D02*
G75*
G02*
X10428000Y-6571000I381000J0D01*
G01*
X10047000Y-6952000D02*
X10047000Y-13048000D01*
X10428000Y-13429000D02*
G75*
G02*
X10047000Y-13048000I0J381000D01*
G01*
X10428000Y-6571000D02*
X19572000Y-6571000D01*
X19953000Y-13048000D02*
G75*
G02*
X19572000Y-13429000I-381000J0D01*
G01*
X19572000Y-6571000D02*
G75*
G02*
X19953000Y-6952000I0J-381000D01*
G01*
X19953000Y-13048000D02*
X19953000Y-6952000D01*
X19718800Y-10751000D02*
X19718800Y-10671000D01*
X19808800Y-10671000D02*
X19808800Y-10751000D01*
X19718800Y-10671000D02*
G75*
G02*
X19808800Y-10671000I45000J0D01*
G01*
X19808800Y-10751000D02*
G75*
G02*
X19718800Y-10751000I-45000J0D01*
G01*
X19808800Y-11511000D02*
G75*
G02*
X19718800Y-11511000I-45000J0D01*
G01*
X19718800Y-11511000D02*
G75*
G02*
X19808800Y-11511000I45000J0D01*
G01*
X16670000Y-11630000D02*
G75*
G02*
X16370000Y-11630000I-150000J0D01*
G01*
X16370000Y-11630000D02*
G75*
G02*
X16670000Y-11630000I150000J0D01*
G01*
X16670000Y-8780000D02*
G75*
G02*
X16370000Y-8780000I-150000J0D01*
G01*
X16370000Y-8780000D02*
G75*
G02*
X16670000Y-8780000I150000J0D01*
G01*
X13630000Y-11630000D02*
G75*
G02*
X13330000Y-11630000I-150000J0D01*
G01*
X13330000Y-11630000D02*
G75*
G02*
X13630000Y-11630000I150000J0D01*
G01*
X13630000Y-8780000D02*
G75*
G02*
X13330000Y-8780000I-150000J0D01*
G01*
X13330000Y-8780000D02*
G75*
G02*
X13630000Y-8780000I150000J0D01*
G01*
D11*
D12*
X10159000Y-6937000D02*
X10189000Y-6967000D01*
X10189000Y-6937000D02*
X10159000Y-6967000D01*
X10159000Y-7178300D02*
X10189000Y-7208300D01*
X10189000Y-7178300D02*
X10159000Y-7208300D01*
X10159000Y-7445000D02*
X10189000Y-7475000D01*
X10189000Y-7445000D02*
X10159000Y-7475000D01*
X10159000Y-7699000D02*
X10189000Y-7729000D01*
X10189000Y-7699000D02*
X10159000Y-7729000D01*
X10159000Y-7953000D02*
X10189000Y-7983000D01*
X10189000Y-7953000D02*
X10159000Y-7983000D01*
X10159000Y-8194300D02*
X10189000Y-8224300D01*
X10189000Y-8194300D02*
X10159000Y-8224300D01*
X10159000Y-8461000D02*
X10189000Y-8491000D01*
X10189000Y-8461000D02*
X10159000Y-8491000D01*
X10159000Y-8702300D02*
X10189000Y-8732300D01*
X10189000Y-8702300D02*
X10159000Y-8732300D01*
X10159000Y-8969000D02*
X10189000Y-8999000D01*
X10189000Y-8969000D02*
X10159000Y-8999000D01*
X10159000Y-9223000D02*
X10189000Y-9253000D01*
X10189000Y-9223000D02*
X10159000Y-9253000D01*
X10159000Y-9477000D02*
X10189000Y-9507000D01*
X10189000Y-9477000D02*
X10159000Y-9507000D01*
X10159000Y-9731000D02*
X10189000Y-9761000D01*
X10189000Y-9731000D02*
X10159000Y-9761000D01*
X10159000Y-9985000D02*
X10189000Y-10015000D01*
X10189000Y-9985000D02*
X10159000Y-10015000D01*
X10159000Y-10239000D02*
X10189000Y-10269000D01*
X10189000Y-10239000D02*
X10159000Y-10269000D01*
X10159000Y-10493000D02*
X10189000Y-10523000D01*
X10189000Y-10493000D02*
X10159000Y-10523000D01*
X10159000Y-10747000D02*
X10189000Y-10777000D01*
X10189000Y-10747000D02*
X10159000Y-10777000D01*
X10159000Y-11255000D02*
X10189000Y-11285000D01*
X10189000Y-11255000D02*
X10159000Y-11285000D01*
X10159000Y-11509000D02*
X10189000Y-11539000D01*
X10189000Y-11509000D02*
X10159000Y-11539000D01*
X10159000Y-11763000D02*
X10189000Y-11793000D01*
X10189000Y-11763000D02*
X10159000Y-11793000D01*
X10159000Y-12017000D02*
X10189000Y-12047000D01*
X10189000Y-12017000D02*
X10159000Y-12047000D01*
X10159000Y-12271000D02*
X10189000Y-12301000D01*
X10189000Y-12271000D02*
X10159000Y-12301000D01*
X10159000Y-12779000D02*
X10189000Y-12809000D01*
X10189000Y-12779000D02*
X10159000Y-12809000D01*
X10159000Y-13033000D02*
X10189000Y-13063000D01*
X10189000Y-13033000D02*
X10159000Y-13063000D01*
X10413000Y-6683000D02*
X10443000Y-6713000D01*
X10443000Y-6683000D02*
X10413000Y-6713000D01*
X10413000Y-13287000D02*
X10443000Y-13317000D01*
X10443000Y-13287000D02*
X10413000Y-13317000D01*
X10667000Y-6683000D02*
X10697000Y-6713000D01*
X10697000Y-6683000D02*
X10667000Y-6713000D01*
X10667000Y-13287000D02*
X10697000Y-13317000D01*
X10697000Y-13287000D02*
X10667000Y-13317000D01*
X10730500Y-11636000D02*
X10760500Y-11666000D01*
X10760500Y-11636000D02*
X10730500Y-11666000D01*
X10730500Y-12055100D02*
X10760500Y-12085100D01*
X10760500Y-12055100D02*
X10730500Y-12085100D01*
X10730500Y-12232900D02*
X10760500Y-12262900D01*
X10760500Y-12232900D02*
X10730500Y-12262900D01*
X10730500Y-12652000D02*
X10760500Y-12682000D01*
X10760500Y-12652000D02*
X10730500Y-12682000D01*
X10895600Y-9756400D02*
X10925600Y-9786400D01*
X10925600Y-9756400D02*
X10895600Y-9786400D01*
X10895600Y-9985000D02*
X10925600Y-10015000D01*
X10925600Y-9985000D02*
X10895600Y-10015000D01*
X10895600Y-10213600D02*
X10925600Y-10243600D01*
X10925600Y-10213600D02*
X10895600Y-10243600D01*
X10921000Y-13287000D02*
X10951000Y-13317000D01*
X10951000Y-13287000D02*
X10921000Y-13317000D01*
X11009900Y-11851900D02*
X11039900Y-11881900D01*
X11039900Y-11851900D02*
X11009900Y-11881900D01*
X11009900Y-12436100D02*
X11039900Y-12466100D01*
X11039900Y-12436100D02*
X11009900Y-12466100D01*
X11175000Y-6683000D02*
X11205000Y-6713000D01*
X11205000Y-6683000D02*
X11175000Y-6713000D01*
X11175000Y-9756400D02*
X11205000Y-9786400D01*
X11205000Y-9756400D02*
X11175000Y-9786400D01*
X11175000Y-10213600D02*
X11205000Y-10243600D01*
X11205000Y-10213600D02*
X11175000Y-10243600D01*
X11175000Y-13287000D02*
X11205000Y-13317000D01*
X11205000Y-13287000D02*
X11175000Y-13317000D01*
X11225800Y-9591300D02*
X11255800Y-9621300D01*
X11255800Y-9591300D02*
X11225800Y-9621300D01*
X11225800Y-10378700D02*
X11255800Y-10408700D01*
X11255800Y-10378700D02*
X11225800Y-10408700D01*
X11238500Y-12334500D02*
X11268500Y-12364500D01*
X11268500Y-12334500D02*
X11238500Y-12364500D01*
X11276600Y-9654800D02*
X11306600Y-9684800D01*
X11306600Y-9654800D02*
X11276600Y-9684800D01*
X11276600Y-10315200D02*
X11306600Y-10345200D01*
X11306600Y-10315200D02*
X11276600Y-10345200D01*
X11276600Y-11470900D02*
X11306600Y-11500900D01*
X11306600Y-11470900D02*
X11276600Y-11500900D01*
X11302000Y-9934200D02*
X11332000Y-9964200D01*
X11332000Y-9934200D02*
X11302000Y-9964200D01*
X11302000Y-10039600D02*
X11332000Y-10069600D01*
X11332000Y-10039600D02*
X11302000Y-10069600D01*
X11302000Y-11064500D02*
X11332000Y-11094500D01*
X11332000Y-11064500D02*
X11302000Y-11094500D01*
X11365500Y-11559800D02*
X11395500Y-11589800D01*
X11395500Y-11559800D02*
X11365500Y-11589800D01*
X11365500Y-12182100D02*
X11395500Y-12212100D01*
X11395500Y-12182100D02*
X11365500Y-12212100D01*
X11365500Y-12309100D02*
X11395500Y-12339100D01*
X11395500Y-12309100D02*
X11365500Y-12339100D01*
X11429000Y-6683000D02*
X11459000Y-6713000D01*
X11459000Y-6683000D02*
X11429000Y-6713000D01*
X11429000Y-9172200D02*
X11459000Y-9202200D01*
X11459000Y-9172200D02*
X11429000Y-9202200D01*
X11429000Y-10797800D02*
X11459000Y-10827800D01*
X11459000Y-10797800D02*
X11429000Y-10827800D01*
X11460750Y-11953500D02*
X11490750Y-11983500D01*
X11490750Y-11953500D02*
X11460750Y-11983500D01*
X11460750Y-12525000D02*
X11490750Y-12555000D01*
X11490750Y-12525000D02*
X11460750Y-12555000D01*
X11464750Y-11854250D02*
X11494750Y-11884250D01*
X11494750Y-11854250D02*
X11464750Y-11884250D01*
X11467100Y-12613900D02*
X11497100Y-12643900D01*
X11497100Y-12613900D02*
X11467100Y-12643900D01*
X11492500Y-11763000D02*
X11522500Y-11793000D01*
X11522500Y-11763000D02*
X11492500Y-11793000D01*
X11517900Y-12944100D02*
X11547900Y-12974100D01*
X11547900Y-12944100D02*
X11517900Y-12974100D01*
X11556000Y-9197600D02*
X11586000Y-9227600D01*
X11586000Y-9197600D02*
X11556000Y-9227600D01*
X11556000Y-9578600D02*
X11586000Y-9608600D01*
X11586000Y-9578600D02*
X11556000Y-9608600D01*
X11556000Y-10391400D02*
X11586000Y-10421400D01*
X11586000Y-10391400D02*
X11556000Y-10421400D01*
X11556000Y-10772400D02*
X11586000Y-10802400D01*
X11586000Y-10772400D02*
X11556000Y-10802400D01*
X11556000Y-12652000D02*
X11586000Y-12682000D01*
X11586000Y-12652000D02*
X11556000Y-12682000D01*
X11619500Y-12055100D02*
X11649500Y-12085100D01*
X11649500Y-12055100D02*
X11619500Y-12085100D01*
X11619500Y-12232900D02*
X11649500Y-12262900D01*
X11649500Y-12232900D02*
X11619500Y-12262900D01*
X11683000Y-6683000D02*
X11713000Y-6713000D01*
X11713000Y-6683000D02*
X11683000Y-6713000D01*
X11683000Y-9083300D02*
X11713000Y-9113300D01*
X11713000Y-9083300D02*
X11683000Y-9113300D01*
X11683000Y-9172200D02*
X11713000Y-9202200D01*
X11713000Y-9172200D02*
X11683000Y-9202200D01*
X11683000Y-10797800D02*
X11713000Y-10827800D01*
X11713000Y-10797800D02*
X11683000Y-10827800D01*
X11810000Y-9934200D02*
X11840000Y-9964200D01*
X11840000Y-9934200D02*
X11810000Y-9964200D01*
X11810000Y-10039600D02*
X11840000Y-10069600D01*
X11840000Y-10039600D02*
X11810000Y-10069600D01*
X11810000Y-13287000D02*
X11840000Y-13317000D01*
X11840000Y-13287000D02*
X11810000Y-13317000D01*
X11835400Y-9654800D02*
X11865400Y-9684800D01*
X11865400Y-9654800D02*
X11835400Y-9684800D01*
X11835400Y-10315200D02*
X11865400Y-10345200D01*
X11865400Y-10315200D02*
X11835400Y-10345200D01*
X11886200Y-9591300D02*
X11916200Y-9621300D01*
X11916200Y-9591300D02*
X11886200Y-9621300D01*
X11886200Y-10378700D02*
X11916200Y-10408700D01*
X11916200Y-10378700D02*
X11886200Y-10408700D01*
X11898900Y-12436100D02*
X11928900Y-12466100D01*
X11928900Y-12436100D02*
X11898900Y-12466100D01*
X11911600Y-9759250D02*
X11941600Y-9789250D01*
X11941600Y-9759250D02*
X11911600Y-9789250D01*
X11911600Y-10210750D02*
X11941600Y-10240750D01*
X11941600Y-10210750D02*
X11911600Y-10240750D01*
X11937000Y-6683000D02*
X11967000Y-6713000D01*
X11967000Y-6683000D02*
X11937000Y-6713000D01*
X12102100Y-12944100D02*
X12132100Y-12974100D01*
X12132100Y-12944100D02*
X12102100Y-12974100D01*
X12127500Y-9759250D02*
X12157500Y-9789250D01*
X12157500Y-9759250D02*
X12127500Y-9789250D01*
X12127500Y-10210750D02*
X12157500Y-10240750D01*
X12157500Y-10210750D02*
X12127500Y-10240750D01*
X12140200Y-11839200D02*
X12170200Y-11869200D01*
X12170200Y-11839200D02*
X12140200Y-11869200D01*
X12140200Y-11953500D02*
X12170200Y-11983500D01*
X12170200Y-11953500D02*
X12140200Y-11983500D01*
X12140200Y-12677400D02*
X12170200Y-12707400D01*
X12170200Y-12677400D02*
X12140200Y-12707400D01*
X12152900Y-12144000D02*
X12182900Y-12174000D01*
X12182900Y-12144000D02*
X12152900Y-12174000D01*
X12155250Y-12433750D02*
X12185250Y-12463750D01*
X12185250Y-12433750D02*
X12155250Y-12463750D01*
X12159250Y-12334500D02*
X12189250Y-12364500D01*
X12189250Y-12334500D02*
X12159250Y-12364500D01*
X12159250Y-12525000D02*
X12189250Y-12555000D01*
X12189250Y-12525000D02*
X12159250Y-12555000D01*
X12165600Y-9502400D02*
X12195600Y-9532400D01*
X12195600Y-9502400D02*
X12165600Y-9532400D01*
X12165600Y-9604000D02*
X12195600Y-9634000D01*
X12195600Y-9604000D02*
X12165600Y-9634000D01*
X12165600Y-10366000D02*
X12195600Y-10396000D01*
X12195600Y-10366000D02*
X12165600Y-10396000D01*
X12165600Y-10467600D02*
X12195600Y-10497600D01*
X12195600Y-10467600D02*
X12165600Y-10497600D01*
X12165600Y-11661400D02*
X12195600Y-11691400D01*
X12195600Y-11661400D02*
X12165600Y-11691400D01*
X12167950Y-12052750D02*
X12197950Y-12082750D01*
X12197950Y-12052750D02*
X12167950Y-12082750D01*
X12216400Y-7508500D02*
X12246400Y-7538500D01*
X12246400Y-7508500D02*
X12216400Y-7538500D01*
X12229100Y-8029200D02*
X12259100Y-8059200D01*
X12259100Y-8029200D02*
X12229100Y-8059200D01*
X12229100Y-8245100D02*
X12259100Y-8275100D01*
X12259100Y-8245100D02*
X12229100Y-8275100D01*
X12254500Y-12728200D02*
X12284500Y-12758200D01*
X12284500Y-12728200D02*
X12254500Y-12758200D01*
X12267200Y-9934200D02*
X12297200Y-9964200D01*
X12297200Y-9934200D02*
X12267200Y-9964200D01*
X12267200Y-10035800D02*
X12297200Y-10065800D01*
X12297200Y-10035800D02*
X12267200Y-10065800D01*
X12305300Y-7508500D02*
X12335300Y-7538500D01*
X12335300Y-7508500D02*
X12305300Y-7538500D01*
X12318000Y-8801400D02*
X12348000Y-8831400D01*
X12348000Y-8801400D02*
X12318000Y-8831400D01*
X12318000Y-9068100D02*
X12348000Y-9098100D01*
X12348000Y-9068100D02*
X12318000Y-9098100D01*
X12318000Y-9502400D02*
X12348000Y-9532400D01*
X12348000Y-9502400D02*
X12318000Y-9532400D01*
X12318000Y-9604000D02*
X12348000Y-9634000D01*
X12348000Y-9604000D02*
X12318000Y-9634000D01*
X12318000Y-10366000D02*
X12348000Y-10396000D01*
X12348000Y-10366000D02*
X12318000Y-10396000D01*
X12318000Y-10467600D02*
X12348000Y-10497600D01*
X12348000Y-10467600D02*
X12318000Y-10497600D01*
X12318000Y-11064500D02*
X12348000Y-11094500D01*
X12348000Y-11064500D02*
X12318000Y-11094500D01*
X12368800Y-12804400D02*
X12398800Y-12834400D01*
X12398800Y-12804400D02*
X12368800Y-12834400D01*
X12381500Y-12029700D02*
X12411500Y-12059700D01*
X12411500Y-12029700D02*
X12381500Y-12059700D01*
X12381500Y-12144000D02*
X12411500Y-12174000D01*
X12411500Y-12144000D02*
X12381500Y-12174000D01*
X12413250Y-9889750D02*
X12443250Y-9919750D01*
X12443250Y-9889750D02*
X12413250Y-9919750D01*
X12413250Y-10080250D02*
X12443250Y-10110250D01*
X12443250Y-10080250D02*
X12413250Y-10110250D01*
X12419600Y-8828227D02*
X12449600Y-8858227D01*
X12449600Y-8828227D02*
X12419600Y-8858227D01*
X12419600Y-9068100D02*
X12449600Y-9098100D01*
X12449600Y-9068100D02*
X12419600Y-9098100D01*
X12445000Y-6683000D02*
X12475000Y-6713000D01*
X12475000Y-6683000D02*
X12445000Y-6713000D01*
X12445000Y-6937000D02*
X12475000Y-6967000D01*
X12475000Y-6937000D02*
X12445000Y-6967000D01*
X12445000Y-13033000D02*
X12475000Y-13063000D01*
X12475000Y-13033000D02*
X12445000Y-13063000D01*
X12445000Y-13287000D02*
X12475000Y-13317000D01*
X12475000Y-13287000D02*
X12445000Y-13317000D01*
X12470400Y-7696500D02*
X12500400Y-7726500D01*
X12500400Y-7696500D02*
X12470400Y-7726500D01*
X12470400Y-7823500D02*
X12500400Y-7853500D01*
X12500400Y-7823500D02*
X12470400Y-7853500D01*
X12470400Y-7950500D02*
X12500400Y-7980500D01*
X12500400Y-7950500D02*
X12470400Y-7980500D01*
X12546600Y-9068100D02*
X12576600Y-9098100D01*
X12576600Y-9068100D02*
X12546600Y-9098100D01*
X12572000Y-7696500D02*
X12602000Y-7726500D01*
X12602000Y-7696500D02*
X12572000Y-7726500D01*
X12572000Y-7823500D02*
X12602000Y-7853500D01*
X12602000Y-7823500D02*
X12572000Y-7853500D01*
X12572000Y-7950500D02*
X12602000Y-7980500D01*
X12602000Y-7950500D02*
X12572000Y-7980500D01*
X12572000Y-9934200D02*
X12602000Y-9964200D01*
X12602000Y-9934200D02*
X12572000Y-9964200D01*
X12572000Y-10035800D02*
X12602000Y-10065800D01*
X12602000Y-10035800D02*
X12572000Y-10065800D01*
X12597400Y-10188200D02*
X12627400Y-10218200D01*
X12627400Y-10188200D02*
X12597400Y-10218200D01*
X12597400Y-10289800D02*
X12627400Y-10319800D01*
X12627400Y-10289800D02*
X12597400Y-10319800D01*
X12597400Y-11636000D02*
X12627400Y-11666000D01*
X12627400Y-11636000D02*
X12597400Y-11666000D01*
X12603428Y-11899710D02*
X12633428Y-11929710D01*
X12633428Y-11899710D02*
X12603428Y-11929710D01*
X12610100Y-11470900D02*
X12640100Y-11500900D01*
X12640100Y-11470900D02*
X12610100Y-11500900D01*
X12610100Y-12461500D02*
X12640100Y-12491500D01*
X12640100Y-12461500D02*
X12610100Y-12491500D01*
X12648200Y-9068100D02*
X12678200Y-9098100D01*
X12678200Y-9068100D02*
X12648200Y-9098100D01*
X12673600Y-7696500D02*
X12703600Y-7726500D01*
X12703600Y-7696500D02*
X12673600Y-7726500D01*
X12673600Y-7823500D02*
X12703600Y-7853500D01*
X12703600Y-7823500D02*
X12673600Y-7853500D01*
X12673600Y-7950500D02*
X12703600Y-7980500D01*
X12703600Y-7950500D02*
X12673600Y-7980500D01*
X12673600Y-9756400D02*
X12703600Y-9786400D01*
X12703600Y-9756400D02*
X12673600Y-9786400D01*
X12699000Y-6683000D02*
X12729000Y-6713000D01*
X12729000Y-6683000D02*
X12699000Y-6713000D01*
X12699000Y-6937000D02*
X12729000Y-6967000D01*
X12729000Y-6937000D02*
X12699000Y-6967000D01*
X12699000Y-13033000D02*
X12729000Y-13063000D01*
X12729000Y-13033000D02*
X12699000Y-13063000D01*
X12699000Y-13287000D02*
X12729000Y-13317000D01*
X12729000Y-13287000D02*
X12699000Y-13317000D01*
X12762500Y-12461500D02*
X12792500Y-12491500D01*
X12792500Y-12461500D02*
X12762500Y-12491500D01*
X12775200Y-7889500D02*
X12805200Y-7919500D01*
X12805200Y-7889500D02*
X12775200Y-7919500D01*
X12775200Y-10264400D02*
X12805200Y-10294400D01*
X12805200Y-10264400D02*
X12775200Y-10294400D01*
X12775200Y-10366000D02*
X12805200Y-10396000D01*
X12805200Y-10366000D02*
X12775200Y-10396000D01*
X12826000Y-10080250D02*
X12856000Y-10110250D01*
X12856000Y-10080250D02*
X12826000Y-10110250D01*
X12889500Y-12055100D02*
X12919500Y-12085100D01*
X12919500Y-12055100D02*
X12889500Y-12085100D01*
X12889500Y-12232900D02*
X12919500Y-12262900D01*
X12919500Y-12232900D02*
X12889500Y-12262900D01*
X12914900Y-7775200D02*
X12944900Y-7805200D01*
X12944900Y-7775200D02*
X12914900Y-7805200D01*
X12927600Y-7191000D02*
X12957600Y-7221000D01*
X12957600Y-7191000D02*
X12927600Y-7221000D01*
X12953000Y-6683000D02*
X12983000Y-6713000D01*
X12983000Y-6683000D02*
X12953000Y-6713000D01*
X12953000Y-6937000D02*
X12983000Y-6967000D01*
X12983000Y-6937000D02*
X12953000Y-6967000D01*
X12953000Y-13033000D02*
X12983000Y-13063000D01*
X12983000Y-13033000D02*
X12953000Y-13063000D01*
X12953000Y-13287000D02*
X12983000Y-13317000D01*
X12983000Y-13287000D02*
X12953000Y-13317000D01*
X13080000Y-9908800D02*
X13110000Y-9938800D01*
X13110000Y-9908800D02*
X13080000Y-9938800D01*
X13080000Y-11039100D02*
X13110000Y-11069100D01*
X13110000Y-11039100D02*
X13080000Y-11069100D01*
X13118100Y-7749800D02*
X13148100Y-7779800D01*
X13148100Y-7749800D02*
X13118100Y-7779800D01*
X13130800Y-7654550D02*
X13160800Y-7684550D01*
X13160800Y-7654550D02*
X13130800Y-7684550D01*
X13194300Y-7419600D02*
X13224300Y-7449600D01*
X13224300Y-7419600D02*
X13194300Y-7449600D01*
X13207000Y-6683000D02*
X13237000Y-6713000D01*
X13237000Y-6683000D02*
X13207000Y-6713000D01*
X13207000Y-6937000D02*
X13237000Y-6967000D01*
X13237000Y-6937000D02*
X13207000Y-6967000D01*
X13207000Y-11699500D02*
X13237000Y-11729500D01*
X13237000Y-11699500D02*
X13207000Y-11729500D01*
X13207000Y-13033000D02*
X13237000Y-13063000D01*
X13237000Y-13033000D02*
X13207000Y-13063000D01*
X13207000Y-13287000D02*
X13237000Y-13317000D01*
X13237000Y-13287000D02*
X13207000Y-13317000D01*
X13245100Y-10518400D02*
X13275100Y-10548400D01*
X13275100Y-10518400D02*
X13245100Y-10548400D01*
X13245100Y-10620000D02*
X13275100Y-10650000D01*
X13275100Y-10620000D02*
X13245100Y-10650000D01*
X13270500Y-8575300D02*
X13300500Y-8605300D01*
X13300500Y-8575300D02*
X13270500Y-8605300D01*
X13283200Y-10061200D02*
X13313200Y-10091200D01*
X13313200Y-10061200D02*
X13283200Y-10091200D01*
X13334000Y-7191000D02*
X13364000Y-7221000D01*
X13364000Y-7191000D02*
X13334000Y-7221000D01*
X13334000Y-8207000D02*
X13364000Y-8237000D01*
X13364000Y-8207000D02*
X13334000Y-8237000D01*
X13334000Y-8365750D02*
X13364000Y-8395750D01*
X13364000Y-8365750D02*
X13334000Y-8395750D01*
X13336908Y-8048250D02*
X13366908Y-8078250D01*
X13366908Y-8048250D02*
X13336908Y-8078250D01*
X13359400Y-10797800D02*
X13389400Y-10827800D01*
X13389400Y-10797800D02*
X13359400Y-10827800D01*
X13435600Y-7533900D02*
X13465600Y-7563900D01*
X13465600Y-7533900D02*
X13435600Y-7563900D01*
X13435600Y-8219700D02*
X13465600Y-8249700D01*
X13465600Y-8219700D02*
X13435600Y-8249700D01*
X13435600Y-8384800D02*
X13465600Y-8414800D01*
X13465600Y-8384800D02*
X13435600Y-8414800D01*
X13448300Y-10264400D02*
X13478300Y-10294400D01*
X13478300Y-10264400D02*
X13448300Y-10294400D01*
X13461000Y-6683000D02*
X13491000Y-6713000D01*
X13491000Y-6683000D02*
X13461000Y-6713000D01*
X13461000Y-6937000D02*
X13491000Y-6967000D01*
X13491000Y-6937000D02*
X13461000Y-6967000D01*
X13461000Y-13033000D02*
X13491000Y-13063000D01*
X13491000Y-13033000D02*
X13461000Y-13063000D01*
X13461000Y-13287000D02*
X13491000Y-13317000D01*
X13491000Y-13287000D02*
X13461000Y-13317000D01*
X13486400Y-10670800D02*
X13516400Y-10700800D01*
X13516400Y-10670800D02*
X13486400Y-10700800D01*
X13511800Y-9451600D02*
X13541800Y-9481600D01*
X13541800Y-9451600D02*
X13511800Y-9481600D01*
X13588000Y-7419600D02*
X13618000Y-7449600D01*
X13618000Y-7419600D02*
X13588000Y-7449600D01*
X13626100Y-8981700D02*
X13656100Y-9011700D01*
X13656100Y-8981700D02*
X13626100Y-9011700D01*
X13638800Y-9654800D02*
X13668800Y-9684800D01*
X13668800Y-9654800D02*
X13638800Y-9684800D01*
X13651500Y-11432800D02*
X13681500Y-11462800D01*
X13681500Y-11432800D02*
X13651500Y-11462800D01*
X13679250Y-8552250D02*
X13709250Y-8582250D01*
X13709250Y-8552250D02*
X13679250Y-8582250D01*
X13715000Y-6683000D02*
X13745000Y-6713000D01*
X13745000Y-6683000D02*
X13715000Y-6713000D01*
X13715000Y-6937000D02*
X13745000Y-6967000D01*
X13745000Y-6937000D02*
X13715000Y-6967000D01*
X13715000Y-7064000D02*
X13745000Y-7094000D01*
X13745000Y-7064000D02*
X13715000Y-7094000D01*
X13715000Y-7216400D02*
X13745000Y-7246400D01*
X13745000Y-7216400D02*
X13715000Y-7246400D01*
X13715000Y-7762500D02*
X13745000Y-7792500D01*
X13745000Y-7762500D02*
X13715000Y-7792500D01*
X13715000Y-7984750D02*
X13745000Y-8014750D01*
X13745000Y-7984750D02*
X13715000Y-8014750D01*
X13715000Y-13033000D02*
X13745000Y-13063000D01*
X13745000Y-13033000D02*
X13715000Y-13063000D01*
X13715000Y-13287000D02*
X13745000Y-13317000D01*
X13745000Y-13287000D02*
X13715000Y-13317000D01*
X13791200Y-10670800D02*
X13821200Y-10700800D01*
X13821200Y-10670800D02*
X13791200Y-10700800D01*
X13803900Y-8981700D02*
X13833900Y-9011700D01*
X13833900Y-8981700D02*
X13803900Y-9011700D01*
X13829300Y-10175500D02*
X13859300Y-10205500D01*
X13859300Y-10175500D02*
X13829300Y-10205500D01*
X13842000Y-7857750D02*
X13872000Y-7887750D01*
X13872000Y-7857750D02*
X13842000Y-7887750D01*
X13842000Y-9578600D02*
X13872000Y-9608600D01*
X13872000Y-9578600D02*
X13842000Y-9608600D01*
X13842000Y-10327900D02*
X13872000Y-10357900D01*
X13872000Y-10327900D02*
X13842000Y-10357900D01*
X13873750Y-9350000D02*
X13903750Y-9380000D01*
X13903750Y-9350000D02*
X13873750Y-9380000D01*
X13918200Y-10785100D02*
X13948200Y-10815100D01*
X13948200Y-10785100D02*
X13918200Y-10815100D01*
X13930900Y-8981700D02*
X13960900Y-9011700D01*
X13960900Y-8981700D02*
X13930900Y-9011700D01*
X13969000Y-6683000D02*
X13999000Y-6713000D01*
X13999000Y-6683000D02*
X13969000Y-6713000D01*
X13969000Y-6937000D02*
X13999000Y-6967000D01*
X13999000Y-6937000D02*
X13969000Y-6967000D01*
X13969000Y-8334000D02*
X13999000Y-8364000D01*
X13999000Y-8334000D02*
X13969000Y-8364000D01*
X13969000Y-8486400D02*
X13999000Y-8516400D01*
X13999000Y-8486400D02*
X13969000Y-8516400D01*
X13969000Y-13033000D02*
X13999000Y-13063000D01*
X13999000Y-13033000D02*
X13969000Y-13063000D01*
X13969000Y-13287000D02*
X13999000Y-13317000D01*
X13999000Y-13287000D02*
X13969000Y-13317000D01*
X14070600Y-9680200D02*
X14100600Y-9710200D01*
X14100600Y-9680200D02*
X14070600Y-9710200D01*
X14070600Y-11432800D02*
X14100600Y-11462800D01*
X14100600Y-11432800D02*
X14070600Y-11462800D01*
X14096000Y-10734300D02*
X14126000Y-10764300D01*
X14126000Y-10734300D02*
X14096000Y-10764300D01*
X14121400Y-11026400D02*
X14151400Y-11056400D01*
X14151400Y-11026400D02*
X14121400Y-11056400D01*
X14127750Y-8156200D02*
X14157750Y-8186200D01*
X14157750Y-8156200D02*
X14127750Y-8186200D01*
X14134100Y-8981700D02*
X14164100Y-9011700D01*
X14164100Y-8981700D02*
X14134100Y-9011700D01*
X14159500Y-8410200D02*
X14189500Y-8440200D01*
X14189500Y-8410200D02*
X14159500Y-8440200D01*
X14159500Y-11540750D02*
X14189500Y-11570750D01*
X14189500Y-11540750D02*
X14159500Y-11570750D01*
X14170176Y-10008377D02*
X14200176Y-10038377D01*
X14200176Y-10008377D02*
X14170176Y-10038377D01*
X14172200Y-7470400D02*
X14202200Y-7500400D01*
X14202200Y-7470400D02*
X14172200Y-7500400D01*
X14172200Y-7610100D02*
X14202200Y-7640100D01*
X14202200Y-7610100D02*
X14172200Y-7640100D01*
X14172200Y-8816600D02*
X14202200Y-8846600D01*
X14202200Y-8816600D02*
X14172200Y-8846600D01*
X14172200Y-10277100D02*
X14202200Y-10307100D01*
X14202200Y-10277100D02*
X14172200Y-10307100D01*
X14191250Y-8234750D02*
X14221250Y-8264750D01*
X14221250Y-8234750D02*
X14191250Y-8264750D01*
X14191250Y-11763000D02*
X14221250Y-11793000D01*
X14221250Y-11763000D02*
X14191250Y-11793000D01*
X14197600Y-10099300D02*
X14227600Y-10129300D01*
X14227600Y-10099300D02*
X14197600Y-10129300D01*
X14210300Y-8892800D02*
X14240300Y-8922800D01*
X14240300Y-8892800D02*
X14210300Y-8922800D01*
X14223000Y-6683000D02*
X14253000Y-6713000D01*
X14253000Y-6683000D02*
X14223000Y-6713000D01*
X14223000Y-7140200D02*
X14253000Y-7170200D01*
X14253000Y-7140200D02*
X14223000Y-7170200D01*
X14223000Y-9197600D02*
X14253000Y-9227600D01*
X14253000Y-9197600D02*
X14223000Y-9227600D01*
X14223000Y-9572250D02*
X14253000Y-9602250D01*
X14253000Y-9572250D02*
X14223000Y-9602250D01*
X14223000Y-13033000D02*
X14253000Y-13063000D01*
X14253000Y-13033000D02*
X14223000Y-13063000D01*
X14223000Y-13287000D02*
X14253000Y-13317000D01*
X14253000Y-13287000D02*
X14223000Y-13317000D01*
X14226500Y-9438900D02*
X14256500Y-9468900D01*
X14256500Y-9438900D02*
X14226500Y-9468900D01*
X14254750Y-11953500D02*
X14284750Y-11983500D01*
X14284750Y-11953500D02*
X14254750Y-11983500D01*
X14273800Y-10137400D02*
X14303800Y-10167400D01*
X14303800Y-10137400D02*
X14273800Y-10167400D01*
X14280150Y-9978650D02*
X14310150Y-10008650D01*
X14310150Y-9978650D02*
X14280150Y-10008650D01*
X14350000Y-12112250D02*
X14380000Y-12142250D01*
X14380000Y-12112250D02*
X14350000Y-12142250D01*
X14400800Y-10493000D02*
X14430800Y-10523000D01*
X14430800Y-10493000D02*
X14400800Y-10523000D01*
X14413500Y-11026400D02*
X14443500Y-11056400D01*
X14443500Y-11026400D02*
X14413500Y-11056400D01*
X14413500Y-11420100D02*
X14443500Y-11450100D01*
X14443500Y-11420100D02*
X14413500Y-11450100D01*
X14413500Y-11763000D02*
X14443500Y-11793000D01*
X14443500Y-11763000D02*
X14413500Y-11793000D01*
X14413500Y-11953500D02*
X14443500Y-11983500D01*
X14443500Y-11953500D02*
X14413500Y-11983500D01*
X14477000Y-6683000D02*
X14507000Y-6713000D01*
X14507000Y-6683000D02*
X14477000Y-6713000D01*
X14477000Y-7140200D02*
X14507000Y-7170200D01*
X14507000Y-7140200D02*
X14477000Y-7170200D01*
X14477000Y-7356100D02*
X14507000Y-7386100D01*
X14507000Y-7356100D02*
X14477000Y-7386100D01*
X14477000Y-13033000D02*
X14507000Y-13063000D01*
X14507000Y-13033000D02*
X14477000Y-13063000D01*
X14477000Y-13287000D02*
X14507000Y-13317000D01*
X14507000Y-13287000D02*
X14477000Y-13317000D01*
X14527800Y-10493000D02*
X14557800Y-10523000D01*
X14557800Y-10493000D02*
X14527800Y-10523000D01*
X14527800Y-10848600D02*
X14557800Y-10878600D01*
X14557800Y-10848600D02*
X14527800Y-10878600D01*
X14553200Y-9985000D02*
X14583200Y-10015000D01*
X14583200Y-9985000D02*
X14553200Y-10015000D01*
X14553200Y-10213600D02*
X14583200Y-10243600D01*
X14583200Y-10213600D02*
X14553200Y-10243600D01*
X14578600Y-9019800D02*
X14608600Y-9049800D01*
X14608600Y-9019800D02*
X14578600Y-9049800D01*
X14578600Y-9553200D02*
X14608600Y-9583200D01*
X14608600Y-9553200D02*
X14578600Y-9583200D01*
X14604000Y-9273800D02*
X14634000Y-9303800D01*
X14634000Y-9273800D02*
X14604000Y-9303800D01*
X14614123Y-9889477D02*
X14644123Y-9919477D01*
X14644123Y-9889477D02*
X14614123Y-9919477D01*
X14616700Y-10112000D02*
X14646700Y-10142000D01*
X14646700Y-10112000D02*
X14616700Y-10142000D01*
X14629400Y-10848600D02*
X14659400Y-10878600D01*
X14659400Y-10848600D02*
X14629400Y-10878600D01*
X14653921Y-10416466D02*
X14683921Y-10446466D01*
X14683921Y-10416466D02*
X14653921Y-10446466D01*
X14654800Y-7381500D02*
X14684800Y-7411500D01*
X14684800Y-7381500D02*
X14654800Y-7411500D01*
X14680200Y-8207000D02*
X14710200Y-8237000D01*
X14710200Y-8207000D02*
X14680200Y-8237000D01*
X14680200Y-9553200D02*
X14710200Y-9583200D01*
X14710200Y-9553200D02*
X14680200Y-9583200D01*
X14680200Y-11026400D02*
X14710200Y-11056400D01*
X14710200Y-11026400D02*
X14680200Y-11056400D01*
X14680200Y-11420100D02*
X14710200Y-11450100D01*
X14710200Y-11420100D02*
X14680200Y-11450100D01*
X14680200Y-11763000D02*
X14710200Y-11793000D01*
X14710200Y-11763000D02*
X14680200Y-11793000D01*
X14731000Y-6683000D02*
X14761000Y-6713000D01*
X14761000Y-6683000D02*
X14731000Y-6713000D01*
X14731000Y-6937000D02*
X14761000Y-6967000D01*
X14761000Y-6937000D02*
X14731000Y-6967000D01*
X14731000Y-9680200D02*
X14761000Y-9710200D01*
X14761000Y-9680200D02*
X14731000Y-9710200D01*
X14731000Y-10112000D02*
X14761000Y-10142000D01*
X14761000Y-10112000D02*
X14731000Y-10142000D01*
X14731000Y-11985250D02*
X14761000Y-12015250D01*
X14761000Y-11985250D02*
X14731000Y-12015250D01*
X14731000Y-13033000D02*
X14761000Y-13063000D01*
X14761000Y-13033000D02*
X14731000Y-13063000D01*
X14731000Y-13287000D02*
X14761000Y-13317000D01*
X14761000Y-13287000D02*
X14731000Y-13317000D01*
X14743700Y-10416800D02*
X14773700Y-10446800D01*
X14773700Y-10416800D02*
X14743700Y-10446800D01*
X14762750Y-12207500D02*
X14792750Y-12237500D01*
X14792750Y-12207500D02*
X14762750Y-12237500D01*
X14769100Y-7368800D02*
X14799100Y-7398800D01*
X14799100Y-7368800D02*
X14769100Y-7398800D01*
X14781800Y-8207000D02*
X14811800Y-8237000D01*
X14811800Y-8207000D02*
X14781800Y-8237000D01*
X14794500Y-12429750D02*
X14824500Y-12459750D01*
X14824500Y-12429750D02*
X14794500Y-12459750D01*
X14889750Y-9254750D02*
X14919750Y-9284750D01*
X14919750Y-9254750D02*
X14889750Y-9284750D01*
X14895588Y-9544617D02*
X14925588Y-9574617D01*
X14925588Y-9544617D02*
X14895588Y-9574617D01*
X14904586Y-9080337D02*
X14934586Y-9110337D01*
X14934586Y-9080337D02*
X14904586Y-9110337D01*
X14921500Y-8511800D02*
X14951500Y-8541800D01*
X14951500Y-8511800D02*
X14921500Y-8541800D01*
X14946900Y-8334000D02*
X14976900Y-8364000D01*
X14976900Y-8334000D02*
X14946900Y-8364000D01*
X14959600Y-8956300D02*
X14989600Y-8986300D01*
X14989600Y-8956300D02*
X14959600Y-8986300D01*
X14970000Y-11159750D02*
X15000000Y-11189750D01*
X15000000Y-11159750D02*
X14970000Y-11189750D01*
X14970000Y-11286750D02*
X15000000Y-11316750D01*
X15000000Y-11286750D02*
X14970000Y-11316750D01*
X14985000Y-6683000D02*
X15015000Y-6713000D01*
X15015000Y-6683000D02*
X14985000Y-6713000D01*
X14985000Y-6937000D02*
X15015000Y-6967000D01*
X15015000Y-6937000D02*
X14985000Y-6967000D01*
X14985000Y-7064000D02*
X15015000Y-7094000D01*
X15015000Y-7064000D02*
X14985000Y-7094000D01*
X14985000Y-8092700D02*
X15015000Y-8122700D01*
X15015000Y-8092700D02*
X14985000Y-8122700D01*
X14985000Y-8207000D02*
X15015000Y-8237000D01*
X15015000Y-8207000D02*
X14985000Y-8237000D01*
X14985000Y-10137400D02*
X15015000Y-10167400D01*
X15015000Y-10137400D02*
X14985000Y-10167400D01*
X14985000Y-11432800D02*
X15015000Y-11462800D01*
X15015000Y-11432800D02*
X14985000Y-11462800D01*
X14985000Y-11794750D02*
X15015000Y-11824750D01*
X15015000Y-11794750D02*
X14985000Y-11824750D01*
X14985000Y-11985250D02*
X15015000Y-12015250D01*
X15015000Y-11985250D02*
X14985000Y-12015250D01*
X14985000Y-12423400D02*
X15015000Y-12453400D01*
X15015000Y-12423400D02*
X14985000Y-12453400D01*
X14985000Y-13033000D02*
X15015000Y-13063000D01*
X15015000Y-13033000D02*
X14985000Y-13063000D01*
X14985000Y-13287000D02*
X15015000Y-13317000D01*
X15015000Y-13287000D02*
X14985000Y-13317000D01*
X14997700Y-7178300D02*
X15027700Y-7208300D01*
X15027700Y-7178300D02*
X14997700Y-7208300D01*
X15061200Y-11350250D02*
X15091200Y-11380250D01*
X15091200Y-11350250D02*
X15061200Y-11380250D01*
X15080250Y-11048625D02*
X15110250Y-11078625D01*
X15110250Y-11048625D02*
X15080250Y-11078625D01*
X15086600Y-9565900D02*
X15116600Y-9595900D01*
X15116600Y-9565900D02*
X15086600Y-9595900D01*
X15086600Y-9680200D02*
X15116600Y-9710200D01*
X15116600Y-9680200D02*
X15086600Y-9710200D01*
X15150100Y-9273800D02*
X15180100Y-9303800D01*
X15180100Y-9273800D02*
X15150100Y-9303800D01*
X15177856Y-10966128D02*
X15207856Y-10996128D01*
X15207856Y-10966128D02*
X15177856Y-10996128D01*
X15239000Y-6683000D02*
X15269000Y-6713000D01*
X15269000Y-6683000D02*
X15239000Y-6713000D01*
X15239000Y-6937000D02*
X15269000Y-6967000D01*
X15269000Y-6937000D02*
X15239000Y-6967000D01*
X15239000Y-7165600D02*
X15269000Y-7195600D01*
X15269000Y-7165600D02*
X15239000Y-7195600D01*
X15239000Y-9572250D02*
X15269000Y-9602250D01*
X15269000Y-9572250D02*
X15239000Y-9602250D01*
X15239000Y-12017000D02*
X15269000Y-12047000D01*
X15269000Y-12017000D02*
X15239000Y-12047000D01*
X15239000Y-13033000D02*
X15269000Y-13063000D01*
X15269000Y-13033000D02*
X15239000Y-13063000D01*
X15239000Y-13287000D02*
X15269000Y-13317000D01*
X15269000Y-13287000D02*
X15239000Y-13317000D01*
X15275948Y-9259949D02*
X15305948Y-9289949D01*
X15305948Y-9259949D02*
X15275948Y-9289949D01*
X15302500Y-10416800D02*
X15332500Y-10446800D01*
X15332500Y-10416800D02*
X15302500Y-10446800D01*
X15306000Y-9667500D02*
X15336000Y-9697500D01*
X15336000Y-9667500D02*
X15306000Y-9697500D01*
X15391400Y-10315200D02*
X15421400Y-10345200D01*
X15421400Y-10315200D02*
X15391400Y-10345200D01*
X15391400Y-10416800D02*
X15421400Y-10446800D01*
X15421400Y-10416800D02*
X15391400Y-10446800D01*
X15428016Y-9642479D02*
X15458016Y-9672479D01*
X15458016Y-9642479D02*
X15428016Y-9672479D01*
X15429500Y-6937000D02*
X15459500Y-6967000D01*
X15459500Y-6937000D02*
X15429500Y-6967000D01*
X15429500Y-8143500D02*
X15459500Y-8173500D01*
X15459500Y-8143500D02*
X15429500Y-8173500D01*
X15442200Y-8562600D02*
X15472200Y-8592600D01*
X15472200Y-8562600D02*
X15442200Y-8592600D01*
X15467600Y-10467600D02*
X15497600Y-10497600D01*
X15497600Y-10467600D02*
X15467600Y-10497600D01*
X15493000Y-6683000D02*
X15523000Y-6713000D01*
X15523000Y-6683000D02*
X15493000Y-6713000D01*
X15493000Y-8461000D02*
X15523000Y-8491000D01*
X15523000Y-8461000D02*
X15493000Y-8491000D01*
X15493000Y-9375400D02*
X15523000Y-9405400D01*
X15523000Y-9375400D02*
X15493000Y-9405400D01*
X15493000Y-11204200D02*
X15523000Y-11234200D01*
X15523000Y-11204200D02*
X15493000Y-11234200D01*
X15493000Y-11890000D02*
X15523000Y-11920000D01*
X15523000Y-11890000D02*
X15493000Y-11920000D01*
X15493000Y-13033000D02*
X15523000Y-13063000D01*
X15523000Y-13033000D02*
X15493000Y-13063000D01*
X15493000Y-13287000D02*
X15523000Y-13317000D01*
X15523000Y-13287000D02*
X15493000Y-13317000D01*
X15571526Y-9225327D02*
X15601526Y-9255327D01*
X15601526Y-9225327D02*
X15571526Y-9255327D01*
X15620000Y-8791200D02*
X15650000Y-8821200D01*
X15650000Y-8791200D02*
X15620000Y-8821200D01*
X15620000Y-10823200D02*
X15650000Y-10853200D01*
X15650000Y-10823200D02*
X15620000Y-10853200D01*
X15620000Y-10905750D02*
X15650000Y-10935750D01*
X15650000Y-10905750D02*
X15620000Y-10935750D01*
X15667625Y-11080375D02*
X15697625Y-11110375D01*
X15697625Y-11080375D02*
X15667625Y-11110375D01*
X15708900Y-7597400D02*
X15738900Y-7627400D01*
X15738900Y-7597400D02*
X15708900Y-7627400D01*
X15708900Y-7787900D02*
X15738900Y-7817900D01*
X15738900Y-7787900D02*
X15708900Y-7817900D01*
X15721600Y-8461000D02*
X15751600Y-8491000D01*
X15751600Y-8461000D02*
X15721600Y-8491000D01*
X15747000Y-6683000D02*
X15777000Y-6713000D01*
X15777000Y-6683000D02*
X15747000Y-6713000D01*
X15747000Y-6937000D02*
X15777000Y-6967000D01*
X15777000Y-6937000D02*
X15747000Y-6967000D01*
X15747000Y-7165600D02*
X15777000Y-7195600D01*
X15777000Y-7165600D02*
X15747000Y-7195600D01*
X15747000Y-8880100D02*
X15777000Y-8910100D01*
X15777000Y-8880100D02*
X15747000Y-8910100D01*
X15747000Y-11763000D02*
X15777000Y-11793000D01*
X15777000Y-11763000D02*
X15747000Y-11793000D01*
X15747000Y-13033000D02*
X15777000Y-13063000D01*
X15777000Y-13033000D02*
X15747000Y-13063000D01*
X15747000Y-13287000D02*
X15777000Y-13317000D01*
X15777000Y-13287000D02*
X15747000Y-13317000D01*
X15810500Y-9248400D02*
X15840500Y-9278400D01*
X15840500Y-9248400D02*
X15810500Y-9278400D01*
X15835900Y-8753100D02*
X15865900Y-8783100D01*
X15865900Y-8753100D02*
X15835900Y-8783100D01*
X15848600Y-9527800D02*
X15878600Y-9557800D01*
X15878600Y-9527800D02*
X15848600Y-9557800D01*
X15848600Y-9629400D02*
X15878600Y-9659400D01*
X15878600Y-9629400D02*
X15848600Y-9659400D01*
X15937500Y-8803900D02*
X15967500Y-8833900D01*
X15967500Y-8803900D02*
X15937500Y-8833900D01*
X15937500Y-9121400D02*
X15967500Y-9151400D01*
X15967500Y-9121400D02*
X15937500Y-9151400D01*
X15975600Y-9680200D02*
X16005600Y-9710200D01*
X16005600Y-9680200D02*
X15975600Y-9710200D01*
X15975600Y-11115300D02*
X16005600Y-11145300D01*
X16005600Y-11115300D02*
X15975600Y-11145300D01*
X16001000Y-6683000D02*
X16031000Y-6713000D01*
X16031000Y-6683000D02*
X16001000Y-6713000D01*
X16001000Y-6937000D02*
X16031000Y-6967000D01*
X16031000Y-6937000D02*
X16001000Y-6967000D01*
X16001000Y-7152900D02*
X16031000Y-7182900D01*
X16031000Y-7152900D02*
X16001000Y-7182900D01*
X16001000Y-7699000D02*
X16031000Y-7729000D01*
X16031000Y-7699000D02*
X16001000Y-7729000D01*
X16001000Y-11763000D02*
X16031000Y-11793000D01*
X16031000Y-11763000D02*
X16001000Y-11793000D01*
X16001000Y-13033000D02*
X16031000Y-13063000D01*
X16031000Y-13033000D02*
X16001000Y-13063000D01*
X16001000Y-13287000D02*
X16031000Y-13317000D01*
X16031000Y-13287000D02*
X16001000Y-13317000D01*
X16064500Y-8753100D02*
X16094500Y-8783100D01*
X16094500Y-8753100D02*
X16064500Y-8783100D01*
X16064500Y-11102600D02*
X16094500Y-11132600D01*
X16094500Y-11102600D02*
X16064500Y-11132600D01*
X16089900Y-8981700D02*
X16119900Y-9011700D01*
X16119900Y-8981700D02*
X16089900Y-9011700D01*
X16140700Y-7610100D02*
X16170700Y-7640100D01*
X16170700Y-7610100D02*
X16140700Y-7640100D01*
X16140700Y-7775200D02*
X16170700Y-7805200D01*
X16170700Y-7775200D02*
X16140700Y-7805200D01*
X16153400Y-9781800D02*
X16183400Y-9811800D01*
X16183400Y-9781800D02*
X16153400Y-9811800D01*
X16191500Y-8676900D02*
X16221500Y-8706900D01*
X16221500Y-8676900D02*
X16191500Y-8706900D01*
X16191500Y-8880100D02*
X16221500Y-8910100D01*
X16221500Y-8880100D02*
X16191500Y-8910100D01*
X16255000Y-6683000D02*
X16285000Y-6713000D01*
X16285000Y-6683000D02*
X16255000Y-6713000D01*
X16255000Y-7368800D02*
X16285000Y-7398800D01*
X16285000Y-7368800D02*
X16255000Y-7398800D01*
X16255000Y-13033000D02*
X16285000Y-13063000D01*
X16285000Y-13033000D02*
X16255000Y-13063000D01*
X16255000Y-13287000D02*
X16285000Y-13317000D01*
X16285000Y-13287000D02*
X16255000Y-13317000D01*
X16280400Y-10213600D02*
X16310400Y-10243600D01*
X16310400Y-10213600D02*
X16280400Y-10243600D01*
X16280400Y-10302500D02*
X16310400Y-10332500D01*
X16310400Y-10302500D02*
X16280400Y-10332500D01*
X16280400Y-10391400D02*
X16310400Y-10421400D01*
X16310400Y-10391400D02*
X16280400Y-10421400D01*
X16280400Y-10480300D02*
X16310400Y-10510300D01*
X16310400Y-10480300D02*
X16280400Y-10510300D01*
X16280400Y-10581900D02*
X16310400Y-10611900D01*
X16310400Y-10581900D02*
X16280400Y-10611900D01*
X16280400Y-10670800D02*
X16310400Y-10700800D01*
X16310400Y-10670800D02*
X16280400Y-10700800D01*
X16280400Y-10772400D02*
X16310400Y-10802400D01*
X16310400Y-10772400D02*
X16280400Y-10802400D01*
X16280400Y-10861300D02*
X16310400Y-10891300D01*
X16310400Y-10861300D02*
X16280400Y-10891300D01*
X16280400Y-10950200D02*
X16310400Y-10980200D01*
X16310400Y-10950200D02*
X16280400Y-10980200D01*
X16280400Y-11039100D02*
X16310400Y-11069100D01*
X16310400Y-11039100D02*
X16280400Y-11069100D01*
X16280400Y-11128000D02*
X16310400Y-11158000D01*
X16310400Y-11128000D02*
X16280400Y-11158000D01*
X16293100Y-11801100D02*
X16323100Y-11831100D01*
X16323100Y-11801100D02*
X16293100Y-11831100D01*
X16331200Y-8549900D02*
X16361200Y-8579900D01*
X16361200Y-8549900D02*
X16331200Y-8579900D01*
X16382000Y-6962400D02*
X16412000Y-6992400D01*
X16412000Y-6962400D02*
X16382000Y-6992400D01*
X16394700Y-9400800D02*
X16424700Y-9430800D01*
X16424700Y-9400800D02*
X16394700Y-9430800D01*
X16407400Y-7368800D02*
X16437400Y-7398800D01*
X16437400Y-7368800D02*
X16407400Y-7398800D01*
X16407400Y-7800600D02*
X16437400Y-7830600D01*
X16437400Y-7800600D02*
X16407400Y-7830600D01*
X16509000Y-6683000D02*
X16539000Y-6713000D01*
X16539000Y-6683000D02*
X16509000Y-6713000D01*
X16509000Y-9413500D02*
X16539000Y-9443500D01*
X16539000Y-9413500D02*
X16509000Y-9443500D01*
X16509000Y-13033000D02*
X16539000Y-13063000D01*
X16539000Y-13033000D02*
X16509000Y-13063000D01*
X16509000Y-13287000D02*
X16539000Y-13317000D01*
X16539000Y-13287000D02*
X16509000Y-13317000D01*
X16534400Y-10226300D02*
X16564400Y-10256300D01*
X16564400Y-10226300D02*
X16534400Y-10256300D01*
X16534400Y-10319000D02*
X16564400Y-10349000D01*
X16564400Y-10319000D02*
X16534400Y-10349000D01*
X16559800Y-6937000D02*
X16589800Y-6967000D01*
X16589800Y-6937000D02*
X16559800Y-6967000D01*
X16559800Y-7368800D02*
X16589800Y-7398800D01*
X16589800Y-7368800D02*
X16559800Y-7398800D01*
X16559800Y-7800600D02*
X16589800Y-7830600D01*
X16589800Y-7800600D02*
X16559800Y-7830600D01*
X16559800Y-11331200D02*
X16589800Y-11361200D01*
X16589800Y-11331200D02*
X16559800Y-11361200D01*
X16597900Y-9705600D02*
X16627900Y-9735600D01*
X16627900Y-9705600D02*
X16597900Y-9735600D01*
X16610600Y-11115300D02*
X16640600Y-11145300D01*
X16640600Y-11115300D02*
X16610600Y-11145300D01*
X16636000Y-10397750D02*
X16666000Y-10427750D01*
X16666000Y-10397750D02*
X16636000Y-10427750D01*
X16661400Y-9172200D02*
X16691400Y-9202200D01*
X16691400Y-9172200D02*
X16661400Y-9202200D01*
X16699500Y-10588250D02*
X16729500Y-10618250D01*
X16729500Y-10588250D02*
X16699500Y-10618250D01*
X16712200Y-6937000D02*
X16742200Y-6967000D01*
X16742200Y-6937000D02*
X16712200Y-6967000D01*
X16712200Y-7368800D02*
X16742200Y-7398800D01*
X16742200Y-7368800D02*
X16712200Y-7398800D01*
X16712200Y-7800600D02*
X16742200Y-7830600D01*
X16742200Y-7800600D02*
X16712200Y-7830600D01*
X16737600Y-10264400D02*
X16767600Y-10294400D01*
X16767600Y-10264400D02*
X16737600Y-10294400D01*
X16763000Y-6683000D02*
X16793000Y-6713000D01*
X16793000Y-6683000D02*
X16763000Y-6713000D01*
X16763000Y-9464300D02*
X16793000Y-9494300D01*
X16793000Y-9464300D02*
X16763000Y-9494300D01*
X16763000Y-13287000D02*
X16793000Y-13317000D01*
X16793000Y-13287000D02*
X16763000Y-13317000D01*
X16766500Y-11267700D02*
X16796500Y-11297700D01*
X16796500Y-11267700D02*
X16766500Y-11297700D01*
X16770628Y-13032900D02*
X16800628Y-13062900D01*
X16800628Y-13032900D02*
X16770628Y-13062900D01*
X16788400Y-9324600D02*
X16818400Y-9354600D01*
X16818400Y-9324600D02*
X16788400Y-9354600D01*
X16788400Y-10137400D02*
X16818400Y-10167400D01*
X16818400Y-10137400D02*
X16788400Y-10167400D01*
X16788400Y-11153400D02*
X16818400Y-11183400D01*
X16818400Y-11153400D02*
X16788400Y-11183400D01*
X16794750Y-9762750D02*
X16824750Y-9792750D01*
X16824750Y-9762750D02*
X16794750Y-9792750D01*
X16826500Y-12334500D02*
X16856500Y-12364500D01*
X16856500Y-12334500D02*
X16826500Y-12364500D01*
X16826500Y-12423400D02*
X16856500Y-12453400D01*
X16856500Y-12423400D02*
X16826500Y-12453400D01*
X16864600Y-7800600D02*
X16894600Y-7830600D01*
X16894600Y-7800600D02*
X16864600Y-7830600D01*
X16877300Y-9210300D02*
X16907300Y-9240300D01*
X16907300Y-9210300D02*
X16877300Y-9240300D01*
X16890000Y-7368800D02*
X16920000Y-7398800D01*
X16920000Y-7368800D02*
X16890000Y-7398800D01*
X16890000Y-10378700D02*
X16920000Y-10408700D01*
X16920000Y-10378700D02*
X16890000Y-10408700D01*
X16950000Y-10823200D02*
X16980000Y-10853200D01*
X16980000Y-10823200D02*
X16950000Y-10853200D01*
X16966200Y-11115300D02*
X16996200Y-11145300D01*
X16996200Y-11115300D02*
X16966200Y-11145300D01*
X16985250Y-11636000D02*
X17015250Y-11666000D01*
X17015250Y-11636000D02*
X16985250Y-11666000D01*
X17017000Y-6683000D02*
X17047000Y-6713000D01*
X17047000Y-6683000D02*
X17017000Y-6713000D01*
X17017000Y-6937000D02*
X17047000Y-6967000D01*
X17047000Y-6937000D02*
X17017000Y-6967000D01*
X17017000Y-13033000D02*
X17047000Y-13063000D01*
X17047000Y-13033000D02*
X17017000Y-13063000D01*
X17017000Y-13287000D02*
X17047000Y-13317000D01*
X17047000Y-13287000D02*
X17017000Y-13317000D01*
X17041000Y-7516250D02*
X17071000Y-7546250D01*
X17071000Y-7516250D02*
X17041000Y-7546250D01*
X17042400Y-10594600D02*
X17072400Y-10624600D01*
X17072400Y-10594600D02*
X17042400Y-10624600D01*
X17042400Y-11204200D02*
X17072400Y-11234200D01*
X17072400Y-11204200D02*
X17042400Y-11234200D01*
X17055100Y-8029200D02*
X17085100Y-8059200D01*
X17085100Y-8029200D02*
X17055100Y-8059200D01*
X17055100Y-8257800D02*
X17085100Y-8287800D01*
X17085100Y-8257800D02*
X17055100Y-8287800D01*
X17080500Y-10353300D02*
X17110500Y-10383300D01*
X17110500Y-10353300D02*
X17080500Y-10383300D01*
X17105900Y-10239000D02*
X17135900Y-10269000D01*
X17135900Y-10239000D02*
X17105900Y-10269000D01*
X17131300Y-7521200D02*
X17161300Y-7551200D01*
X17161300Y-7521200D02*
X17131300Y-7551200D01*
X17144000Y-10645400D02*
X17174000Y-10675400D01*
X17174000Y-10645400D02*
X17144000Y-10675400D01*
X17144000Y-10823200D02*
X17174000Y-10853200D01*
X17174000Y-10823200D02*
X17144000Y-10853200D01*
X17144000Y-11115300D02*
X17174000Y-11145300D01*
X17174000Y-11115300D02*
X17144000Y-11145300D01*
X17245600Y-11204200D02*
X17275600Y-11234200D01*
X17275600Y-11204200D02*
X17245600Y-11234200D01*
X17271000Y-6683000D02*
X17301000Y-6713000D01*
X17301000Y-6683000D02*
X17271000Y-6713000D01*
X17271000Y-6937000D02*
X17301000Y-6967000D01*
X17301000Y-6937000D02*
X17271000Y-6967000D01*
X17271000Y-13033000D02*
X17301000Y-13063000D01*
X17301000Y-13033000D02*
X17271000Y-13063000D01*
X17271000Y-13287000D02*
X17301000Y-13317000D01*
X17301000Y-13287000D02*
X17271000Y-13317000D01*
X17296400Y-7696500D02*
X17326400Y-7726500D01*
X17326400Y-7696500D02*
X17296400Y-7726500D01*
X17296400Y-7823500D02*
X17326400Y-7853500D01*
X17326400Y-7823500D02*
X17296400Y-7853500D01*
X17296400Y-7950500D02*
X17326400Y-7980500D01*
X17326400Y-7950500D02*
X17296400Y-7980500D01*
X17321800Y-10239000D02*
X17351800Y-10269000D01*
X17351800Y-10239000D02*
X17321800Y-10269000D01*
X17321800Y-10505700D02*
X17351800Y-10535700D01*
X17351800Y-10505700D02*
X17321800Y-10535700D01*
X17334500Y-10823200D02*
X17364500Y-10853200D01*
X17364500Y-10823200D02*
X17334500Y-10853200D01*
X17334500Y-11115300D02*
X17364500Y-11145300D01*
X17364500Y-11115300D02*
X17334500Y-11145300D01*
X17359900Y-11851900D02*
X17389900Y-11881900D01*
X17389900Y-11851900D02*
X17359900Y-11881900D01*
X17359900Y-12436100D02*
X17389900Y-12466100D01*
X17389900Y-12436100D02*
X17359900Y-12466100D01*
X17398000Y-7696500D02*
X17428000Y-7726500D01*
X17428000Y-7696500D02*
X17398000Y-7726500D01*
X17398000Y-7823500D02*
X17428000Y-7853500D01*
X17428000Y-7823500D02*
X17398000Y-7853500D01*
X17398000Y-7950500D02*
X17428000Y-7980500D01*
X17428000Y-7950500D02*
X17398000Y-7980500D01*
X17398000Y-9985000D02*
X17428000Y-10015000D01*
X17428000Y-9985000D02*
X17398000Y-10015000D01*
X17448800Y-11661400D02*
X17478800Y-11691400D01*
X17478800Y-11661400D02*
X17448800Y-11691400D01*
X17461500Y-10505700D02*
X17491500Y-10535700D01*
X17491500Y-10505700D02*
X17461500Y-10535700D01*
X17474200Y-12232900D02*
X17504200Y-12262900D01*
X17504200Y-12232900D02*
X17474200Y-12262900D01*
X17499600Y-7696500D02*
X17529600Y-7726500D01*
X17529600Y-7696500D02*
X17499600Y-7726500D01*
X17499600Y-7823500D02*
X17529600Y-7853500D01*
X17529600Y-7823500D02*
X17499600Y-7853500D01*
X17499600Y-7950500D02*
X17529600Y-7980500D01*
X17529600Y-7950500D02*
X17499600Y-7980500D01*
X17512300Y-8257800D02*
X17542300Y-8287800D01*
X17542300Y-8257800D02*
X17512300Y-8287800D01*
X17525000Y-6683000D02*
X17555000Y-6713000D01*
X17555000Y-6683000D02*
X17525000Y-6713000D01*
X17525000Y-6937000D02*
X17555000Y-6967000D01*
X17555000Y-6937000D02*
X17525000Y-6967000D01*
X17525000Y-13033000D02*
X17555000Y-13063000D01*
X17555000Y-13033000D02*
X17525000Y-13063000D01*
X17525000Y-13287000D02*
X17555000Y-13317000D01*
X17555000Y-13287000D02*
X17525000Y-13317000D01*
X17626600Y-8283200D02*
X17656600Y-8313200D01*
X17656600Y-8283200D02*
X17626600Y-8313200D01*
X17626600Y-11953500D02*
X17656600Y-11983500D01*
X17656600Y-11953500D02*
X17626600Y-11983500D01*
X17664700Y-11559800D02*
X17694700Y-11589800D01*
X17694700Y-11559800D02*
X17664700Y-11589800D01*
X17715500Y-11128000D02*
X17745500Y-11158000D01*
X17745500Y-11128000D02*
X17715500Y-11158000D01*
X17715500Y-11953500D02*
X17745500Y-11983500D01*
X17745500Y-11953500D02*
X17715500Y-11983500D01*
X17751250Y-10482650D02*
X17781250Y-10512650D01*
X17781250Y-10482650D02*
X17751250Y-10512650D01*
X17753600Y-10391400D02*
X17783600Y-10421400D01*
X17783600Y-10391400D02*
X17753600Y-10421400D01*
X17779000Y-13287000D02*
X17809000Y-13317000D01*
X17809000Y-13287000D02*
X17779000Y-13317000D01*
X17804400Y-8295900D02*
X17834400Y-8325900D01*
X17834400Y-8295900D02*
X17804400Y-8325900D01*
X17804400Y-8384800D02*
X17834400Y-8414800D01*
X17834400Y-8384800D02*
X17804400Y-8414800D01*
X17804400Y-8473700D02*
X17834400Y-8503700D01*
X17834400Y-8473700D02*
X17804400Y-8503700D01*
X17804400Y-11953500D02*
X17834400Y-11983500D01*
X17834400Y-11953500D02*
X17804400Y-11983500D01*
X17829800Y-11026400D02*
X17859800Y-11056400D01*
X17859800Y-11026400D02*
X17829800Y-11056400D01*
X17842500Y-9985000D02*
X17872500Y-10015000D01*
X17872500Y-9985000D02*
X17842500Y-10015000D01*
X17867900Y-10823200D02*
X17897900Y-10853200D01*
X17897900Y-10823200D02*
X17867900Y-10853200D01*
X17880600Y-7673600D02*
X17910600Y-7703600D01*
X17910600Y-7673600D02*
X17880600Y-7703600D01*
X17918700Y-11115300D02*
X17948700Y-11145300D01*
X17948700Y-11115300D02*
X17918700Y-11145300D01*
X17931400Y-6962400D02*
X17961400Y-6992400D01*
X17961400Y-6962400D02*
X17931400Y-6992400D01*
X17931400Y-7343400D02*
X17961400Y-7373400D01*
X17961400Y-7343400D02*
X17931400Y-7373400D01*
X17969500Y-7241800D02*
X17999500Y-7271800D01*
X17999500Y-7241800D02*
X17969500Y-7271800D01*
X17970200Y-10886000D02*
X18000200Y-10916000D01*
X18000200Y-10886000D02*
X17970200Y-10916000D01*
X18033000Y-6683000D02*
X18063000Y-6713000D01*
X18063000Y-6683000D02*
X18033000Y-6713000D01*
X18033000Y-10772400D02*
X18063000Y-10802400D01*
X18063000Y-10772400D02*
X18033000Y-10802400D01*
X18033000Y-11559800D02*
X18063000Y-11589800D01*
X18063000Y-11559800D02*
X18033000Y-11589800D01*
X18033000Y-13287000D02*
X18063000Y-13317000D01*
X18063000Y-13287000D02*
X18033000Y-13317000D01*
X18058400Y-7826000D02*
X18088400Y-7856000D01*
X18088400Y-7826000D02*
X18058400Y-7856000D01*
X18058400Y-8029200D02*
X18088400Y-8059200D01*
X18088400Y-8029200D02*
X18058400Y-8059200D01*
X18096500Y-10594600D02*
X18126500Y-10624600D01*
X18126500Y-10594600D02*
X18096500Y-10624600D01*
X18109200Y-7229100D02*
X18139200Y-7259100D01*
X18139200Y-7229100D02*
X18109200Y-7259100D01*
X18121900Y-10772400D02*
X18151900Y-10802400D01*
X18151900Y-10772400D02*
X18121900Y-10802400D01*
X18121900Y-11102600D02*
X18151900Y-11132600D01*
X18151900Y-11102600D02*
X18121900Y-11132600D01*
X18121900Y-11559800D02*
X18151900Y-11589800D01*
X18151900Y-11559800D02*
X18121900Y-11589800D01*
X18248900Y-11851900D02*
X18278900Y-11881900D01*
X18278900Y-11851900D02*
X18248900Y-11881900D01*
X18248900Y-12436100D02*
X18278900Y-12466100D01*
X18278900Y-12436100D02*
X18248900Y-12466100D01*
X18261600Y-10467600D02*
X18291600Y-10497600D01*
X18291600Y-10467600D02*
X18261600Y-10497600D01*
X18287000Y-6683000D02*
X18317000Y-6713000D01*
X18317000Y-6683000D02*
X18287000Y-6713000D01*
X18287000Y-8969000D02*
X18317000Y-8999000D01*
X18317000Y-8969000D02*
X18287000Y-8999000D01*
X18287000Y-13287000D02*
X18317000Y-13317000D01*
X18317000Y-13287000D02*
X18287000Y-13317000D01*
X18363200Y-10467600D02*
X18393200Y-10497600D01*
X18393200Y-10467600D02*
X18363200Y-10497600D01*
X18447020Y-9604000D02*
X18477020Y-9634000D01*
X18477020Y-9604000D02*
X18447020Y-9634000D01*
X18502900Y-11318500D02*
X18532900Y-11348500D01*
X18532900Y-11318500D02*
X18502900Y-11348500D01*
X18541000Y-6683000D02*
X18571000Y-6713000D01*
X18571000Y-6683000D02*
X18541000Y-6713000D01*
X18541000Y-8156200D02*
X18571000Y-8186200D01*
X18571000Y-8156200D02*
X18541000Y-8186200D01*
X18541000Y-8359400D02*
X18571000Y-8389400D01*
X18571000Y-8359400D02*
X18541000Y-8389400D01*
X18541000Y-8461000D02*
X18571000Y-8491000D01*
X18571000Y-8461000D02*
X18541000Y-8491000D01*
X18541000Y-13287000D02*
X18571000Y-13317000D01*
X18571000Y-13287000D02*
X18541000Y-13317000D01*
X18591800Y-8080000D02*
X18621800Y-8110000D01*
X18621800Y-8080000D02*
X18591800Y-8110000D01*
X18591800Y-8257800D02*
X18621800Y-8287800D01*
X18621800Y-8257800D02*
X18591800Y-8287800D01*
X18591800Y-10264400D02*
X18621800Y-10294400D01*
X18621800Y-10264400D02*
X18591800Y-10294400D01*
X18591800Y-11813800D02*
X18621800Y-11843800D01*
X18621800Y-11813800D02*
X18591800Y-11843800D01*
X18668000Y-9543040D02*
X18698000Y-9573040D01*
X18698000Y-9543040D02*
X18668000Y-9573040D01*
X18668000Y-9649720D02*
X18698000Y-9679720D01*
X18698000Y-9649720D02*
X18668000Y-9679720D01*
X18706100Y-9959600D02*
X18736100Y-9989600D01*
X18736100Y-9959600D02*
X18706100Y-9989600D01*
X18744200Y-10112000D02*
X18774200Y-10142000D01*
X18774200Y-10112000D02*
X18744200Y-10142000D01*
X18744200Y-10416800D02*
X18774200Y-10446800D01*
X18774200Y-10416800D02*
X18744200Y-10446800D01*
X18744200Y-11940800D02*
X18774200Y-11970800D01*
X18774200Y-11940800D02*
X18744200Y-11970800D01*
X18795000Y-6683000D02*
X18825000Y-6713000D01*
X18825000Y-6683000D02*
X18795000Y-6713000D01*
X18795000Y-13287000D02*
X18825000Y-13317000D01*
X18825000Y-13287000D02*
X18795000Y-13317000D01*
X18807700Y-9959600D02*
X18837700Y-9989600D01*
X18837700Y-9959600D02*
X18807700Y-9989600D01*
X18807700Y-11166100D02*
X18837700Y-11196100D01*
X18837700Y-11166100D02*
X18807700Y-11196100D01*
X18807700Y-11267700D02*
X18837700Y-11297700D01*
X18837700Y-11267700D02*
X18807700Y-11297700D01*
X18891272Y-9604000D02*
X18921272Y-9634000D01*
X18921272Y-9604000D02*
X18891272Y-9634000D01*
X18896600Y-10264400D02*
X18926600Y-10294400D01*
X18926600Y-10264400D02*
X18896600Y-10294400D01*
X18896600Y-11813800D02*
X18926600Y-11843800D01*
X18926600Y-11813800D02*
X18896600Y-11843800D01*
X18922000Y-9311900D02*
X18952000Y-9341900D01*
X18952000Y-9311900D02*
X18922000Y-9341900D01*
X18922000Y-9413500D02*
X18952000Y-9443500D01*
X18952000Y-9413500D02*
X18922000Y-9443500D01*
X18947400Y-9858000D02*
X18977400Y-9888000D01*
X18977400Y-9858000D02*
X18947400Y-9888000D01*
X19049000Y-13287000D02*
X19079000Y-13317000D01*
X19079000Y-13287000D02*
X19049000Y-13317000D01*
X19201400Y-9284000D02*
X19231400Y-9314000D01*
X19231400Y-9284000D02*
X19201400Y-9314000D01*
X19201400Y-9364000D02*
X19231400Y-9394000D01*
X19231400Y-9364000D02*
X19201400Y-9394000D01*
X19201400Y-9845300D02*
X19231400Y-9875300D01*
X19231400Y-9845300D02*
X19201400Y-9875300D01*
X19201400Y-9925300D02*
X19231400Y-9955300D01*
X19231400Y-9925300D02*
X19201400Y-9955300D01*
X19303000Y-6683000D02*
X19333000Y-6713000D01*
X19333000Y-6683000D02*
X19303000Y-6713000D01*
X19303000Y-13287000D02*
X19333000Y-13317000D01*
X19333000Y-13287000D02*
X19303000Y-13317000D01*
X19506200Y-10213600D02*
X19536200Y-10243600D01*
X19536200Y-10213600D02*
X19506200Y-10243600D01*
X19506200Y-11788400D02*
X19536200Y-11818400D01*
X19536200Y-11788400D02*
X19506200Y-11818400D01*
X19557000Y-6683000D02*
X19587000Y-6713000D01*
X19587000Y-6683000D02*
X19557000Y-6713000D01*
X19557000Y-13287000D02*
X19587000Y-13317000D01*
X19587000Y-13287000D02*
X19557000Y-13317000D01*
X19658600Y-10086600D02*
X19688600Y-10116600D01*
X19688600Y-10086600D02*
X19658600Y-10116600D01*
X19709400Y-10340600D02*
X19739400Y-10370600D01*
X19739400Y-10340600D02*
X19709400Y-10370600D01*
X19709400Y-11661400D02*
X19739400Y-11691400D01*
X19739400Y-11661400D02*
X19709400Y-11691400D01*
X19709400Y-11915400D02*
X19739400Y-11945400D01*
X19739400Y-11915400D02*
X19709400Y-11945400D01*
X19811000Y-6937000D02*
X19841000Y-6967000D01*
X19841000Y-6937000D02*
X19811000Y-6967000D01*
X19811000Y-7191000D02*
X19841000Y-7221000D01*
X19841000Y-7191000D02*
X19811000Y-7221000D01*
X19811000Y-7445000D02*
X19841000Y-7475000D01*
X19841000Y-7445000D02*
X19811000Y-7475000D01*
X19811000Y-7699000D02*
X19841000Y-7729000D01*
X19841000Y-7699000D02*
X19811000Y-7729000D01*
X19811000Y-7953000D02*
X19841000Y-7983000D01*
X19841000Y-7953000D02*
X19811000Y-7983000D01*
X19811000Y-8207000D02*
X19841000Y-8237000D01*
X19841000Y-8207000D02*
X19811000Y-8237000D01*
X19811000Y-8461000D02*
X19841000Y-8491000D01*
X19841000Y-8461000D02*
X19811000Y-8491000D01*
X19811000Y-8715000D02*
X19841000Y-8745000D01*
X19841000Y-8715000D02*
X19811000Y-8745000D01*
X19811000Y-8969000D02*
X19841000Y-8999000D01*
X19841000Y-8969000D02*
X19811000Y-8999000D01*
X19811000Y-9477000D02*
X19841000Y-9507000D01*
X19841000Y-9477000D02*
X19811000Y-9507000D01*
X19811000Y-9731000D02*
X19841000Y-9761000D01*
X19841000Y-9731000D02*
X19811000Y-9761000D01*
X19811000Y-10493000D02*
X19841000Y-10523000D01*
X19841000Y-10493000D02*
X19811000Y-10523000D01*
X19811000Y-11001000D02*
X19841000Y-11031000D01*
X19841000Y-11001000D02*
X19811000Y-11031000D01*
X19811000Y-11255000D02*
X19841000Y-11285000D01*
X19841000Y-11255000D02*
X19811000Y-11285000D01*
X19811000Y-12017000D02*
X19841000Y-12047000D01*
X19841000Y-12017000D02*
X19811000Y-12047000D01*
X19811000Y-12271000D02*
X19841000Y-12301000D01*
X19841000Y-12271000D02*
X19811000Y-12301000D01*
X19811000Y-12779000D02*
X19841000Y-12809000D01*
X19841000Y-12779000D02*
X19811000Y-12809000D01*
X19811000Y-13033000D02*
X19841000Y-13063000D01*
X19841000Y-13033000D02*
X19811000Y-13063000D01*
X14923400Y-9834900D02*
G75*
G02*
X14873400Y-9834900I-25000J0D01*
G01*
X14873400Y-9834900D02*
G75*
G02*
X14923400Y-9834900I25000J0D01*
G01*
X14923400Y-10050800D02*
G75*
G02*
X14873400Y-10050800I-25000J0D01*
G01*
X14873400Y-10050800D02*
G75*
G02*
X14923400Y-10050800I25000J0D01*
G01*
X15126600Y-9834900D02*
G75*
G02*
X15076600Y-9834900I-25000J0D01*
G01*
X15076600Y-9834900D02*
G75*
G02*
X15126600Y-9834900I25000J0D01*
G01*
X15126600Y-10050800D02*
G75*
G02*
X15076600Y-10050800I-25000J0D01*
G01*
X15076600Y-10050800D02*
G75*
G02*
X15126600Y-10050800I25000J0D01*
G01*
X15279000Y-11524000D02*
G75*
G02*
X15229000Y-11524000I-25000J0D01*
G01*
X15229000Y-11524000D02*
G75*
G02*
X15279000Y-11524000I25000J0D01*
G01*
X16295000Y-9060200D02*
G75*
G02*
X16245000Y-9060200I-25000J0D01*
G01*
X16245000Y-9060200D02*
G75*
G02*
X16295000Y-9060200I25000J0D01*
G01*
X16295000Y-9288800D02*
G75*
G02*
X16245000Y-9288800I-25000J0D01*
G01*
X16245000Y-9288800D02*
G75*
G02*
X16295000Y-9288800I25000J0D01*
G01*
X19386500Y-9157000D02*
X19386500Y-9217000D01*
X19356500Y-9187000D02*
X19416500Y-9187000D01*
X19331500Y-9217000D02*
X19441500Y-9217000D01*
X19441500Y-9157000D02*
G75*
G02*
X19441500Y-9217000I0J-30000D01*
G01*
X19441500Y-9157000D02*
X19331500Y-9157000D01*
X19331500Y-9157000D02*
G75*
G03*
X19331500Y-9217000I0J-30000D01*
G01*
X19386500Y-10021000D02*
X19386500Y-10081000D01*
X19356500Y-10051000D02*
X19416500Y-10051000D01*
X19331500Y-10081000D02*
X19441500Y-10081000D01*
X19441500Y-10021000D02*
G75*
G02*
X19441500Y-10081000I0J-30000D01*
G01*
X19441500Y-10021000D02*
X19331500Y-10021000D01*
X19331500Y-10021000D02*
G75*
G03*
X19331500Y-10081000I0J-30000D01*
G01*
X19806500Y-9157000D02*
X19806500Y-9217000D01*
X19776500Y-9187000D02*
X19836500Y-9187000D01*
X19766500Y-9217000D02*
X19846500Y-9217000D01*
X19846500Y-9157000D02*
G75*
G02*
X19846500Y-9217000I0J-30000D01*
G01*
X19846500Y-9157000D02*
X19766500Y-9157000D01*
X19766500Y-9157000D02*
G75*
G03*
X19766500Y-9217000I0J-30000D01*
G01*
X19806500Y-10021000D02*
X19806500Y-10081000D01*
X19776500Y-10051000D02*
X19836500Y-10051000D01*
X19766500Y-10081000D02*
X19846500Y-10081000D01*
X19846500Y-10021000D02*
G75*
G02*
X19846500Y-10081000I0J-30000D01*
G01*
X19846500Y-10021000D02*
X19766500Y-10021000D01*
X19766500Y-10021000D02*
G75*
G03*
X19766500Y-10081000I0J-30000D01*
G01*
X10336356Y-9527356D02*
X10336356Y-9456644D01*
X10265644Y-9456644D01*
X10265644Y-9527356D01*
X10336356Y-9527356D01*
X10336356Y-9781356D02*
X10336356Y-9710644D01*
X10265644Y-9710644D01*
X10265644Y-9781356D01*
X10336356Y-9781356D01*
X10336356Y-10035356D02*
X10336356Y-9964644D01*
X10265644Y-9964644D01*
X10265644Y-10035356D01*
X10336356Y-10035356D01*
X10336356Y-10289356D02*
X10336356Y-10218644D01*
X10265644Y-10218644D01*
X10265644Y-10289356D01*
X10336356Y-10289356D01*
X10336356Y-10543356D02*
X10336356Y-10472644D01*
X10265644Y-10472644D01*
X10265644Y-10543356D01*
X10336356Y-10543356D01*
X10336356Y-11051356D02*
X10336356Y-10980644D01*
X10265644Y-10980644D01*
X10265644Y-11051356D01*
X10336356Y-11051356D01*
X10336356Y-12575356D02*
X10336356Y-12504644D01*
X10265644Y-12504644D01*
X10265644Y-12575356D01*
X10336356Y-12575356D01*
X10590356Y-9527356D02*
X10590356Y-9456644D01*
X10519644Y-9456644D01*
X10519644Y-9527356D01*
X10590356Y-9527356D01*
X10590356Y-9781356D02*
X10590356Y-9710644D01*
X10519644Y-9710644D01*
X10519644Y-9781356D01*
X10590356Y-9781356D01*
X10590356Y-10035356D02*
X10590356Y-9964644D01*
X10519644Y-9964644D01*
X10519644Y-10035356D01*
X10590356Y-10035356D01*
X10590356Y-10289356D02*
X10590356Y-10218644D01*
X10519644Y-10218644D01*
X10519644Y-10289356D01*
X10590356Y-10289356D01*
X10590356Y-10543356D02*
X10590356Y-10472644D01*
X10519644Y-10472644D01*
X10519644Y-10543356D01*
X10590356Y-10543356D01*
X10971356Y-6860356D02*
X10971356Y-6789644D01*
X10900644Y-6789644D01*
X10900644Y-6860356D01*
X10971356Y-6860356D01*
X11225356Y-7499356D02*
X11225356Y-7428644D01*
X11154644Y-7428644D01*
X11154644Y-7499356D01*
X11225356Y-7499356D01*
X11225356Y-7999356D02*
X11225356Y-7928644D01*
X11154644Y-7928644D01*
X11154644Y-7999356D01*
X11225356Y-7999356D01*
X12241356Y-6860356D02*
X12241356Y-6789644D01*
X12170644Y-6789644D01*
X12170644Y-6860356D01*
X12241356Y-6860356D01*
X12622356Y-6860356D02*
X12622356Y-6789644D01*
X12551644Y-6789644D01*
X12551644Y-6860356D01*
X12622356Y-6860356D01*
X12622356Y-13210356D02*
X12622356Y-13139644D01*
X12551644Y-13139644D01*
X12551644Y-13210356D01*
X12622356Y-13210356D01*
X12876356Y-6860356D02*
X12876356Y-6789644D01*
X12805644Y-6789644D01*
X12805644Y-6860356D01*
X12876356Y-6860356D01*
X12876356Y-13210356D02*
X12876356Y-13139644D01*
X12805644Y-13139644D01*
X12805644Y-13210356D01*
X12876356Y-13210356D01*
X13130356Y-6860356D02*
X13130356Y-6789644D01*
X13059644Y-6789644D01*
X13059644Y-6860356D01*
X13130356Y-6860356D01*
X13130356Y-10289356D02*
X13130356Y-10218644D01*
X13059644Y-10218644D01*
X13059644Y-10289356D01*
X13130356Y-10289356D01*
X13130356Y-13210356D02*
X13130356Y-13139644D01*
X13059644Y-13139644D01*
X13059644Y-13210356D01*
X13130356Y-13210356D01*
X13384356Y-6860356D02*
X13384356Y-6789644D01*
X13313644Y-6789644D01*
X13313644Y-6860356D01*
X13384356Y-6860356D01*
X13384356Y-13210356D02*
X13384356Y-13139644D01*
X13313644Y-13139644D01*
X13313644Y-13210356D01*
X13384356Y-13210356D01*
X13638356Y-6860356D02*
X13638356Y-6789644D01*
X13567644Y-6789644D01*
X13567644Y-6860356D01*
X13638356Y-6860356D01*
X13638356Y-13210356D02*
X13638356Y-13139644D01*
X13567644Y-13139644D01*
X13567644Y-13210356D01*
X13638356Y-13210356D01*
X13765356Y-10940231D02*
X13765356Y-10869519D01*
X13694644Y-10869519D01*
X13694644Y-10940231D01*
X13765356Y-10940231D01*
X13892356Y-6860356D02*
X13892356Y-6789644D01*
X13821644Y-6789644D01*
X13821644Y-6860356D01*
X13892356Y-6860356D01*
X13892356Y-13210356D02*
X13892356Y-13139644D01*
X13821644Y-13139644D01*
X13821644Y-13210356D01*
X13892356Y-13210356D01*
X14146356Y-6860356D02*
X14146356Y-6789644D01*
X14075644Y-6789644D01*
X14075644Y-6860356D01*
X14146356Y-6860356D01*
X14146356Y-13210356D02*
X14146356Y-13139644D01*
X14075644Y-13139644D01*
X14075644Y-13210356D01*
X14146356Y-13210356D01*
X14400356Y-6860356D02*
X14400356Y-6789644D01*
X14329644Y-6789644D01*
X14329644Y-6860356D01*
X14400356Y-6860356D01*
X14400356Y-13210356D02*
X14400356Y-13139644D01*
X14329644Y-13139644D01*
X14329644Y-13210356D01*
X14400356Y-13210356D01*
X14654356Y-6860356D02*
X14654356Y-6789644D01*
X14583644Y-6789644D01*
X14583644Y-6860356D01*
X14654356Y-6860356D01*
X14654356Y-8765356D02*
X14654356Y-8694644D01*
X14583644Y-8694644D01*
X14583644Y-8765356D01*
X14654356Y-8765356D01*
X14654356Y-13210356D02*
X14654356Y-13139644D01*
X14583644Y-13139644D01*
X14583644Y-13210356D01*
X14654356Y-13210356D01*
X14908356Y-6860356D02*
X14908356Y-6789644D01*
X14837644Y-6789644D01*
X14837644Y-6860356D01*
X14908356Y-6860356D01*
X14908356Y-8765356D02*
X14908356Y-8694644D01*
X14837644Y-8694644D01*
X14837644Y-8765356D01*
X14908356Y-8765356D01*
X14908356Y-13210356D02*
X14908356Y-13139644D01*
X14837644Y-13139644D01*
X14837644Y-13210356D01*
X14908356Y-13210356D01*
X15162356Y-6860356D02*
X15162356Y-6789644D01*
X15091644Y-6789644D01*
X15091644Y-6860356D01*
X15162356Y-6860356D01*
X15162356Y-8765356D02*
X15162356Y-8694644D01*
X15091644Y-8694644D01*
X15091644Y-8765356D01*
X15162356Y-8765356D01*
X15162356Y-13210356D02*
X15162356Y-13139644D01*
X15091644Y-13139644D01*
X15091644Y-13210356D01*
X15162356Y-13210356D01*
X15416356Y-6860356D02*
X15416356Y-6789644D01*
X15345644Y-6789644D01*
X15345644Y-6860356D01*
X15416356Y-6860356D01*
X15416356Y-8765356D02*
X15416356Y-8694644D01*
X15345644Y-8694644D01*
X15345644Y-8765356D01*
X15416356Y-8765356D01*
X15416356Y-13210356D02*
X15416356Y-13139644D01*
X15345644Y-13139644D01*
X15345644Y-13210356D01*
X15416356Y-13210356D01*
X15606856Y-11432356D02*
X15606856Y-11361644D01*
X15536144Y-11361644D01*
X15536144Y-11432356D01*
X15606856Y-11432356D01*
X15670356Y-6860356D02*
X15670356Y-6789644D01*
X15599644Y-6789644D01*
X15599644Y-6860356D01*
X15670356Y-6860356D01*
X15670356Y-13210356D02*
X15670356Y-13139644D01*
X15599644Y-13139644D01*
X15599644Y-13210356D01*
X15670356Y-13210356D01*
X15924356Y-6860356D02*
X15924356Y-6789644D01*
X15853644Y-6789644D01*
X15853644Y-6860356D01*
X15924356Y-6860356D01*
X15924356Y-13210356D02*
X15924356Y-13139644D01*
X15853644Y-13139644D01*
X15853644Y-13210356D01*
X15924356Y-13210356D01*
X16178356Y-6860356D02*
X16178356Y-6789644D01*
X16107644Y-6789644D01*
X16107644Y-6860356D01*
X16178356Y-6860356D01*
X16178356Y-13210356D02*
X16178356Y-13139644D01*
X16107644Y-13139644D01*
X16107644Y-13210356D01*
X16178356Y-13210356D01*
X16432356Y-6860356D02*
X16432356Y-6789644D01*
X16361644Y-6789644D01*
X16361644Y-6860356D01*
X16432356Y-6860356D01*
X16432356Y-13210356D02*
X16432356Y-13139644D01*
X16361644Y-13139644D01*
X16361644Y-13210356D01*
X16432356Y-13210356D01*
X16686356Y-6860356D02*
X16686356Y-6789644D01*
X16615644Y-6789644D01*
X16615644Y-6860356D01*
X16686356Y-6860356D01*
X16686356Y-13210356D02*
X16686356Y-13139644D01*
X16615644Y-13139644D01*
X16615644Y-13210356D01*
X16686356Y-13210356D01*
X16940356Y-6860356D02*
X16940356Y-6789644D01*
X16869644Y-6789644D01*
X16869644Y-6860356D01*
X16940356Y-6860356D01*
X16940356Y-13210356D02*
X16940356Y-13139644D01*
X16869644Y-13139644D01*
X16869644Y-13210356D01*
X16940356Y-13210356D01*
X17194356Y-6860356D02*
X17194356Y-6789644D01*
X17123644Y-6789644D01*
X17123644Y-6860356D01*
X17194356Y-6860356D01*
X17194356Y-13210356D02*
X17194356Y-13139644D01*
X17123644Y-13139644D01*
X17123644Y-13210356D01*
X17194356Y-13210356D01*
X17448356Y-6860356D02*
X17448356Y-6789644D01*
X17377644Y-6789644D01*
X17377644Y-6860356D01*
X17448356Y-6860356D01*
X17448356Y-13210356D02*
X17448356Y-13139644D01*
X17377644Y-13139644D01*
X17377644Y-13210356D01*
X17448356Y-13210356D01*
X17829356Y-6860356D02*
X17829356Y-6789644D01*
X17758644Y-6789644D01*
X17758644Y-6860356D01*
X17829356Y-6860356D01*
X18083356Y-8638356D02*
X18083356Y-8567644D01*
X18012644Y-8567644D01*
X18012644Y-8638356D01*
X18083356Y-8638356D01*
X18337356Y-10035356D02*
X18337356Y-9964644D01*
X18266644Y-9964644D01*
X18266644Y-10035356D01*
X18337356Y-10035356D01*
X18809356Y-8195356D02*
X18809356Y-8124644D01*
X18738644Y-8124644D01*
X18738644Y-8195356D01*
X18809356Y-8195356D01*
X18824000Y-8290000D02*
X18824000Y-8030000D01*
X18724000Y-8030000D02*
G75*
G02*
X18824000Y-8030000I50000J0D01*
G01*
X18724000Y-8030000D02*
X18724000Y-8290000D01*
X18724000Y-8290000D02*
G75*
G03*
X18824000Y-8290000I50000J0D01*
G01*
X19099356Y-6860356D02*
X19099356Y-6789644D01*
X19028644Y-6789644D01*
X19028644Y-6860356D01*
X19099356Y-6860356D01*
X19099356Y-7368356D02*
X19099356Y-7297644D01*
X19028644Y-7297644D01*
X19028644Y-7368356D01*
X19099356Y-7368356D01*
X19099356Y-7715356D02*
X19099356Y-7644644D01*
X19028644Y-7644644D01*
X19028644Y-7715356D01*
X19099356Y-7715356D01*
X18954000Y-7730000D02*
X19174000Y-7730000D01*
X19174000Y-7630000D02*
G75*
G02*
X19174000Y-7730000I0J-50000D01*
G01*
X19174000Y-7630000D02*
X18954000Y-7630000D01*
X18954000Y-7630000D02*
G75*
G03*
X18954000Y-7730000I0J-50000D01*
G01*
X19099356Y-8905056D02*
X19099356Y-8834344D01*
X19028644Y-8834344D01*
X19028644Y-8905056D01*
X19099356Y-8905056D01*
X19439356Y-8195356D02*
X19439356Y-8124644D01*
X19368644Y-8124644D01*
X19368644Y-8195356D01*
X19439356Y-8195356D01*
X19454000Y-8270000D02*
X19454000Y-8050000D01*
X19354000Y-8050000D02*
G75*
G02*
X19454000Y-8050000I50000J0D01*
G01*
X19354000Y-8050000D02*
X19354000Y-8270000D01*
X19354000Y-8270000D02*
G75*
G03*
X19454000Y-8270000I50000J0D01*
G01*
X19734356Y-12575356D02*
X19734356Y-12504644D01*
X19663644Y-12504644D01*
X19663644Y-12575356D01*
X19734356Y-12575356D01*
D11*
X10305277Y-13742984D02*
X10305277Y-13542984D01*
X10305277Y-13542984D02*
X10352896Y-13542984D01*
X10352896Y-13542984D02*
X10381467Y-13552508D01*
X10381467Y-13552508D02*
X10400515Y-13571555D01*
X10400515Y-13571555D02*
X10410039Y-13590603D01*
X10410039Y-13590603D02*
X10419563Y-13628698D01*
X10419563Y-13628698D02*
X10419563Y-13657269D01*
X10419563Y-13657269D02*
X10410039Y-13695365D01*
X10410039Y-13695365D02*
X10400515Y-13714412D01*
X10400515Y-13714412D02*
X10381467Y-13733460D01*
X10381467Y-13733460D02*
X10352896Y-13742984D01*
X10352896Y-13742984D02*
X10305277Y-13742984D01*
X10505277Y-13742984D02*
X10505277Y-13609650D01*
X10505277Y-13647746D02*
X10514801Y-13628698D01*
X10514801Y-13628698D02*
X10524324Y-13619174D01*
X10524324Y-13619174D02*
X10543372Y-13609650D01*
X10543372Y-13609650D02*
X10562420Y-13609650D01*
X10629086Y-13742984D02*
X10629086Y-13609650D01*
X10629086Y-13542984D02*
X10619563Y-13552508D01*
X10619563Y-13552508D02*
X10629086Y-13562031D01*
X10629086Y-13562031D02*
X10638610Y-13552508D01*
X10638610Y-13552508D02*
X10629086Y-13542984D01*
X10629086Y-13542984D02*
X10629086Y-13562031D01*
X10752896Y-13742984D02*
X10733848Y-13733460D01*
X10733848Y-13733460D02*
X10724324Y-13714412D01*
X10724324Y-13714412D02*
X10724324Y-13542984D01*
X10857658Y-13742984D02*
X10838610Y-13733460D01*
X10838610Y-13733460D02*
X10829086Y-13714412D01*
X10829086Y-13714412D02*
X10829086Y-13542984D01*
X11086229Y-13742984D02*
X11086229Y-13542984D01*
X11086229Y-13542984D02*
X11152896Y-13685841D01*
X11152896Y-13685841D02*
X11219562Y-13542984D01*
X11219562Y-13542984D02*
X11219562Y-13742984D01*
X11400515Y-13742984D02*
X11400515Y-13638222D01*
X11400515Y-13638222D02*
X11390991Y-13619174D01*
X11390991Y-13619174D02*
X11371943Y-13609650D01*
X11371943Y-13609650D02*
X11333848Y-13609650D01*
X11333848Y-13609650D02*
X11314801Y-13619174D01*
X11400515Y-13733460D02*
X11381467Y-13742984D01*
X11381467Y-13742984D02*
X11333848Y-13742984D01*
X11333848Y-13742984D02*
X11314801Y-13733460D01*
X11314801Y-13733460D02*
X11305277Y-13714412D01*
X11305277Y-13714412D02*
X11305277Y-13695365D01*
X11305277Y-13695365D02*
X11314801Y-13676317D01*
X11314801Y-13676317D02*
X11333848Y-13666793D01*
X11333848Y-13666793D02*
X11381467Y-13666793D01*
X11381467Y-13666793D02*
X11400515Y-13657269D01*
X11495753Y-13609650D02*
X11495753Y-13809650D01*
X11495753Y-13619174D02*
X11514801Y-13609650D01*
X11514801Y-13609650D02*
X11552896Y-13609650D01*
X11552896Y-13609650D02*
X11571943Y-13619174D01*
X11571943Y-13619174D02*
X11581467Y-13628698D01*
X11581467Y-13628698D02*
X11590991Y-13647746D01*
X11590991Y-13647746D02*
X11590991Y-13704888D01*
X11590991Y-13704888D02*
X11581467Y-13723936D01*
X11581467Y-13723936D02*
X11571943Y-13733460D01*
X11571943Y-13733460D02*
X11552896Y-13742984D01*
X11552896Y-13742984D02*
X11514801Y-13742984D01*
X11514801Y-13742984D02*
X11495753Y-13733460D01*
X11676705Y-13723936D02*
X11686229Y-13733460D01*
X11686229Y-13733460D02*
X11676705Y-13742984D01*
X11676705Y-13742984D02*
X11667182Y-13733460D01*
X11667182Y-13733460D02*
X11676705Y-13723936D01*
X11676705Y-13723936D02*
X11676705Y-13742984D01*
X11676705Y-13619174D02*
X11686229Y-13628698D01*
X11686229Y-13628698D02*
X11676705Y-13638222D01*
X11676705Y-13638222D02*
X11667182Y-13628698D01*
X11667182Y-13628698D02*
X11676705Y-13619174D01*
X11676705Y-13619174D02*
X11676705Y-13638222D01*
D12*
X10014500Y-14056500D02*
X10044500Y-14086500D01*
X10044500Y-14056500D02*
X10014500Y-14086500D01*
D11*
X10343372Y-13962984D02*
X10362420Y-13962984D01*
X10362420Y-13962984D02*
X10381467Y-13972508D01*
X10381467Y-13972508D02*
X10390991Y-13982031D01*
X10390991Y-13982031D02*
X10400515Y-14001079D01*
X10400515Y-14001079D02*
X10410039Y-14039174D01*
X10410039Y-14039174D02*
X10410039Y-14086793D01*
X10410039Y-14086793D02*
X10400515Y-14124888D01*
X10400515Y-14124888D02*
X10390991Y-14143936D01*
X10390991Y-14143936D02*
X10381467Y-14153460D01*
X10381467Y-14153460D02*
X10362420Y-14162984D01*
X10362420Y-14162984D02*
X10343372Y-14162984D01*
X10343372Y-14162984D02*
X10324324Y-14153460D01*
X10324324Y-14153460D02*
X10314801Y-14143936D01*
X10314801Y-14143936D02*
X10305277Y-14124888D01*
X10305277Y-14124888D02*
X10295753Y-14086793D01*
X10295753Y-14086793D02*
X10295753Y-14039174D01*
X10295753Y-14039174D02*
X10305277Y-14001079D01*
X10305277Y-14001079D02*
X10314801Y-13982031D01*
X10314801Y-13982031D02*
X10324324Y-13972508D01*
X10324324Y-13972508D02*
X10343372Y-13962984D01*
X10495753Y-14143936D02*
X10505277Y-14153460D01*
X10505277Y-14153460D02*
X10495753Y-14162984D01*
X10495753Y-14162984D02*
X10486229Y-14153460D01*
X10486229Y-14153460D02*
X10495753Y-14143936D01*
X10495753Y-14143936D02*
X10495753Y-14162984D01*
X10571944Y-13962984D02*
X10695753Y-13962984D01*
X10695753Y-13962984D02*
X10629086Y-14039174D01*
X10629086Y-14039174D02*
X10657658Y-14039174D01*
X10657658Y-14039174D02*
X10676705Y-14048698D01*
X10676705Y-14048698D02*
X10686229Y-14058222D01*
X10686229Y-14058222D02*
X10695753Y-14077269D01*
X10695753Y-14077269D02*
X10695753Y-14124888D01*
X10695753Y-14124888D02*
X10686229Y-14143936D01*
X10686229Y-14143936D02*
X10676705Y-14153460D01*
X10676705Y-14153460D02*
X10657658Y-14162984D01*
X10657658Y-14162984D02*
X10600515Y-14162984D01*
X10600515Y-14162984D02*
X10581467Y-14153460D01*
X10581467Y-14153460D02*
X10571944Y-14143936D01*
X10819563Y-13962984D02*
X10838610Y-13962984D01*
X10838610Y-13962984D02*
X10857658Y-13972508D01*
X10857658Y-13972508D02*
X10867182Y-13982031D01*
X10867182Y-13982031D02*
X10876705Y-14001079D01*
X10876705Y-14001079D02*
X10886229Y-14039174D01*
X10886229Y-14039174D02*
X10886229Y-14086793D01*
X10886229Y-14086793D02*
X10876705Y-14124888D01*
X10876705Y-14124888D02*
X10867182Y-14143936D01*
X10867182Y-14143936D02*
X10857658Y-14153460D01*
X10857658Y-14153460D02*
X10838610Y-14162984D01*
X10838610Y-14162984D02*
X10819563Y-14162984D01*
X10819563Y-14162984D02*
X10800515Y-14153460D01*
X10800515Y-14153460D02*
X10790991Y-14143936D01*
X10790991Y-14143936D02*
X10781467Y-14124888D01*
X10781467Y-14124888D02*
X10771944Y-14086793D01*
X10771944Y-14086793D02*
X10771944Y-14039174D01*
X10771944Y-14039174D02*
X10781467Y-14001079D01*
X10781467Y-14001079D02*
X10790991Y-13982031D01*
X10790991Y-13982031D02*
X10800515Y-13972508D01*
X10800515Y-13972508D02*
X10819563Y-13962984D01*
X11010039Y-13962984D02*
X11029086Y-13962984D01*
X11029086Y-13962984D02*
X11048134Y-13972508D01*
X11048134Y-13972508D02*
X11057658Y-13982031D01*
X11057658Y-13982031D02*
X11067182Y-14001079D01*
X11067182Y-14001079D02*
X11076705Y-14039174D01*
X11076705Y-14039174D02*
X11076705Y-14086793D01*
X11076705Y-14086793D02*
X11067182Y-14124888D01*
X11067182Y-14124888D02*
X11057658Y-14143936D01*
X11057658Y-14143936D02*
X11048134Y-14153460D01*
X11048134Y-14153460D02*
X11029086Y-14162984D01*
X11029086Y-14162984D02*
X11010039Y-14162984D01*
X11010039Y-14162984D02*
X10990991Y-14153460D01*
X10990991Y-14153460D02*
X10981467Y-14143936D01*
X10981467Y-14143936D02*
X10971944Y-14124888D01*
X10971944Y-14124888D02*
X10962420Y-14086793D01*
X10962420Y-14086793D02*
X10962420Y-14039174D01*
X10962420Y-14039174D02*
X10971944Y-14001079D01*
X10971944Y-14001079D02*
X10981467Y-13982031D01*
X10981467Y-13982031D02*
X10990991Y-13972508D01*
X10990991Y-13972508D02*
X11010039Y-13962984D01*
X11162420Y-14162984D02*
X11162420Y-14029650D01*
X11162420Y-14048698D02*
X11171944Y-14039174D01*
X11171944Y-14039174D02*
X11190991Y-14029650D01*
X11190991Y-14029650D02*
X11219563Y-14029650D01*
X11219563Y-14029650D02*
X11238610Y-14039174D01*
X11238610Y-14039174D02*
X11248134Y-14058222D01*
X11248134Y-14058222D02*
X11248134Y-14162984D01*
X11248134Y-14058222D02*
X11257658Y-14039174D01*
X11257658Y-14039174D02*
X11276705Y-14029650D01*
X11276705Y-14029650D02*
X11305277Y-14029650D01*
X11305277Y-14029650D02*
X11324324Y-14039174D01*
X11324324Y-14039174D02*
X11333848Y-14058222D01*
X11333848Y-14058222D02*
X11333848Y-14162984D01*
X11429086Y-14162984D02*
X11429086Y-14029650D01*
X11429086Y-14048698D02*
X11438610Y-14039174D01*
X11438610Y-14039174D02*
X11457658Y-14029650D01*
X11457658Y-14029650D02*
X11486229Y-14029650D01*
X11486229Y-14029650D02*
X11505277Y-14039174D01*
X11505277Y-14039174D02*
X11514801Y-14058222D01*
X11514801Y-14058222D02*
X11514801Y-14162984D01*
X11514801Y-14058222D02*
X11524324Y-14039174D01*
X11524324Y-14039174D02*
X11543372Y-14029650D01*
X11543372Y-14029650D02*
X11571943Y-14029650D01*
X11571943Y-14029650D02*
X11590991Y-14039174D01*
X11590991Y-14039174D02*
X11600515Y-14058222D01*
X11600515Y-14058222D02*
X11600515Y-14162984D01*
X11990991Y-13953460D02*
X11819563Y-14210603D01*
X12248134Y-13962984D02*
X12267182Y-13962984D01*
X12267182Y-13962984D02*
X12286229Y-13972508D01*
X12286229Y-13972508D02*
X12295753Y-13982031D01*
X12295753Y-13982031D02*
X12305277Y-14001079D01*
X12305277Y-14001079D02*
X12314801Y-14039174D01*
X12314801Y-14039174D02*
X12314801Y-14086793D01*
X12314801Y-14086793D02*
X12305277Y-14124888D01*
X12305277Y-14124888D02*
X12295753Y-14143936D01*
X12295753Y-14143936D02*
X12286229Y-14153460D01*
X12286229Y-14153460D02*
X12267182Y-14162984D01*
X12267182Y-14162984D02*
X12248134Y-14162984D01*
X12248134Y-14162984D02*
X12229086Y-14153460D01*
X12229086Y-14153460D02*
X12219563Y-14143936D01*
X12219563Y-14143936D02*
X12210039Y-14124888D01*
X12210039Y-14124888D02*
X12200515Y-14086793D01*
X12200515Y-14086793D02*
X12200515Y-14039174D01*
X12200515Y-14039174D02*
X12210039Y-14001079D01*
X12210039Y-14001079D02*
X12219563Y-13982031D01*
X12219563Y-13982031D02*
X12229086Y-13972508D01*
X12229086Y-13972508D02*
X12248134Y-13962984D01*
X12400515Y-14143936D02*
X12410039Y-14153460D01*
X12410039Y-14153460D02*
X12400515Y-14162984D01*
X12400515Y-14162984D02*
X12390991Y-14153460D01*
X12390991Y-14153460D02*
X12400515Y-14143936D01*
X12400515Y-14143936D02*
X12400515Y-14162984D01*
X12533848Y-13962984D02*
X12552896Y-13962984D01*
X12552896Y-13962984D02*
X12571944Y-13972508D01*
X12571944Y-13972508D02*
X12581467Y-13982031D01*
X12581467Y-13982031D02*
X12590991Y-14001079D01*
X12590991Y-14001079D02*
X12600515Y-14039174D01*
X12600515Y-14039174D02*
X12600515Y-14086793D01*
X12600515Y-14086793D02*
X12590991Y-14124888D01*
X12590991Y-14124888D02*
X12581467Y-14143936D01*
X12581467Y-14143936D02*
X12571944Y-14153460D01*
X12571944Y-14153460D02*
X12552896Y-14162984D01*
X12552896Y-14162984D02*
X12533848Y-14162984D01*
X12533848Y-14162984D02*
X12514801Y-14153460D01*
X12514801Y-14153460D02*
X12505277Y-14143936D01*
X12505277Y-14143936D02*
X12495753Y-14124888D01*
X12495753Y-14124888D02*
X12486229Y-14086793D01*
X12486229Y-14086793D02*
X12486229Y-14039174D01*
X12486229Y-14039174D02*
X12495753Y-14001079D01*
X12495753Y-14001079D02*
X12505277Y-13982031D01*
X12505277Y-13982031D02*
X12514801Y-13972508D01*
X12514801Y-13972508D02*
X12533848Y-13962984D01*
X12790991Y-14162984D02*
X12676706Y-14162984D01*
X12733848Y-14162984D02*
X12733848Y-13962984D01*
X12733848Y-13962984D02*
X12714801Y-13991555D01*
X12714801Y-13991555D02*
X12695753Y-14010603D01*
X12695753Y-14010603D02*
X12676706Y-14020127D01*
X12981467Y-14162984D02*
X12867182Y-14162984D01*
X12924325Y-14162984D02*
X12924325Y-13962984D01*
X12924325Y-13962984D02*
X12905277Y-13991555D01*
X12905277Y-13991555D02*
X12886229Y-14010603D01*
X12886229Y-14010603D02*
X12867182Y-14020127D01*
X13095753Y-14048698D02*
X13076706Y-14039174D01*
X13076706Y-14039174D02*
X13067182Y-14029650D01*
X13067182Y-14029650D02*
X13057658Y-14010603D01*
X13057658Y-14010603D02*
X13057658Y-14001079D01*
X13057658Y-14001079D02*
X13067182Y-13982031D01*
X13067182Y-13982031D02*
X13076706Y-13972508D01*
X13076706Y-13972508D02*
X13095753Y-13962984D01*
X13095753Y-13962984D02*
X13133848Y-13962984D01*
X13133848Y-13962984D02*
X13152896Y-13972508D01*
X13152896Y-13972508D02*
X13162420Y-13982031D01*
X13162420Y-13982031D02*
X13171944Y-14001079D01*
X13171944Y-14001079D02*
X13171944Y-14010603D01*
X13171944Y-14010603D02*
X13162420Y-14029650D01*
X13162420Y-14029650D02*
X13152896Y-14039174D01*
X13152896Y-14039174D02*
X13133848Y-14048698D01*
X13133848Y-14048698D02*
X13095753Y-14048698D01*
X13095753Y-14048698D02*
X13076706Y-14058222D01*
X13076706Y-14058222D02*
X13067182Y-14067746D01*
X13067182Y-14067746D02*
X13057658Y-14086793D01*
X13057658Y-14086793D02*
X13057658Y-14124888D01*
X13057658Y-14124888D02*
X13067182Y-14143936D01*
X13067182Y-14143936D02*
X13076706Y-14153460D01*
X13076706Y-14153460D02*
X13095753Y-14162984D01*
X13095753Y-14162984D02*
X13133848Y-14162984D01*
X13133848Y-14162984D02*
X13152896Y-14153460D01*
X13152896Y-14153460D02*
X13162420Y-14143936D01*
X13162420Y-14143936D02*
X13171944Y-14124888D01*
X13171944Y-14124888D02*
X13171944Y-14086793D01*
X13171944Y-14086793D02*
X13162420Y-14067746D01*
X13162420Y-14067746D02*
X13152896Y-14058222D01*
X13152896Y-14058222D02*
X13133848Y-14048698D01*
X13248134Y-13962984D02*
X13248134Y-14001079D01*
X13324325Y-13962984D02*
X13324325Y-14001079D01*
X13619563Y-14239174D02*
X13610039Y-14229650D01*
X13610039Y-14229650D02*
X13590991Y-14201079D01*
X13590991Y-14201079D02*
X13581468Y-14182031D01*
X13581468Y-14182031D02*
X13571944Y-14153460D01*
X13571944Y-14153460D02*
X13562420Y-14105841D01*
X13562420Y-14105841D02*
X13562420Y-14067746D01*
X13562420Y-14067746D02*
X13571944Y-14020127D01*
X13571944Y-14020127D02*
X13581468Y-13991555D01*
X13581468Y-13991555D02*
X13590991Y-13972508D01*
X13590991Y-13972508D02*
X13610039Y-13943936D01*
X13610039Y-13943936D02*
X13619563Y-13934412D01*
X13790991Y-13962984D02*
X13695753Y-13962984D01*
X13695753Y-13962984D02*
X13686229Y-14058222D01*
X13686229Y-14058222D02*
X13695753Y-14048698D01*
X13695753Y-14048698D02*
X13714801Y-14039174D01*
X13714801Y-14039174D02*
X13762420Y-14039174D01*
X13762420Y-14039174D02*
X13781468Y-14048698D01*
X13781468Y-14048698D02*
X13790991Y-14058222D01*
X13790991Y-14058222D02*
X13800515Y-14077269D01*
X13800515Y-14077269D02*
X13800515Y-14124888D01*
X13800515Y-14124888D02*
X13790991Y-14143936D01*
X13790991Y-14143936D02*
X13781468Y-14153460D01*
X13781468Y-14153460D02*
X13762420Y-14162984D01*
X13762420Y-14162984D02*
X13714801Y-14162984D01*
X13714801Y-14162984D02*
X13695753Y-14153460D01*
X13695753Y-14153460D02*
X13686229Y-14143936D01*
X13867182Y-13962984D02*
X14000515Y-13962984D01*
X14000515Y-13962984D02*
X13914801Y-14162984D01*
X14057658Y-13962984D02*
X14190991Y-13962984D01*
X14190991Y-13962984D02*
X14105277Y-14162984D01*
X14419563Y-14162984D02*
X14419563Y-13962984D01*
X14505277Y-14162984D02*
X14505277Y-14058222D01*
X14505277Y-14058222D02*
X14495753Y-14039174D01*
X14495753Y-14039174D02*
X14476706Y-14029650D01*
X14476706Y-14029650D02*
X14448134Y-14029650D01*
X14448134Y-14029650D02*
X14429087Y-14039174D01*
X14429087Y-14039174D02*
X14419563Y-14048698D01*
X14629087Y-14162984D02*
X14610039Y-14153460D01*
X14610039Y-14153460D02*
X14600515Y-14143936D01*
X14600515Y-14143936D02*
X14590991Y-14124888D01*
X14590991Y-14124888D02*
X14590991Y-14067746D01*
X14590991Y-14067746D02*
X14600515Y-14048698D01*
X14600515Y-14048698D02*
X14610039Y-14039174D01*
X14610039Y-14039174D02*
X14629087Y-14029650D01*
X14629087Y-14029650D02*
X14657658Y-14029650D01*
X14657658Y-14029650D02*
X14676706Y-14039174D01*
X14676706Y-14039174D02*
X14686230Y-14048698D01*
X14686230Y-14048698D02*
X14695753Y-14067746D01*
X14695753Y-14067746D02*
X14695753Y-14124888D01*
X14695753Y-14124888D02*
X14686230Y-14143936D01*
X14686230Y-14143936D02*
X14676706Y-14153460D01*
X14676706Y-14153460D02*
X14657658Y-14162984D01*
X14657658Y-14162984D02*
X14629087Y-14162984D01*
X14810039Y-14162984D02*
X14790991Y-14153460D01*
X14790991Y-14153460D02*
X14781468Y-14134412D01*
X14781468Y-14134412D02*
X14781468Y-13962984D01*
X14962420Y-14153460D02*
X14943372Y-14162984D01*
X14943372Y-14162984D02*
X14905277Y-14162984D01*
X14905277Y-14162984D02*
X14886230Y-14153460D01*
X14886230Y-14153460D02*
X14876706Y-14134412D01*
X14876706Y-14134412D02*
X14876706Y-14058222D01*
X14876706Y-14058222D02*
X14886230Y-14039174D01*
X14886230Y-14039174D02*
X14905277Y-14029650D01*
X14905277Y-14029650D02*
X14943372Y-14029650D01*
X14943372Y-14029650D02*
X14962420Y-14039174D01*
X14962420Y-14039174D02*
X14971944Y-14058222D01*
X14971944Y-14058222D02*
X14971944Y-14077269D01*
X14971944Y-14077269D02*
X14876706Y-14096317D01*
X15048134Y-14153460D02*
X15067182Y-14162984D01*
X15067182Y-14162984D02*
X15105277Y-14162984D01*
X15105277Y-14162984D02*
X15124325Y-14153460D01*
X15124325Y-14153460D02*
X15133849Y-14134412D01*
X15133849Y-14134412D02*
X15133849Y-14124888D01*
X15133849Y-14124888D02*
X15124325Y-14105841D01*
X15124325Y-14105841D02*
X15105277Y-14096317D01*
X15105277Y-14096317D02*
X15076706Y-14096317D01*
X15076706Y-14096317D02*
X15057658Y-14086793D01*
X15057658Y-14086793D02*
X15048134Y-14067746D01*
X15048134Y-14067746D02*
X15048134Y-14058222D01*
X15048134Y-14058222D02*
X15057658Y-14039174D01*
X15057658Y-14039174D02*
X15076706Y-14029650D01*
X15076706Y-14029650D02*
X15105277Y-14029650D01*
X15105277Y-14029650D02*
X15124325Y-14039174D01*
X15200515Y-14239174D02*
X15210039Y-14229650D01*
X15210039Y-14229650D02*
X15229087Y-14201079D01*
X15229087Y-14201079D02*
X15238611Y-14182031D01*
X15238611Y-14182031D02*
X15248134Y-14153460D01*
X15248134Y-14153460D02*
X15257658Y-14105841D01*
X15257658Y-14105841D02*
X15257658Y-14067746D01*
X15257658Y-14067746D02*
X15248134Y-14020127D01*
X15248134Y-14020127D02*
X15238611Y-13991555D01*
X15238611Y-13991555D02*
X15229087Y-13972508D01*
X15229087Y-13972508D02*
X15210039Y-13943936D01*
X15210039Y-13943936D02*
X15200515Y-13934412D01*
D12*
X10044500Y-14335500D02*
G75*
G02*
X9994500Y-14335500I-25000J0D01*
G01*
X9994500Y-14335500D02*
G75*
G02*
X10044500Y-14335500I25000J0D01*
G01*
D11*
X10343372Y-14226984D02*
X10362420Y-14226984D01*
X10362420Y-14226984D02*
X10381467Y-14236508D01*
X10381467Y-14236508D02*
X10390991Y-14246031D01*
X10390991Y-14246031D02*
X10400515Y-14265079D01*
X10400515Y-14265079D02*
X10410039Y-14303174D01*
X10410039Y-14303174D02*
X10410039Y-14350793D01*
X10410039Y-14350793D02*
X10400515Y-14388888D01*
X10400515Y-14388888D02*
X10390991Y-14407936D01*
X10390991Y-14407936D02*
X10381467Y-14417460D01*
X10381467Y-14417460D02*
X10362420Y-14426984D01*
X10362420Y-14426984D02*
X10343372Y-14426984D01*
X10343372Y-14426984D02*
X10324324Y-14417460D01*
X10324324Y-14417460D02*
X10314801Y-14407936D01*
X10314801Y-14407936D02*
X10305277Y-14388888D01*
X10305277Y-14388888D02*
X10295753Y-14350793D01*
X10295753Y-14350793D02*
X10295753Y-14303174D01*
X10295753Y-14303174D02*
X10305277Y-14265079D01*
X10305277Y-14265079D02*
X10314801Y-14246031D01*
X10314801Y-14246031D02*
X10324324Y-14236508D01*
X10324324Y-14236508D02*
X10343372Y-14226984D01*
X10495753Y-14407936D02*
X10505277Y-14417460D01*
X10505277Y-14417460D02*
X10495753Y-14426984D01*
X10495753Y-14426984D02*
X10486229Y-14417460D01*
X10486229Y-14417460D02*
X10495753Y-14407936D01*
X10495753Y-14407936D02*
X10495753Y-14426984D01*
X10686229Y-14226984D02*
X10590991Y-14226984D01*
X10590991Y-14226984D02*
X10581467Y-14322222D01*
X10581467Y-14322222D02*
X10590991Y-14312698D01*
X10590991Y-14312698D02*
X10610039Y-14303174D01*
X10610039Y-14303174D02*
X10657658Y-14303174D01*
X10657658Y-14303174D02*
X10676705Y-14312698D01*
X10676705Y-14312698D02*
X10686229Y-14322222D01*
X10686229Y-14322222D02*
X10695753Y-14341269D01*
X10695753Y-14341269D02*
X10695753Y-14388888D01*
X10695753Y-14388888D02*
X10686229Y-14407936D01*
X10686229Y-14407936D02*
X10676705Y-14417460D01*
X10676705Y-14417460D02*
X10657658Y-14426984D01*
X10657658Y-14426984D02*
X10610039Y-14426984D01*
X10610039Y-14426984D02*
X10590991Y-14417460D01*
X10590991Y-14417460D02*
X10581467Y-14407936D01*
X10819563Y-14226984D02*
X10838610Y-14226984D01*
X10838610Y-14226984D02*
X10857658Y-14236508D01*
X10857658Y-14236508D02*
X10867182Y-14246031D01*
X10867182Y-14246031D02*
X10876705Y-14265079D01*
X10876705Y-14265079D02*
X10886229Y-14303174D01*
X10886229Y-14303174D02*
X10886229Y-14350793D01*
X10886229Y-14350793D02*
X10876705Y-14388888D01*
X10876705Y-14388888D02*
X10867182Y-14407936D01*
X10867182Y-14407936D02*
X10857658Y-14417460D01*
X10857658Y-14417460D02*
X10838610Y-14426984D01*
X10838610Y-14426984D02*
X10819563Y-14426984D01*
X10819563Y-14426984D02*
X10800515Y-14417460D01*
X10800515Y-14417460D02*
X10790991Y-14407936D01*
X10790991Y-14407936D02*
X10781467Y-14388888D01*
X10781467Y-14388888D02*
X10771944Y-14350793D01*
X10771944Y-14350793D02*
X10771944Y-14303174D01*
X10771944Y-14303174D02*
X10781467Y-14265079D01*
X10781467Y-14265079D02*
X10790991Y-14246031D01*
X10790991Y-14246031D02*
X10800515Y-14236508D01*
X10800515Y-14236508D02*
X10819563Y-14226984D01*
X11010039Y-14226984D02*
X11029086Y-14226984D01*
X11029086Y-14226984D02*
X11048134Y-14236508D01*
X11048134Y-14236508D02*
X11057658Y-14246031D01*
X11057658Y-14246031D02*
X11067182Y-14265079D01*
X11067182Y-14265079D02*
X11076705Y-14303174D01*
X11076705Y-14303174D02*
X11076705Y-14350793D01*
X11076705Y-14350793D02*
X11067182Y-14388888D01*
X11067182Y-14388888D02*
X11057658Y-14407936D01*
X11057658Y-14407936D02*
X11048134Y-14417460D01*
X11048134Y-14417460D02*
X11029086Y-14426984D01*
X11029086Y-14426984D02*
X11010039Y-14426984D01*
X11010039Y-14426984D02*
X10990991Y-14417460D01*
X10990991Y-14417460D02*
X10981467Y-14407936D01*
X10981467Y-14407936D02*
X10971944Y-14388888D01*
X10971944Y-14388888D02*
X10962420Y-14350793D01*
X10962420Y-14350793D02*
X10962420Y-14303174D01*
X10962420Y-14303174D02*
X10971944Y-14265079D01*
X10971944Y-14265079D02*
X10981467Y-14246031D01*
X10981467Y-14246031D02*
X10990991Y-14236508D01*
X10990991Y-14236508D02*
X11010039Y-14226984D01*
X11162420Y-14426984D02*
X11162420Y-14293650D01*
X11162420Y-14312698D02*
X11171944Y-14303174D01*
X11171944Y-14303174D02*
X11190991Y-14293650D01*
X11190991Y-14293650D02*
X11219563Y-14293650D01*
X11219563Y-14293650D02*
X11238610Y-14303174D01*
X11238610Y-14303174D02*
X11248134Y-14322222D01*
X11248134Y-14322222D02*
X11248134Y-14426984D01*
X11248134Y-14322222D02*
X11257658Y-14303174D01*
X11257658Y-14303174D02*
X11276705Y-14293650D01*
X11276705Y-14293650D02*
X11305277Y-14293650D01*
X11305277Y-14293650D02*
X11324324Y-14303174D01*
X11324324Y-14303174D02*
X11333848Y-14322222D01*
X11333848Y-14322222D02*
X11333848Y-14426984D01*
X11429086Y-14426984D02*
X11429086Y-14293650D01*
X11429086Y-14312698D02*
X11438610Y-14303174D01*
X11438610Y-14303174D02*
X11457658Y-14293650D01*
X11457658Y-14293650D02*
X11486229Y-14293650D01*
X11486229Y-14293650D02*
X11505277Y-14303174D01*
X11505277Y-14303174D02*
X11514801Y-14322222D01*
X11514801Y-14322222D02*
X11514801Y-14426984D01*
X11514801Y-14322222D02*
X11524324Y-14303174D01*
X11524324Y-14303174D02*
X11543372Y-14293650D01*
X11543372Y-14293650D02*
X11571943Y-14293650D01*
X11571943Y-14293650D02*
X11590991Y-14303174D01*
X11590991Y-14303174D02*
X11600515Y-14322222D01*
X11600515Y-14322222D02*
X11600515Y-14426984D01*
X11990991Y-14217460D02*
X11819563Y-14474603D01*
X12248134Y-14226984D02*
X12267182Y-14226984D01*
X12267182Y-14226984D02*
X12286229Y-14236508D01*
X12286229Y-14236508D02*
X12295753Y-14246031D01*
X12295753Y-14246031D02*
X12305277Y-14265079D01*
X12305277Y-14265079D02*
X12314801Y-14303174D01*
X12314801Y-14303174D02*
X12314801Y-14350793D01*
X12314801Y-14350793D02*
X12305277Y-14388888D01*
X12305277Y-14388888D02*
X12295753Y-14407936D01*
X12295753Y-14407936D02*
X12286229Y-14417460D01*
X12286229Y-14417460D02*
X12267182Y-14426984D01*
X12267182Y-14426984D02*
X12248134Y-14426984D01*
X12248134Y-14426984D02*
X12229086Y-14417460D01*
X12229086Y-14417460D02*
X12219563Y-14407936D01*
X12219563Y-14407936D02*
X12210039Y-14388888D01*
X12210039Y-14388888D02*
X12200515Y-14350793D01*
X12200515Y-14350793D02*
X12200515Y-14303174D01*
X12200515Y-14303174D02*
X12210039Y-14265079D01*
X12210039Y-14265079D02*
X12219563Y-14246031D01*
X12219563Y-14246031D02*
X12229086Y-14236508D01*
X12229086Y-14236508D02*
X12248134Y-14226984D01*
X12400515Y-14407936D02*
X12410039Y-14417460D01*
X12410039Y-14417460D02*
X12400515Y-14426984D01*
X12400515Y-14426984D02*
X12390991Y-14417460D01*
X12390991Y-14417460D02*
X12400515Y-14407936D01*
X12400515Y-14407936D02*
X12400515Y-14426984D01*
X12533848Y-14226984D02*
X12552896Y-14226984D01*
X12552896Y-14226984D02*
X12571944Y-14236508D01*
X12571944Y-14236508D02*
X12581467Y-14246031D01*
X12581467Y-14246031D02*
X12590991Y-14265079D01*
X12590991Y-14265079D02*
X12600515Y-14303174D01*
X12600515Y-14303174D02*
X12600515Y-14350793D01*
X12600515Y-14350793D02*
X12590991Y-14388888D01*
X12590991Y-14388888D02*
X12581467Y-14407936D01*
X12581467Y-14407936D02*
X12571944Y-14417460D01*
X12571944Y-14417460D02*
X12552896Y-14426984D01*
X12552896Y-14426984D02*
X12533848Y-14426984D01*
X12533848Y-14426984D02*
X12514801Y-14417460D01*
X12514801Y-14417460D02*
X12505277Y-14407936D01*
X12505277Y-14407936D02*
X12495753Y-14388888D01*
X12495753Y-14388888D02*
X12486229Y-14350793D01*
X12486229Y-14350793D02*
X12486229Y-14303174D01*
X12486229Y-14303174D02*
X12495753Y-14265079D01*
X12495753Y-14265079D02*
X12505277Y-14246031D01*
X12505277Y-14246031D02*
X12514801Y-14236508D01*
X12514801Y-14236508D02*
X12533848Y-14226984D01*
X12790991Y-14426984D02*
X12676706Y-14426984D01*
X12733848Y-14426984D02*
X12733848Y-14226984D01*
X12733848Y-14226984D02*
X12714801Y-14255555D01*
X12714801Y-14255555D02*
X12695753Y-14274603D01*
X12695753Y-14274603D02*
X12676706Y-14284127D01*
X12886229Y-14426984D02*
X12924325Y-14426984D01*
X12924325Y-14426984D02*
X12943372Y-14417460D01*
X12943372Y-14417460D02*
X12952896Y-14407936D01*
X12952896Y-14407936D02*
X12971944Y-14379365D01*
X12971944Y-14379365D02*
X12981467Y-14341269D01*
X12981467Y-14341269D02*
X12981467Y-14265079D01*
X12981467Y-14265079D02*
X12971944Y-14246031D01*
X12971944Y-14246031D02*
X12962420Y-14236508D01*
X12962420Y-14236508D02*
X12943372Y-14226984D01*
X12943372Y-14226984D02*
X12905277Y-14226984D01*
X12905277Y-14226984D02*
X12886229Y-14236508D01*
X12886229Y-14236508D02*
X12876706Y-14246031D01*
X12876706Y-14246031D02*
X12867182Y-14265079D01*
X12867182Y-14265079D02*
X12867182Y-14312698D01*
X12867182Y-14312698D02*
X12876706Y-14331746D01*
X12876706Y-14331746D02*
X12886229Y-14341269D01*
X12886229Y-14341269D02*
X12905277Y-14350793D01*
X12905277Y-14350793D02*
X12943372Y-14350793D01*
X12943372Y-14350793D02*
X12962420Y-14341269D01*
X12962420Y-14341269D02*
X12971944Y-14331746D01*
X12971944Y-14331746D02*
X12981467Y-14312698D01*
X13048134Y-14226984D02*
X13181467Y-14226984D01*
X13181467Y-14226984D02*
X13095753Y-14426984D01*
X13248134Y-14226984D02*
X13248134Y-14265079D01*
X13324325Y-14226984D02*
X13324325Y-14265079D01*
X13619563Y-14503174D02*
X13610039Y-14493650D01*
X13610039Y-14493650D02*
X13590991Y-14465079D01*
X13590991Y-14465079D02*
X13581468Y-14446031D01*
X13581468Y-14446031D02*
X13571944Y-14417460D01*
X13571944Y-14417460D02*
X13562420Y-14369841D01*
X13562420Y-14369841D02*
X13562420Y-14331746D01*
X13562420Y-14331746D02*
X13571944Y-14284127D01*
X13571944Y-14284127D02*
X13581468Y-14255555D01*
X13581468Y-14255555D02*
X13590991Y-14236508D01*
X13590991Y-14236508D02*
X13610039Y-14207936D01*
X13610039Y-14207936D02*
X13619563Y-14198412D01*
X13676706Y-14226984D02*
X13810039Y-14226984D01*
X13810039Y-14226984D02*
X13724325Y-14426984D01*
X14038610Y-14426984D02*
X14038610Y-14226984D01*
X14124325Y-14426984D02*
X14124325Y-14322222D01*
X14124325Y-14322222D02*
X14114801Y-14303174D01*
X14114801Y-14303174D02*
X14095753Y-14293650D01*
X14095753Y-14293650D02*
X14067182Y-14293650D01*
X14067182Y-14293650D02*
X14048134Y-14303174D01*
X14048134Y-14303174D02*
X14038610Y-14312698D01*
X14248134Y-14426984D02*
X14229087Y-14417460D01*
X14229087Y-14417460D02*
X14219563Y-14407936D01*
X14219563Y-14407936D02*
X14210039Y-14388888D01*
X14210039Y-14388888D02*
X14210039Y-14331746D01*
X14210039Y-14331746D02*
X14219563Y-14312698D01*
X14219563Y-14312698D02*
X14229087Y-14303174D01*
X14229087Y-14303174D02*
X14248134Y-14293650D01*
X14248134Y-14293650D02*
X14276706Y-14293650D01*
X14276706Y-14293650D02*
X14295753Y-14303174D01*
X14295753Y-14303174D02*
X14305277Y-14312698D01*
X14305277Y-14312698D02*
X14314801Y-14331746D01*
X14314801Y-14331746D02*
X14314801Y-14388888D01*
X14314801Y-14388888D02*
X14305277Y-14407936D01*
X14305277Y-14407936D02*
X14295753Y-14417460D01*
X14295753Y-14417460D02*
X14276706Y-14426984D01*
X14276706Y-14426984D02*
X14248134Y-14426984D01*
X14429087Y-14426984D02*
X14410039Y-14417460D01*
X14410039Y-14417460D02*
X14400515Y-14398412D01*
X14400515Y-14398412D02*
X14400515Y-14226984D01*
X14581468Y-14417460D02*
X14562420Y-14426984D01*
X14562420Y-14426984D02*
X14524325Y-14426984D01*
X14524325Y-14426984D02*
X14505277Y-14417460D01*
X14505277Y-14417460D02*
X14495753Y-14398412D01*
X14495753Y-14398412D02*
X14495753Y-14322222D01*
X14495753Y-14322222D02*
X14505277Y-14303174D01*
X14505277Y-14303174D02*
X14524325Y-14293650D01*
X14524325Y-14293650D02*
X14562420Y-14293650D01*
X14562420Y-14293650D02*
X14581468Y-14303174D01*
X14581468Y-14303174D02*
X14590991Y-14322222D01*
X14590991Y-14322222D02*
X14590991Y-14341269D01*
X14590991Y-14341269D02*
X14495753Y-14360317D01*
X14667182Y-14417460D02*
X14686230Y-14426984D01*
X14686230Y-14426984D02*
X14724325Y-14426984D01*
X14724325Y-14426984D02*
X14743372Y-14417460D01*
X14743372Y-14417460D02*
X14752896Y-14398412D01*
X14752896Y-14398412D02*
X14752896Y-14388888D01*
X14752896Y-14388888D02*
X14743372Y-14369841D01*
X14743372Y-14369841D02*
X14724325Y-14360317D01*
X14724325Y-14360317D02*
X14695753Y-14360317D01*
X14695753Y-14360317D02*
X14676706Y-14350793D01*
X14676706Y-14350793D02*
X14667182Y-14331746D01*
X14667182Y-14331746D02*
X14667182Y-14322222D01*
X14667182Y-14322222D02*
X14676706Y-14303174D01*
X14676706Y-14303174D02*
X14695753Y-14293650D01*
X14695753Y-14293650D02*
X14724325Y-14293650D01*
X14724325Y-14293650D02*
X14743372Y-14303174D01*
X14819563Y-14503174D02*
X14829087Y-14493650D01*
X14829087Y-14493650D02*
X14848134Y-14465079D01*
X14848134Y-14465079D02*
X14857658Y-14446031D01*
X14857658Y-14446031D02*
X14867182Y-14417460D01*
X14867182Y-14417460D02*
X14876706Y-14369841D01*
X14876706Y-14369841D02*
X14876706Y-14331746D01*
X14876706Y-14331746D02*
X14867182Y-14284127D01*
X14867182Y-14284127D02*
X14857658Y-14255555D01*
X14857658Y-14255555D02*
X14848134Y-14236508D01*
X14848134Y-14236508D02*
X14829087Y-14207936D01*
X14829087Y-14207936D02*
X14819563Y-14198412D01*
D12*
X10014500Y-14569500D02*
X10014500Y-14629500D01*
X9984500Y-14599500D02*
X10044500Y-14599500D01*
D11*
X10343372Y-14490984D02*
X10362420Y-14490984D01*
X10362420Y-14490984D02*
X10381467Y-14500508D01*
X10381467Y-14500508D02*
X10390991Y-14510031D01*
X10390991Y-14510031D02*
X10400515Y-14529079D01*
X10400515Y-14529079D02*
X10410039Y-14567174D01*
X10410039Y-14567174D02*
X10410039Y-14614793D01*
X10410039Y-14614793D02*
X10400515Y-14652888D01*
X10400515Y-14652888D02*
X10390991Y-14671936D01*
X10390991Y-14671936D02*
X10381467Y-14681460D01*
X10381467Y-14681460D02*
X10362420Y-14690984D01*
X10362420Y-14690984D02*
X10343372Y-14690984D01*
X10343372Y-14690984D02*
X10324324Y-14681460D01*
X10324324Y-14681460D02*
X10314801Y-14671936D01*
X10314801Y-14671936D02*
X10305277Y-14652888D01*
X10305277Y-14652888D02*
X10295753Y-14614793D01*
X10295753Y-14614793D02*
X10295753Y-14567174D01*
X10295753Y-14567174D02*
X10305277Y-14529079D01*
X10305277Y-14529079D02*
X10314801Y-14510031D01*
X10314801Y-14510031D02*
X10324324Y-14500508D01*
X10324324Y-14500508D02*
X10343372Y-14490984D01*
X10495753Y-14671936D02*
X10505277Y-14681460D01*
X10505277Y-14681460D02*
X10495753Y-14690984D01*
X10495753Y-14690984D02*
X10486229Y-14681460D01*
X10486229Y-14681460D02*
X10495753Y-14671936D01*
X10495753Y-14671936D02*
X10495753Y-14690984D01*
X10676705Y-14490984D02*
X10638610Y-14490984D01*
X10638610Y-14490984D02*
X10619563Y-14500508D01*
X10619563Y-14500508D02*
X10610039Y-14510031D01*
X10610039Y-14510031D02*
X10590991Y-14538603D01*
X10590991Y-14538603D02*
X10581467Y-14576698D01*
X10581467Y-14576698D02*
X10581467Y-14652888D01*
X10581467Y-14652888D02*
X10590991Y-14671936D01*
X10590991Y-14671936D02*
X10600515Y-14681460D01*
X10600515Y-14681460D02*
X10619563Y-14690984D01*
X10619563Y-14690984D02*
X10657658Y-14690984D01*
X10657658Y-14690984D02*
X10676705Y-14681460D01*
X10676705Y-14681460D02*
X10686229Y-14671936D01*
X10686229Y-14671936D02*
X10695753Y-14652888D01*
X10695753Y-14652888D02*
X10695753Y-14605269D01*
X10695753Y-14605269D02*
X10686229Y-14586222D01*
X10686229Y-14586222D02*
X10676705Y-14576698D01*
X10676705Y-14576698D02*
X10657658Y-14567174D01*
X10657658Y-14567174D02*
X10619563Y-14567174D01*
X10619563Y-14567174D02*
X10600515Y-14576698D01*
X10600515Y-14576698D02*
X10590991Y-14586222D01*
X10590991Y-14586222D02*
X10581467Y-14605269D01*
X10819563Y-14490984D02*
X10838610Y-14490984D01*
X10838610Y-14490984D02*
X10857658Y-14500508D01*
X10857658Y-14500508D02*
X10867182Y-14510031D01*
X10867182Y-14510031D02*
X10876705Y-14529079D01*
X10876705Y-14529079D02*
X10886229Y-14567174D01*
X10886229Y-14567174D02*
X10886229Y-14614793D01*
X10886229Y-14614793D02*
X10876705Y-14652888D01*
X10876705Y-14652888D02*
X10867182Y-14671936D01*
X10867182Y-14671936D02*
X10857658Y-14681460D01*
X10857658Y-14681460D02*
X10838610Y-14690984D01*
X10838610Y-14690984D02*
X10819563Y-14690984D01*
X10819563Y-14690984D02*
X10800515Y-14681460D01*
X10800515Y-14681460D02*
X10790991Y-14671936D01*
X10790991Y-14671936D02*
X10781467Y-14652888D01*
X10781467Y-14652888D02*
X10771944Y-14614793D01*
X10771944Y-14614793D02*
X10771944Y-14567174D01*
X10771944Y-14567174D02*
X10781467Y-14529079D01*
X10781467Y-14529079D02*
X10790991Y-14510031D01*
X10790991Y-14510031D02*
X10800515Y-14500508D01*
X10800515Y-14500508D02*
X10819563Y-14490984D01*
X11010039Y-14490984D02*
X11029086Y-14490984D01*
X11029086Y-14490984D02*
X11048134Y-14500508D01*
X11048134Y-14500508D02*
X11057658Y-14510031D01*
X11057658Y-14510031D02*
X11067182Y-14529079D01*
X11067182Y-14529079D02*
X11076705Y-14567174D01*
X11076705Y-14567174D02*
X11076705Y-14614793D01*
X11076705Y-14614793D02*
X11067182Y-14652888D01*
X11067182Y-14652888D02*
X11057658Y-14671936D01*
X11057658Y-14671936D02*
X11048134Y-14681460D01*
X11048134Y-14681460D02*
X11029086Y-14690984D01*
X11029086Y-14690984D02*
X11010039Y-14690984D01*
X11010039Y-14690984D02*
X10990991Y-14681460D01*
X10990991Y-14681460D02*
X10981467Y-14671936D01*
X10981467Y-14671936D02*
X10971944Y-14652888D01*
X10971944Y-14652888D02*
X10962420Y-14614793D01*
X10962420Y-14614793D02*
X10962420Y-14567174D01*
X10962420Y-14567174D02*
X10971944Y-14529079D01*
X10971944Y-14529079D02*
X10981467Y-14510031D01*
X10981467Y-14510031D02*
X10990991Y-14500508D01*
X10990991Y-14500508D02*
X11010039Y-14490984D01*
X11162420Y-14690984D02*
X11162420Y-14557650D01*
X11162420Y-14576698D02*
X11171944Y-14567174D01*
X11171944Y-14567174D02*
X11190991Y-14557650D01*
X11190991Y-14557650D02*
X11219563Y-14557650D01*
X11219563Y-14557650D02*
X11238610Y-14567174D01*
X11238610Y-14567174D02*
X11248134Y-14586222D01*
X11248134Y-14586222D02*
X11248134Y-14690984D01*
X11248134Y-14586222D02*
X11257658Y-14567174D01*
X11257658Y-14567174D02*
X11276705Y-14557650D01*
X11276705Y-14557650D02*
X11305277Y-14557650D01*
X11305277Y-14557650D02*
X11324324Y-14567174D01*
X11324324Y-14567174D02*
X11333848Y-14586222D01*
X11333848Y-14586222D02*
X11333848Y-14690984D01*
X11429086Y-14690984D02*
X11429086Y-14557650D01*
X11429086Y-14576698D02*
X11438610Y-14567174D01*
X11438610Y-14567174D02*
X11457658Y-14557650D01*
X11457658Y-14557650D02*
X11486229Y-14557650D01*
X11486229Y-14557650D02*
X11505277Y-14567174D01*
X11505277Y-14567174D02*
X11514801Y-14586222D01*
X11514801Y-14586222D02*
X11514801Y-14690984D01*
X11514801Y-14586222D02*
X11524324Y-14567174D01*
X11524324Y-14567174D02*
X11543372Y-14557650D01*
X11543372Y-14557650D02*
X11571943Y-14557650D01*
X11571943Y-14557650D02*
X11590991Y-14567174D01*
X11590991Y-14567174D02*
X11600515Y-14586222D01*
X11600515Y-14586222D02*
X11600515Y-14690984D01*
X11990991Y-14481460D02*
X11819563Y-14738603D01*
X12248134Y-14490984D02*
X12267182Y-14490984D01*
X12267182Y-14490984D02*
X12286229Y-14500508D01*
X12286229Y-14500508D02*
X12295753Y-14510031D01*
X12295753Y-14510031D02*
X12305277Y-14529079D01*
X12305277Y-14529079D02*
X12314801Y-14567174D01*
X12314801Y-14567174D02*
X12314801Y-14614793D01*
X12314801Y-14614793D02*
X12305277Y-14652888D01*
X12305277Y-14652888D02*
X12295753Y-14671936D01*
X12295753Y-14671936D02*
X12286229Y-14681460D01*
X12286229Y-14681460D02*
X12267182Y-14690984D01*
X12267182Y-14690984D02*
X12248134Y-14690984D01*
X12248134Y-14690984D02*
X12229086Y-14681460D01*
X12229086Y-14681460D02*
X12219563Y-14671936D01*
X12219563Y-14671936D02*
X12210039Y-14652888D01*
X12210039Y-14652888D02*
X12200515Y-14614793D01*
X12200515Y-14614793D02*
X12200515Y-14567174D01*
X12200515Y-14567174D02*
X12210039Y-14529079D01*
X12210039Y-14529079D02*
X12219563Y-14510031D01*
X12219563Y-14510031D02*
X12229086Y-14500508D01*
X12229086Y-14500508D02*
X12248134Y-14490984D01*
X12400515Y-14671936D02*
X12410039Y-14681460D01*
X12410039Y-14681460D02*
X12400515Y-14690984D01*
X12400515Y-14690984D02*
X12390991Y-14681460D01*
X12390991Y-14681460D02*
X12400515Y-14671936D01*
X12400515Y-14671936D02*
X12400515Y-14690984D01*
X12533848Y-14490984D02*
X12552896Y-14490984D01*
X12552896Y-14490984D02*
X12571944Y-14500508D01*
X12571944Y-14500508D02*
X12581467Y-14510031D01*
X12581467Y-14510031D02*
X12590991Y-14529079D01*
X12590991Y-14529079D02*
X12600515Y-14567174D01*
X12600515Y-14567174D02*
X12600515Y-14614793D01*
X12600515Y-14614793D02*
X12590991Y-14652888D01*
X12590991Y-14652888D02*
X12581467Y-14671936D01*
X12581467Y-14671936D02*
X12571944Y-14681460D01*
X12571944Y-14681460D02*
X12552896Y-14690984D01*
X12552896Y-14690984D02*
X12533848Y-14690984D01*
X12533848Y-14690984D02*
X12514801Y-14681460D01*
X12514801Y-14681460D02*
X12505277Y-14671936D01*
X12505277Y-14671936D02*
X12495753Y-14652888D01*
X12495753Y-14652888D02*
X12486229Y-14614793D01*
X12486229Y-14614793D02*
X12486229Y-14567174D01*
X12486229Y-14567174D02*
X12495753Y-14529079D01*
X12495753Y-14529079D02*
X12505277Y-14510031D01*
X12505277Y-14510031D02*
X12514801Y-14500508D01*
X12514801Y-14500508D02*
X12533848Y-14490984D01*
X12676706Y-14510031D02*
X12686229Y-14500508D01*
X12686229Y-14500508D02*
X12705277Y-14490984D01*
X12705277Y-14490984D02*
X12752896Y-14490984D01*
X12752896Y-14490984D02*
X12771944Y-14500508D01*
X12771944Y-14500508D02*
X12781467Y-14510031D01*
X12781467Y-14510031D02*
X12790991Y-14529079D01*
X12790991Y-14529079D02*
X12790991Y-14548127D01*
X12790991Y-14548127D02*
X12781467Y-14576698D01*
X12781467Y-14576698D02*
X12667182Y-14690984D01*
X12667182Y-14690984D02*
X12790991Y-14690984D01*
X12857658Y-14490984D02*
X12981467Y-14490984D01*
X12981467Y-14490984D02*
X12914801Y-14567174D01*
X12914801Y-14567174D02*
X12943372Y-14567174D01*
X12943372Y-14567174D02*
X12962420Y-14576698D01*
X12962420Y-14576698D02*
X12971944Y-14586222D01*
X12971944Y-14586222D02*
X12981467Y-14605269D01*
X12981467Y-14605269D02*
X12981467Y-14652888D01*
X12981467Y-14652888D02*
X12971944Y-14671936D01*
X12971944Y-14671936D02*
X12962420Y-14681460D01*
X12962420Y-14681460D02*
X12943372Y-14690984D01*
X12943372Y-14690984D02*
X12886229Y-14690984D01*
X12886229Y-14690984D02*
X12867182Y-14681460D01*
X12867182Y-14681460D02*
X12857658Y-14671936D01*
X13152896Y-14490984D02*
X13114801Y-14490984D01*
X13114801Y-14490984D02*
X13095753Y-14500508D01*
X13095753Y-14500508D02*
X13086229Y-14510031D01*
X13086229Y-14510031D02*
X13067182Y-14538603D01*
X13067182Y-14538603D02*
X13057658Y-14576698D01*
X13057658Y-14576698D02*
X13057658Y-14652888D01*
X13057658Y-14652888D02*
X13067182Y-14671936D01*
X13067182Y-14671936D02*
X13076706Y-14681460D01*
X13076706Y-14681460D02*
X13095753Y-14690984D01*
X13095753Y-14690984D02*
X13133848Y-14690984D01*
X13133848Y-14690984D02*
X13152896Y-14681460D01*
X13152896Y-14681460D02*
X13162420Y-14671936D01*
X13162420Y-14671936D02*
X13171944Y-14652888D01*
X13171944Y-14652888D02*
X13171944Y-14605269D01*
X13171944Y-14605269D02*
X13162420Y-14586222D01*
X13162420Y-14586222D02*
X13152896Y-14576698D01*
X13152896Y-14576698D02*
X13133848Y-14567174D01*
X13133848Y-14567174D02*
X13095753Y-14567174D01*
X13095753Y-14567174D02*
X13076706Y-14576698D01*
X13076706Y-14576698D02*
X13067182Y-14586222D01*
X13067182Y-14586222D02*
X13057658Y-14605269D01*
X13248134Y-14490984D02*
X13248134Y-14529079D01*
X13324325Y-14490984D02*
X13324325Y-14529079D01*
X13619563Y-14767174D02*
X13610039Y-14757650D01*
X13610039Y-14757650D02*
X13590991Y-14729079D01*
X13590991Y-14729079D02*
X13581468Y-14710031D01*
X13581468Y-14710031D02*
X13571944Y-14681460D01*
X13571944Y-14681460D02*
X13562420Y-14633841D01*
X13562420Y-14633841D02*
X13562420Y-14595746D01*
X13562420Y-14595746D02*
X13571944Y-14548127D01*
X13571944Y-14548127D02*
X13581468Y-14519555D01*
X13581468Y-14519555D02*
X13590991Y-14500508D01*
X13590991Y-14500508D02*
X13610039Y-14471936D01*
X13610039Y-14471936D02*
X13619563Y-14462412D01*
X13733848Y-14490984D02*
X13752896Y-14490984D01*
X13752896Y-14490984D02*
X13771944Y-14500508D01*
X13771944Y-14500508D02*
X13781468Y-14510031D01*
X13781468Y-14510031D02*
X13790991Y-14529079D01*
X13790991Y-14529079D02*
X13800515Y-14567174D01*
X13800515Y-14567174D02*
X13800515Y-14614793D01*
X13800515Y-14614793D02*
X13790991Y-14652888D01*
X13790991Y-14652888D02*
X13781468Y-14671936D01*
X13781468Y-14671936D02*
X13771944Y-14681460D01*
X13771944Y-14681460D02*
X13752896Y-14690984D01*
X13752896Y-14690984D02*
X13733848Y-14690984D01*
X13733848Y-14690984D02*
X13714801Y-14681460D01*
X13714801Y-14681460D02*
X13705277Y-14671936D01*
X13705277Y-14671936D02*
X13695753Y-14652888D01*
X13695753Y-14652888D02*
X13686229Y-14614793D01*
X13686229Y-14614793D02*
X13686229Y-14567174D01*
X13686229Y-14567174D02*
X13695753Y-14529079D01*
X13695753Y-14529079D02*
X13705277Y-14510031D01*
X13705277Y-14510031D02*
X13714801Y-14500508D01*
X13714801Y-14500508D02*
X13733848Y-14490984D01*
X14038610Y-14690984D02*
X14038610Y-14490984D01*
X14124325Y-14690984D02*
X14124325Y-14586222D01*
X14124325Y-14586222D02*
X14114801Y-14567174D01*
X14114801Y-14567174D02*
X14095753Y-14557650D01*
X14095753Y-14557650D02*
X14067182Y-14557650D01*
X14067182Y-14557650D02*
X14048134Y-14567174D01*
X14048134Y-14567174D02*
X14038610Y-14576698D01*
X14248134Y-14690984D02*
X14229087Y-14681460D01*
X14229087Y-14681460D02*
X14219563Y-14671936D01*
X14219563Y-14671936D02*
X14210039Y-14652888D01*
X14210039Y-14652888D02*
X14210039Y-14595746D01*
X14210039Y-14595746D02*
X14219563Y-14576698D01*
X14219563Y-14576698D02*
X14229087Y-14567174D01*
X14229087Y-14567174D02*
X14248134Y-14557650D01*
X14248134Y-14557650D02*
X14276706Y-14557650D01*
X14276706Y-14557650D02*
X14295753Y-14567174D01*
X14295753Y-14567174D02*
X14305277Y-14576698D01*
X14305277Y-14576698D02*
X14314801Y-14595746D01*
X14314801Y-14595746D02*
X14314801Y-14652888D01*
X14314801Y-14652888D02*
X14305277Y-14671936D01*
X14305277Y-14671936D02*
X14295753Y-14681460D01*
X14295753Y-14681460D02*
X14276706Y-14690984D01*
X14276706Y-14690984D02*
X14248134Y-14690984D01*
X14429087Y-14690984D02*
X14410039Y-14681460D01*
X14410039Y-14681460D02*
X14400515Y-14662412D01*
X14400515Y-14662412D02*
X14400515Y-14490984D01*
X14581468Y-14681460D02*
X14562420Y-14690984D01*
X14562420Y-14690984D02*
X14524325Y-14690984D01*
X14524325Y-14690984D02*
X14505277Y-14681460D01*
X14505277Y-14681460D02*
X14495753Y-14662412D01*
X14495753Y-14662412D02*
X14495753Y-14586222D01*
X14495753Y-14586222D02*
X14505277Y-14567174D01*
X14505277Y-14567174D02*
X14524325Y-14557650D01*
X14524325Y-14557650D02*
X14562420Y-14557650D01*
X14562420Y-14557650D02*
X14581468Y-14567174D01*
X14581468Y-14567174D02*
X14590991Y-14586222D01*
X14590991Y-14586222D02*
X14590991Y-14605269D01*
X14590991Y-14605269D02*
X14495753Y-14624317D01*
X14667182Y-14681460D02*
X14686230Y-14690984D01*
X14686230Y-14690984D02*
X14724325Y-14690984D01*
X14724325Y-14690984D02*
X14743372Y-14681460D01*
X14743372Y-14681460D02*
X14752896Y-14662412D01*
X14752896Y-14662412D02*
X14752896Y-14652888D01*
X14752896Y-14652888D02*
X14743372Y-14633841D01*
X14743372Y-14633841D02*
X14724325Y-14624317D01*
X14724325Y-14624317D02*
X14695753Y-14624317D01*
X14695753Y-14624317D02*
X14676706Y-14614793D01*
X14676706Y-14614793D02*
X14667182Y-14595746D01*
X14667182Y-14595746D02*
X14667182Y-14586222D01*
X14667182Y-14586222D02*
X14676706Y-14567174D01*
X14676706Y-14567174D02*
X14695753Y-14557650D01*
X14695753Y-14557650D02*
X14724325Y-14557650D01*
X14724325Y-14557650D02*
X14743372Y-14567174D01*
X14990992Y-14614793D02*
X15143373Y-14614793D01*
X15067182Y-14690984D02*
X15067182Y-14538603D01*
X15476706Y-14557650D02*
X15476706Y-14690984D01*
X15429087Y-14481460D02*
X15381468Y-14624317D01*
X15381468Y-14624317D02*
X15505277Y-14624317D01*
X15724325Y-14681460D02*
X15743373Y-14690984D01*
X15743373Y-14690984D02*
X15781468Y-14690984D01*
X15781468Y-14690984D02*
X15800515Y-14681460D01*
X15800515Y-14681460D02*
X15810039Y-14662412D01*
X15810039Y-14662412D02*
X15810039Y-14652888D01*
X15810039Y-14652888D02*
X15800515Y-14633841D01*
X15800515Y-14633841D02*
X15781468Y-14624317D01*
X15781468Y-14624317D02*
X15752896Y-14624317D01*
X15752896Y-14624317D02*
X15733849Y-14614793D01*
X15733849Y-14614793D02*
X15724325Y-14595746D01*
X15724325Y-14595746D02*
X15724325Y-14586222D01*
X15724325Y-14586222D02*
X15733849Y-14567174D01*
X15733849Y-14567174D02*
X15752896Y-14557650D01*
X15752896Y-14557650D02*
X15781468Y-14557650D01*
X15781468Y-14557650D02*
X15800515Y-14567174D01*
X15924325Y-14690984D02*
X15905277Y-14681460D01*
X15905277Y-14681460D02*
X15895754Y-14662412D01*
X15895754Y-14662412D02*
X15895754Y-14490984D01*
X16029087Y-14690984D02*
X16010039Y-14681460D01*
X16010039Y-14681460D02*
X16000515Y-14671936D01*
X16000515Y-14671936D02*
X15990992Y-14652888D01*
X15990992Y-14652888D02*
X15990992Y-14595746D01*
X15990992Y-14595746D02*
X16000515Y-14576698D01*
X16000515Y-14576698D02*
X16010039Y-14567174D01*
X16010039Y-14567174D02*
X16029087Y-14557650D01*
X16029087Y-14557650D02*
X16057658Y-14557650D01*
X16057658Y-14557650D02*
X16076706Y-14567174D01*
X16076706Y-14567174D02*
X16086230Y-14576698D01*
X16086230Y-14576698D02*
X16095754Y-14595746D01*
X16095754Y-14595746D02*
X16095754Y-14652888D01*
X16095754Y-14652888D02*
X16086230Y-14671936D01*
X16086230Y-14671936D02*
X16076706Y-14681460D01*
X16076706Y-14681460D02*
X16057658Y-14690984D01*
X16057658Y-14690984D02*
X16029087Y-14690984D01*
X16152896Y-14557650D02*
X16229087Y-14557650D01*
X16181468Y-14490984D02*
X16181468Y-14662412D01*
X16181468Y-14662412D02*
X16190992Y-14681460D01*
X16190992Y-14681460D02*
X16210039Y-14690984D01*
X16210039Y-14690984D02*
X16229087Y-14690984D01*
X16286230Y-14681460D02*
X16305277Y-14690984D01*
X16305277Y-14690984D02*
X16343373Y-14690984D01*
X16343373Y-14690984D02*
X16362420Y-14681460D01*
X16362420Y-14681460D02*
X16371944Y-14662412D01*
X16371944Y-14662412D02*
X16371944Y-14652888D01*
X16371944Y-14652888D02*
X16362420Y-14633841D01*
X16362420Y-14633841D02*
X16343373Y-14624317D01*
X16343373Y-14624317D02*
X16314801Y-14624317D01*
X16314801Y-14624317D02*
X16295754Y-14614793D01*
X16295754Y-14614793D02*
X16286230Y-14595746D01*
X16286230Y-14595746D02*
X16286230Y-14586222D01*
X16286230Y-14586222D02*
X16295754Y-14567174D01*
X16295754Y-14567174D02*
X16314801Y-14557650D01*
X16314801Y-14557650D02*
X16343373Y-14557650D01*
X16343373Y-14557650D02*
X16362420Y-14567174D01*
X16438611Y-14767174D02*
X16448135Y-14757650D01*
X16448135Y-14757650D02*
X16467182Y-14729079D01*
X16467182Y-14729079D02*
X16476706Y-14710031D01*
X16476706Y-14710031D02*
X16486230Y-14681460D01*
X16486230Y-14681460D02*
X16495754Y-14633841D01*
X16495754Y-14633841D02*
X16495754Y-14595746D01*
X16495754Y-14595746D02*
X16486230Y-14548127D01*
X16486230Y-14548127D02*
X16476706Y-14519555D01*
X16476706Y-14519555D02*
X16467182Y-14500508D01*
X16467182Y-14500508D02*
X16448135Y-14471936D01*
X16448135Y-14471936D02*
X16438611Y-14462412D01*
D12*
X10029856Y-14898856D02*
X10029856Y-14828144D01*
X9959144Y-14828144D01*
X9959144Y-14898856D01*
X10029856Y-14898856D01*
D11*
X10410039Y-14954984D02*
X10295753Y-14954984D01*
X10352896Y-14954984D02*
X10352896Y-14754984D01*
X10352896Y-14754984D02*
X10333848Y-14783555D01*
X10333848Y-14783555D02*
X10314801Y-14802603D01*
X10314801Y-14802603D02*
X10295753Y-14812127D01*
X10495753Y-14935936D02*
X10505277Y-14945460D01*
X10505277Y-14945460D02*
X10495753Y-14954984D01*
X10495753Y-14954984D02*
X10486229Y-14945460D01*
X10486229Y-14945460D02*
X10495753Y-14935936D01*
X10495753Y-14935936D02*
X10495753Y-14954984D01*
X10629086Y-14754984D02*
X10648134Y-14754984D01*
X10648134Y-14754984D02*
X10667182Y-14764508D01*
X10667182Y-14764508D02*
X10676705Y-14774031D01*
X10676705Y-14774031D02*
X10686229Y-14793079D01*
X10686229Y-14793079D02*
X10695753Y-14831174D01*
X10695753Y-14831174D02*
X10695753Y-14878793D01*
X10695753Y-14878793D02*
X10686229Y-14916888D01*
X10686229Y-14916888D02*
X10676705Y-14935936D01*
X10676705Y-14935936D02*
X10667182Y-14945460D01*
X10667182Y-14945460D02*
X10648134Y-14954984D01*
X10648134Y-14954984D02*
X10629086Y-14954984D01*
X10629086Y-14954984D02*
X10610039Y-14945460D01*
X10610039Y-14945460D02*
X10600515Y-14935936D01*
X10600515Y-14935936D02*
X10590991Y-14916888D01*
X10590991Y-14916888D02*
X10581467Y-14878793D01*
X10581467Y-14878793D02*
X10581467Y-14831174D01*
X10581467Y-14831174D02*
X10590991Y-14793079D01*
X10590991Y-14793079D02*
X10600515Y-14774031D01*
X10600515Y-14774031D02*
X10610039Y-14764508D01*
X10610039Y-14764508D02*
X10629086Y-14754984D01*
X10819563Y-14754984D02*
X10838610Y-14754984D01*
X10838610Y-14754984D02*
X10857658Y-14764508D01*
X10857658Y-14764508D02*
X10867182Y-14774031D01*
X10867182Y-14774031D02*
X10876705Y-14793079D01*
X10876705Y-14793079D02*
X10886229Y-14831174D01*
X10886229Y-14831174D02*
X10886229Y-14878793D01*
X10886229Y-14878793D02*
X10876705Y-14916888D01*
X10876705Y-14916888D02*
X10867182Y-14935936D01*
X10867182Y-14935936D02*
X10857658Y-14945460D01*
X10857658Y-14945460D02*
X10838610Y-14954984D01*
X10838610Y-14954984D02*
X10819563Y-14954984D01*
X10819563Y-14954984D02*
X10800515Y-14945460D01*
X10800515Y-14945460D02*
X10790991Y-14935936D01*
X10790991Y-14935936D02*
X10781467Y-14916888D01*
X10781467Y-14916888D02*
X10771944Y-14878793D01*
X10771944Y-14878793D02*
X10771944Y-14831174D01*
X10771944Y-14831174D02*
X10781467Y-14793079D01*
X10781467Y-14793079D02*
X10790991Y-14774031D01*
X10790991Y-14774031D02*
X10800515Y-14764508D01*
X10800515Y-14764508D02*
X10819563Y-14754984D01*
X11010039Y-14754984D02*
X11029086Y-14754984D01*
X11029086Y-14754984D02*
X11048134Y-14764508D01*
X11048134Y-14764508D02*
X11057658Y-14774031D01*
X11057658Y-14774031D02*
X11067182Y-14793079D01*
X11067182Y-14793079D02*
X11076705Y-14831174D01*
X11076705Y-14831174D02*
X11076705Y-14878793D01*
X11076705Y-14878793D02*
X11067182Y-14916888D01*
X11067182Y-14916888D02*
X11057658Y-14935936D01*
X11057658Y-14935936D02*
X11048134Y-14945460D01*
X11048134Y-14945460D02*
X11029086Y-14954984D01*
X11029086Y-14954984D02*
X11010039Y-14954984D01*
X11010039Y-14954984D02*
X10990991Y-14945460D01*
X10990991Y-14945460D02*
X10981467Y-14935936D01*
X10981467Y-14935936D02*
X10971944Y-14916888D01*
X10971944Y-14916888D02*
X10962420Y-14878793D01*
X10962420Y-14878793D02*
X10962420Y-14831174D01*
X10962420Y-14831174D02*
X10971944Y-14793079D01*
X10971944Y-14793079D02*
X10981467Y-14774031D01*
X10981467Y-14774031D02*
X10990991Y-14764508D01*
X10990991Y-14764508D02*
X11010039Y-14754984D01*
X11162420Y-14954984D02*
X11162420Y-14821650D01*
X11162420Y-14840698D02*
X11171944Y-14831174D01*
X11171944Y-14831174D02*
X11190991Y-14821650D01*
X11190991Y-14821650D02*
X11219563Y-14821650D01*
X11219563Y-14821650D02*
X11238610Y-14831174D01*
X11238610Y-14831174D02*
X11248134Y-14850222D01*
X11248134Y-14850222D02*
X11248134Y-14954984D01*
X11248134Y-14850222D02*
X11257658Y-14831174D01*
X11257658Y-14831174D02*
X11276705Y-14821650D01*
X11276705Y-14821650D02*
X11305277Y-14821650D01*
X11305277Y-14821650D02*
X11324324Y-14831174D01*
X11324324Y-14831174D02*
X11333848Y-14850222D01*
X11333848Y-14850222D02*
X11333848Y-14954984D01*
X11429086Y-14954984D02*
X11429086Y-14821650D01*
X11429086Y-14840698D02*
X11438610Y-14831174D01*
X11438610Y-14831174D02*
X11457658Y-14821650D01*
X11457658Y-14821650D02*
X11486229Y-14821650D01*
X11486229Y-14821650D02*
X11505277Y-14831174D01*
X11505277Y-14831174D02*
X11514801Y-14850222D01*
X11514801Y-14850222D02*
X11514801Y-14954984D01*
X11514801Y-14850222D02*
X11524324Y-14831174D01*
X11524324Y-14831174D02*
X11543372Y-14821650D01*
X11543372Y-14821650D02*
X11571943Y-14821650D01*
X11571943Y-14821650D02*
X11590991Y-14831174D01*
X11590991Y-14831174D02*
X11600515Y-14850222D01*
X11600515Y-14850222D02*
X11600515Y-14954984D01*
X11990991Y-14745460D02*
X11819563Y-15002603D01*
X12248134Y-14754984D02*
X12267182Y-14754984D01*
X12267182Y-14754984D02*
X12286229Y-14764508D01*
X12286229Y-14764508D02*
X12295753Y-14774031D01*
X12295753Y-14774031D02*
X12305277Y-14793079D01*
X12305277Y-14793079D02*
X12314801Y-14831174D01*
X12314801Y-14831174D02*
X12314801Y-14878793D01*
X12314801Y-14878793D02*
X12305277Y-14916888D01*
X12305277Y-14916888D02*
X12295753Y-14935936D01*
X12295753Y-14935936D02*
X12286229Y-14945460D01*
X12286229Y-14945460D02*
X12267182Y-14954984D01*
X12267182Y-14954984D02*
X12248134Y-14954984D01*
X12248134Y-14954984D02*
X12229086Y-14945460D01*
X12229086Y-14945460D02*
X12219563Y-14935936D01*
X12219563Y-14935936D02*
X12210039Y-14916888D01*
X12210039Y-14916888D02*
X12200515Y-14878793D01*
X12200515Y-14878793D02*
X12200515Y-14831174D01*
X12200515Y-14831174D02*
X12210039Y-14793079D01*
X12210039Y-14793079D02*
X12219563Y-14774031D01*
X12219563Y-14774031D02*
X12229086Y-14764508D01*
X12229086Y-14764508D02*
X12248134Y-14754984D01*
X12400515Y-14935936D02*
X12410039Y-14945460D01*
X12410039Y-14945460D02*
X12400515Y-14954984D01*
X12400515Y-14954984D02*
X12390991Y-14945460D01*
X12390991Y-14945460D02*
X12400515Y-14935936D01*
X12400515Y-14935936D02*
X12400515Y-14954984D01*
X12533848Y-14754984D02*
X12552896Y-14754984D01*
X12552896Y-14754984D02*
X12571944Y-14764508D01*
X12571944Y-14764508D02*
X12581467Y-14774031D01*
X12581467Y-14774031D02*
X12590991Y-14793079D01*
X12590991Y-14793079D02*
X12600515Y-14831174D01*
X12600515Y-14831174D02*
X12600515Y-14878793D01*
X12600515Y-14878793D02*
X12590991Y-14916888D01*
X12590991Y-14916888D02*
X12581467Y-14935936D01*
X12581467Y-14935936D02*
X12571944Y-14945460D01*
X12571944Y-14945460D02*
X12552896Y-14954984D01*
X12552896Y-14954984D02*
X12533848Y-14954984D01*
X12533848Y-14954984D02*
X12514801Y-14945460D01*
X12514801Y-14945460D02*
X12505277Y-14935936D01*
X12505277Y-14935936D02*
X12495753Y-14916888D01*
X12495753Y-14916888D02*
X12486229Y-14878793D01*
X12486229Y-14878793D02*
X12486229Y-14831174D01*
X12486229Y-14831174D02*
X12495753Y-14793079D01*
X12495753Y-14793079D02*
X12505277Y-14774031D01*
X12505277Y-14774031D02*
X12514801Y-14764508D01*
X12514801Y-14764508D02*
X12533848Y-14754984D01*
X12667182Y-14754984D02*
X12790991Y-14754984D01*
X12790991Y-14754984D02*
X12724325Y-14831174D01*
X12724325Y-14831174D02*
X12752896Y-14831174D01*
X12752896Y-14831174D02*
X12771944Y-14840698D01*
X12771944Y-14840698D02*
X12781467Y-14850222D01*
X12781467Y-14850222D02*
X12790991Y-14869269D01*
X12790991Y-14869269D02*
X12790991Y-14916888D01*
X12790991Y-14916888D02*
X12781467Y-14935936D01*
X12781467Y-14935936D02*
X12771944Y-14945460D01*
X12771944Y-14945460D02*
X12752896Y-14954984D01*
X12752896Y-14954984D02*
X12695753Y-14954984D01*
X12695753Y-14954984D02*
X12676706Y-14945460D01*
X12676706Y-14945460D02*
X12667182Y-14935936D01*
X12886229Y-14954984D02*
X12924325Y-14954984D01*
X12924325Y-14954984D02*
X12943372Y-14945460D01*
X12943372Y-14945460D02*
X12952896Y-14935936D01*
X12952896Y-14935936D02*
X12971944Y-14907365D01*
X12971944Y-14907365D02*
X12981467Y-14869269D01*
X12981467Y-14869269D02*
X12981467Y-14793079D01*
X12981467Y-14793079D02*
X12971944Y-14774031D01*
X12971944Y-14774031D02*
X12962420Y-14764508D01*
X12962420Y-14764508D02*
X12943372Y-14754984D01*
X12943372Y-14754984D02*
X12905277Y-14754984D01*
X12905277Y-14754984D02*
X12886229Y-14764508D01*
X12886229Y-14764508D02*
X12876706Y-14774031D01*
X12876706Y-14774031D02*
X12867182Y-14793079D01*
X12867182Y-14793079D02*
X12867182Y-14840698D01*
X12867182Y-14840698D02*
X12876706Y-14859746D01*
X12876706Y-14859746D02*
X12886229Y-14869269D01*
X12886229Y-14869269D02*
X12905277Y-14878793D01*
X12905277Y-14878793D02*
X12943372Y-14878793D01*
X12943372Y-14878793D02*
X12962420Y-14869269D01*
X12962420Y-14869269D02*
X12971944Y-14859746D01*
X12971944Y-14859746D02*
X12981467Y-14840698D01*
X13152896Y-14821650D02*
X13152896Y-14954984D01*
X13105277Y-14745460D02*
X13057658Y-14888317D01*
X13057658Y-14888317D02*
X13181467Y-14888317D01*
X13248134Y-14754984D02*
X13248134Y-14793079D01*
X13324325Y-14754984D02*
X13324325Y-14793079D01*
X13619563Y-15031174D02*
X13610039Y-15021650D01*
X13610039Y-15021650D02*
X13590991Y-14993079D01*
X13590991Y-14993079D02*
X13581468Y-14974031D01*
X13581468Y-14974031D02*
X13571944Y-14945460D01*
X13571944Y-14945460D02*
X13562420Y-14897841D01*
X13562420Y-14897841D02*
X13562420Y-14859746D01*
X13562420Y-14859746D02*
X13571944Y-14812127D01*
X13571944Y-14812127D02*
X13581468Y-14783555D01*
X13581468Y-14783555D02*
X13590991Y-14764508D01*
X13590991Y-14764508D02*
X13610039Y-14735936D01*
X13610039Y-14735936D02*
X13619563Y-14726412D01*
X13676706Y-14754984D02*
X13810039Y-14754984D01*
X13810039Y-14754984D02*
X13724325Y-14954984D01*
X13924325Y-14754984D02*
X13943372Y-14754984D01*
X13943372Y-14754984D02*
X13962420Y-14764508D01*
X13962420Y-14764508D02*
X13971944Y-14774031D01*
X13971944Y-14774031D02*
X13981468Y-14793079D01*
X13981468Y-14793079D02*
X13990991Y-14831174D01*
X13990991Y-14831174D02*
X13990991Y-14878793D01*
X13990991Y-14878793D02*
X13981468Y-14916888D01*
X13981468Y-14916888D02*
X13971944Y-14935936D01*
X13971944Y-14935936D02*
X13962420Y-14945460D01*
X13962420Y-14945460D02*
X13943372Y-14954984D01*
X13943372Y-14954984D02*
X13924325Y-14954984D01*
X13924325Y-14954984D02*
X13905277Y-14945460D01*
X13905277Y-14945460D02*
X13895753Y-14935936D01*
X13895753Y-14935936D02*
X13886229Y-14916888D01*
X13886229Y-14916888D02*
X13876706Y-14878793D01*
X13876706Y-14878793D02*
X13876706Y-14831174D01*
X13876706Y-14831174D02*
X13886229Y-14793079D01*
X13886229Y-14793079D02*
X13895753Y-14774031D01*
X13895753Y-14774031D02*
X13905277Y-14764508D01*
X13905277Y-14764508D02*
X13924325Y-14754984D01*
X14229087Y-14954984D02*
X14229087Y-14754984D01*
X14314801Y-14954984D02*
X14314801Y-14850222D01*
X14314801Y-14850222D02*
X14305277Y-14831174D01*
X14305277Y-14831174D02*
X14286230Y-14821650D01*
X14286230Y-14821650D02*
X14257658Y-14821650D01*
X14257658Y-14821650D02*
X14238610Y-14831174D01*
X14238610Y-14831174D02*
X14229087Y-14840698D01*
X14438610Y-14954984D02*
X14419563Y-14945460D01*
X14419563Y-14945460D02*
X14410039Y-14935936D01*
X14410039Y-14935936D02*
X14400515Y-14916888D01*
X14400515Y-14916888D02*
X14400515Y-14859746D01*
X14400515Y-14859746D02*
X14410039Y-14840698D01*
X14410039Y-14840698D02*
X14419563Y-14831174D01*
X14419563Y-14831174D02*
X14438610Y-14821650D01*
X14438610Y-14821650D02*
X14467182Y-14821650D01*
X14467182Y-14821650D02*
X14486230Y-14831174D01*
X14486230Y-14831174D02*
X14495753Y-14840698D01*
X14495753Y-14840698D02*
X14505277Y-14859746D01*
X14505277Y-14859746D02*
X14505277Y-14916888D01*
X14505277Y-14916888D02*
X14495753Y-14935936D01*
X14495753Y-14935936D02*
X14486230Y-14945460D01*
X14486230Y-14945460D02*
X14467182Y-14954984D01*
X14467182Y-14954984D02*
X14438610Y-14954984D01*
X14619563Y-14954984D02*
X14600515Y-14945460D01*
X14600515Y-14945460D02*
X14590991Y-14926412D01*
X14590991Y-14926412D02*
X14590991Y-14754984D01*
X14771944Y-14945460D02*
X14752896Y-14954984D01*
X14752896Y-14954984D02*
X14714801Y-14954984D01*
X14714801Y-14954984D02*
X14695753Y-14945460D01*
X14695753Y-14945460D02*
X14686230Y-14926412D01*
X14686230Y-14926412D02*
X14686230Y-14850222D01*
X14686230Y-14850222D02*
X14695753Y-14831174D01*
X14695753Y-14831174D02*
X14714801Y-14821650D01*
X14714801Y-14821650D02*
X14752896Y-14821650D01*
X14752896Y-14821650D02*
X14771944Y-14831174D01*
X14771944Y-14831174D02*
X14781468Y-14850222D01*
X14781468Y-14850222D02*
X14781468Y-14869269D01*
X14781468Y-14869269D02*
X14686230Y-14888317D01*
X14857658Y-14945460D02*
X14876706Y-14954984D01*
X14876706Y-14954984D02*
X14914801Y-14954984D01*
X14914801Y-14954984D02*
X14933849Y-14945460D01*
X14933849Y-14945460D02*
X14943372Y-14926412D01*
X14943372Y-14926412D02*
X14943372Y-14916888D01*
X14943372Y-14916888D02*
X14933849Y-14897841D01*
X14933849Y-14897841D02*
X14914801Y-14888317D01*
X14914801Y-14888317D02*
X14886230Y-14888317D01*
X14886230Y-14888317D02*
X14867182Y-14878793D01*
X14867182Y-14878793D02*
X14857658Y-14859746D01*
X14857658Y-14859746D02*
X14857658Y-14850222D01*
X14857658Y-14850222D02*
X14867182Y-14831174D01*
X14867182Y-14831174D02*
X14886230Y-14821650D01*
X14886230Y-14821650D02*
X14914801Y-14821650D01*
X14914801Y-14821650D02*
X14933849Y-14831174D01*
X15181468Y-14878793D02*
X15333849Y-14878793D01*
X15257658Y-14954984D02*
X15257658Y-14802603D01*
X15562420Y-14754984D02*
X15686230Y-14754984D01*
X15686230Y-14754984D02*
X15619563Y-14831174D01*
X15619563Y-14831174D02*
X15648134Y-14831174D01*
X15648134Y-14831174D02*
X15667182Y-14840698D01*
X15667182Y-14840698D02*
X15676706Y-14850222D01*
X15676706Y-14850222D02*
X15686230Y-14869269D01*
X15686230Y-14869269D02*
X15686230Y-14916888D01*
X15686230Y-14916888D02*
X15676706Y-14935936D01*
X15676706Y-14935936D02*
X15667182Y-14945460D01*
X15667182Y-14945460D02*
X15648134Y-14954984D01*
X15648134Y-14954984D02*
X15590992Y-14954984D01*
X15590992Y-14954984D02*
X15571944Y-14945460D01*
X15571944Y-14945460D02*
X15562420Y-14935936D01*
X15914801Y-14945460D02*
X15933849Y-14954984D01*
X15933849Y-14954984D02*
X15971944Y-14954984D01*
X15971944Y-14954984D02*
X15990992Y-14945460D01*
X15990992Y-14945460D02*
X16000515Y-14926412D01*
X16000515Y-14926412D02*
X16000515Y-14916888D01*
X16000515Y-14916888D02*
X15990992Y-14897841D01*
X15990992Y-14897841D02*
X15971944Y-14888317D01*
X15971944Y-14888317D02*
X15943373Y-14888317D01*
X15943373Y-14888317D02*
X15924325Y-14878793D01*
X15924325Y-14878793D02*
X15914801Y-14859746D01*
X15914801Y-14859746D02*
X15914801Y-14850222D01*
X15914801Y-14850222D02*
X15924325Y-14831174D01*
X15924325Y-14831174D02*
X15943373Y-14821650D01*
X15943373Y-14821650D02*
X15971944Y-14821650D01*
X15971944Y-14821650D02*
X15990992Y-14831174D01*
X16114801Y-14954984D02*
X16095754Y-14945460D01*
X16095754Y-14945460D02*
X16086230Y-14926412D01*
X16086230Y-14926412D02*
X16086230Y-14754984D01*
X16219563Y-14954984D02*
X16200515Y-14945460D01*
X16200515Y-14945460D02*
X16190992Y-14935936D01*
X16190992Y-14935936D02*
X16181468Y-14916888D01*
X16181468Y-14916888D02*
X16181468Y-14859746D01*
X16181468Y-14859746D02*
X16190992Y-14840698D01*
X16190992Y-14840698D02*
X16200515Y-14831174D01*
X16200515Y-14831174D02*
X16219563Y-14821650D01*
X16219563Y-14821650D02*
X16248135Y-14821650D01*
X16248135Y-14821650D02*
X16267182Y-14831174D01*
X16267182Y-14831174D02*
X16276706Y-14840698D01*
X16276706Y-14840698D02*
X16286230Y-14859746D01*
X16286230Y-14859746D02*
X16286230Y-14916888D01*
X16286230Y-14916888D02*
X16276706Y-14935936D01*
X16276706Y-14935936D02*
X16267182Y-14945460D01*
X16267182Y-14945460D02*
X16248135Y-14954984D01*
X16248135Y-14954984D02*
X16219563Y-14954984D01*
X16343373Y-14821650D02*
X16419563Y-14821650D01*
X16371944Y-14754984D02*
X16371944Y-14926412D01*
X16371944Y-14926412D02*
X16381468Y-14945460D01*
X16381468Y-14945460D02*
X16400515Y-14954984D01*
X16400515Y-14954984D02*
X16419563Y-14954984D01*
X16476706Y-14945460D02*
X16495754Y-14954984D01*
X16495754Y-14954984D02*
X16533849Y-14954984D01*
X16533849Y-14954984D02*
X16552896Y-14945460D01*
X16552896Y-14945460D02*
X16562420Y-14926412D01*
X16562420Y-14926412D02*
X16562420Y-14916888D01*
X16562420Y-14916888D02*
X16552896Y-14897841D01*
X16552896Y-14897841D02*
X16533849Y-14888317D01*
X16533849Y-14888317D02*
X16505277Y-14888317D01*
X16505277Y-14888317D02*
X16486230Y-14878793D01*
X16486230Y-14878793D02*
X16476706Y-14859746D01*
X16476706Y-14859746D02*
X16476706Y-14850222D01*
X16476706Y-14850222D02*
X16486230Y-14831174D01*
X16486230Y-14831174D02*
X16505277Y-14821650D01*
X16505277Y-14821650D02*
X16533849Y-14821650D01*
X16533849Y-14821650D02*
X16552896Y-14831174D01*
X16629087Y-15031174D02*
X16638611Y-15021650D01*
X16638611Y-15021650D02*
X16657658Y-14993079D01*
X16657658Y-14993079D02*
X16667182Y-14974031D01*
X16667182Y-14974031D02*
X16676706Y-14945460D01*
X16676706Y-14945460D02*
X16686230Y-14897841D01*
X16686230Y-14897841D02*
X16686230Y-14859746D01*
X16686230Y-14859746D02*
X16676706Y-14812127D01*
X16676706Y-14812127D02*
X16667182Y-14783555D01*
X16667182Y-14783555D02*
X16657658Y-14764508D01*
X16657658Y-14764508D02*
X16638611Y-14735936D01*
X16638611Y-14735936D02*
X16629087Y-14726412D01*
M02*
