G04 #@! TF.GenerationSoftware,KiCad,Pcbnew,8.0.0*
G04 #@! TF.CreationDate,2024-07-21T16:15:31-03:00*
G04 #@! TF.ProjectId,STM32XP,53544d33-3258-4502-9e6b-696361645f70,00*
G04 #@! TF.SameCoordinates,Original*
G04 #@! TF.FileFunction,Other,Comment*
%FSLAX46Y46*%
G04 Gerber Fmt 4.6, Leading zero omitted, Abs format (unit mm)*
G04 Created by KiCad (PCBNEW 8.0.0) date 2024-07-21 16:15:31*
%MOMM*%
%LPD*%
G01*
G04 APERTURE LIST*
%ADD10C,0.150000*%
%ADD11C,0.100000*%
G04 APERTURE END LIST*
D10*
X145857143Y-148803152D02*
X145857143Y-149469819D01*
X145619048Y-148422200D02*
X145380953Y-149136485D01*
X145380953Y-149136485D02*
X146000000Y-149136485D01*
X146857143Y-148469819D02*
X146380953Y-148469819D01*
X146380953Y-148469819D02*
X146333334Y-148946009D01*
X146333334Y-148946009D02*
X146380953Y-148898390D01*
X146380953Y-148898390D02*
X146476191Y-148850771D01*
X146476191Y-148850771D02*
X146714286Y-148850771D01*
X146714286Y-148850771D02*
X146809524Y-148898390D01*
X146809524Y-148898390D02*
X146857143Y-148946009D01*
X146857143Y-148946009D02*
X146904762Y-149041247D01*
X146904762Y-149041247D02*
X146904762Y-149279342D01*
X146904762Y-149279342D02*
X146857143Y-149374580D01*
X146857143Y-149374580D02*
X146809524Y-149422200D01*
X146809524Y-149422200D02*
X146714286Y-149469819D01*
X146714286Y-149469819D02*
X146476191Y-149469819D01*
X146476191Y-149469819D02*
X146380953Y-149422200D01*
X146380953Y-149422200D02*
X146333334Y-149374580D01*
X147333334Y-149374580D02*
X147380953Y-149422200D01*
X147380953Y-149422200D02*
X147333334Y-149469819D01*
X147333334Y-149469819D02*
X147285715Y-149422200D01*
X147285715Y-149422200D02*
X147333334Y-149374580D01*
X147333334Y-149374580D02*
X147333334Y-149469819D01*
X147714286Y-148469819D02*
X148380952Y-148469819D01*
X148380952Y-148469819D02*
X147952381Y-149469819D01*
X148714286Y-148565057D02*
X148761905Y-148517438D01*
X148761905Y-148517438D02*
X148857143Y-148469819D01*
X148857143Y-148469819D02*
X149095238Y-148469819D01*
X149095238Y-148469819D02*
X149190476Y-148517438D01*
X149190476Y-148517438D02*
X149238095Y-148565057D01*
X149238095Y-148565057D02*
X149285714Y-148660295D01*
X149285714Y-148660295D02*
X149285714Y-148755533D01*
X149285714Y-148755533D02*
X149238095Y-148898390D01*
X149238095Y-148898390D02*
X148666667Y-149469819D01*
X148666667Y-149469819D02*
X149285714Y-149469819D01*
X149904762Y-148469819D02*
X150000000Y-148469819D01*
X150000000Y-148469819D02*
X150095238Y-148517438D01*
X150095238Y-148517438D02*
X150142857Y-148565057D01*
X150142857Y-148565057D02*
X150190476Y-148660295D01*
X150190476Y-148660295D02*
X150238095Y-148850771D01*
X150238095Y-148850771D02*
X150238095Y-149088866D01*
X150238095Y-149088866D02*
X150190476Y-149279342D01*
X150190476Y-149279342D02*
X150142857Y-149374580D01*
X150142857Y-149374580D02*
X150095238Y-149422200D01*
X150095238Y-149422200D02*
X150000000Y-149469819D01*
X150000000Y-149469819D02*
X149904762Y-149469819D01*
X149904762Y-149469819D02*
X149809524Y-149422200D01*
X149809524Y-149422200D02*
X149761905Y-149374580D01*
X149761905Y-149374580D02*
X149714286Y-149279342D01*
X149714286Y-149279342D02*
X149666667Y-149088866D01*
X149666667Y-149088866D02*
X149666667Y-148850771D01*
X149666667Y-148850771D02*
X149714286Y-148660295D01*
X149714286Y-148660295D02*
X149761905Y-148565057D01*
X149761905Y-148565057D02*
X149809524Y-148517438D01*
X149809524Y-148517438D02*
X149904762Y-148469819D01*
X150857143Y-148469819D02*
X150952381Y-148469819D01*
X150952381Y-148469819D02*
X151047619Y-148517438D01*
X151047619Y-148517438D02*
X151095238Y-148565057D01*
X151095238Y-148565057D02*
X151142857Y-148660295D01*
X151142857Y-148660295D02*
X151190476Y-148850771D01*
X151190476Y-148850771D02*
X151190476Y-149088866D01*
X151190476Y-149088866D02*
X151142857Y-149279342D01*
X151142857Y-149279342D02*
X151095238Y-149374580D01*
X151095238Y-149374580D02*
X151047619Y-149422200D01*
X151047619Y-149422200D02*
X150952381Y-149469819D01*
X150952381Y-149469819D02*
X150857143Y-149469819D01*
X150857143Y-149469819D02*
X150761905Y-149422200D01*
X150761905Y-149422200D02*
X150714286Y-149374580D01*
X150714286Y-149374580D02*
X150666667Y-149279342D01*
X150666667Y-149279342D02*
X150619048Y-149088866D01*
X150619048Y-149088866D02*
X150619048Y-148850771D01*
X150619048Y-148850771D02*
X150666667Y-148660295D01*
X150666667Y-148660295D02*
X150714286Y-148565057D01*
X150714286Y-148565057D02*
X150761905Y-148517438D01*
X150761905Y-148517438D02*
X150857143Y-148469819D01*
X152380953Y-149469819D02*
X152380953Y-148803152D01*
X152380953Y-148898390D02*
X152428572Y-148850771D01*
X152428572Y-148850771D02*
X152523810Y-148803152D01*
X152523810Y-148803152D02*
X152666667Y-148803152D01*
X152666667Y-148803152D02*
X152761905Y-148850771D01*
X152761905Y-148850771D02*
X152809524Y-148946009D01*
X152809524Y-148946009D02*
X152809524Y-149469819D01*
X152809524Y-148946009D02*
X152857143Y-148850771D01*
X152857143Y-148850771D02*
X152952381Y-148803152D01*
X152952381Y-148803152D02*
X153095238Y-148803152D01*
X153095238Y-148803152D02*
X153190477Y-148850771D01*
X153190477Y-148850771D02*
X153238096Y-148946009D01*
X153238096Y-148946009D02*
X153238096Y-149469819D01*
X153714286Y-149469819D02*
X153714286Y-148803152D01*
X153714286Y-148898390D02*
X153761905Y-148850771D01*
X153761905Y-148850771D02*
X153857143Y-148803152D01*
X153857143Y-148803152D02*
X154000000Y-148803152D01*
X154000000Y-148803152D02*
X154095238Y-148850771D01*
X154095238Y-148850771D02*
X154142857Y-148946009D01*
X154142857Y-148946009D02*
X154142857Y-149469819D01*
X154142857Y-148946009D02*
X154190476Y-148850771D01*
X154190476Y-148850771D02*
X154285714Y-148803152D01*
X154285714Y-148803152D02*
X154428571Y-148803152D01*
X154428571Y-148803152D02*
X154523810Y-148850771D01*
X154523810Y-148850771D02*
X154571429Y-148946009D01*
X154571429Y-148946009D02*
X154571429Y-149469819D01*
D11*
X127140000Y-122090000D02*
X127140000Y-150751420D01*
X172860000Y-122090000D02*
X172860000Y-150751420D01*
X127140000Y-150165000D02*
X172860000Y-150165000D01*
X127140000Y-150165000D02*
X172860000Y-150165000D01*
X127140000Y-150165000D02*
X128266504Y-149578579D01*
X127140000Y-150165000D02*
X128266504Y-150751421D01*
X172860000Y-150165000D02*
X171733496Y-150751421D01*
X172860000Y-150165000D02*
X171733496Y-149578579D01*
D10*
X89995890Y-121097380D02*
X89948271Y-121192618D01*
X89948271Y-121192618D02*
X89900652Y-121240237D01*
X89900652Y-121240237D02*
X89805414Y-121287856D01*
X89805414Y-121287856D02*
X89757795Y-121287856D01*
X89757795Y-121287856D02*
X89662557Y-121240237D01*
X89662557Y-121240237D02*
X89614938Y-121192618D01*
X89614938Y-121192618D02*
X89567319Y-121097380D01*
X89567319Y-121097380D02*
X89567319Y-120906904D01*
X89567319Y-120906904D02*
X89614938Y-120811666D01*
X89614938Y-120811666D02*
X89662557Y-120764047D01*
X89662557Y-120764047D02*
X89757795Y-120716428D01*
X89757795Y-120716428D02*
X89805414Y-120716428D01*
X89805414Y-120716428D02*
X89900652Y-120764047D01*
X89900652Y-120764047D02*
X89948271Y-120811666D01*
X89948271Y-120811666D02*
X89995890Y-120906904D01*
X89995890Y-120906904D02*
X89995890Y-121097380D01*
X89995890Y-121097380D02*
X90043509Y-121192618D01*
X90043509Y-121192618D02*
X90091128Y-121240237D01*
X90091128Y-121240237D02*
X90186366Y-121287856D01*
X90186366Y-121287856D02*
X90376842Y-121287856D01*
X90376842Y-121287856D02*
X90472080Y-121240237D01*
X90472080Y-121240237D02*
X90519700Y-121192618D01*
X90519700Y-121192618D02*
X90567319Y-121097380D01*
X90567319Y-121097380D02*
X90567319Y-120906904D01*
X90567319Y-120906904D02*
X90519700Y-120811666D01*
X90519700Y-120811666D02*
X90472080Y-120764047D01*
X90472080Y-120764047D02*
X90376842Y-120716428D01*
X90376842Y-120716428D02*
X90186366Y-120716428D01*
X90186366Y-120716428D02*
X90091128Y-120764047D01*
X90091128Y-120764047D02*
X90043509Y-120811666D01*
X90043509Y-120811666D02*
X89995890Y-120906904D01*
X90472080Y-120287856D02*
X90519700Y-120240237D01*
X90519700Y-120240237D02*
X90567319Y-120287856D01*
X90567319Y-120287856D02*
X90519700Y-120335475D01*
X90519700Y-120335475D02*
X90472080Y-120287856D01*
X90472080Y-120287856D02*
X90567319Y-120287856D01*
X89995890Y-119668809D02*
X89948271Y-119764047D01*
X89948271Y-119764047D02*
X89900652Y-119811666D01*
X89900652Y-119811666D02*
X89805414Y-119859285D01*
X89805414Y-119859285D02*
X89757795Y-119859285D01*
X89757795Y-119859285D02*
X89662557Y-119811666D01*
X89662557Y-119811666D02*
X89614938Y-119764047D01*
X89614938Y-119764047D02*
X89567319Y-119668809D01*
X89567319Y-119668809D02*
X89567319Y-119478333D01*
X89567319Y-119478333D02*
X89614938Y-119383095D01*
X89614938Y-119383095D02*
X89662557Y-119335476D01*
X89662557Y-119335476D02*
X89757795Y-119287857D01*
X89757795Y-119287857D02*
X89805414Y-119287857D01*
X89805414Y-119287857D02*
X89900652Y-119335476D01*
X89900652Y-119335476D02*
X89948271Y-119383095D01*
X89948271Y-119383095D02*
X89995890Y-119478333D01*
X89995890Y-119478333D02*
X89995890Y-119668809D01*
X89995890Y-119668809D02*
X90043509Y-119764047D01*
X90043509Y-119764047D02*
X90091128Y-119811666D01*
X90091128Y-119811666D02*
X90186366Y-119859285D01*
X90186366Y-119859285D02*
X90376842Y-119859285D01*
X90376842Y-119859285D02*
X90472080Y-119811666D01*
X90472080Y-119811666D02*
X90519700Y-119764047D01*
X90519700Y-119764047D02*
X90567319Y-119668809D01*
X90567319Y-119668809D02*
X90567319Y-119478333D01*
X90567319Y-119478333D02*
X90519700Y-119383095D01*
X90519700Y-119383095D02*
X90472080Y-119335476D01*
X90472080Y-119335476D02*
X90376842Y-119287857D01*
X90376842Y-119287857D02*
X90186366Y-119287857D01*
X90186366Y-119287857D02*
X90091128Y-119335476D01*
X90091128Y-119335476D02*
X90043509Y-119383095D01*
X90043509Y-119383095D02*
X89995890Y-119478333D01*
X90567319Y-118811666D02*
X90567319Y-118621190D01*
X90567319Y-118621190D02*
X90519700Y-118525952D01*
X90519700Y-118525952D02*
X90472080Y-118478333D01*
X90472080Y-118478333D02*
X90329223Y-118383095D01*
X90329223Y-118383095D02*
X90138747Y-118335476D01*
X90138747Y-118335476D02*
X89757795Y-118335476D01*
X89757795Y-118335476D02*
X89662557Y-118383095D01*
X89662557Y-118383095D02*
X89614938Y-118430714D01*
X89614938Y-118430714D02*
X89567319Y-118525952D01*
X89567319Y-118525952D02*
X89567319Y-118716428D01*
X89567319Y-118716428D02*
X89614938Y-118811666D01*
X89614938Y-118811666D02*
X89662557Y-118859285D01*
X89662557Y-118859285D02*
X89757795Y-118906904D01*
X89757795Y-118906904D02*
X89995890Y-118906904D01*
X89995890Y-118906904D02*
X90091128Y-118859285D01*
X90091128Y-118859285D02*
X90138747Y-118811666D01*
X90138747Y-118811666D02*
X90186366Y-118716428D01*
X90186366Y-118716428D02*
X90186366Y-118525952D01*
X90186366Y-118525952D02*
X90138747Y-118430714D01*
X90138747Y-118430714D02*
X90091128Y-118383095D01*
X90091128Y-118383095D02*
X89995890Y-118335476D01*
X89567319Y-117716428D02*
X89567319Y-117621190D01*
X89567319Y-117621190D02*
X89614938Y-117525952D01*
X89614938Y-117525952D02*
X89662557Y-117478333D01*
X89662557Y-117478333D02*
X89757795Y-117430714D01*
X89757795Y-117430714D02*
X89948271Y-117383095D01*
X89948271Y-117383095D02*
X90186366Y-117383095D01*
X90186366Y-117383095D02*
X90376842Y-117430714D01*
X90376842Y-117430714D02*
X90472080Y-117478333D01*
X90472080Y-117478333D02*
X90519700Y-117525952D01*
X90519700Y-117525952D02*
X90567319Y-117621190D01*
X90567319Y-117621190D02*
X90567319Y-117716428D01*
X90567319Y-117716428D02*
X90519700Y-117811666D01*
X90519700Y-117811666D02*
X90472080Y-117859285D01*
X90472080Y-117859285D02*
X90376842Y-117906904D01*
X90376842Y-117906904D02*
X90186366Y-117954523D01*
X90186366Y-117954523D02*
X89948271Y-117954523D01*
X89948271Y-117954523D02*
X89757795Y-117906904D01*
X89757795Y-117906904D02*
X89662557Y-117859285D01*
X89662557Y-117859285D02*
X89614938Y-117811666D01*
X89614938Y-117811666D02*
X89567319Y-117716428D01*
X89567319Y-116764047D02*
X89567319Y-116668809D01*
X89567319Y-116668809D02*
X89614938Y-116573571D01*
X89614938Y-116573571D02*
X89662557Y-116525952D01*
X89662557Y-116525952D02*
X89757795Y-116478333D01*
X89757795Y-116478333D02*
X89948271Y-116430714D01*
X89948271Y-116430714D02*
X90186366Y-116430714D01*
X90186366Y-116430714D02*
X90376842Y-116478333D01*
X90376842Y-116478333D02*
X90472080Y-116525952D01*
X90472080Y-116525952D02*
X90519700Y-116573571D01*
X90519700Y-116573571D02*
X90567319Y-116668809D01*
X90567319Y-116668809D02*
X90567319Y-116764047D01*
X90567319Y-116764047D02*
X90519700Y-116859285D01*
X90519700Y-116859285D02*
X90472080Y-116906904D01*
X90472080Y-116906904D02*
X90376842Y-116954523D01*
X90376842Y-116954523D02*
X90186366Y-117002142D01*
X90186366Y-117002142D02*
X89948271Y-117002142D01*
X89948271Y-117002142D02*
X89757795Y-116954523D01*
X89757795Y-116954523D02*
X89662557Y-116906904D01*
X89662557Y-116906904D02*
X89614938Y-116859285D01*
X89614938Y-116859285D02*
X89567319Y-116764047D01*
X90567319Y-115240237D02*
X89900652Y-115240237D01*
X89995890Y-115240237D02*
X89948271Y-115192618D01*
X89948271Y-115192618D02*
X89900652Y-115097380D01*
X89900652Y-115097380D02*
X89900652Y-114954523D01*
X89900652Y-114954523D02*
X89948271Y-114859285D01*
X89948271Y-114859285D02*
X90043509Y-114811666D01*
X90043509Y-114811666D02*
X90567319Y-114811666D01*
X90043509Y-114811666D02*
X89948271Y-114764047D01*
X89948271Y-114764047D02*
X89900652Y-114668809D01*
X89900652Y-114668809D02*
X89900652Y-114525952D01*
X89900652Y-114525952D02*
X89948271Y-114430713D01*
X89948271Y-114430713D02*
X90043509Y-114383094D01*
X90043509Y-114383094D02*
X90567319Y-114383094D01*
X90567319Y-113906904D02*
X89900652Y-113906904D01*
X89995890Y-113906904D02*
X89948271Y-113859285D01*
X89948271Y-113859285D02*
X89900652Y-113764047D01*
X89900652Y-113764047D02*
X89900652Y-113621190D01*
X89900652Y-113621190D02*
X89948271Y-113525952D01*
X89948271Y-113525952D02*
X90043509Y-113478333D01*
X90043509Y-113478333D02*
X90567319Y-113478333D01*
X90043509Y-113478333D02*
X89948271Y-113430714D01*
X89948271Y-113430714D02*
X89900652Y-113335476D01*
X89900652Y-113335476D02*
X89900652Y-113192619D01*
X89900652Y-113192619D02*
X89948271Y-113097380D01*
X89948271Y-113097380D02*
X90043509Y-113049761D01*
X90043509Y-113049761D02*
X90567319Y-113049761D01*
D11*
X117750000Y-121590000D02*
X90676080Y-121590000D01*
X117750000Y-112700000D02*
X90676080Y-112700000D01*
X91262500Y-121590000D02*
X91262500Y-112700000D01*
X91262500Y-121590000D02*
X91262500Y-112700000D01*
X91262500Y-121590000D02*
X90676079Y-120463496D01*
X91262500Y-121590000D02*
X91848921Y-120463496D01*
X91262500Y-112700000D02*
X91848921Y-113826504D01*
X91262500Y-112700000D02*
X90676079Y-113826504D01*
D10*
X118742619Y-148898390D02*
X118647381Y-148850771D01*
X118647381Y-148850771D02*
X118599762Y-148803152D01*
X118599762Y-148803152D02*
X118552143Y-148707914D01*
X118552143Y-148707914D02*
X118552143Y-148660295D01*
X118552143Y-148660295D02*
X118599762Y-148565057D01*
X118599762Y-148565057D02*
X118647381Y-148517438D01*
X118647381Y-148517438D02*
X118742619Y-148469819D01*
X118742619Y-148469819D02*
X118933095Y-148469819D01*
X118933095Y-148469819D02*
X119028333Y-148517438D01*
X119028333Y-148517438D02*
X119075952Y-148565057D01*
X119075952Y-148565057D02*
X119123571Y-148660295D01*
X119123571Y-148660295D02*
X119123571Y-148707914D01*
X119123571Y-148707914D02*
X119075952Y-148803152D01*
X119075952Y-148803152D02*
X119028333Y-148850771D01*
X119028333Y-148850771D02*
X118933095Y-148898390D01*
X118933095Y-148898390D02*
X118742619Y-148898390D01*
X118742619Y-148898390D02*
X118647381Y-148946009D01*
X118647381Y-148946009D02*
X118599762Y-148993628D01*
X118599762Y-148993628D02*
X118552143Y-149088866D01*
X118552143Y-149088866D02*
X118552143Y-149279342D01*
X118552143Y-149279342D02*
X118599762Y-149374580D01*
X118599762Y-149374580D02*
X118647381Y-149422200D01*
X118647381Y-149422200D02*
X118742619Y-149469819D01*
X118742619Y-149469819D02*
X118933095Y-149469819D01*
X118933095Y-149469819D02*
X119028333Y-149422200D01*
X119028333Y-149422200D02*
X119075952Y-149374580D01*
X119075952Y-149374580D02*
X119123571Y-149279342D01*
X119123571Y-149279342D02*
X119123571Y-149088866D01*
X119123571Y-149088866D02*
X119075952Y-148993628D01*
X119075952Y-148993628D02*
X119028333Y-148946009D01*
X119028333Y-148946009D02*
X118933095Y-148898390D01*
X119552143Y-149374580D02*
X119599762Y-149422200D01*
X119599762Y-149422200D02*
X119552143Y-149469819D01*
X119552143Y-149469819D02*
X119504524Y-149422200D01*
X119504524Y-149422200D02*
X119552143Y-149374580D01*
X119552143Y-149374580D02*
X119552143Y-149469819D01*
X120171190Y-148898390D02*
X120075952Y-148850771D01*
X120075952Y-148850771D02*
X120028333Y-148803152D01*
X120028333Y-148803152D02*
X119980714Y-148707914D01*
X119980714Y-148707914D02*
X119980714Y-148660295D01*
X119980714Y-148660295D02*
X120028333Y-148565057D01*
X120028333Y-148565057D02*
X120075952Y-148517438D01*
X120075952Y-148517438D02*
X120171190Y-148469819D01*
X120171190Y-148469819D02*
X120361666Y-148469819D01*
X120361666Y-148469819D02*
X120456904Y-148517438D01*
X120456904Y-148517438D02*
X120504523Y-148565057D01*
X120504523Y-148565057D02*
X120552142Y-148660295D01*
X120552142Y-148660295D02*
X120552142Y-148707914D01*
X120552142Y-148707914D02*
X120504523Y-148803152D01*
X120504523Y-148803152D02*
X120456904Y-148850771D01*
X120456904Y-148850771D02*
X120361666Y-148898390D01*
X120361666Y-148898390D02*
X120171190Y-148898390D01*
X120171190Y-148898390D02*
X120075952Y-148946009D01*
X120075952Y-148946009D02*
X120028333Y-148993628D01*
X120028333Y-148993628D02*
X119980714Y-149088866D01*
X119980714Y-149088866D02*
X119980714Y-149279342D01*
X119980714Y-149279342D02*
X120028333Y-149374580D01*
X120028333Y-149374580D02*
X120075952Y-149422200D01*
X120075952Y-149422200D02*
X120171190Y-149469819D01*
X120171190Y-149469819D02*
X120361666Y-149469819D01*
X120361666Y-149469819D02*
X120456904Y-149422200D01*
X120456904Y-149422200D02*
X120504523Y-149374580D01*
X120504523Y-149374580D02*
X120552142Y-149279342D01*
X120552142Y-149279342D02*
X120552142Y-149088866D01*
X120552142Y-149088866D02*
X120504523Y-148993628D01*
X120504523Y-148993628D02*
X120456904Y-148946009D01*
X120456904Y-148946009D02*
X120361666Y-148898390D01*
X121028333Y-149469819D02*
X121218809Y-149469819D01*
X121218809Y-149469819D02*
X121314047Y-149422200D01*
X121314047Y-149422200D02*
X121361666Y-149374580D01*
X121361666Y-149374580D02*
X121456904Y-149231723D01*
X121456904Y-149231723D02*
X121504523Y-149041247D01*
X121504523Y-149041247D02*
X121504523Y-148660295D01*
X121504523Y-148660295D02*
X121456904Y-148565057D01*
X121456904Y-148565057D02*
X121409285Y-148517438D01*
X121409285Y-148517438D02*
X121314047Y-148469819D01*
X121314047Y-148469819D02*
X121123571Y-148469819D01*
X121123571Y-148469819D02*
X121028333Y-148517438D01*
X121028333Y-148517438D02*
X120980714Y-148565057D01*
X120980714Y-148565057D02*
X120933095Y-148660295D01*
X120933095Y-148660295D02*
X120933095Y-148898390D01*
X120933095Y-148898390D02*
X120980714Y-148993628D01*
X120980714Y-148993628D02*
X121028333Y-149041247D01*
X121028333Y-149041247D02*
X121123571Y-149088866D01*
X121123571Y-149088866D02*
X121314047Y-149088866D01*
X121314047Y-149088866D02*
X121409285Y-149041247D01*
X121409285Y-149041247D02*
X121456904Y-148993628D01*
X121456904Y-148993628D02*
X121504523Y-148898390D01*
X122123571Y-148469819D02*
X122218809Y-148469819D01*
X122218809Y-148469819D02*
X122314047Y-148517438D01*
X122314047Y-148517438D02*
X122361666Y-148565057D01*
X122361666Y-148565057D02*
X122409285Y-148660295D01*
X122409285Y-148660295D02*
X122456904Y-148850771D01*
X122456904Y-148850771D02*
X122456904Y-149088866D01*
X122456904Y-149088866D02*
X122409285Y-149279342D01*
X122409285Y-149279342D02*
X122361666Y-149374580D01*
X122361666Y-149374580D02*
X122314047Y-149422200D01*
X122314047Y-149422200D02*
X122218809Y-149469819D01*
X122218809Y-149469819D02*
X122123571Y-149469819D01*
X122123571Y-149469819D02*
X122028333Y-149422200D01*
X122028333Y-149422200D02*
X121980714Y-149374580D01*
X121980714Y-149374580D02*
X121933095Y-149279342D01*
X121933095Y-149279342D02*
X121885476Y-149088866D01*
X121885476Y-149088866D02*
X121885476Y-148850771D01*
X121885476Y-148850771D02*
X121933095Y-148660295D01*
X121933095Y-148660295D02*
X121980714Y-148565057D01*
X121980714Y-148565057D02*
X122028333Y-148517438D01*
X122028333Y-148517438D02*
X122123571Y-148469819D01*
X123075952Y-148469819D02*
X123171190Y-148469819D01*
X123171190Y-148469819D02*
X123266428Y-148517438D01*
X123266428Y-148517438D02*
X123314047Y-148565057D01*
X123314047Y-148565057D02*
X123361666Y-148660295D01*
X123361666Y-148660295D02*
X123409285Y-148850771D01*
X123409285Y-148850771D02*
X123409285Y-149088866D01*
X123409285Y-149088866D02*
X123361666Y-149279342D01*
X123361666Y-149279342D02*
X123314047Y-149374580D01*
X123314047Y-149374580D02*
X123266428Y-149422200D01*
X123266428Y-149422200D02*
X123171190Y-149469819D01*
X123171190Y-149469819D02*
X123075952Y-149469819D01*
X123075952Y-149469819D02*
X122980714Y-149422200D01*
X122980714Y-149422200D02*
X122933095Y-149374580D01*
X122933095Y-149374580D02*
X122885476Y-149279342D01*
X122885476Y-149279342D02*
X122837857Y-149088866D01*
X122837857Y-149088866D02*
X122837857Y-148850771D01*
X122837857Y-148850771D02*
X122885476Y-148660295D01*
X122885476Y-148660295D02*
X122933095Y-148565057D01*
X122933095Y-148565057D02*
X122980714Y-148517438D01*
X122980714Y-148517438D02*
X123075952Y-148469819D01*
X124599762Y-149469819D02*
X124599762Y-148803152D01*
X124599762Y-148898390D02*
X124647381Y-148850771D01*
X124647381Y-148850771D02*
X124742619Y-148803152D01*
X124742619Y-148803152D02*
X124885476Y-148803152D01*
X124885476Y-148803152D02*
X124980714Y-148850771D01*
X124980714Y-148850771D02*
X125028333Y-148946009D01*
X125028333Y-148946009D02*
X125028333Y-149469819D01*
X125028333Y-148946009D02*
X125075952Y-148850771D01*
X125075952Y-148850771D02*
X125171190Y-148803152D01*
X125171190Y-148803152D02*
X125314047Y-148803152D01*
X125314047Y-148803152D02*
X125409286Y-148850771D01*
X125409286Y-148850771D02*
X125456905Y-148946009D01*
X125456905Y-148946009D02*
X125456905Y-149469819D01*
X125933095Y-149469819D02*
X125933095Y-148803152D01*
X125933095Y-148898390D02*
X125980714Y-148850771D01*
X125980714Y-148850771D02*
X126075952Y-148803152D01*
X126075952Y-148803152D02*
X126218809Y-148803152D01*
X126218809Y-148803152D02*
X126314047Y-148850771D01*
X126314047Y-148850771D02*
X126361666Y-148946009D01*
X126361666Y-148946009D02*
X126361666Y-149469819D01*
X126361666Y-148946009D02*
X126409285Y-148850771D01*
X126409285Y-148850771D02*
X126504523Y-148803152D01*
X126504523Y-148803152D02*
X126647380Y-148803152D01*
X126647380Y-148803152D02*
X126742619Y-148850771D01*
X126742619Y-148850771D02*
X126790238Y-148946009D01*
X126790238Y-148946009D02*
X126790238Y-149469819D01*
D11*
X118250000Y-122090000D02*
X118250000Y-150751420D01*
X127140000Y-122090000D02*
X127140000Y-150751420D01*
X118250000Y-150165000D02*
X127140000Y-150165000D01*
X118250000Y-150165000D02*
X127140000Y-150165000D01*
X118250000Y-150165000D02*
X119376504Y-149578579D01*
X118250000Y-150165000D02*
X119376504Y-150751421D01*
X127140000Y-150165000D02*
X126013496Y-150751421D01*
X127140000Y-150165000D02*
X126013496Y-149578579D01*
D10*
X145476191Y-48504819D02*
X145666667Y-48504819D01*
X145666667Y-48504819D02*
X145761905Y-48457200D01*
X145761905Y-48457200D02*
X145809524Y-48409580D01*
X145809524Y-48409580D02*
X145904762Y-48266723D01*
X145904762Y-48266723D02*
X145952381Y-48076247D01*
X145952381Y-48076247D02*
X145952381Y-47695295D01*
X145952381Y-47695295D02*
X145904762Y-47600057D01*
X145904762Y-47600057D02*
X145857143Y-47552438D01*
X145857143Y-47552438D02*
X145761905Y-47504819D01*
X145761905Y-47504819D02*
X145571429Y-47504819D01*
X145571429Y-47504819D02*
X145476191Y-47552438D01*
X145476191Y-47552438D02*
X145428572Y-47600057D01*
X145428572Y-47600057D02*
X145380953Y-47695295D01*
X145380953Y-47695295D02*
X145380953Y-47933390D01*
X145380953Y-47933390D02*
X145428572Y-48028628D01*
X145428572Y-48028628D02*
X145476191Y-48076247D01*
X145476191Y-48076247D02*
X145571429Y-48123866D01*
X145571429Y-48123866D02*
X145761905Y-48123866D01*
X145761905Y-48123866D02*
X145857143Y-48076247D01*
X145857143Y-48076247D02*
X145904762Y-48028628D01*
X145904762Y-48028628D02*
X145952381Y-47933390D01*
X146428572Y-48504819D02*
X146619048Y-48504819D01*
X146619048Y-48504819D02*
X146714286Y-48457200D01*
X146714286Y-48457200D02*
X146761905Y-48409580D01*
X146761905Y-48409580D02*
X146857143Y-48266723D01*
X146857143Y-48266723D02*
X146904762Y-48076247D01*
X146904762Y-48076247D02*
X146904762Y-47695295D01*
X146904762Y-47695295D02*
X146857143Y-47600057D01*
X146857143Y-47600057D02*
X146809524Y-47552438D01*
X146809524Y-47552438D02*
X146714286Y-47504819D01*
X146714286Y-47504819D02*
X146523810Y-47504819D01*
X146523810Y-47504819D02*
X146428572Y-47552438D01*
X146428572Y-47552438D02*
X146380953Y-47600057D01*
X146380953Y-47600057D02*
X146333334Y-47695295D01*
X146333334Y-47695295D02*
X146333334Y-47933390D01*
X146333334Y-47933390D02*
X146380953Y-48028628D01*
X146380953Y-48028628D02*
X146428572Y-48076247D01*
X146428572Y-48076247D02*
X146523810Y-48123866D01*
X146523810Y-48123866D02*
X146714286Y-48123866D01*
X146714286Y-48123866D02*
X146809524Y-48076247D01*
X146809524Y-48076247D02*
X146857143Y-48028628D01*
X146857143Y-48028628D02*
X146904762Y-47933390D01*
X147333334Y-48409580D02*
X147380953Y-48457200D01*
X147380953Y-48457200D02*
X147333334Y-48504819D01*
X147333334Y-48504819D02*
X147285715Y-48457200D01*
X147285715Y-48457200D02*
X147333334Y-48409580D01*
X147333334Y-48409580D02*
X147333334Y-48504819D01*
X148000000Y-47504819D02*
X148095238Y-47504819D01*
X148095238Y-47504819D02*
X148190476Y-47552438D01*
X148190476Y-47552438D02*
X148238095Y-47600057D01*
X148238095Y-47600057D02*
X148285714Y-47695295D01*
X148285714Y-47695295D02*
X148333333Y-47885771D01*
X148333333Y-47885771D02*
X148333333Y-48123866D01*
X148333333Y-48123866D02*
X148285714Y-48314342D01*
X148285714Y-48314342D02*
X148238095Y-48409580D01*
X148238095Y-48409580D02*
X148190476Y-48457200D01*
X148190476Y-48457200D02*
X148095238Y-48504819D01*
X148095238Y-48504819D02*
X148000000Y-48504819D01*
X148000000Y-48504819D02*
X147904762Y-48457200D01*
X147904762Y-48457200D02*
X147857143Y-48409580D01*
X147857143Y-48409580D02*
X147809524Y-48314342D01*
X147809524Y-48314342D02*
X147761905Y-48123866D01*
X147761905Y-48123866D02*
X147761905Y-47885771D01*
X147761905Y-47885771D02*
X147809524Y-47695295D01*
X147809524Y-47695295D02*
X147857143Y-47600057D01*
X147857143Y-47600057D02*
X147904762Y-47552438D01*
X147904762Y-47552438D02*
X148000000Y-47504819D01*
X149190476Y-47504819D02*
X149000000Y-47504819D01*
X149000000Y-47504819D02*
X148904762Y-47552438D01*
X148904762Y-47552438D02*
X148857143Y-47600057D01*
X148857143Y-47600057D02*
X148761905Y-47742914D01*
X148761905Y-47742914D02*
X148714286Y-47933390D01*
X148714286Y-47933390D02*
X148714286Y-48314342D01*
X148714286Y-48314342D02*
X148761905Y-48409580D01*
X148761905Y-48409580D02*
X148809524Y-48457200D01*
X148809524Y-48457200D02*
X148904762Y-48504819D01*
X148904762Y-48504819D02*
X149095238Y-48504819D01*
X149095238Y-48504819D02*
X149190476Y-48457200D01*
X149190476Y-48457200D02*
X149238095Y-48409580D01*
X149238095Y-48409580D02*
X149285714Y-48314342D01*
X149285714Y-48314342D02*
X149285714Y-48076247D01*
X149285714Y-48076247D02*
X149238095Y-47981009D01*
X149238095Y-47981009D02*
X149190476Y-47933390D01*
X149190476Y-47933390D02*
X149095238Y-47885771D01*
X149095238Y-47885771D02*
X148904762Y-47885771D01*
X148904762Y-47885771D02*
X148809524Y-47933390D01*
X148809524Y-47933390D02*
X148761905Y-47981009D01*
X148761905Y-47981009D02*
X148714286Y-48076247D01*
X149904762Y-47504819D02*
X150000000Y-47504819D01*
X150000000Y-47504819D02*
X150095238Y-47552438D01*
X150095238Y-47552438D02*
X150142857Y-47600057D01*
X150142857Y-47600057D02*
X150190476Y-47695295D01*
X150190476Y-47695295D02*
X150238095Y-47885771D01*
X150238095Y-47885771D02*
X150238095Y-48123866D01*
X150238095Y-48123866D02*
X150190476Y-48314342D01*
X150190476Y-48314342D02*
X150142857Y-48409580D01*
X150142857Y-48409580D02*
X150095238Y-48457200D01*
X150095238Y-48457200D02*
X150000000Y-48504819D01*
X150000000Y-48504819D02*
X149904762Y-48504819D01*
X149904762Y-48504819D02*
X149809524Y-48457200D01*
X149809524Y-48457200D02*
X149761905Y-48409580D01*
X149761905Y-48409580D02*
X149714286Y-48314342D01*
X149714286Y-48314342D02*
X149666667Y-48123866D01*
X149666667Y-48123866D02*
X149666667Y-47885771D01*
X149666667Y-47885771D02*
X149714286Y-47695295D01*
X149714286Y-47695295D02*
X149761905Y-47600057D01*
X149761905Y-47600057D02*
X149809524Y-47552438D01*
X149809524Y-47552438D02*
X149904762Y-47504819D01*
X150857143Y-47504819D02*
X150952381Y-47504819D01*
X150952381Y-47504819D02*
X151047619Y-47552438D01*
X151047619Y-47552438D02*
X151095238Y-47600057D01*
X151095238Y-47600057D02*
X151142857Y-47695295D01*
X151142857Y-47695295D02*
X151190476Y-47885771D01*
X151190476Y-47885771D02*
X151190476Y-48123866D01*
X151190476Y-48123866D02*
X151142857Y-48314342D01*
X151142857Y-48314342D02*
X151095238Y-48409580D01*
X151095238Y-48409580D02*
X151047619Y-48457200D01*
X151047619Y-48457200D02*
X150952381Y-48504819D01*
X150952381Y-48504819D02*
X150857143Y-48504819D01*
X150857143Y-48504819D02*
X150761905Y-48457200D01*
X150761905Y-48457200D02*
X150714286Y-48409580D01*
X150714286Y-48409580D02*
X150666667Y-48314342D01*
X150666667Y-48314342D02*
X150619048Y-48123866D01*
X150619048Y-48123866D02*
X150619048Y-47885771D01*
X150619048Y-47885771D02*
X150666667Y-47695295D01*
X150666667Y-47695295D02*
X150714286Y-47600057D01*
X150714286Y-47600057D02*
X150761905Y-47552438D01*
X150761905Y-47552438D02*
X150857143Y-47504819D01*
X152380953Y-48504819D02*
X152380953Y-47838152D01*
X152380953Y-47933390D02*
X152428572Y-47885771D01*
X152428572Y-47885771D02*
X152523810Y-47838152D01*
X152523810Y-47838152D02*
X152666667Y-47838152D01*
X152666667Y-47838152D02*
X152761905Y-47885771D01*
X152761905Y-47885771D02*
X152809524Y-47981009D01*
X152809524Y-47981009D02*
X152809524Y-48504819D01*
X152809524Y-47981009D02*
X152857143Y-47885771D01*
X152857143Y-47885771D02*
X152952381Y-47838152D01*
X152952381Y-47838152D02*
X153095238Y-47838152D01*
X153095238Y-47838152D02*
X153190477Y-47885771D01*
X153190477Y-47885771D02*
X153238096Y-47981009D01*
X153238096Y-47981009D02*
X153238096Y-48504819D01*
X153714286Y-48504819D02*
X153714286Y-47838152D01*
X153714286Y-47933390D02*
X153761905Y-47885771D01*
X153761905Y-47885771D02*
X153857143Y-47838152D01*
X153857143Y-47838152D02*
X154000000Y-47838152D01*
X154000000Y-47838152D02*
X154095238Y-47885771D01*
X154095238Y-47885771D02*
X154142857Y-47981009D01*
X154142857Y-47981009D02*
X154142857Y-48504819D01*
X154142857Y-47981009D02*
X154190476Y-47885771D01*
X154190476Y-47885771D02*
X154285714Y-47838152D01*
X154285714Y-47838152D02*
X154428571Y-47838152D01*
X154428571Y-47838152D02*
X154523810Y-47885771D01*
X154523810Y-47885771D02*
X154571429Y-47981009D01*
X154571429Y-47981009D02*
X154571429Y-48504819D01*
D11*
X100470000Y-69020000D02*
X100470000Y-48613580D01*
X199530000Y-69020000D02*
X199530000Y-48613580D01*
X100470000Y-49200000D02*
X199530000Y-49200000D01*
X100470000Y-49200000D02*
X199530000Y-49200000D01*
X100470000Y-49200000D02*
X101596504Y-48613579D01*
X100470000Y-49200000D02*
X101596504Y-49786421D01*
X199530000Y-49200000D02*
X198403496Y-49786421D01*
X199530000Y-49200000D02*
X198403496Y-48613579D01*
D10*
X90059390Y-77917380D02*
X90011771Y-78012618D01*
X90011771Y-78012618D02*
X89964152Y-78060237D01*
X89964152Y-78060237D02*
X89868914Y-78107856D01*
X89868914Y-78107856D02*
X89821295Y-78107856D01*
X89821295Y-78107856D02*
X89726057Y-78060237D01*
X89726057Y-78060237D02*
X89678438Y-78012618D01*
X89678438Y-78012618D02*
X89630819Y-77917380D01*
X89630819Y-77917380D02*
X89630819Y-77726904D01*
X89630819Y-77726904D02*
X89678438Y-77631666D01*
X89678438Y-77631666D02*
X89726057Y-77584047D01*
X89726057Y-77584047D02*
X89821295Y-77536428D01*
X89821295Y-77536428D02*
X89868914Y-77536428D01*
X89868914Y-77536428D02*
X89964152Y-77584047D01*
X89964152Y-77584047D02*
X90011771Y-77631666D01*
X90011771Y-77631666D02*
X90059390Y-77726904D01*
X90059390Y-77726904D02*
X90059390Y-77917380D01*
X90059390Y-77917380D02*
X90107009Y-78012618D01*
X90107009Y-78012618D02*
X90154628Y-78060237D01*
X90154628Y-78060237D02*
X90249866Y-78107856D01*
X90249866Y-78107856D02*
X90440342Y-78107856D01*
X90440342Y-78107856D02*
X90535580Y-78060237D01*
X90535580Y-78060237D02*
X90583200Y-78012618D01*
X90583200Y-78012618D02*
X90630819Y-77917380D01*
X90630819Y-77917380D02*
X90630819Y-77726904D01*
X90630819Y-77726904D02*
X90583200Y-77631666D01*
X90583200Y-77631666D02*
X90535580Y-77584047D01*
X90535580Y-77584047D02*
X90440342Y-77536428D01*
X90440342Y-77536428D02*
X90249866Y-77536428D01*
X90249866Y-77536428D02*
X90154628Y-77584047D01*
X90154628Y-77584047D02*
X90107009Y-77631666D01*
X90107009Y-77631666D02*
X90059390Y-77726904D01*
X90535580Y-77107856D02*
X90583200Y-77060237D01*
X90583200Y-77060237D02*
X90630819Y-77107856D01*
X90630819Y-77107856D02*
X90583200Y-77155475D01*
X90583200Y-77155475D02*
X90535580Y-77107856D01*
X90535580Y-77107856D02*
X90630819Y-77107856D01*
X90059390Y-76488809D02*
X90011771Y-76584047D01*
X90011771Y-76584047D02*
X89964152Y-76631666D01*
X89964152Y-76631666D02*
X89868914Y-76679285D01*
X89868914Y-76679285D02*
X89821295Y-76679285D01*
X89821295Y-76679285D02*
X89726057Y-76631666D01*
X89726057Y-76631666D02*
X89678438Y-76584047D01*
X89678438Y-76584047D02*
X89630819Y-76488809D01*
X89630819Y-76488809D02*
X89630819Y-76298333D01*
X89630819Y-76298333D02*
X89678438Y-76203095D01*
X89678438Y-76203095D02*
X89726057Y-76155476D01*
X89726057Y-76155476D02*
X89821295Y-76107857D01*
X89821295Y-76107857D02*
X89868914Y-76107857D01*
X89868914Y-76107857D02*
X89964152Y-76155476D01*
X89964152Y-76155476D02*
X90011771Y-76203095D01*
X90011771Y-76203095D02*
X90059390Y-76298333D01*
X90059390Y-76298333D02*
X90059390Y-76488809D01*
X90059390Y-76488809D02*
X90107009Y-76584047D01*
X90107009Y-76584047D02*
X90154628Y-76631666D01*
X90154628Y-76631666D02*
X90249866Y-76679285D01*
X90249866Y-76679285D02*
X90440342Y-76679285D01*
X90440342Y-76679285D02*
X90535580Y-76631666D01*
X90535580Y-76631666D02*
X90583200Y-76584047D01*
X90583200Y-76584047D02*
X90630819Y-76488809D01*
X90630819Y-76488809D02*
X90630819Y-76298333D01*
X90630819Y-76298333D02*
X90583200Y-76203095D01*
X90583200Y-76203095D02*
X90535580Y-76155476D01*
X90535580Y-76155476D02*
X90440342Y-76107857D01*
X90440342Y-76107857D02*
X90249866Y-76107857D01*
X90249866Y-76107857D02*
X90154628Y-76155476D01*
X90154628Y-76155476D02*
X90107009Y-76203095D01*
X90107009Y-76203095D02*
X90059390Y-76298333D01*
X90630819Y-75631666D02*
X90630819Y-75441190D01*
X90630819Y-75441190D02*
X90583200Y-75345952D01*
X90583200Y-75345952D02*
X90535580Y-75298333D01*
X90535580Y-75298333D02*
X90392723Y-75203095D01*
X90392723Y-75203095D02*
X90202247Y-75155476D01*
X90202247Y-75155476D02*
X89821295Y-75155476D01*
X89821295Y-75155476D02*
X89726057Y-75203095D01*
X89726057Y-75203095D02*
X89678438Y-75250714D01*
X89678438Y-75250714D02*
X89630819Y-75345952D01*
X89630819Y-75345952D02*
X89630819Y-75536428D01*
X89630819Y-75536428D02*
X89678438Y-75631666D01*
X89678438Y-75631666D02*
X89726057Y-75679285D01*
X89726057Y-75679285D02*
X89821295Y-75726904D01*
X89821295Y-75726904D02*
X90059390Y-75726904D01*
X90059390Y-75726904D02*
X90154628Y-75679285D01*
X90154628Y-75679285D02*
X90202247Y-75631666D01*
X90202247Y-75631666D02*
X90249866Y-75536428D01*
X90249866Y-75536428D02*
X90249866Y-75345952D01*
X90249866Y-75345952D02*
X90202247Y-75250714D01*
X90202247Y-75250714D02*
X90154628Y-75203095D01*
X90154628Y-75203095D02*
X90059390Y-75155476D01*
X89630819Y-74536428D02*
X89630819Y-74441190D01*
X89630819Y-74441190D02*
X89678438Y-74345952D01*
X89678438Y-74345952D02*
X89726057Y-74298333D01*
X89726057Y-74298333D02*
X89821295Y-74250714D01*
X89821295Y-74250714D02*
X90011771Y-74203095D01*
X90011771Y-74203095D02*
X90249866Y-74203095D01*
X90249866Y-74203095D02*
X90440342Y-74250714D01*
X90440342Y-74250714D02*
X90535580Y-74298333D01*
X90535580Y-74298333D02*
X90583200Y-74345952D01*
X90583200Y-74345952D02*
X90630819Y-74441190D01*
X90630819Y-74441190D02*
X90630819Y-74536428D01*
X90630819Y-74536428D02*
X90583200Y-74631666D01*
X90583200Y-74631666D02*
X90535580Y-74679285D01*
X90535580Y-74679285D02*
X90440342Y-74726904D01*
X90440342Y-74726904D02*
X90249866Y-74774523D01*
X90249866Y-74774523D02*
X90011771Y-74774523D01*
X90011771Y-74774523D02*
X89821295Y-74726904D01*
X89821295Y-74726904D02*
X89726057Y-74679285D01*
X89726057Y-74679285D02*
X89678438Y-74631666D01*
X89678438Y-74631666D02*
X89630819Y-74536428D01*
X89630819Y-73584047D02*
X89630819Y-73488809D01*
X89630819Y-73488809D02*
X89678438Y-73393571D01*
X89678438Y-73393571D02*
X89726057Y-73345952D01*
X89726057Y-73345952D02*
X89821295Y-73298333D01*
X89821295Y-73298333D02*
X90011771Y-73250714D01*
X90011771Y-73250714D02*
X90249866Y-73250714D01*
X90249866Y-73250714D02*
X90440342Y-73298333D01*
X90440342Y-73298333D02*
X90535580Y-73345952D01*
X90535580Y-73345952D02*
X90583200Y-73393571D01*
X90583200Y-73393571D02*
X90630819Y-73488809D01*
X90630819Y-73488809D02*
X90630819Y-73584047D01*
X90630819Y-73584047D02*
X90583200Y-73679285D01*
X90583200Y-73679285D02*
X90535580Y-73726904D01*
X90535580Y-73726904D02*
X90440342Y-73774523D01*
X90440342Y-73774523D02*
X90249866Y-73822142D01*
X90249866Y-73822142D02*
X90011771Y-73822142D01*
X90011771Y-73822142D02*
X89821295Y-73774523D01*
X89821295Y-73774523D02*
X89726057Y-73726904D01*
X89726057Y-73726904D02*
X89678438Y-73679285D01*
X89678438Y-73679285D02*
X89630819Y-73584047D01*
X90630819Y-72060237D02*
X89964152Y-72060237D01*
X90059390Y-72060237D02*
X90011771Y-72012618D01*
X90011771Y-72012618D02*
X89964152Y-71917380D01*
X89964152Y-71917380D02*
X89964152Y-71774523D01*
X89964152Y-71774523D02*
X90011771Y-71679285D01*
X90011771Y-71679285D02*
X90107009Y-71631666D01*
X90107009Y-71631666D02*
X90630819Y-71631666D01*
X90107009Y-71631666D02*
X90011771Y-71584047D01*
X90011771Y-71584047D02*
X89964152Y-71488809D01*
X89964152Y-71488809D02*
X89964152Y-71345952D01*
X89964152Y-71345952D02*
X90011771Y-71250713D01*
X90011771Y-71250713D02*
X90107009Y-71203094D01*
X90107009Y-71203094D02*
X90630819Y-71203094D01*
X90630819Y-70726904D02*
X89964152Y-70726904D01*
X90059390Y-70726904D02*
X90011771Y-70679285D01*
X90011771Y-70679285D02*
X89964152Y-70584047D01*
X89964152Y-70584047D02*
X89964152Y-70441190D01*
X89964152Y-70441190D02*
X90011771Y-70345952D01*
X90011771Y-70345952D02*
X90107009Y-70298333D01*
X90107009Y-70298333D02*
X90630819Y-70298333D01*
X90107009Y-70298333D02*
X90011771Y-70250714D01*
X90011771Y-70250714D02*
X89964152Y-70155476D01*
X89964152Y-70155476D02*
X89964152Y-70012619D01*
X89964152Y-70012619D02*
X90011771Y-69917380D01*
X90011771Y-69917380D02*
X90107009Y-69869761D01*
X90107009Y-69869761D02*
X90630819Y-69869761D01*
D11*
X117813500Y-78410000D02*
X90739580Y-78410000D01*
X117813500Y-69520000D02*
X90739580Y-69520000D01*
X91326000Y-78410000D02*
X91326000Y-69520000D01*
X91326000Y-78410000D02*
X91326000Y-69520000D01*
X91326000Y-78410000D02*
X90739579Y-77283496D01*
X91326000Y-78410000D02*
X91912421Y-77283496D01*
X91326000Y-69520000D02*
X91912421Y-70646504D01*
X91326000Y-69520000D02*
X90739579Y-70646504D01*
D10*
X173352619Y-148898390D02*
X173257381Y-148850771D01*
X173257381Y-148850771D02*
X173209762Y-148803152D01*
X173209762Y-148803152D02*
X173162143Y-148707914D01*
X173162143Y-148707914D02*
X173162143Y-148660295D01*
X173162143Y-148660295D02*
X173209762Y-148565057D01*
X173209762Y-148565057D02*
X173257381Y-148517438D01*
X173257381Y-148517438D02*
X173352619Y-148469819D01*
X173352619Y-148469819D02*
X173543095Y-148469819D01*
X173543095Y-148469819D02*
X173638333Y-148517438D01*
X173638333Y-148517438D02*
X173685952Y-148565057D01*
X173685952Y-148565057D02*
X173733571Y-148660295D01*
X173733571Y-148660295D02*
X173733571Y-148707914D01*
X173733571Y-148707914D02*
X173685952Y-148803152D01*
X173685952Y-148803152D02*
X173638333Y-148850771D01*
X173638333Y-148850771D02*
X173543095Y-148898390D01*
X173543095Y-148898390D02*
X173352619Y-148898390D01*
X173352619Y-148898390D02*
X173257381Y-148946009D01*
X173257381Y-148946009D02*
X173209762Y-148993628D01*
X173209762Y-148993628D02*
X173162143Y-149088866D01*
X173162143Y-149088866D02*
X173162143Y-149279342D01*
X173162143Y-149279342D02*
X173209762Y-149374580D01*
X173209762Y-149374580D02*
X173257381Y-149422200D01*
X173257381Y-149422200D02*
X173352619Y-149469819D01*
X173352619Y-149469819D02*
X173543095Y-149469819D01*
X173543095Y-149469819D02*
X173638333Y-149422200D01*
X173638333Y-149422200D02*
X173685952Y-149374580D01*
X173685952Y-149374580D02*
X173733571Y-149279342D01*
X173733571Y-149279342D02*
X173733571Y-149088866D01*
X173733571Y-149088866D02*
X173685952Y-148993628D01*
X173685952Y-148993628D02*
X173638333Y-148946009D01*
X173638333Y-148946009D02*
X173543095Y-148898390D01*
X174162143Y-149374580D02*
X174209762Y-149422200D01*
X174209762Y-149422200D02*
X174162143Y-149469819D01*
X174162143Y-149469819D02*
X174114524Y-149422200D01*
X174114524Y-149422200D02*
X174162143Y-149374580D01*
X174162143Y-149374580D02*
X174162143Y-149469819D01*
X174781190Y-148898390D02*
X174685952Y-148850771D01*
X174685952Y-148850771D02*
X174638333Y-148803152D01*
X174638333Y-148803152D02*
X174590714Y-148707914D01*
X174590714Y-148707914D02*
X174590714Y-148660295D01*
X174590714Y-148660295D02*
X174638333Y-148565057D01*
X174638333Y-148565057D02*
X174685952Y-148517438D01*
X174685952Y-148517438D02*
X174781190Y-148469819D01*
X174781190Y-148469819D02*
X174971666Y-148469819D01*
X174971666Y-148469819D02*
X175066904Y-148517438D01*
X175066904Y-148517438D02*
X175114523Y-148565057D01*
X175114523Y-148565057D02*
X175162142Y-148660295D01*
X175162142Y-148660295D02*
X175162142Y-148707914D01*
X175162142Y-148707914D02*
X175114523Y-148803152D01*
X175114523Y-148803152D02*
X175066904Y-148850771D01*
X175066904Y-148850771D02*
X174971666Y-148898390D01*
X174971666Y-148898390D02*
X174781190Y-148898390D01*
X174781190Y-148898390D02*
X174685952Y-148946009D01*
X174685952Y-148946009D02*
X174638333Y-148993628D01*
X174638333Y-148993628D02*
X174590714Y-149088866D01*
X174590714Y-149088866D02*
X174590714Y-149279342D01*
X174590714Y-149279342D02*
X174638333Y-149374580D01*
X174638333Y-149374580D02*
X174685952Y-149422200D01*
X174685952Y-149422200D02*
X174781190Y-149469819D01*
X174781190Y-149469819D02*
X174971666Y-149469819D01*
X174971666Y-149469819D02*
X175066904Y-149422200D01*
X175066904Y-149422200D02*
X175114523Y-149374580D01*
X175114523Y-149374580D02*
X175162142Y-149279342D01*
X175162142Y-149279342D02*
X175162142Y-149088866D01*
X175162142Y-149088866D02*
X175114523Y-148993628D01*
X175114523Y-148993628D02*
X175066904Y-148946009D01*
X175066904Y-148946009D02*
X174971666Y-148898390D01*
X175638333Y-149469819D02*
X175828809Y-149469819D01*
X175828809Y-149469819D02*
X175924047Y-149422200D01*
X175924047Y-149422200D02*
X175971666Y-149374580D01*
X175971666Y-149374580D02*
X176066904Y-149231723D01*
X176066904Y-149231723D02*
X176114523Y-149041247D01*
X176114523Y-149041247D02*
X176114523Y-148660295D01*
X176114523Y-148660295D02*
X176066904Y-148565057D01*
X176066904Y-148565057D02*
X176019285Y-148517438D01*
X176019285Y-148517438D02*
X175924047Y-148469819D01*
X175924047Y-148469819D02*
X175733571Y-148469819D01*
X175733571Y-148469819D02*
X175638333Y-148517438D01*
X175638333Y-148517438D02*
X175590714Y-148565057D01*
X175590714Y-148565057D02*
X175543095Y-148660295D01*
X175543095Y-148660295D02*
X175543095Y-148898390D01*
X175543095Y-148898390D02*
X175590714Y-148993628D01*
X175590714Y-148993628D02*
X175638333Y-149041247D01*
X175638333Y-149041247D02*
X175733571Y-149088866D01*
X175733571Y-149088866D02*
X175924047Y-149088866D01*
X175924047Y-149088866D02*
X176019285Y-149041247D01*
X176019285Y-149041247D02*
X176066904Y-148993628D01*
X176066904Y-148993628D02*
X176114523Y-148898390D01*
X176733571Y-148469819D02*
X176828809Y-148469819D01*
X176828809Y-148469819D02*
X176924047Y-148517438D01*
X176924047Y-148517438D02*
X176971666Y-148565057D01*
X176971666Y-148565057D02*
X177019285Y-148660295D01*
X177019285Y-148660295D02*
X177066904Y-148850771D01*
X177066904Y-148850771D02*
X177066904Y-149088866D01*
X177066904Y-149088866D02*
X177019285Y-149279342D01*
X177019285Y-149279342D02*
X176971666Y-149374580D01*
X176971666Y-149374580D02*
X176924047Y-149422200D01*
X176924047Y-149422200D02*
X176828809Y-149469819D01*
X176828809Y-149469819D02*
X176733571Y-149469819D01*
X176733571Y-149469819D02*
X176638333Y-149422200D01*
X176638333Y-149422200D02*
X176590714Y-149374580D01*
X176590714Y-149374580D02*
X176543095Y-149279342D01*
X176543095Y-149279342D02*
X176495476Y-149088866D01*
X176495476Y-149088866D02*
X176495476Y-148850771D01*
X176495476Y-148850771D02*
X176543095Y-148660295D01*
X176543095Y-148660295D02*
X176590714Y-148565057D01*
X176590714Y-148565057D02*
X176638333Y-148517438D01*
X176638333Y-148517438D02*
X176733571Y-148469819D01*
X177685952Y-148469819D02*
X177781190Y-148469819D01*
X177781190Y-148469819D02*
X177876428Y-148517438D01*
X177876428Y-148517438D02*
X177924047Y-148565057D01*
X177924047Y-148565057D02*
X177971666Y-148660295D01*
X177971666Y-148660295D02*
X178019285Y-148850771D01*
X178019285Y-148850771D02*
X178019285Y-149088866D01*
X178019285Y-149088866D02*
X177971666Y-149279342D01*
X177971666Y-149279342D02*
X177924047Y-149374580D01*
X177924047Y-149374580D02*
X177876428Y-149422200D01*
X177876428Y-149422200D02*
X177781190Y-149469819D01*
X177781190Y-149469819D02*
X177685952Y-149469819D01*
X177685952Y-149469819D02*
X177590714Y-149422200D01*
X177590714Y-149422200D02*
X177543095Y-149374580D01*
X177543095Y-149374580D02*
X177495476Y-149279342D01*
X177495476Y-149279342D02*
X177447857Y-149088866D01*
X177447857Y-149088866D02*
X177447857Y-148850771D01*
X177447857Y-148850771D02*
X177495476Y-148660295D01*
X177495476Y-148660295D02*
X177543095Y-148565057D01*
X177543095Y-148565057D02*
X177590714Y-148517438D01*
X177590714Y-148517438D02*
X177685952Y-148469819D01*
X179209762Y-149469819D02*
X179209762Y-148803152D01*
X179209762Y-148898390D02*
X179257381Y-148850771D01*
X179257381Y-148850771D02*
X179352619Y-148803152D01*
X179352619Y-148803152D02*
X179495476Y-148803152D01*
X179495476Y-148803152D02*
X179590714Y-148850771D01*
X179590714Y-148850771D02*
X179638333Y-148946009D01*
X179638333Y-148946009D02*
X179638333Y-149469819D01*
X179638333Y-148946009D02*
X179685952Y-148850771D01*
X179685952Y-148850771D02*
X179781190Y-148803152D01*
X179781190Y-148803152D02*
X179924047Y-148803152D01*
X179924047Y-148803152D02*
X180019286Y-148850771D01*
X180019286Y-148850771D02*
X180066905Y-148946009D01*
X180066905Y-148946009D02*
X180066905Y-149469819D01*
X180543095Y-149469819D02*
X180543095Y-148803152D01*
X180543095Y-148898390D02*
X180590714Y-148850771D01*
X180590714Y-148850771D02*
X180685952Y-148803152D01*
X180685952Y-148803152D02*
X180828809Y-148803152D01*
X180828809Y-148803152D02*
X180924047Y-148850771D01*
X180924047Y-148850771D02*
X180971666Y-148946009D01*
X180971666Y-148946009D02*
X180971666Y-149469819D01*
X180971666Y-148946009D02*
X181019285Y-148850771D01*
X181019285Y-148850771D02*
X181114523Y-148803152D01*
X181114523Y-148803152D02*
X181257380Y-148803152D01*
X181257380Y-148803152D02*
X181352619Y-148850771D01*
X181352619Y-148850771D02*
X181400238Y-148946009D01*
X181400238Y-148946009D02*
X181400238Y-149469819D01*
D11*
X172860000Y-122090000D02*
X172860000Y-150751420D01*
X181750000Y-122090000D02*
X181750000Y-150751420D01*
X172860000Y-150165000D02*
X181750000Y-150165000D01*
X172860000Y-150165000D02*
X181750000Y-150165000D01*
X172860000Y-150165000D02*
X173986504Y-149578579D01*
X172860000Y-150165000D02*
X173986504Y-150751421D01*
X181750000Y-150165000D02*
X180623496Y-150751421D01*
X181750000Y-150165000D02*
X180623496Y-149578579D01*
D10*
X109852619Y-148898390D02*
X109757381Y-148850771D01*
X109757381Y-148850771D02*
X109709762Y-148803152D01*
X109709762Y-148803152D02*
X109662143Y-148707914D01*
X109662143Y-148707914D02*
X109662143Y-148660295D01*
X109662143Y-148660295D02*
X109709762Y-148565057D01*
X109709762Y-148565057D02*
X109757381Y-148517438D01*
X109757381Y-148517438D02*
X109852619Y-148469819D01*
X109852619Y-148469819D02*
X110043095Y-148469819D01*
X110043095Y-148469819D02*
X110138333Y-148517438D01*
X110138333Y-148517438D02*
X110185952Y-148565057D01*
X110185952Y-148565057D02*
X110233571Y-148660295D01*
X110233571Y-148660295D02*
X110233571Y-148707914D01*
X110233571Y-148707914D02*
X110185952Y-148803152D01*
X110185952Y-148803152D02*
X110138333Y-148850771D01*
X110138333Y-148850771D02*
X110043095Y-148898390D01*
X110043095Y-148898390D02*
X109852619Y-148898390D01*
X109852619Y-148898390D02*
X109757381Y-148946009D01*
X109757381Y-148946009D02*
X109709762Y-148993628D01*
X109709762Y-148993628D02*
X109662143Y-149088866D01*
X109662143Y-149088866D02*
X109662143Y-149279342D01*
X109662143Y-149279342D02*
X109709762Y-149374580D01*
X109709762Y-149374580D02*
X109757381Y-149422200D01*
X109757381Y-149422200D02*
X109852619Y-149469819D01*
X109852619Y-149469819D02*
X110043095Y-149469819D01*
X110043095Y-149469819D02*
X110138333Y-149422200D01*
X110138333Y-149422200D02*
X110185952Y-149374580D01*
X110185952Y-149374580D02*
X110233571Y-149279342D01*
X110233571Y-149279342D02*
X110233571Y-149088866D01*
X110233571Y-149088866D02*
X110185952Y-148993628D01*
X110185952Y-148993628D02*
X110138333Y-148946009D01*
X110138333Y-148946009D02*
X110043095Y-148898390D01*
X110662143Y-149374580D02*
X110709762Y-149422200D01*
X110709762Y-149422200D02*
X110662143Y-149469819D01*
X110662143Y-149469819D02*
X110614524Y-149422200D01*
X110614524Y-149422200D02*
X110662143Y-149374580D01*
X110662143Y-149374580D02*
X110662143Y-149469819D01*
X111281190Y-148898390D02*
X111185952Y-148850771D01*
X111185952Y-148850771D02*
X111138333Y-148803152D01*
X111138333Y-148803152D02*
X111090714Y-148707914D01*
X111090714Y-148707914D02*
X111090714Y-148660295D01*
X111090714Y-148660295D02*
X111138333Y-148565057D01*
X111138333Y-148565057D02*
X111185952Y-148517438D01*
X111185952Y-148517438D02*
X111281190Y-148469819D01*
X111281190Y-148469819D02*
X111471666Y-148469819D01*
X111471666Y-148469819D02*
X111566904Y-148517438D01*
X111566904Y-148517438D02*
X111614523Y-148565057D01*
X111614523Y-148565057D02*
X111662142Y-148660295D01*
X111662142Y-148660295D02*
X111662142Y-148707914D01*
X111662142Y-148707914D02*
X111614523Y-148803152D01*
X111614523Y-148803152D02*
X111566904Y-148850771D01*
X111566904Y-148850771D02*
X111471666Y-148898390D01*
X111471666Y-148898390D02*
X111281190Y-148898390D01*
X111281190Y-148898390D02*
X111185952Y-148946009D01*
X111185952Y-148946009D02*
X111138333Y-148993628D01*
X111138333Y-148993628D02*
X111090714Y-149088866D01*
X111090714Y-149088866D02*
X111090714Y-149279342D01*
X111090714Y-149279342D02*
X111138333Y-149374580D01*
X111138333Y-149374580D02*
X111185952Y-149422200D01*
X111185952Y-149422200D02*
X111281190Y-149469819D01*
X111281190Y-149469819D02*
X111471666Y-149469819D01*
X111471666Y-149469819D02*
X111566904Y-149422200D01*
X111566904Y-149422200D02*
X111614523Y-149374580D01*
X111614523Y-149374580D02*
X111662142Y-149279342D01*
X111662142Y-149279342D02*
X111662142Y-149088866D01*
X111662142Y-149088866D02*
X111614523Y-148993628D01*
X111614523Y-148993628D02*
X111566904Y-148946009D01*
X111566904Y-148946009D02*
X111471666Y-148898390D01*
X112138333Y-149469819D02*
X112328809Y-149469819D01*
X112328809Y-149469819D02*
X112424047Y-149422200D01*
X112424047Y-149422200D02*
X112471666Y-149374580D01*
X112471666Y-149374580D02*
X112566904Y-149231723D01*
X112566904Y-149231723D02*
X112614523Y-149041247D01*
X112614523Y-149041247D02*
X112614523Y-148660295D01*
X112614523Y-148660295D02*
X112566904Y-148565057D01*
X112566904Y-148565057D02*
X112519285Y-148517438D01*
X112519285Y-148517438D02*
X112424047Y-148469819D01*
X112424047Y-148469819D02*
X112233571Y-148469819D01*
X112233571Y-148469819D02*
X112138333Y-148517438D01*
X112138333Y-148517438D02*
X112090714Y-148565057D01*
X112090714Y-148565057D02*
X112043095Y-148660295D01*
X112043095Y-148660295D02*
X112043095Y-148898390D01*
X112043095Y-148898390D02*
X112090714Y-148993628D01*
X112090714Y-148993628D02*
X112138333Y-149041247D01*
X112138333Y-149041247D02*
X112233571Y-149088866D01*
X112233571Y-149088866D02*
X112424047Y-149088866D01*
X112424047Y-149088866D02*
X112519285Y-149041247D01*
X112519285Y-149041247D02*
X112566904Y-148993628D01*
X112566904Y-148993628D02*
X112614523Y-148898390D01*
X113233571Y-148469819D02*
X113328809Y-148469819D01*
X113328809Y-148469819D02*
X113424047Y-148517438D01*
X113424047Y-148517438D02*
X113471666Y-148565057D01*
X113471666Y-148565057D02*
X113519285Y-148660295D01*
X113519285Y-148660295D02*
X113566904Y-148850771D01*
X113566904Y-148850771D02*
X113566904Y-149088866D01*
X113566904Y-149088866D02*
X113519285Y-149279342D01*
X113519285Y-149279342D02*
X113471666Y-149374580D01*
X113471666Y-149374580D02*
X113424047Y-149422200D01*
X113424047Y-149422200D02*
X113328809Y-149469819D01*
X113328809Y-149469819D02*
X113233571Y-149469819D01*
X113233571Y-149469819D02*
X113138333Y-149422200D01*
X113138333Y-149422200D02*
X113090714Y-149374580D01*
X113090714Y-149374580D02*
X113043095Y-149279342D01*
X113043095Y-149279342D02*
X112995476Y-149088866D01*
X112995476Y-149088866D02*
X112995476Y-148850771D01*
X112995476Y-148850771D02*
X113043095Y-148660295D01*
X113043095Y-148660295D02*
X113090714Y-148565057D01*
X113090714Y-148565057D02*
X113138333Y-148517438D01*
X113138333Y-148517438D02*
X113233571Y-148469819D01*
X114185952Y-148469819D02*
X114281190Y-148469819D01*
X114281190Y-148469819D02*
X114376428Y-148517438D01*
X114376428Y-148517438D02*
X114424047Y-148565057D01*
X114424047Y-148565057D02*
X114471666Y-148660295D01*
X114471666Y-148660295D02*
X114519285Y-148850771D01*
X114519285Y-148850771D02*
X114519285Y-149088866D01*
X114519285Y-149088866D02*
X114471666Y-149279342D01*
X114471666Y-149279342D02*
X114424047Y-149374580D01*
X114424047Y-149374580D02*
X114376428Y-149422200D01*
X114376428Y-149422200D02*
X114281190Y-149469819D01*
X114281190Y-149469819D02*
X114185952Y-149469819D01*
X114185952Y-149469819D02*
X114090714Y-149422200D01*
X114090714Y-149422200D02*
X114043095Y-149374580D01*
X114043095Y-149374580D02*
X113995476Y-149279342D01*
X113995476Y-149279342D02*
X113947857Y-149088866D01*
X113947857Y-149088866D02*
X113947857Y-148850771D01*
X113947857Y-148850771D02*
X113995476Y-148660295D01*
X113995476Y-148660295D02*
X114043095Y-148565057D01*
X114043095Y-148565057D02*
X114090714Y-148517438D01*
X114090714Y-148517438D02*
X114185952Y-148469819D01*
X115709762Y-149469819D02*
X115709762Y-148803152D01*
X115709762Y-148898390D02*
X115757381Y-148850771D01*
X115757381Y-148850771D02*
X115852619Y-148803152D01*
X115852619Y-148803152D02*
X115995476Y-148803152D01*
X115995476Y-148803152D02*
X116090714Y-148850771D01*
X116090714Y-148850771D02*
X116138333Y-148946009D01*
X116138333Y-148946009D02*
X116138333Y-149469819D01*
X116138333Y-148946009D02*
X116185952Y-148850771D01*
X116185952Y-148850771D02*
X116281190Y-148803152D01*
X116281190Y-148803152D02*
X116424047Y-148803152D01*
X116424047Y-148803152D02*
X116519286Y-148850771D01*
X116519286Y-148850771D02*
X116566905Y-148946009D01*
X116566905Y-148946009D02*
X116566905Y-149469819D01*
X117043095Y-149469819D02*
X117043095Y-148803152D01*
X117043095Y-148898390D02*
X117090714Y-148850771D01*
X117090714Y-148850771D02*
X117185952Y-148803152D01*
X117185952Y-148803152D02*
X117328809Y-148803152D01*
X117328809Y-148803152D02*
X117424047Y-148850771D01*
X117424047Y-148850771D02*
X117471666Y-148946009D01*
X117471666Y-148946009D02*
X117471666Y-149469819D01*
X117471666Y-148946009D02*
X117519285Y-148850771D01*
X117519285Y-148850771D02*
X117614523Y-148803152D01*
X117614523Y-148803152D02*
X117757380Y-148803152D01*
X117757380Y-148803152D02*
X117852619Y-148850771D01*
X117852619Y-148850771D02*
X117900238Y-148946009D01*
X117900238Y-148946009D02*
X117900238Y-149469819D01*
D11*
X109360000Y-122090000D02*
X109360000Y-150751420D01*
X118250000Y-122090000D02*
X118250000Y-150751420D01*
X109360000Y-150165000D02*
X118250000Y-150165000D01*
X109360000Y-150165000D02*
X118250000Y-150165000D01*
X109360000Y-150165000D02*
X110486504Y-149578579D01*
X109360000Y-150165000D02*
X110486504Y-150751421D01*
X118250000Y-150165000D02*
X117123496Y-150751421D01*
X118250000Y-150165000D02*
X117123496Y-149578579D01*
D10*
X84804819Y-107952856D02*
X84804819Y-108143332D01*
X84804819Y-108143332D02*
X84852438Y-108238570D01*
X84852438Y-108238570D02*
X84900057Y-108286189D01*
X84900057Y-108286189D02*
X85042914Y-108381427D01*
X85042914Y-108381427D02*
X85233390Y-108429046D01*
X85233390Y-108429046D02*
X85614342Y-108429046D01*
X85614342Y-108429046D02*
X85709580Y-108381427D01*
X85709580Y-108381427D02*
X85757200Y-108333808D01*
X85757200Y-108333808D02*
X85804819Y-108238570D01*
X85804819Y-108238570D02*
X85804819Y-108048094D01*
X85804819Y-108048094D02*
X85757200Y-107952856D01*
X85757200Y-107952856D02*
X85709580Y-107905237D01*
X85709580Y-107905237D02*
X85614342Y-107857618D01*
X85614342Y-107857618D02*
X85376247Y-107857618D01*
X85376247Y-107857618D02*
X85281009Y-107905237D01*
X85281009Y-107905237D02*
X85233390Y-107952856D01*
X85233390Y-107952856D02*
X85185771Y-108048094D01*
X85185771Y-108048094D02*
X85185771Y-108238570D01*
X85185771Y-108238570D02*
X85233390Y-108333808D01*
X85233390Y-108333808D02*
X85281009Y-108381427D01*
X85281009Y-108381427D02*
X85376247Y-108429046D01*
X84804819Y-107238570D02*
X84804819Y-107143332D01*
X84804819Y-107143332D02*
X84852438Y-107048094D01*
X84852438Y-107048094D02*
X84900057Y-107000475D01*
X84900057Y-107000475D02*
X84995295Y-106952856D01*
X84995295Y-106952856D02*
X85185771Y-106905237D01*
X85185771Y-106905237D02*
X85423866Y-106905237D01*
X85423866Y-106905237D02*
X85614342Y-106952856D01*
X85614342Y-106952856D02*
X85709580Y-107000475D01*
X85709580Y-107000475D02*
X85757200Y-107048094D01*
X85757200Y-107048094D02*
X85804819Y-107143332D01*
X85804819Y-107143332D02*
X85804819Y-107238570D01*
X85804819Y-107238570D02*
X85757200Y-107333808D01*
X85757200Y-107333808D02*
X85709580Y-107381427D01*
X85709580Y-107381427D02*
X85614342Y-107429046D01*
X85614342Y-107429046D02*
X85423866Y-107476665D01*
X85423866Y-107476665D02*
X85185771Y-107476665D01*
X85185771Y-107476665D02*
X84995295Y-107429046D01*
X84995295Y-107429046D02*
X84900057Y-107381427D01*
X84900057Y-107381427D02*
X84852438Y-107333808D01*
X84852438Y-107333808D02*
X84804819Y-107238570D01*
X85709580Y-106476665D02*
X85757200Y-106429046D01*
X85757200Y-106429046D02*
X85804819Y-106476665D01*
X85804819Y-106476665D02*
X85757200Y-106524284D01*
X85757200Y-106524284D02*
X85709580Y-106476665D01*
X85709580Y-106476665D02*
X85804819Y-106476665D01*
X85804819Y-105952856D02*
X85804819Y-105762380D01*
X85804819Y-105762380D02*
X85757200Y-105667142D01*
X85757200Y-105667142D02*
X85709580Y-105619523D01*
X85709580Y-105619523D02*
X85566723Y-105524285D01*
X85566723Y-105524285D02*
X85376247Y-105476666D01*
X85376247Y-105476666D02*
X84995295Y-105476666D01*
X84995295Y-105476666D02*
X84900057Y-105524285D01*
X84900057Y-105524285D02*
X84852438Y-105571904D01*
X84852438Y-105571904D02*
X84804819Y-105667142D01*
X84804819Y-105667142D02*
X84804819Y-105857618D01*
X84804819Y-105857618D02*
X84852438Y-105952856D01*
X84852438Y-105952856D02*
X84900057Y-106000475D01*
X84900057Y-106000475D02*
X84995295Y-106048094D01*
X84995295Y-106048094D02*
X85233390Y-106048094D01*
X85233390Y-106048094D02*
X85328628Y-106000475D01*
X85328628Y-106000475D02*
X85376247Y-105952856D01*
X85376247Y-105952856D02*
X85423866Y-105857618D01*
X85423866Y-105857618D02*
X85423866Y-105667142D01*
X85423866Y-105667142D02*
X85376247Y-105571904D01*
X85376247Y-105571904D02*
X85328628Y-105524285D01*
X85328628Y-105524285D02*
X85233390Y-105476666D01*
X84804819Y-104619523D02*
X84804819Y-104809999D01*
X84804819Y-104809999D02*
X84852438Y-104905237D01*
X84852438Y-104905237D02*
X84900057Y-104952856D01*
X84900057Y-104952856D02*
X85042914Y-105048094D01*
X85042914Y-105048094D02*
X85233390Y-105095713D01*
X85233390Y-105095713D02*
X85614342Y-105095713D01*
X85614342Y-105095713D02*
X85709580Y-105048094D01*
X85709580Y-105048094D02*
X85757200Y-105000475D01*
X85757200Y-105000475D02*
X85804819Y-104905237D01*
X85804819Y-104905237D02*
X85804819Y-104714761D01*
X85804819Y-104714761D02*
X85757200Y-104619523D01*
X85757200Y-104619523D02*
X85709580Y-104571904D01*
X85709580Y-104571904D02*
X85614342Y-104524285D01*
X85614342Y-104524285D02*
X85376247Y-104524285D01*
X85376247Y-104524285D02*
X85281009Y-104571904D01*
X85281009Y-104571904D02*
X85233390Y-104619523D01*
X85233390Y-104619523D02*
X85185771Y-104714761D01*
X85185771Y-104714761D02*
X85185771Y-104905237D01*
X85185771Y-104905237D02*
X85233390Y-105000475D01*
X85233390Y-105000475D02*
X85281009Y-105048094D01*
X85281009Y-105048094D02*
X85376247Y-105095713D01*
X84804819Y-103905237D02*
X84804819Y-103809999D01*
X84804819Y-103809999D02*
X84852438Y-103714761D01*
X84852438Y-103714761D02*
X84900057Y-103667142D01*
X84900057Y-103667142D02*
X84995295Y-103619523D01*
X84995295Y-103619523D02*
X85185771Y-103571904D01*
X85185771Y-103571904D02*
X85423866Y-103571904D01*
X85423866Y-103571904D02*
X85614342Y-103619523D01*
X85614342Y-103619523D02*
X85709580Y-103667142D01*
X85709580Y-103667142D02*
X85757200Y-103714761D01*
X85757200Y-103714761D02*
X85804819Y-103809999D01*
X85804819Y-103809999D02*
X85804819Y-103905237D01*
X85804819Y-103905237D02*
X85757200Y-104000475D01*
X85757200Y-104000475D02*
X85709580Y-104048094D01*
X85709580Y-104048094D02*
X85614342Y-104095713D01*
X85614342Y-104095713D02*
X85423866Y-104143332D01*
X85423866Y-104143332D02*
X85185771Y-104143332D01*
X85185771Y-104143332D02*
X84995295Y-104095713D01*
X84995295Y-104095713D02*
X84900057Y-104048094D01*
X84900057Y-104048094D02*
X84852438Y-104000475D01*
X84852438Y-104000475D02*
X84804819Y-103905237D01*
X84804819Y-102952856D02*
X84804819Y-102857618D01*
X84804819Y-102857618D02*
X84852438Y-102762380D01*
X84852438Y-102762380D02*
X84900057Y-102714761D01*
X84900057Y-102714761D02*
X84995295Y-102667142D01*
X84995295Y-102667142D02*
X85185771Y-102619523D01*
X85185771Y-102619523D02*
X85423866Y-102619523D01*
X85423866Y-102619523D02*
X85614342Y-102667142D01*
X85614342Y-102667142D02*
X85709580Y-102714761D01*
X85709580Y-102714761D02*
X85757200Y-102762380D01*
X85757200Y-102762380D02*
X85804819Y-102857618D01*
X85804819Y-102857618D02*
X85804819Y-102952856D01*
X85804819Y-102952856D02*
X85757200Y-103048094D01*
X85757200Y-103048094D02*
X85709580Y-103095713D01*
X85709580Y-103095713D02*
X85614342Y-103143332D01*
X85614342Y-103143332D02*
X85423866Y-103190951D01*
X85423866Y-103190951D02*
X85185771Y-103190951D01*
X85185771Y-103190951D02*
X84995295Y-103143332D01*
X84995295Y-103143332D02*
X84900057Y-103095713D01*
X84900057Y-103095713D02*
X84852438Y-103048094D01*
X84852438Y-103048094D02*
X84804819Y-102952856D01*
X85804819Y-101429046D02*
X85138152Y-101429046D01*
X85233390Y-101429046D02*
X85185771Y-101381427D01*
X85185771Y-101381427D02*
X85138152Y-101286189D01*
X85138152Y-101286189D02*
X85138152Y-101143332D01*
X85138152Y-101143332D02*
X85185771Y-101048094D01*
X85185771Y-101048094D02*
X85281009Y-101000475D01*
X85281009Y-101000475D02*
X85804819Y-101000475D01*
X85281009Y-101000475D02*
X85185771Y-100952856D01*
X85185771Y-100952856D02*
X85138152Y-100857618D01*
X85138152Y-100857618D02*
X85138152Y-100714761D01*
X85138152Y-100714761D02*
X85185771Y-100619522D01*
X85185771Y-100619522D02*
X85281009Y-100571903D01*
X85281009Y-100571903D02*
X85804819Y-100571903D01*
X85804819Y-100095713D02*
X85138152Y-100095713D01*
X85233390Y-100095713D02*
X85185771Y-100048094D01*
X85185771Y-100048094D02*
X85138152Y-99952856D01*
X85138152Y-99952856D02*
X85138152Y-99809999D01*
X85138152Y-99809999D02*
X85185771Y-99714761D01*
X85185771Y-99714761D02*
X85281009Y-99667142D01*
X85281009Y-99667142D02*
X85804819Y-99667142D01*
X85281009Y-99667142D02*
X85185771Y-99619523D01*
X85185771Y-99619523D02*
X85138152Y-99524285D01*
X85138152Y-99524285D02*
X85138152Y-99381428D01*
X85138152Y-99381428D02*
X85185771Y-99286189D01*
X85185771Y-99286189D02*
X85281009Y-99238570D01*
X85281009Y-99238570D02*
X85804819Y-99238570D01*
D11*
X103780000Y-73330000D02*
X85913580Y-73330000D01*
X103780000Y-134290000D02*
X85913580Y-134290000D01*
X86500000Y-73330000D02*
X86500000Y-134290000D01*
X86500000Y-73330000D02*
X86500000Y-134290000D01*
X86500000Y-73330000D02*
X87086421Y-74456504D01*
X86500000Y-73330000D02*
X85913579Y-74456504D01*
X86500000Y-134290000D02*
X85913579Y-133163496D01*
X86500000Y-134290000D02*
X87086421Y-133163496D01*
D10*
X90059390Y-86807380D02*
X90011771Y-86902618D01*
X90011771Y-86902618D02*
X89964152Y-86950237D01*
X89964152Y-86950237D02*
X89868914Y-86997856D01*
X89868914Y-86997856D02*
X89821295Y-86997856D01*
X89821295Y-86997856D02*
X89726057Y-86950237D01*
X89726057Y-86950237D02*
X89678438Y-86902618D01*
X89678438Y-86902618D02*
X89630819Y-86807380D01*
X89630819Y-86807380D02*
X89630819Y-86616904D01*
X89630819Y-86616904D02*
X89678438Y-86521666D01*
X89678438Y-86521666D02*
X89726057Y-86474047D01*
X89726057Y-86474047D02*
X89821295Y-86426428D01*
X89821295Y-86426428D02*
X89868914Y-86426428D01*
X89868914Y-86426428D02*
X89964152Y-86474047D01*
X89964152Y-86474047D02*
X90011771Y-86521666D01*
X90011771Y-86521666D02*
X90059390Y-86616904D01*
X90059390Y-86616904D02*
X90059390Y-86807380D01*
X90059390Y-86807380D02*
X90107009Y-86902618D01*
X90107009Y-86902618D02*
X90154628Y-86950237D01*
X90154628Y-86950237D02*
X90249866Y-86997856D01*
X90249866Y-86997856D02*
X90440342Y-86997856D01*
X90440342Y-86997856D02*
X90535580Y-86950237D01*
X90535580Y-86950237D02*
X90583200Y-86902618D01*
X90583200Y-86902618D02*
X90630819Y-86807380D01*
X90630819Y-86807380D02*
X90630819Y-86616904D01*
X90630819Y-86616904D02*
X90583200Y-86521666D01*
X90583200Y-86521666D02*
X90535580Y-86474047D01*
X90535580Y-86474047D02*
X90440342Y-86426428D01*
X90440342Y-86426428D02*
X90249866Y-86426428D01*
X90249866Y-86426428D02*
X90154628Y-86474047D01*
X90154628Y-86474047D02*
X90107009Y-86521666D01*
X90107009Y-86521666D02*
X90059390Y-86616904D01*
X90535580Y-85997856D02*
X90583200Y-85950237D01*
X90583200Y-85950237D02*
X90630819Y-85997856D01*
X90630819Y-85997856D02*
X90583200Y-86045475D01*
X90583200Y-86045475D02*
X90535580Y-85997856D01*
X90535580Y-85997856D02*
X90630819Y-85997856D01*
X90059390Y-85378809D02*
X90011771Y-85474047D01*
X90011771Y-85474047D02*
X89964152Y-85521666D01*
X89964152Y-85521666D02*
X89868914Y-85569285D01*
X89868914Y-85569285D02*
X89821295Y-85569285D01*
X89821295Y-85569285D02*
X89726057Y-85521666D01*
X89726057Y-85521666D02*
X89678438Y-85474047D01*
X89678438Y-85474047D02*
X89630819Y-85378809D01*
X89630819Y-85378809D02*
X89630819Y-85188333D01*
X89630819Y-85188333D02*
X89678438Y-85093095D01*
X89678438Y-85093095D02*
X89726057Y-85045476D01*
X89726057Y-85045476D02*
X89821295Y-84997857D01*
X89821295Y-84997857D02*
X89868914Y-84997857D01*
X89868914Y-84997857D02*
X89964152Y-85045476D01*
X89964152Y-85045476D02*
X90011771Y-85093095D01*
X90011771Y-85093095D02*
X90059390Y-85188333D01*
X90059390Y-85188333D02*
X90059390Y-85378809D01*
X90059390Y-85378809D02*
X90107009Y-85474047D01*
X90107009Y-85474047D02*
X90154628Y-85521666D01*
X90154628Y-85521666D02*
X90249866Y-85569285D01*
X90249866Y-85569285D02*
X90440342Y-85569285D01*
X90440342Y-85569285D02*
X90535580Y-85521666D01*
X90535580Y-85521666D02*
X90583200Y-85474047D01*
X90583200Y-85474047D02*
X90630819Y-85378809D01*
X90630819Y-85378809D02*
X90630819Y-85188333D01*
X90630819Y-85188333D02*
X90583200Y-85093095D01*
X90583200Y-85093095D02*
X90535580Y-85045476D01*
X90535580Y-85045476D02*
X90440342Y-84997857D01*
X90440342Y-84997857D02*
X90249866Y-84997857D01*
X90249866Y-84997857D02*
X90154628Y-85045476D01*
X90154628Y-85045476D02*
X90107009Y-85093095D01*
X90107009Y-85093095D02*
X90059390Y-85188333D01*
X90630819Y-84521666D02*
X90630819Y-84331190D01*
X90630819Y-84331190D02*
X90583200Y-84235952D01*
X90583200Y-84235952D02*
X90535580Y-84188333D01*
X90535580Y-84188333D02*
X90392723Y-84093095D01*
X90392723Y-84093095D02*
X90202247Y-84045476D01*
X90202247Y-84045476D02*
X89821295Y-84045476D01*
X89821295Y-84045476D02*
X89726057Y-84093095D01*
X89726057Y-84093095D02*
X89678438Y-84140714D01*
X89678438Y-84140714D02*
X89630819Y-84235952D01*
X89630819Y-84235952D02*
X89630819Y-84426428D01*
X89630819Y-84426428D02*
X89678438Y-84521666D01*
X89678438Y-84521666D02*
X89726057Y-84569285D01*
X89726057Y-84569285D02*
X89821295Y-84616904D01*
X89821295Y-84616904D02*
X90059390Y-84616904D01*
X90059390Y-84616904D02*
X90154628Y-84569285D01*
X90154628Y-84569285D02*
X90202247Y-84521666D01*
X90202247Y-84521666D02*
X90249866Y-84426428D01*
X90249866Y-84426428D02*
X90249866Y-84235952D01*
X90249866Y-84235952D02*
X90202247Y-84140714D01*
X90202247Y-84140714D02*
X90154628Y-84093095D01*
X90154628Y-84093095D02*
X90059390Y-84045476D01*
X89630819Y-83426428D02*
X89630819Y-83331190D01*
X89630819Y-83331190D02*
X89678438Y-83235952D01*
X89678438Y-83235952D02*
X89726057Y-83188333D01*
X89726057Y-83188333D02*
X89821295Y-83140714D01*
X89821295Y-83140714D02*
X90011771Y-83093095D01*
X90011771Y-83093095D02*
X90249866Y-83093095D01*
X90249866Y-83093095D02*
X90440342Y-83140714D01*
X90440342Y-83140714D02*
X90535580Y-83188333D01*
X90535580Y-83188333D02*
X90583200Y-83235952D01*
X90583200Y-83235952D02*
X90630819Y-83331190D01*
X90630819Y-83331190D02*
X90630819Y-83426428D01*
X90630819Y-83426428D02*
X90583200Y-83521666D01*
X90583200Y-83521666D02*
X90535580Y-83569285D01*
X90535580Y-83569285D02*
X90440342Y-83616904D01*
X90440342Y-83616904D02*
X90249866Y-83664523D01*
X90249866Y-83664523D02*
X90011771Y-83664523D01*
X90011771Y-83664523D02*
X89821295Y-83616904D01*
X89821295Y-83616904D02*
X89726057Y-83569285D01*
X89726057Y-83569285D02*
X89678438Y-83521666D01*
X89678438Y-83521666D02*
X89630819Y-83426428D01*
X89630819Y-82474047D02*
X89630819Y-82378809D01*
X89630819Y-82378809D02*
X89678438Y-82283571D01*
X89678438Y-82283571D02*
X89726057Y-82235952D01*
X89726057Y-82235952D02*
X89821295Y-82188333D01*
X89821295Y-82188333D02*
X90011771Y-82140714D01*
X90011771Y-82140714D02*
X90249866Y-82140714D01*
X90249866Y-82140714D02*
X90440342Y-82188333D01*
X90440342Y-82188333D02*
X90535580Y-82235952D01*
X90535580Y-82235952D02*
X90583200Y-82283571D01*
X90583200Y-82283571D02*
X90630819Y-82378809D01*
X90630819Y-82378809D02*
X90630819Y-82474047D01*
X90630819Y-82474047D02*
X90583200Y-82569285D01*
X90583200Y-82569285D02*
X90535580Y-82616904D01*
X90535580Y-82616904D02*
X90440342Y-82664523D01*
X90440342Y-82664523D02*
X90249866Y-82712142D01*
X90249866Y-82712142D02*
X90011771Y-82712142D01*
X90011771Y-82712142D02*
X89821295Y-82664523D01*
X89821295Y-82664523D02*
X89726057Y-82616904D01*
X89726057Y-82616904D02*
X89678438Y-82569285D01*
X89678438Y-82569285D02*
X89630819Y-82474047D01*
X90630819Y-80950237D02*
X89964152Y-80950237D01*
X90059390Y-80950237D02*
X90011771Y-80902618D01*
X90011771Y-80902618D02*
X89964152Y-80807380D01*
X89964152Y-80807380D02*
X89964152Y-80664523D01*
X89964152Y-80664523D02*
X90011771Y-80569285D01*
X90011771Y-80569285D02*
X90107009Y-80521666D01*
X90107009Y-80521666D02*
X90630819Y-80521666D01*
X90107009Y-80521666D02*
X90011771Y-80474047D01*
X90011771Y-80474047D02*
X89964152Y-80378809D01*
X89964152Y-80378809D02*
X89964152Y-80235952D01*
X89964152Y-80235952D02*
X90011771Y-80140713D01*
X90011771Y-80140713D02*
X90107009Y-80093094D01*
X90107009Y-80093094D02*
X90630819Y-80093094D01*
X90630819Y-79616904D02*
X89964152Y-79616904D01*
X90059390Y-79616904D02*
X90011771Y-79569285D01*
X90011771Y-79569285D02*
X89964152Y-79474047D01*
X89964152Y-79474047D02*
X89964152Y-79331190D01*
X89964152Y-79331190D02*
X90011771Y-79235952D01*
X90011771Y-79235952D02*
X90107009Y-79188333D01*
X90107009Y-79188333D02*
X90630819Y-79188333D01*
X90107009Y-79188333D02*
X90011771Y-79140714D01*
X90011771Y-79140714D02*
X89964152Y-79045476D01*
X89964152Y-79045476D02*
X89964152Y-78902619D01*
X89964152Y-78902619D02*
X90011771Y-78807380D01*
X90011771Y-78807380D02*
X90107009Y-78759761D01*
X90107009Y-78759761D02*
X90630819Y-78759761D01*
D11*
X117813500Y-78410000D02*
X90739580Y-78410000D01*
X117813500Y-87300000D02*
X90739580Y-87300000D01*
X91326000Y-78410000D02*
X91326000Y-87300000D01*
X91326000Y-78410000D02*
X91326000Y-87300000D01*
X91326000Y-78410000D02*
X91912421Y-79536504D01*
X91326000Y-78410000D02*
X90739579Y-79536504D01*
X91326000Y-87300000D02*
X90739579Y-86173496D01*
X91326000Y-87300000D02*
X91912421Y-86173496D01*
D10*
X145857143Y-151327319D02*
X145666667Y-151327319D01*
X145666667Y-151327319D02*
X145571429Y-151374938D01*
X145571429Y-151374938D02*
X145523810Y-151422557D01*
X145523810Y-151422557D02*
X145428572Y-151565414D01*
X145428572Y-151565414D02*
X145380953Y-151755890D01*
X145380953Y-151755890D02*
X145380953Y-152136842D01*
X145380953Y-152136842D02*
X145428572Y-152232080D01*
X145428572Y-152232080D02*
X145476191Y-152279700D01*
X145476191Y-152279700D02*
X145571429Y-152327319D01*
X145571429Y-152327319D02*
X145761905Y-152327319D01*
X145761905Y-152327319D02*
X145857143Y-152279700D01*
X145857143Y-152279700D02*
X145904762Y-152232080D01*
X145904762Y-152232080D02*
X145952381Y-152136842D01*
X145952381Y-152136842D02*
X145952381Y-151898747D01*
X145952381Y-151898747D02*
X145904762Y-151803509D01*
X145904762Y-151803509D02*
X145857143Y-151755890D01*
X145857143Y-151755890D02*
X145761905Y-151708271D01*
X145761905Y-151708271D02*
X145571429Y-151708271D01*
X145571429Y-151708271D02*
X145476191Y-151755890D01*
X145476191Y-151755890D02*
X145428572Y-151803509D01*
X145428572Y-151803509D02*
X145380953Y-151898747D01*
X146285715Y-151327319D02*
X146904762Y-151327319D01*
X146904762Y-151327319D02*
X146571429Y-151708271D01*
X146571429Y-151708271D02*
X146714286Y-151708271D01*
X146714286Y-151708271D02*
X146809524Y-151755890D01*
X146809524Y-151755890D02*
X146857143Y-151803509D01*
X146857143Y-151803509D02*
X146904762Y-151898747D01*
X146904762Y-151898747D02*
X146904762Y-152136842D01*
X146904762Y-152136842D02*
X146857143Y-152232080D01*
X146857143Y-152232080D02*
X146809524Y-152279700D01*
X146809524Y-152279700D02*
X146714286Y-152327319D01*
X146714286Y-152327319D02*
X146428572Y-152327319D01*
X146428572Y-152327319D02*
X146333334Y-152279700D01*
X146333334Y-152279700D02*
X146285715Y-152232080D01*
X147333334Y-152232080D02*
X147380953Y-152279700D01*
X147380953Y-152279700D02*
X147333334Y-152327319D01*
X147333334Y-152327319D02*
X147285715Y-152279700D01*
X147285715Y-152279700D02*
X147333334Y-152232080D01*
X147333334Y-152232080D02*
X147333334Y-152327319D01*
X148285714Y-151327319D02*
X147809524Y-151327319D01*
X147809524Y-151327319D02*
X147761905Y-151803509D01*
X147761905Y-151803509D02*
X147809524Y-151755890D01*
X147809524Y-151755890D02*
X147904762Y-151708271D01*
X147904762Y-151708271D02*
X148142857Y-151708271D01*
X148142857Y-151708271D02*
X148238095Y-151755890D01*
X148238095Y-151755890D02*
X148285714Y-151803509D01*
X148285714Y-151803509D02*
X148333333Y-151898747D01*
X148333333Y-151898747D02*
X148333333Y-152136842D01*
X148333333Y-152136842D02*
X148285714Y-152232080D01*
X148285714Y-152232080D02*
X148238095Y-152279700D01*
X148238095Y-152279700D02*
X148142857Y-152327319D01*
X148142857Y-152327319D02*
X147904762Y-152327319D01*
X147904762Y-152327319D02*
X147809524Y-152279700D01*
X147809524Y-152279700D02*
X147761905Y-152232080D01*
X148952381Y-151327319D02*
X149047619Y-151327319D01*
X149047619Y-151327319D02*
X149142857Y-151374938D01*
X149142857Y-151374938D02*
X149190476Y-151422557D01*
X149190476Y-151422557D02*
X149238095Y-151517795D01*
X149238095Y-151517795D02*
X149285714Y-151708271D01*
X149285714Y-151708271D02*
X149285714Y-151946366D01*
X149285714Y-151946366D02*
X149238095Y-152136842D01*
X149238095Y-152136842D02*
X149190476Y-152232080D01*
X149190476Y-152232080D02*
X149142857Y-152279700D01*
X149142857Y-152279700D02*
X149047619Y-152327319D01*
X149047619Y-152327319D02*
X148952381Y-152327319D01*
X148952381Y-152327319D02*
X148857143Y-152279700D01*
X148857143Y-152279700D02*
X148809524Y-152232080D01*
X148809524Y-152232080D02*
X148761905Y-152136842D01*
X148761905Y-152136842D02*
X148714286Y-151946366D01*
X148714286Y-151946366D02*
X148714286Y-151708271D01*
X148714286Y-151708271D02*
X148761905Y-151517795D01*
X148761905Y-151517795D02*
X148809524Y-151422557D01*
X148809524Y-151422557D02*
X148857143Y-151374938D01*
X148857143Y-151374938D02*
X148952381Y-151327319D01*
X149904762Y-151327319D02*
X150000000Y-151327319D01*
X150000000Y-151327319D02*
X150095238Y-151374938D01*
X150095238Y-151374938D02*
X150142857Y-151422557D01*
X150142857Y-151422557D02*
X150190476Y-151517795D01*
X150190476Y-151517795D02*
X150238095Y-151708271D01*
X150238095Y-151708271D02*
X150238095Y-151946366D01*
X150238095Y-151946366D02*
X150190476Y-152136842D01*
X150190476Y-152136842D02*
X150142857Y-152232080D01*
X150142857Y-152232080D02*
X150095238Y-152279700D01*
X150095238Y-152279700D02*
X150000000Y-152327319D01*
X150000000Y-152327319D02*
X149904762Y-152327319D01*
X149904762Y-152327319D02*
X149809524Y-152279700D01*
X149809524Y-152279700D02*
X149761905Y-152232080D01*
X149761905Y-152232080D02*
X149714286Y-152136842D01*
X149714286Y-152136842D02*
X149666667Y-151946366D01*
X149666667Y-151946366D02*
X149666667Y-151708271D01*
X149666667Y-151708271D02*
X149714286Y-151517795D01*
X149714286Y-151517795D02*
X149761905Y-151422557D01*
X149761905Y-151422557D02*
X149809524Y-151374938D01*
X149809524Y-151374938D02*
X149904762Y-151327319D01*
X150857143Y-151327319D02*
X150952381Y-151327319D01*
X150952381Y-151327319D02*
X151047619Y-151374938D01*
X151047619Y-151374938D02*
X151095238Y-151422557D01*
X151095238Y-151422557D02*
X151142857Y-151517795D01*
X151142857Y-151517795D02*
X151190476Y-151708271D01*
X151190476Y-151708271D02*
X151190476Y-151946366D01*
X151190476Y-151946366D02*
X151142857Y-152136842D01*
X151142857Y-152136842D02*
X151095238Y-152232080D01*
X151095238Y-152232080D02*
X151047619Y-152279700D01*
X151047619Y-152279700D02*
X150952381Y-152327319D01*
X150952381Y-152327319D02*
X150857143Y-152327319D01*
X150857143Y-152327319D02*
X150761905Y-152279700D01*
X150761905Y-152279700D02*
X150714286Y-152232080D01*
X150714286Y-152232080D02*
X150666667Y-152136842D01*
X150666667Y-152136842D02*
X150619048Y-151946366D01*
X150619048Y-151946366D02*
X150619048Y-151708271D01*
X150619048Y-151708271D02*
X150666667Y-151517795D01*
X150666667Y-151517795D02*
X150714286Y-151422557D01*
X150714286Y-151422557D02*
X150761905Y-151374938D01*
X150761905Y-151374938D02*
X150857143Y-151327319D01*
X152380953Y-152327319D02*
X152380953Y-151660652D01*
X152380953Y-151755890D02*
X152428572Y-151708271D01*
X152428572Y-151708271D02*
X152523810Y-151660652D01*
X152523810Y-151660652D02*
X152666667Y-151660652D01*
X152666667Y-151660652D02*
X152761905Y-151708271D01*
X152761905Y-151708271D02*
X152809524Y-151803509D01*
X152809524Y-151803509D02*
X152809524Y-152327319D01*
X152809524Y-151803509D02*
X152857143Y-151708271D01*
X152857143Y-151708271D02*
X152952381Y-151660652D01*
X152952381Y-151660652D02*
X153095238Y-151660652D01*
X153095238Y-151660652D02*
X153190477Y-151708271D01*
X153190477Y-151708271D02*
X153238096Y-151803509D01*
X153238096Y-151803509D02*
X153238096Y-152327319D01*
X153714286Y-152327319D02*
X153714286Y-151660652D01*
X153714286Y-151755890D02*
X153761905Y-151708271D01*
X153761905Y-151708271D02*
X153857143Y-151660652D01*
X153857143Y-151660652D02*
X154000000Y-151660652D01*
X154000000Y-151660652D02*
X154095238Y-151708271D01*
X154095238Y-151708271D02*
X154142857Y-151803509D01*
X154142857Y-151803509D02*
X154142857Y-152327319D01*
X154142857Y-151803509D02*
X154190476Y-151708271D01*
X154190476Y-151708271D02*
X154285714Y-151660652D01*
X154285714Y-151660652D02*
X154428571Y-151660652D01*
X154428571Y-151660652D02*
X154523810Y-151708271D01*
X154523810Y-151708271D02*
X154571429Y-151803509D01*
X154571429Y-151803509D02*
X154571429Y-152327319D01*
D11*
X118250000Y-122090000D02*
X118250000Y-153608920D01*
X181750000Y-122090000D02*
X181750000Y-153608920D01*
X118250000Y-153022500D02*
X181750000Y-153022500D01*
X118250000Y-153022500D02*
X181750000Y-153022500D01*
X118250000Y-153022500D02*
X119376504Y-152436079D01*
X118250000Y-153022500D02*
X119376504Y-153608921D01*
X181750000Y-153022500D02*
X180623496Y-153608921D01*
X181750000Y-153022500D02*
X180623496Y-152436079D01*
D10*
X89995890Y-129987380D02*
X89948271Y-130082618D01*
X89948271Y-130082618D02*
X89900652Y-130130237D01*
X89900652Y-130130237D02*
X89805414Y-130177856D01*
X89805414Y-130177856D02*
X89757795Y-130177856D01*
X89757795Y-130177856D02*
X89662557Y-130130237D01*
X89662557Y-130130237D02*
X89614938Y-130082618D01*
X89614938Y-130082618D02*
X89567319Y-129987380D01*
X89567319Y-129987380D02*
X89567319Y-129796904D01*
X89567319Y-129796904D02*
X89614938Y-129701666D01*
X89614938Y-129701666D02*
X89662557Y-129654047D01*
X89662557Y-129654047D02*
X89757795Y-129606428D01*
X89757795Y-129606428D02*
X89805414Y-129606428D01*
X89805414Y-129606428D02*
X89900652Y-129654047D01*
X89900652Y-129654047D02*
X89948271Y-129701666D01*
X89948271Y-129701666D02*
X89995890Y-129796904D01*
X89995890Y-129796904D02*
X89995890Y-129987380D01*
X89995890Y-129987380D02*
X90043509Y-130082618D01*
X90043509Y-130082618D02*
X90091128Y-130130237D01*
X90091128Y-130130237D02*
X90186366Y-130177856D01*
X90186366Y-130177856D02*
X90376842Y-130177856D01*
X90376842Y-130177856D02*
X90472080Y-130130237D01*
X90472080Y-130130237D02*
X90519700Y-130082618D01*
X90519700Y-130082618D02*
X90567319Y-129987380D01*
X90567319Y-129987380D02*
X90567319Y-129796904D01*
X90567319Y-129796904D02*
X90519700Y-129701666D01*
X90519700Y-129701666D02*
X90472080Y-129654047D01*
X90472080Y-129654047D02*
X90376842Y-129606428D01*
X90376842Y-129606428D02*
X90186366Y-129606428D01*
X90186366Y-129606428D02*
X90091128Y-129654047D01*
X90091128Y-129654047D02*
X90043509Y-129701666D01*
X90043509Y-129701666D02*
X89995890Y-129796904D01*
X90472080Y-129177856D02*
X90519700Y-129130237D01*
X90519700Y-129130237D02*
X90567319Y-129177856D01*
X90567319Y-129177856D02*
X90519700Y-129225475D01*
X90519700Y-129225475D02*
X90472080Y-129177856D01*
X90472080Y-129177856D02*
X90567319Y-129177856D01*
X89995890Y-128558809D02*
X89948271Y-128654047D01*
X89948271Y-128654047D02*
X89900652Y-128701666D01*
X89900652Y-128701666D02*
X89805414Y-128749285D01*
X89805414Y-128749285D02*
X89757795Y-128749285D01*
X89757795Y-128749285D02*
X89662557Y-128701666D01*
X89662557Y-128701666D02*
X89614938Y-128654047D01*
X89614938Y-128654047D02*
X89567319Y-128558809D01*
X89567319Y-128558809D02*
X89567319Y-128368333D01*
X89567319Y-128368333D02*
X89614938Y-128273095D01*
X89614938Y-128273095D02*
X89662557Y-128225476D01*
X89662557Y-128225476D02*
X89757795Y-128177857D01*
X89757795Y-128177857D02*
X89805414Y-128177857D01*
X89805414Y-128177857D02*
X89900652Y-128225476D01*
X89900652Y-128225476D02*
X89948271Y-128273095D01*
X89948271Y-128273095D02*
X89995890Y-128368333D01*
X89995890Y-128368333D02*
X89995890Y-128558809D01*
X89995890Y-128558809D02*
X90043509Y-128654047D01*
X90043509Y-128654047D02*
X90091128Y-128701666D01*
X90091128Y-128701666D02*
X90186366Y-128749285D01*
X90186366Y-128749285D02*
X90376842Y-128749285D01*
X90376842Y-128749285D02*
X90472080Y-128701666D01*
X90472080Y-128701666D02*
X90519700Y-128654047D01*
X90519700Y-128654047D02*
X90567319Y-128558809D01*
X90567319Y-128558809D02*
X90567319Y-128368333D01*
X90567319Y-128368333D02*
X90519700Y-128273095D01*
X90519700Y-128273095D02*
X90472080Y-128225476D01*
X90472080Y-128225476D02*
X90376842Y-128177857D01*
X90376842Y-128177857D02*
X90186366Y-128177857D01*
X90186366Y-128177857D02*
X90091128Y-128225476D01*
X90091128Y-128225476D02*
X90043509Y-128273095D01*
X90043509Y-128273095D02*
X89995890Y-128368333D01*
X90567319Y-127701666D02*
X90567319Y-127511190D01*
X90567319Y-127511190D02*
X90519700Y-127415952D01*
X90519700Y-127415952D02*
X90472080Y-127368333D01*
X90472080Y-127368333D02*
X90329223Y-127273095D01*
X90329223Y-127273095D02*
X90138747Y-127225476D01*
X90138747Y-127225476D02*
X89757795Y-127225476D01*
X89757795Y-127225476D02*
X89662557Y-127273095D01*
X89662557Y-127273095D02*
X89614938Y-127320714D01*
X89614938Y-127320714D02*
X89567319Y-127415952D01*
X89567319Y-127415952D02*
X89567319Y-127606428D01*
X89567319Y-127606428D02*
X89614938Y-127701666D01*
X89614938Y-127701666D02*
X89662557Y-127749285D01*
X89662557Y-127749285D02*
X89757795Y-127796904D01*
X89757795Y-127796904D02*
X89995890Y-127796904D01*
X89995890Y-127796904D02*
X90091128Y-127749285D01*
X90091128Y-127749285D02*
X90138747Y-127701666D01*
X90138747Y-127701666D02*
X90186366Y-127606428D01*
X90186366Y-127606428D02*
X90186366Y-127415952D01*
X90186366Y-127415952D02*
X90138747Y-127320714D01*
X90138747Y-127320714D02*
X90091128Y-127273095D01*
X90091128Y-127273095D02*
X89995890Y-127225476D01*
X89567319Y-126606428D02*
X89567319Y-126511190D01*
X89567319Y-126511190D02*
X89614938Y-126415952D01*
X89614938Y-126415952D02*
X89662557Y-126368333D01*
X89662557Y-126368333D02*
X89757795Y-126320714D01*
X89757795Y-126320714D02*
X89948271Y-126273095D01*
X89948271Y-126273095D02*
X90186366Y-126273095D01*
X90186366Y-126273095D02*
X90376842Y-126320714D01*
X90376842Y-126320714D02*
X90472080Y-126368333D01*
X90472080Y-126368333D02*
X90519700Y-126415952D01*
X90519700Y-126415952D02*
X90567319Y-126511190D01*
X90567319Y-126511190D02*
X90567319Y-126606428D01*
X90567319Y-126606428D02*
X90519700Y-126701666D01*
X90519700Y-126701666D02*
X90472080Y-126749285D01*
X90472080Y-126749285D02*
X90376842Y-126796904D01*
X90376842Y-126796904D02*
X90186366Y-126844523D01*
X90186366Y-126844523D02*
X89948271Y-126844523D01*
X89948271Y-126844523D02*
X89757795Y-126796904D01*
X89757795Y-126796904D02*
X89662557Y-126749285D01*
X89662557Y-126749285D02*
X89614938Y-126701666D01*
X89614938Y-126701666D02*
X89567319Y-126606428D01*
X89567319Y-125654047D02*
X89567319Y-125558809D01*
X89567319Y-125558809D02*
X89614938Y-125463571D01*
X89614938Y-125463571D02*
X89662557Y-125415952D01*
X89662557Y-125415952D02*
X89757795Y-125368333D01*
X89757795Y-125368333D02*
X89948271Y-125320714D01*
X89948271Y-125320714D02*
X90186366Y-125320714D01*
X90186366Y-125320714D02*
X90376842Y-125368333D01*
X90376842Y-125368333D02*
X90472080Y-125415952D01*
X90472080Y-125415952D02*
X90519700Y-125463571D01*
X90519700Y-125463571D02*
X90567319Y-125558809D01*
X90567319Y-125558809D02*
X90567319Y-125654047D01*
X90567319Y-125654047D02*
X90519700Y-125749285D01*
X90519700Y-125749285D02*
X90472080Y-125796904D01*
X90472080Y-125796904D02*
X90376842Y-125844523D01*
X90376842Y-125844523D02*
X90186366Y-125892142D01*
X90186366Y-125892142D02*
X89948271Y-125892142D01*
X89948271Y-125892142D02*
X89757795Y-125844523D01*
X89757795Y-125844523D02*
X89662557Y-125796904D01*
X89662557Y-125796904D02*
X89614938Y-125749285D01*
X89614938Y-125749285D02*
X89567319Y-125654047D01*
X90567319Y-124130237D02*
X89900652Y-124130237D01*
X89995890Y-124130237D02*
X89948271Y-124082618D01*
X89948271Y-124082618D02*
X89900652Y-123987380D01*
X89900652Y-123987380D02*
X89900652Y-123844523D01*
X89900652Y-123844523D02*
X89948271Y-123749285D01*
X89948271Y-123749285D02*
X90043509Y-123701666D01*
X90043509Y-123701666D02*
X90567319Y-123701666D01*
X90043509Y-123701666D02*
X89948271Y-123654047D01*
X89948271Y-123654047D02*
X89900652Y-123558809D01*
X89900652Y-123558809D02*
X89900652Y-123415952D01*
X89900652Y-123415952D02*
X89948271Y-123320713D01*
X89948271Y-123320713D02*
X90043509Y-123273094D01*
X90043509Y-123273094D02*
X90567319Y-123273094D01*
X90567319Y-122796904D02*
X89900652Y-122796904D01*
X89995890Y-122796904D02*
X89948271Y-122749285D01*
X89948271Y-122749285D02*
X89900652Y-122654047D01*
X89900652Y-122654047D02*
X89900652Y-122511190D01*
X89900652Y-122511190D02*
X89948271Y-122415952D01*
X89948271Y-122415952D02*
X90043509Y-122368333D01*
X90043509Y-122368333D02*
X90567319Y-122368333D01*
X90043509Y-122368333D02*
X89948271Y-122320714D01*
X89948271Y-122320714D02*
X89900652Y-122225476D01*
X89900652Y-122225476D02*
X89900652Y-122082619D01*
X89900652Y-122082619D02*
X89948271Y-121987380D01*
X89948271Y-121987380D02*
X90043509Y-121939761D01*
X90043509Y-121939761D02*
X90567319Y-121939761D01*
D11*
X117750000Y-121590000D02*
X90676080Y-121590000D01*
X117750000Y-130480000D02*
X90676080Y-130480000D01*
X91262500Y-121590000D02*
X91262500Y-130480000D01*
X91262500Y-121590000D02*
X91262500Y-130480000D01*
X91262500Y-121590000D02*
X91848921Y-122716504D01*
X91262500Y-121590000D02*
X90676079Y-122716504D01*
X91262500Y-130480000D02*
X90676079Y-129353496D01*
X91262500Y-130480000D02*
X91848921Y-129353496D01*
D10*
G04 #@! TO.C,H4*
X198920000Y-130480000D02*
G75*
G02*
X192520000Y-130480000I-3200000J0D01*
G01*
X192520000Y-130480000D02*
G75*
G02*
X198920000Y-130480000I3200000J0D01*
G01*
G04 #@! TO.C,H1*
X107480000Y-69520000D02*
G75*
G02*
X101080000Y-69520000I-3200000J0D01*
G01*
X101080000Y-69520000D02*
G75*
G02*
X107480000Y-69520000I3200000J0D01*
G01*
G04 #@! TO.C,H2*
X198920000Y-69520000D02*
G75*
G02*
X192520000Y-69520000I-3200000J0D01*
G01*
X192520000Y-69520000D02*
G75*
G02*
X198920000Y-69520000I3200000J0D01*
G01*
G04 #@! TO.C,H3*
X107480000Y-130480000D02*
G75*
G02*
X101080000Y-130480000I-3200000J0D01*
G01*
X101080000Y-130480000D02*
G75*
G02*
X107480000Y-130480000I3200000J0D01*
G01*
G04 #@! TD*
M02*
