M48
; DRILL file {KiCad 8.0.0} date 2024-07-21T16:15:32-0300
; FORMAT={-:-/ absolute / metric / decimal}
; #@! TF.CreationDate,2024-07-21T16:15:32-03:00
; #@! TF.GenerationSoftware,Kicad,Pcbnew,8.0.0
; #@! TF.FileFunction,Plated,1,4,PTH
FMAT,2
METRIC
; #@! TA.AperFunction,Plated,PTH,ViaDrill
T1C0.300
; #@! TA.AperFunction,Plated,PTH,ComponentDrill
T2C0.500
; #@! TA.AperFunction,Plated,PTH,ComponentDrill
T3C0.600
; #@! TA.AperFunction,Plated,PTH,ComponentDrill
T4C1.000
%
G90
G05
T1
X101.74Y-69.52
X101.74Y-71.933
X101.74Y-74.6
X101.74Y-77.14
X101.74Y-79.68
X101.74Y-82.093
X101.74Y-84.76
X101.74Y-87.173
X101.74Y-89.84
X101.74Y-92.38
X101.74Y-94.92
X101.74Y-97.46
X101.74Y-100.0
X101.74Y-102.54
X101.74Y-105.08
X101.74Y-107.62
X101.74Y-112.7
X101.74Y-115.24
X101.74Y-117.78
X101.74Y-120.32
X101.74Y-122.86
X101.74Y-127.94
X101.74Y-130.48
X104.28Y-66.98
X104.28Y-133.02
X106.82Y-66.98
X106.82Y-133.02
X107.455Y-116.51
X107.455Y-120.701
X107.455Y-122.479
X107.455Y-126.67
X109.106Y-97.714
X109.106Y-100.0
X109.106Y-102.286
X109.36Y-133.02
X110.249Y-118.669
X110.249Y-124.511
X111.9Y-66.98
X111.9Y-97.714
X111.9Y-102.286
X111.9Y-133.02
X112.408Y-96.063
X112.408Y-103.937
X112.535Y-123.495
X112.916Y-96.698
X112.916Y-103.302
X112.916Y-114.859
X113.17Y-99.492
X113.17Y-100.546
X113.17Y-110.795
X113.805Y-115.748
X113.805Y-121.971
X113.805Y-123.241
X114.44Y-66.98
X114.44Y-91.872
X114.44Y-108.128
X114.757Y-119.685
X114.757Y-125.4
X114.797Y-118.692
X114.821Y-126.289
X115.075Y-117.78
X115.329Y-129.591
X115.71Y-92.126
X115.71Y-95.936
X115.71Y-104.064
X115.71Y-107.874
X115.71Y-126.67
X116.345Y-120.701
X116.345Y-122.479
X116.98Y-66.98
X116.98Y-90.983
X116.98Y-91.872
X116.98Y-108.128
X118.25Y-99.492
X118.25Y-100.546
X118.25Y-133.02
X118.504Y-96.698
X118.504Y-103.302
X119.012Y-96.063
X119.012Y-103.937
X119.139Y-124.511
X119.266Y-97.742
X119.266Y-102.257
X119.52Y-66.98
X121.171Y-129.591
X121.425Y-97.742
X121.425Y-102.257
X121.552Y-118.542
X121.552Y-119.685
X121.552Y-126.924
X121.679Y-121.59
X121.703Y-124.487
X121.742Y-123.495
X121.742Y-125.4
X121.806Y-95.174
X121.806Y-96.19
X121.806Y-103.81
X121.806Y-104.826
X121.806Y-116.764
X121.829Y-120.677
X122.314Y-75.235
X122.441Y-80.442
X122.441Y-82.601
X122.695Y-127.432
X122.822Y-99.492
X122.822Y-100.508
X123.203Y-75.235
X123.33Y-88.164
X123.33Y-90.831
X123.33Y-95.174
X123.33Y-96.19
X123.33Y-103.81
X123.33Y-104.826
X123.33Y-110.795
X123.838Y-128.194
X123.965Y-120.447
X123.965Y-121.59
X124.282Y-99.047
X124.282Y-100.953
X124.346Y-88.432
X124.346Y-90.831
X124.6Y-66.98
X124.6Y-69.52
X124.6Y-130.48
X124.6Y-133.02
X124.854Y-77.115
X124.854Y-78.385
X124.854Y-79.655
X125.616Y-90.831
X125.87Y-77.115
X125.87Y-78.385
X125.87Y-79.655
X125.87Y-99.492
X125.87Y-100.508
X126.124Y-102.032
X126.124Y-103.048
X126.124Y-116.51
X126.184Y-119.147
X126.251Y-114.859
X126.251Y-124.765
X126.632Y-90.831
X126.886Y-77.115
X126.886Y-78.385
X126.886Y-79.655
X126.886Y-97.714
X127.14Y-66.98
X127.14Y-69.52
X127.14Y-130.48
X127.14Y-133.02
X127.775Y-124.765
X127.902Y-79.045
X127.902Y-102.794
X127.902Y-103.81
X128.41Y-100.953
X129.045Y-120.701
X129.045Y-122.479
X129.299Y-77.902
X129.426Y-72.06
X129.68Y-66.98
X129.68Y-69.52
X129.68Y-130.48
X129.68Y-133.02
X130.95Y-99.238
X130.95Y-110.541
X131.331Y-77.648
X131.458Y-76.695
X132.093Y-74.346
X132.22Y-66.98
X132.22Y-69.52
X132.22Y-117.145
X132.22Y-130.48
X132.22Y-133.02
X132.601Y-105.334
X132.601Y-106.35
X132.855Y-85.903
X132.982Y-100.762
X133.49Y-72.06
X133.49Y-82.22
X133.49Y-83.807
X133.519Y-80.632
X133.744Y-108.128
X134.506Y-75.489
X134.506Y-82.347
X134.506Y-83.998
X134.633Y-102.794
X134.76Y-66.98
X134.76Y-69.52
X134.76Y-130.48
X134.76Y-133.02
X135.014Y-106.858
X135.268Y-94.666
X136.03Y-74.346
X136.411Y-89.967
X136.538Y-96.698
X136.665Y-114.478
X136.942Y-85.672
X137.3Y-66.98
X137.3Y-69.52
X137.3Y-70.79
X137.3Y-72.314
X137.3Y-77.775
X137.3Y-79.998
X137.3Y-130.48
X137.3Y-133.02
X138.062Y-106.858
X138.189Y-89.967
X138.443Y-101.905
X138.57Y-78.727
X138.57Y-95.936
X138.57Y-103.429
X138.887Y-93.65
X139.332Y-108.001
X139.459Y-89.967
X139.84Y-66.98
X139.84Y-69.52
X139.84Y-83.49
X139.84Y-85.014
X139.84Y-130.48
X139.84Y-133.02
X140.856Y-96.952
X140.856Y-114.478
X141.11Y-107.493
X141.364Y-110.414
X141.427Y-81.712
X141.491Y-89.967
X141.745Y-84.252
X141.745Y-115.557
X141.852Y-100.234
X141.872Y-74.854
X141.872Y-76.251
X141.872Y-88.316
X141.872Y-102.921
X142.062Y-82.498
X142.062Y-117.78
X142.126Y-101.143
X142.253Y-89.078
X142.38Y-66.98
X142.38Y-71.552
X142.38Y-92.126
X142.38Y-95.873
X142.38Y-130.48
X142.38Y-133.02
X142.415Y-94.539
X142.697Y-119.685
X142.888Y-101.524
X142.951Y-99.936
X143.65Y-121.272
X144.158Y-105.08
X144.285Y-110.414
X144.285Y-114.351
X144.285Y-117.78
X144.285Y-119.685
X144.92Y-66.98
X144.92Y-71.552
X144.92Y-73.711
X144.92Y-130.48
X144.92Y-133.02
X145.428Y-105.08
X145.428Y-108.636
X145.682Y-100.0
X145.682Y-102.286
X145.936Y-90.348
X145.936Y-95.682
X146.19Y-92.888
X146.291Y-99.045
X146.317Y-101.27
X146.444Y-108.636
X146.689Y-104.315
X146.698Y-73.965
X146.952Y-82.22
X146.952Y-95.682
X146.952Y-110.414
X146.952Y-114.351
X146.952Y-117.78
X147.46Y-66.98
X147.46Y-69.52
X147.46Y-96.952
X147.46Y-101.27
X147.46Y-120.002
X147.46Y-130.48
X147.46Y-133.02
X147.587Y-104.318
X147.778Y-122.225
X147.841Y-73.838
X147.968Y-82.22
X148.095Y-124.447
X149.047Y-92.697
X149.106Y-95.596
X149.196Y-90.953
X149.365Y-85.268
X149.619Y-83.49
X149.746Y-89.713
X149.85Y-111.747
X149.85Y-113.017
X150.0Y-66.98
X150.0Y-69.52
X150.0Y-70.79
X150.0Y-81.077
X150.0Y-82.22
X150.0Y-101.524
X150.0Y-114.478
X150.0Y-118.097
X150.0Y-120.002
X150.0Y-124.384
X150.0Y-130.48
X150.0Y-133.02
X150.127Y-71.933
X150.762Y-113.652
X150.952Y-110.636
X151.016Y-95.809
X151.016Y-96.952
X151.651Y-92.888
X151.929Y-109.811
X152.54Y-66.98
X152.54Y-69.52
X152.54Y-71.806
X152.54Y-95.873
X152.54Y-120.32
X152.54Y-130.48
X152.54Y-133.02
X152.909Y-92.749
X153.175Y-104.318
X153.21Y-96.825
X154.064Y-103.302
X154.064Y-104.318
X154.43Y-96.575
X154.445Y-69.52
X154.445Y-81.585
X154.572Y-85.776
X154.826Y-104.826
X155.08Y-66.98
X155.08Y-84.76
X155.08Y-93.904
X155.08Y-112.192
X155.08Y-119.05
X155.08Y-130.48
X155.08Y-133.02
X155.865Y-92.403
X156.35Y-88.062
X156.35Y-108.382
X156.35Y-109.207
X156.826Y-110.954
X157.239Y-76.124
X157.239Y-78.029
X157.366Y-84.76
X157.62Y-66.98
X157.62Y-69.52
X157.62Y-71.806
X157.62Y-88.951
X157.62Y-117.78
X157.62Y-130.48
X157.62Y-133.02
X158.255Y-92.634
X158.509Y-87.681
X158.636Y-95.428
X158.636Y-96.444
X159.525Y-88.189
X159.525Y-91.364
X159.906Y-96.952
X159.906Y-111.303
X160.16Y-66.98
X160.16Y-69.52
X160.16Y-71.679
X160.16Y-77.14
X160.16Y-117.78
X160.16Y-130.48
X160.16Y-133.02
X160.795Y-87.681
X160.795Y-111.176
X161.049Y-89.967
X161.557Y-76.251
X161.557Y-77.902
X161.684Y-97.968
X162.065Y-86.919
X162.065Y-88.951
X162.7Y-66.98
X162.7Y-73.838
X162.7Y-130.48
X162.7Y-133.02
X162.954Y-102.286
X162.954Y-103.175
X162.954Y-104.064
X162.954Y-104.953
X162.954Y-105.969
X162.954Y-106.858
X162.954Y-107.874
X162.954Y-108.763
X162.954Y-109.652
X162.954Y-110.541
X162.954Y-111.43
X163.081Y-118.161
X163.462Y-85.649
X163.97Y-69.774
X164.097Y-94.158
X164.224Y-73.838
X164.224Y-78.156
X165.24Y-66.98
X165.24Y-94.285
X165.24Y-130.48
X165.24Y-133.02
X165.494Y-102.413
X165.494Y-103.34
X165.748Y-69.52
X165.748Y-73.838
X165.748Y-78.156
X165.748Y-113.462
X166.129Y-97.206
X166.256Y-111.303
X166.51Y-104.127
X166.764Y-91.872
X167.145Y-106.032
X167.272Y-69.52
X167.272Y-73.838
X167.272Y-78.156
X167.526Y-102.794
X167.78Y-66.98
X167.78Y-94.793
X167.78Y-133.02
X167.815Y-112.827
X167.856Y-130.479
X168.034Y-93.396
X168.034Y-101.524
X168.034Y-111.684
X168.097Y-97.777
X168.415Y-123.495
X168.415Y-124.384
X168.796Y-78.156
X168.923Y-92.253
X169.05Y-73.838
X169.05Y-103.937
X169.65Y-108.382
X169.812Y-111.303
X170.002Y-116.51
X170.32Y-66.98
X170.32Y-69.52
X170.32Y-130.48
X170.32Y-133.02
X170.56Y-75.312
X170.574Y-106.096
X170.574Y-112.192
X170.701Y-80.442
X170.701Y-82.728
X170.955Y-103.683
X171.209Y-102.54
X171.463Y-75.362
X171.59Y-106.604
X171.59Y-108.382
X171.59Y-111.303
X172.606Y-112.192
X172.86Y-66.98
X172.86Y-69.52
X172.86Y-130.48
X172.86Y-133.02
X173.114Y-77.115
X173.114Y-78.385
X173.114Y-79.655
X173.368Y-102.54
X173.368Y-105.207
X173.495Y-108.382
X173.495Y-111.303
X173.749Y-118.669
X173.749Y-124.511
X174.13Y-77.115
X174.13Y-78.385
X174.13Y-79.655
X174.13Y-100.0
X174.638Y-116.764
X174.765Y-105.207
X174.892Y-122.479
X175.146Y-77.115
X175.146Y-78.385
X175.146Y-79.655
X175.273Y-82.728
X175.4Y-66.98
X175.4Y-69.52
X175.4Y-130.48
X175.4Y-133.02
X176.416Y-82.982
X176.416Y-119.685
X176.797Y-115.748
X177.305Y-111.43
X177.305Y-119.685
X177.662Y-104.977
X177.686Y-104.064
X177.94Y-133.02
X178.194Y-83.109
X178.194Y-83.998
X178.194Y-84.887
X178.194Y-119.685
X178.448Y-110.414
X178.575Y-100.0
X178.829Y-108.382
X178.956Y-76.886
X179.337Y-111.303
X179.464Y-69.774
X179.464Y-73.584
X179.845Y-72.568
X179.852Y-109.01
X180.48Y-66.98
X180.48Y-107.874
X180.48Y-115.748
X180.48Y-133.02
X180.734Y-78.41
X180.734Y-80.442
X181.115Y-106.096
X181.242Y-72.441
X181.369Y-107.874
X181.369Y-111.176
X181.369Y-115.748
X182.639Y-118.669
X182.639Y-124.511
X182.766Y-104.826
X183.02Y-66.98
X183.02Y-89.84
X183.02Y-133.02
X183.782Y-104.826
X184.62Y-96.19
X185.179Y-113.335
X185.56Y-66.98
X185.56Y-81.712
X185.56Y-83.744
X185.56Y-84.76
X185.56Y-133.02
X186.068Y-80.95
X186.068Y-82.728
X186.068Y-102.794
X186.068Y-118.288
X186.83Y-95.58
X186.83Y-96.647
X187.211Y-99.746
X187.592Y-101.27
X187.592Y-104.318
X187.592Y-119.558
X188.1Y-66.98
X188.1Y-133.02
X188.227Y-99.746
X188.227Y-111.811
X188.227Y-112.827
X189.063Y-96.19
X189.116Y-102.794
X189.116Y-118.288
X189.37Y-93.269
X189.37Y-94.285
X189.624Y-98.73
X190.64Y-133.02
X192.164Y-92.99
X192.164Y-93.79
X192.164Y-98.603
X192.164Y-99.403
X193.18Y-66.98
X193.18Y-133.02
X195.212Y-102.286
X195.212Y-118.034
X195.72Y-66.98
X195.72Y-133.02
X196.736Y-101.016
X197.244Y-103.556
X197.244Y-116.764
X197.244Y-119.304
X198.26Y-69.52
X198.26Y-72.06
X198.26Y-74.6
X198.26Y-77.14
X198.26Y-79.68
X198.26Y-82.22
X198.26Y-84.76
X198.26Y-87.3
X198.26Y-89.84
X198.26Y-94.92
X198.26Y-97.46
X198.26Y-105.08
X198.26Y-110.16
X198.26Y-112.7
X198.26Y-120.32
X198.26Y-122.86
X198.26Y-127.94
X198.26Y-130.48
T2
X148.984Y-98.349
X148.984Y-100.508
X151.016Y-98.349
X151.016Y-100.508
X152.54Y-115.24
X162.7Y-90.602
X162.7Y-92.888
T4
X103.01Y-94.92
X103.01Y-97.46
X103.01Y-100.0
X103.01Y-102.54
X103.01Y-105.08
X103.01Y-110.16
X103.01Y-125.4
X105.55Y-94.92
X105.55Y-97.46
X105.55Y-100.0
X105.55Y-102.54
X105.55Y-105.08
X109.36Y-68.25
X111.9Y-74.64
X111.9Y-79.64
X122.06Y-68.25
X125.87Y-68.25
X125.87Y-131.75
X128.41Y-68.25
X128.41Y-131.75
X130.95Y-68.25
X130.95Y-102.54
X130.95Y-131.75
X133.49Y-68.25
X133.49Y-131.75
X136.03Y-68.25
X136.03Y-131.75
X137.3Y-109.049
X138.57Y-68.25
X138.57Y-131.75
X141.11Y-68.25
X141.11Y-131.75
X143.65Y-68.25
X143.65Y-131.75
X146.19Y-68.25
X146.19Y-87.3
X146.19Y-131.75
X148.73Y-68.25
X148.73Y-87.3
X148.73Y-131.75
X151.27Y-68.25
X151.27Y-87.3
X151.27Y-131.75
X153.81Y-68.25
X153.81Y-87.3
X153.81Y-131.75
X155.715Y-113.97
X156.35Y-68.25
X156.35Y-131.75
X158.89Y-68.25
X158.89Y-131.75
X161.43Y-68.25
X161.43Y-131.75
X163.97Y-68.25
X163.97Y-131.75
X166.51Y-68.25
X166.51Y-131.75
X169.05Y-68.25
X169.05Y-131.75
X171.59Y-68.25
X171.59Y-131.75
X174.13Y-68.25
X174.13Y-131.75
X177.94Y-68.25
X180.48Y-86.03
X183.02Y-100.0
X190.64Y-68.25
X190.64Y-73.33
X190.64Y-88.697
X196.99Y-125.4
T3
G00X193.315Y-91.87
M15
G01X194.415Y-91.87
M16
G05
G00X193.315Y-100.51
M15
G01X194.415Y-100.51
M16
G05
G00X197.665Y-91.87
M15
G01X198.465Y-91.87
M16
G05
G00X197.665Y-100.51
M15
G01X198.465Y-100.51
M16
G05
T4
G00X187.74Y-82.9
M15
G01X187.74Y-80.3
M16
G05
G00X189.54Y-76.8
M15
G01X191.74Y-76.8
M16
G05
G00X194.04Y-82.7
M15
G01X194.04Y-80.5
M16
G05
M30
