G04 #@! TF.GenerationSoftware,KiCad,Pcbnew,8.0.0*
G04 #@! TF.CreationDate,2024-07-21T16:15:31-03:00*
G04 #@! TF.ProjectId,STM32XP,53544d33-3258-4502-9e6b-696361645f70,00*
G04 #@! TF.SameCoordinates,Original*
G04 #@! TF.FileFunction,Soldermask,Bot*
G04 #@! TF.FilePolarity,Negative*
%FSLAX46Y46*%
G04 Gerber Fmt 4.6, Leading zero omitted, Abs format (unit mm)*
G04 Created by KiCad (PCBNEW 8.0.0) date 2024-07-21 16:15:31*
%MOMM*%
%LPD*%
G01*
G04 APERTURE LIST*
%ADD10C,1.000000*%
%ADD11C,2.000000*%
%ADD12C,0.650000*%
%ADD13O,2.100000X1.000000*%
%ADD14O,1.800000X1.000000*%
%ADD15R,2.000000X4.600000*%
%ADD16O,2.000000X4.200000*%
%ADD17O,4.200000X2.000000*%
%ADD18C,3.200000*%
%ADD19R,1.700000X1.700000*%
%ADD20O,1.700000X1.700000*%
%ADD21C,1.700000*%
%ADD22R,2.600000X3.600000*%
G04 APERTURE END LIST*
D10*
G04 #@! TO.C,TP16*
X162700000Y-92888000D03*
G04 #@! TD*
G04 #@! TO.C,TP21*
X152540000Y-115240000D03*
G04 #@! TD*
G04 #@! TO.C,TP18*
X148984000Y-98349000D03*
G04 #@! TD*
G04 #@! TO.C,TP19*
X151016000Y-100508000D03*
G04 #@! TD*
G04 #@! TO.C,TP20*
X148984000Y-100508000D03*
G04 #@! TD*
G04 #@! TO.C,TP17*
X151016000Y-98349000D03*
G04 #@! TD*
G04 #@! TO.C,TP15*
X162700000Y-90602000D03*
G04 #@! TD*
D11*
G04 #@! TO.C,TP10*
X137300000Y-109048750D03*
G04 #@! TD*
G04 #@! TO.C,TP8*
X183020000Y-100000000D03*
G04 #@! TD*
D12*
G04 #@! TO.C,J4*
X194385000Y-99080000D03*
X194385000Y-93300000D03*
D13*
X193865000Y-100510000D03*
D14*
X198065000Y-100510000D03*
D13*
X193865000Y-91870000D03*
D14*
X198065000Y-91870000D03*
G04 #@! TD*
D11*
G04 #@! TO.C,TP2*
X122060000Y-68250000D03*
G04 #@! TD*
D15*
G04 #@! TO.C,J2*
X187740000Y-81600000D03*
D16*
X194040000Y-81600000D03*
D17*
X190640000Y-76800000D03*
G04 #@! TD*
D18*
G04 #@! TO.C,H4*
X195720000Y-130480000D03*
G04 #@! TD*
G04 #@! TO.C,H1*
X104280000Y-69520000D03*
G04 #@! TD*
D19*
G04 #@! TO.C,J1*
X174130000Y-68250000D03*
D20*
X171590000Y-68250000D03*
X169050000Y-68250000D03*
X166510000Y-68250000D03*
X163970000Y-68250000D03*
X161430000Y-68250000D03*
X158890000Y-68250000D03*
X156350000Y-68250000D03*
X153810000Y-68250000D03*
X151270000Y-68250000D03*
X148730000Y-68250000D03*
X146190000Y-68250000D03*
X143650000Y-68250000D03*
X141110000Y-68250000D03*
X138570000Y-68250000D03*
X136030000Y-68250000D03*
X133490000Y-68250000D03*
X130950000Y-68250000D03*
X128410000Y-68250000D03*
X125870000Y-68250000D03*
G04 #@! TD*
D11*
G04 #@! TO.C,TP3*
X177940000Y-68250000D03*
G04 #@! TD*
G04 #@! TO.C,TP14*
X196990000Y-125400000D03*
G04 #@! TD*
G04 #@! TO.C,TP9*
X130950000Y-102540000D03*
G04 #@! TD*
G04 #@! TO.C,TP5*
X190640000Y-73330000D03*
G04 #@! TD*
G04 #@! TO.C,TP4*
X190640000Y-68250000D03*
G04 #@! TD*
D18*
G04 #@! TO.C,H2*
X195720000Y-69520000D03*
G04 #@! TD*
D11*
G04 #@! TO.C,TP6*
X180480000Y-86030000D03*
G04 #@! TD*
D19*
G04 #@! TO.C,J6*
X125870000Y-131750000D03*
D20*
X128410000Y-131750000D03*
X130950000Y-131750000D03*
X133490000Y-131750000D03*
X136030000Y-131750000D03*
X138570000Y-131750000D03*
X141110000Y-131750000D03*
X143650000Y-131750000D03*
X146190000Y-131750000D03*
X148730000Y-131750000D03*
X151270000Y-131750000D03*
X153810000Y-131750000D03*
X156350000Y-131750000D03*
X158890000Y-131750000D03*
X161430000Y-131750000D03*
X163970000Y-131750000D03*
X166510000Y-131750000D03*
X169050000Y-131750000D03*
X171590000Y-131750000D03*
X174130000Y-131750000D03*
G04 #@! TD*
D11*
G04 #@! TO.C,TP12*
X155715000Y-113970000D03*
G04 #@! TD*
G04 #@! TO.C,TP1*
X109360000Y-68250000D03*
G04 #@! TD*
G04 #@! TO.C,TP7*
X190640000Y-88697000D03*
G04 #@! TD*
D21*
G04 #@! TO.C,U4*
X153810000Y-87300000D03*
X151270000Y-87300000D03*
X148730000Y-87300000D03*
X146190000Y-87300000D03*
G04 #@! TD*
D18*
G04 #@! TO.C,H3*
X104280000Y-130480000D03*
G04 #@! TD*
D11*
G04 #@! TO.C,TP13*
X103010000Y-125400000D03*
G04 #@! TD*
D19*
G04 #@! TO.C,J3*
X105550000Y-94920000D03*
D20*
X103010000Y-94920000D03*
X105550000Y-97460000D03*
X103010000Y-97460000D03*
X105550000Y-100000000D03*
X103010000Y-100000000D03*
X105550000Y-102540000D03*
X103010000Y-102540000D03*
X105550000Y-105080000D03*
X103010000Y-105080000D03*
G04 #@! TD*
D11*
G04 #@! TO.C,TP11*
X103010000Y-110160000D03*
G04 #@! TD*
D22*
G04 #@! TO.C,BT1*
X135350000Y-100000000D03*
X164650000Y-100000000D03*
G04 #@! TD*
D19*
G04 #@! TO.C,LS1*
X111900000Y-74640000D03*
D21*
X111900000Y-79640000D03*
G04 #@! TD*
M02*
